G04 #@! TF.GenerationSoftware,KiCad,Pcbnew,(5.1.7)-1*
G04 #@! TF.CreationDate,2021-06-29T10:57:19+02:00*
G04 #@! TF.ProjectId,TwomesSensor,54776f6d-6573-4536-956e-736f722e6b69,rev?*
G04 #@! TF.SameCoordinates,Original*
G04 #@! TF.FileFunction,Paste,Top*
G04 #@! TF.FilePolarity,Positive*
%FSLAX46Y46*%
G04 Gerber Fmt 4.6, Leading zero omitted, Abs format (unit mm)*
G04 Created by KiCad (PCBNEW (5.1.7)-1) date 2021-06-29 10:57:19*
%MOMM*%
%LPD*%
G01*
G04 APERTURE LIST*
%ADD10R,2.000000X0.900000*%
%ADD11R,0.900000X2.000000*%
%ADD12R,5.000000X5.000000*%
%ADD13R,1.300000X1.550000*%
%ADD14R,1.550000X1.300000*%
%ADD15R,0.800000X0.900000*%
%ADD16R,0.900000X0.800000*%
%ADD17R,1.200000X2.000000*%
G04 APERTURE END LIST*
G36*
G01*
X58250000Y-40175000D02*
X57750000Y-40175000D01*
G75*
G02*
X57525000Y-39950000I0J225000D01*
G01*
X57525000Y-39500000D01*
G75*
G02*
X57750000Y-39275000I225000J0D01*
G01*
X58250000Y-39275000D01*
G75*
G02*
X58475000Y-39500000I0J-225000D01*
G01*
X58475000Y-39950000D01*
G75*
G02*
X58250000Y-40175000I-225000J0D01*
G01*
G37*
G36*
G01*
X58250000Y-41725000D02*
X57750000Y-41725000D01*
G75*
G02*
X57525000Y-41500000I0J225000D01*
G01*
X57525000Y-41050000D01*
G75*
G02*
X57750000Y-40825000I225000J0D01*
G01*
X58250000Y-40825000D01*
G75*
G02*
X58475000Y-41050000I0J-225000D01*
G01*
X58475000Y-41500000D01*
G75*
G02*
X58250000Y-41725000I-225000J0D01*
G01*
G37*
G36*
G01*
X71500000Y-101045000D02*
X71500000Y-100745000D01*
G75*
G02*
X71650000Y-100595000I150000J0D01*
G01*
X73300000Y-100595000D01*
G75*
G02*
X73450000Y-100745000I0J-150000D01*
G01*
X73450000Y-101045000D01*
G75*
G02*
X73300000Y-101195000I-150000J0D01*
G01*
X71650000Y-101195000D01*
G75*
G02*
X71500000Y-101045000I0J150000D01*
G01*
G37*
G36*
G01*
X71500000Y-102315000D02*
X71500000Y-102015000D01*
G75*
G02*
X71650000Y-101865000I150000J0D01*
G01*
X73300000Y-101865000D01*
G75*
G02*
X73450000Y-102015000I0J-150000D01*
G01*
X73450000Y-102315000D01*
G75*
G02*
X73300000Y-102465000I-150000J0D01*
G01*
X71650000Y-102465000D01*
G75*
G02*
X71500000Y-102315000I0J150000D01*
G01*
G37*
G36*
G01*
X71500000Y-103585000D02*
X71500000Y-103285000D01*
G75*
G02*
X71650000Y-103135000I150000J0D01*
G01*
X73300000Y-103135000D01*
G75*
G02*
X73450000Y-103285000I0J-150000D01*
G01*
X73450000Y-103585000D01*
G75*
G02*
X73300000Y-103735000I-150000J0D01*
G01*
X71650000Y-103735000D01*
G75*
G02*
X71500000Y-103585000I0J150000D01*
G01*
G37*
G36*
G01*
X71500000Y-104855000D02*
X71500000Y-104555000D01*
G75*
G02*
X71650000Y-104405000I150000J0D01*
G01*
X73300000Y-104405000D01*
G75*
G02*
X73450000Y-104555000I0J-150000D01*
G01*
X73450000Y-104855000D01*
G75*
G02*
X73300000Y-105005000I-150000J0D01*
G01*
X71650000Y-105005000D01*
G75*
G02*
X71500000Y-104855000I0J150000D01*
G01*
G37*
G36*
G01*
X66550000Y-104855000D02*
X66550000Y-104555000D01*
G75*
G02*
X66700000Y-104405000I150000J0D01*
G01*
X68350000Y-104405000D01*
G75*
G02*
X68500000Y-104555000I0J-150000D01*
G01*
X68500000Y-104855000D01*
G75*
G02*
X68350000Y-105005000I-150000J0D01*
G01*
X66700000Y-105005000D01*
G75*
G02*
X66550000Y-104855000I0J150000D01*
G01*
G37*
G36*
G01*
X66550000Y-103585000D02*
X66550000Y-103285000D01*
G75*
G02*
X66700000Y-103135000I150000J0D01*
G01*
X68350000Y-103135000D01*
G75*
G02*
X68500000Y-103285000I0J-150000D01*
G01*
X68500000Y-103585000D01*
G75*
G02*
X68350000Y-103735000I-150000J0D01*
G01*
X66700000Y-103735000D01*
G75*
G02*
X66550000Y-103585000I0J150000D01*
G01*
G37*
G36*
G01*
X66550000Y-102315000D02*
X66550000Y-102015000D01*
G75*
G02*
X66700000Y-101865000I150000J0D01*
G01*
X68350000Y-101865000D01*
G75*
G02*
X68500000Y-102015000I0J-150000D01*
G01*
X68500000Y-102315000D01*
G75*
G02*
X68350000Y-102465000I-150000J0D01*
G01*
X66700000Y-102465000D01*
G75*
G02*
X66550000Y-102315000I0J150000D01*
G01*
G37*
G36*
G01*
X66550000Y-101045000D02*
X66550000Y-100745000D01*
G75*
G02*
X66700000Y-100595000I150000J0D01*
G01*
X68350000Y-100595000D01*
G75*
G02*
X68500000Y-100745000I0J-150000D01*
G01*
X68500000Y-101045000D01*
G75*
G02*
X68350000Y-101195000I-150000J0D01*
G01*
X66700000Y-101195000D01*
G75*
G02*
X66550000Y-101045000I0J150000D01*
G01*
G37*
G36*
G01*
X109900000Y-101245000D02*
X109900000Y-100945000D01*
G75*
G02*
X110050000Y-100795000I150000J0D01*
G01*
X111700000Y-100795000D01*
G75*
G02*
X111850000Y-100945000I0J-150000D01*
G01*
X111850000Y-101245000D01*
G75*
G02*
X111700000Y-101395000I-150000J0D01*
G01*
X110050000Y-101395000D01*
G75*
G02*
X109900000Y-101245000I0J150000D01*
G01*
G37*
G36*
G01*
X109900000Y-102515000D02*
X109900000Y-102215000D01*
G75*
G02*
X110050000Y-102065000I150000J0D01*
G01*
X111700000Y-102065000D01*
G75*
G02*
X111850000Y-102215000I0J-150000D01*
G01*
X111850000Y-102515000D01*
G75*
G02*
X111700000Y-102665000I-150000J0D01*
G01*
X110050000Y-102665000D01*
G75*
G02*
X109900000Y-102515000I0J150000D01*
G01*
G37*
G36*
G01*
X109900000Y-103785000D02*
X109900000Y-103485000D01*
G75*
G02*
X110050000Y-103335000I150000J0D01*
G01*
X111700000Y-103335000D01*
G75*
G02*
X111850000Y-103485000I0J-150000D01*
G01*
X111850000Y-103785000D01*
G75*
G02*
X111700000Y-103935000I-150000J0D01*
G01*
X110050000Y-103935000D01*
G75*
G02*
X109900000Y-103785000I0J150000D01*
G01*
G37*
G36*
G01*
X109900000Y-105055000D02*
X109900000Y-104755000D01*
G75*
G02*
X110050000Y-104605000I150000J0D01*
G01*
X111700000Y-104605000D01*
G75*
G02*
X111850000Y-104755000I0J-150000D01*
G01*
X111850000Y-105055000D01*
G75*
G02*
X111700000Y-105205000I-150000J0D01*
G01*
X110050000Y-105205000D01*
G75*
G02*
X109900000Y-105055000I0J150000D01*
G01*
G37*
G36*
G01*
X104950000Y-105055000D02*
X104950000Y-104755000D01*
G75*
G02*
X105100000Y-104605000I150000J0D01*
G01*
X106750000Y-104605000D01*
G75*
G02*
X106900000Y-104755000I0J-150000D01*
G01*
X106900000Y-105055000D01*
G75*
G02*
X106750000Y-105205000I-150000J0D01*
G01*
X105100000Y-105205000D01*
G75*
G02*
X104950000Y-105055000I0J150000D01*
G01*
G37*
G36*
G01*
X104950000Y-103785000D02*
X104950000Y-103485000D01*
G75*
G02*
X105100000Y-103335000I150000J0D01*
G01*
X106750000Y-103335000D01*
G75*
G02*
X106900000Y-103485000I0J-150000D01*
G01*
X106900000Y-103785000D01*
G75*
G02*
X106750000Y-103935000I-150000J0D01*
G01*
X105100000Y-103935000D01*
G75*
G02*
X104950000Y-103785000I0J150000D01*
G01*
G37*
G36*
G01*
X104950000Y-102515000D02*
X104950000Y-102215000D01*
G75*
G02*
X105100000Y-102065000I150000J0D01*
G01*
X106750000Y-102065000D01*
G75*
G02*
X106900000Y-102215000I0J-150000D01*
G01*
X106900000Y-102515000D01*
G75*
G02*
X106750000Y-102665000I-150000J0D01*
G01*
X105100000Y-102665000D01*
G75*
G02*
X104950000Y-102515000I0J150000D01*
G01*
G37*
G36*
G01*
X104950000Y-101245000D02*
X104950000Y-100945000D01*
G75*
G02*
X105100000Y-100795000I150000J0D01*
G01*
X106750000Y-100795000D01*
G75*
G02*
X106900000Y-100945000I0J-150000D01*
G01*
X106900000Y-101245000D01*
G75*
G02*
X106750000Y-101395000I-150000J0D01*
G01*
X105100000Y-101395000D01*
G75*
G02*
X104950000Y-101245000I0J150000D01*
G01*
G37*
D10*
X79500000Y-39745000D03*
X79500000Y-41015000D03*
X79500000Y-42285000D03*
X79500000Y-43555000D03*
X79500000Y-44825000D03*
X79500000Y-46095000D03*
X79500000Y-47365000D03*
X79500000Y-48635000D03*
X79500000Y-49905000D03*
X79500000Y-51175000D03*
X79500000Y-52445000D03*
X79500000Y-53715000D03*
X79500000Y-54985000D03*
X79500000Y-56255000D03*
D11*
X76715000Y-57255000D03*
X75445000Y-57255000D03*
X74175000Y-57255000D03*
X72905000Y-57255000D03*
X71635000Y-57255000D03*
X70365000Y-57255000D03*
X69095000Y-57255000D03*
X67825000Y-57255000D03*
X66555000Y-57255000D03*
X65285000Y-57255000D03*
D10*
X62500000Y-56255000D03*
X62500000Y-54985000D03*
X62500000Y-53715000D03*
X62500000Y-52445000D03*
X62500000Y-51175000D03*
X62500000Y-49905000D03*
X62500000Y-48635000D03*
X62500000Y-47365000D03*
X62500000Y-46095000D03*
X62500000Y-44825000D03*
X62500000Y-43555000D03*
X62500000Y-42285000D03*
X62500000Y-41015000D03*
X62500000Y-39745000D03*
D12*
X70000000Y-47245000D03*
G36*
G01*
X77556250Y-72075000D02*
X77043750Y-72075000D01*
G75*
G02*
X76825000Y-71856250I0J218750D01*
G01*
X76825000Y-71418750D01*
G75*
G02*
X77043750Y-71200000I218750J0D01*
G01*
X77556250Y-71200000D01*
G75*
G02*
X77775000Y-71418750I0J-218750D01*
G01*
X77775000Y-71856250D01*
G75*
G02*
X77556250Y-72075000I-218750J0D01*
G01*
G37*
G36*
G01*
X77556250Y-70500000D02*
X77043750Y-70500000D01*
G75*
G02*
X76825000Y-70281250I0J218750D01*
G01*
X76825000Y-69843750D01*
G75*
G02*
X77043750Y-69625000I218750J0D01*
G01*
X77556250Y-69625000D01*
G75*
G02*
X77775000Y-69843750I0J-218750D01*
G01*
X77775000Y-70281250D01*
G75*
G02*
X77556250Y-70500000I-218750J0D01*
G01*
G37*
D13*
X74200000Y-69925000D03*
X69700000Y-69925000D03*
X69700000Y-61975000D03*
X74200000Y-61975000D03*
G36*
G01*
X77606250Y-68225000D02*
X77093750Y-68225000D01*
G75*
G02*
X76875000Y-68006250I0J218750D01*
G01*
X76875000Y-67568750D01*
G75*
G02*
X77093750Y-67350000I218750J0D01*
G01*
X77606250Y-67350000D01*
G75*
G02*
X77825000Y-67568750I0J-218750D01*
G01*
X77825000Y-68006250D01*
G75*
G02*
X77606250Y-68225000I-218750J0D01*
G01*
G37*
G36*
G01*
X77606250Y-66650000D02*
X77093750Y-66650000D01*
G75*
G02*
X76875000Y-66431250I0J218750D01*
G01*
X76875000Y-65993750D01*
G75*
G02*
X77093750Y-65775000I218750J0D01*
G01*
X77606250Y-65775000D01*
G75*
G02*
X77825000Y-65993750I0J-218750D01*
G01*
X77825000Y-66431250D01*
G75*
G02*
X77606250Y-66650000I-218750J0D01*
G01*
G37*
G36*
G01*
X115125000Y-35865000D02*
X115125000Y-36535000D01*
G75*
G02*
X114975000Y-36685000I-150000J0D01*
G01*
X114675000Y-36685000D01*
G75*
G02*
X114525000Y-36535000I0J150000D01*
G01*
X114525000Y-35865000D01*
G75*
G02*
X114675000Y-35715000I150000J0D01*
G01*
X114975000Y-35715000D01*
G75*
G02*
X115125000Y-35865000I0J-150000D01*
G01*
G37*
G36*
G01*
X115125000Y-37065000D02*
X115125000Y-37735000D01*
G75*
G02*
X114975000Y-37885000I-150000J0D01*
G01*
X114675000Y-37885000D01*
G75*
G02*
X114525000Y-37735000I0J150000D01*
G01*
X114525000Y-37065000D01*
G75*
G02*
X114675000Y-36915000I150000J0D01*
G01*
X114975000Y-36915000D01*
G75*
G02*
X115125000Y-37065000I0J-150000D01*
G01*
G37*
G36*
G01*
X115875000Y-35865000D02*
X115875000Y-36535000D01*
G75*
G02*
X115725000Y-36685000I-150000J0D01*
G01*
X115425000Y-36685000D01*
G75*
G02*
X115275000Y-36535000I0J150000D01*
G01*
X115275000Y-35865000D01*
G75*
G02*
X115425000Y-35715000I150000J0D01*
G01*
X115725000Y-35715000D01*
G75*
G02*
X115875000Y-35865000I0J-150000D01*
G01*
G37*
G36*
G01*
X115875000Y-37065000D02*
X115875000Y-37735000D01*
G75*
G02*
X115725000Y-37885000I-150000J0D01*
G01*
X115425000Y-37885000D01*
G75*
G02*
X115275000Y-37735000I0J150000D01*
G01*
X115275000Y-37065000D01*
G75*
G02*
X115425000Y-36915000I150000J0D01*
G01*
X115725000Y-36915000D01*
G75*
G02*
X115875000Y-37065000I0J-150000D01*
G01*
G37*
G36*
G01*
X114150000Y-37700000D02*
X114150000Y-37900000D01*
G75*
G02*
X114050000Y-38000000I-100000J0D01*
G01*
X113450000Y-38000000D01*
G75*
G02*
X113350000Y-37900000I0J100000D01*
G01*
X113350000Y-37700000D01*
G75*
G02*
X113450000Y-37600000I100000J0D01*
G01*
X114050000Y-37600000D01*
G75*
G02*
X114150000Y-37700000I0J-100000D01*
G01*
G37*
G36*
G01*
X114150000Y-36700000D02*
X114150000Y-36900000D01*
G75*
G02*
X114050000Y-37000000I-100000J0D01*
G01*
X113450000Y-37000000D01*
G75*
G02*
X113350000Y-36900000I0J100000D01*
G01*
X113350000Y-36700000D01*
G75*
G02*
X113450000Y-36600000I100000J0D01*
G01*
X114050000Y-36600000D01*
G75*
G02*
X114150000Y-36700000I0J-100000D01*
G01*
G37*
G36*
G01*
X114150000Y-35700000D02*
X114150000Y-35900000D01*
G75*
G02*
X114050000Y-36000000I-100000J0D01*
G01*
X113450000Y-36000000D01*
G75*
G02*
X113350000Y-35900000I0J100000D01*
G01*
X113350000Y-35700000D01*
G75*
G02*
X113450000Y-35600000I100000J0D01*
G01*
X114050000Y-35600000D01*
G75*
G02*
X114150000Y-35700000I0J-100000D01*
G01*
G37*
G36*
G01*
X117050000Y-35700000D02*
X117050000Y-35900000D01*
G75*
G02*
X116950000Y-36000000I-100000J0D01*
G01*
X116350000Y-36000000D01*
G75*
G02*
X116250000Y-35900000I0J100000D01*
G01*
X116250000Y-35700000D01*
G75*
G02*
X116350000Y-35600000I100000J0D01*
G01*
X116950000Y-35600000D01*
G75*
G02*
X117050000Y-35700000I0J-100000D01*
G01*
G37*
G36*
G01*
X117050000Y-36700000D02*
X117050000Y-36900000D01*
G75*
G02*
X116950000Y-37000000I-100000J0D01*
G01*
X116350000Y-37000000D01*
G75*
G02*
X116250000Y-36900000I0J100000D01*
G01*
X116250000Y-36700000D01*
G75*
G02*
X116350000Y-36600000I100000J0D01*
G01*
X116950000Y-36600000D01*
G75*
G02*
X117050000Y-36700000I0J-100000D01*
G01*
G37*
G36*
G01*
X117050000Y-37700000D02*
X117050000Y-37900000D01*
G75*
G02*
X116950000Y-38000000I-100000J0D01*
G01*
X116350000Y-38000000D01*
G75*
G02*
X116250000Y-37900000I0J100000D01*
G01*
X116250000Y-37700000D01*
G75*
G02*
X116350000Y-37600000I100000J0D01*
G01*
X116950000Y-37600000D01*
G75*
G02*
X117050000Y-37700000I0J-100000D01*
G01*
G37*
G36*
G01*
X56700000Y-69956250D02*
X56700000Y-69043750D01*
G75*
G02*
X56943750Y-68800000I243750J0D01*
G01*
X57431250Y-68800000D01*
G75*
G02*
X57675000Y-69043750I0J-243750D01*
G01*
X57675000Y-69956250D01*
G75*
G02*
X57431250Y-70200000I-243750J0D01*
G01*
X56943750Y-70200000D01*
G75*
G02*
X56700000Y-69956250I0J243750D01*
G01*
G37*
G36*
G01*
X54825000Y-69956250D02*
X54825000Y-69043750D01*
G75*
G02*
X55068750Y-68800000I243750J0D01*
G01*
X55556250Y-68800000D01*
G75*
G02*
X55800000Y-69043750I0J-243750D01*
G01*
X55800000Y-69956250D01*
G75*
G02*
X55556250Y-70200000I-243750J0D01*
G01*
X55068750Y-70200000D01*
G75*
G02*
X54825000Y-69956250I0J243750D01*
G01*
G37*
G36*
G01*
X53000000Y-43500000D02*
X51000000Y-43500000D01*
G75*
G02*
X50750000Y-43250000I0J250000D01*
G01*
X50750000Y-39350000D01*
G75*
G02*
X51000000Y-39100000I250000J0D01*
G01*
X53000000Y-39100000D01*
G75*
G02*
X53250000Y-39350000I0J-250000D01*
G01*
X53250000Y-43250000D01*
G75*
G02*
X53000000Y-43500000I-250000J0D01*
G01*
G37*
G36*
G01*
X53000000Y-50900000D02*
X51000000Y-50900000D01*
G75*
G02*
X50750000Y-50650000I0J250000D01*
G01*
X50750000Y-46750000D01*
G75*
G02*
X51000000Y-46500000I250000J0D01*
G01*
X53000000Y-46500000D01*
G75*
G02*
X53250000Y-46750000I0J-250000D01*
G01*
X53250000Y-50650000D01*
G75*
G02*
X53000000Y-50900000I-250000J0D01*
G01*
G37*
D14*
X101075000Y-75800000D03*
X101075000Y-71300000D03*
X109025000Y-71300000D03*
X109025000Y-75800000D03*
D13*
X74200000Y-82525000D03*
X69700000Y-82525000D03*
X69700000Y-74575000D03*
X74200000Y-74575000D03*
G36*
G01*
X53100000Y-62256250D02*
X53100000Y-61743750D01*
G75*
G02*
X53318750Y-61525000I218750J0D01*
G01*
X53756250Y-61525000D01*
G75*
G02*
X53975000Y-61743750I0J-218750D01*
G01*
X53975000Y-62256250D01*
G75*
G02*
X53756250Y-62475000I-218750J0D01*
G01*
X53318750Y-62475000D01*
G75*
G02*
X53100000Y-62256250I0J218750D01*
G01*
G37*
G36*
G01*
X51525000Y-62256250D02*
X51525000Y-61743750D01*
G75*
G02*
X51743750Y-61525000I218750J0D01*
G01*
X52181250Y-61525000D01*
G75*
G02*
X52400000Y-61743750I0J-218750D01*
G01*
X52400000Y-62256250D01*
G75*
G02*
X52181250Y-62475000I-218750J0D01*
G01*
X51743750Y-62475000D01*
G75*
G02*
X51525000Y-62256250I0J218750D01*
G01*
G37*
G36*
G01*
X80743750Y-81850000D02*
X81256250Y-81850000D01*
G75*
G02*
X81475000Y-82068750I0J-218750D01*
G01*
X81475000Y-82506250D01*
G75*
G02*
X81256250Y-82725000I-218750J0D01*
G01*
X80743750Y-82725000D01*
G75*
G02*
X80525000Y-82506250I0J218750D01*
G01*
X80525000Y-82068750D01*
G75*
G02*
X80743750Y-81850000I218750J0D01*
G01*
G37*
G36*
G01*
X80743750Y-80275000D02*
X81256250Y-80275000D01*
G75*
G02*
X81475000Y-80493750I0J-218750D01*
G01*
X81475000Y-80931250D01*
G75*
G02*
X81256250Y-81150000I-218750J0D01*
G01*
X80743750Y-81150000D01*
G75*
G02*
X80525000Y-80931250I0J218750D01*
G01*
X80525000Y-80493750D01*
G75*
G02*
X80743750Y-80275000I218750J0D01*
G01*
G37*
G36*
G01*
X104456250Y-41050000D02*
X103943750Y-41050000D01*
G75*
G02*
X103725000Y-40831250I0J218750D01*
G01*
X103725000Y-40393750D01*
G75*
G02*
X103943750Y-40175000I218750J0D01*
G01*
X104456250Y-40175000D01*
G75*
G02*
X104675000Y-40393750I0J-218750D01*
G01*
X104675000Y-40831250D01*
G75*
G02*
X104456250Y-41050000I-218750J0D01*
G01*
G37*
G36*
G01*
X104456250Y-42625000D02*
X103943750Y-42625000D01*
G75*
G02*
X103725000Y-42406250I0J218750D01*
G01*
X103725000Y-41968750D01*
G75*
G02*
X103943750Y-41750000I218750J0D01*
G01*
X104456250Y-41750000D01*
G75*
G02*
X104675000Y-41968750I0J-218750D01*
G01*
X104675000Y-42406250D01*
G75*
G02*
X104456250Y-42625000I-218750J0D01*
G01*
G37*
G36*
G01*
X103343750Y-49750000D02*
X103856250Y-49750000D01*
G75*
G02*
X104075000Y-49968750I0J-218750D01*
G01*
X104075000Y-50406250D01*
G75*
G02*
X103856250Y-50625000I-218750J0D01*
G01*
X103343750Y-50625000D01*
G75*
G02*
X103125000Y-50406250I0J218750D01*
G01*
X103125000Y-49968750D01*
G75*
G02*
X103343750Y-49750000I218750J0D01*
G01*
G37*
G36*
G01*
X103343750Y-48175000D02*
X103856250Y-48175000D01*
G75*
G02*
X104075000Y-48393750I0J-218750D01*
G01*
X104075000Y-48831250D01*
G75*
G02*
X103856250Y-49050000I-218750J0D01*
G01*
X103343750Y-49050000D01*
G75*
G02*
X103125000Y-48831250I0J218750D01*
G01*
X103125000Y-48393750D01*
G75*
G02*
X103343750Y-48175000I218750J0D01*
G01*
G37*
G36*
G01*
X57993750Y-53850000D02*
X58506250Y-53850000D01*
G75*
G02*
X58725000Y-54068750I0J-218750D01*
G01*
X58725000Y-54506250D01*
G75*
G02*
X58506250Y-54725000I-218750J0D01*
G01*
X57993750Y-54725000D01*
G75*
G02*
X57775000Y-54506250I0J218750D01*
G01*
X57775000Y-54068750D01*
G75*
G02*
X57993750Y-53850000I218750J0D01*
G01*
G37*
G36*
G01*
X57993750Y-52275000D02*
X58506250Y-52275000D01*
G75*
G02*
X58725000Y-52493750I0J-218750D01*
G01*
X58725000Y-52931250D01*
G75*
G02*
X58506250Y-53150000I-218750J0D01*
G01*
X57993750Y-53150000D01*
G75*
G02*
X57775000Y-52931250I0J218750D01*
G01*
X57775000Y-52493750D01*
G75*
G02*
X57993750Y-52275000I218750J0D01*
G01*
G37*
G36*
G01*
X54743750Y-53850000D02*
X55256250Y-53850000D01*
G75*
G02*
X55475000Y-54068750I0J-218750D01*
G01*
X55475000Y-54506250D01*
G75*
G02*
X55256250Y-54725000I-218750J0D01*
G01*
X54743750Y-54725000D01*
G75*
G02*
X54525000Y-54506250I0J218750D01*
G01*
X54525000Y-54068750D01*
G75*
G02*
X54743750Y-53850000I218750J0D01*
G01*
G37*
G36*
G01*
X54743750Y-52275000D02*
X55256250Y-52275000D01*
G75*
G02*
X55475000Y-52493750I0J-218750D01*
G01*
X55475000Y-52931250D01*
G75*
G02*
X55256250Y-53150000I-218750J0D01*
G01*
X54743750Y-53150000D01*
G75*
G02*
X54525000Y-52931250I0J218750D01*
G01*
X54525000Y-52493750D01*
G75*
G02*
X54743750Y-52275000I218750J0D01*
G01*
G37*
D15*
X56450000Y-62600000D03*
X57400000Y-64600000D03*
X55500000Y-64600000D03*
D16*
X62000000Y-70000000D03*
X60000000Y-70950000D03*
X60000000Y-69050000D03*
G36*
G01*
X110994000Y-49899500D02*
X110994000Y-50100500D01*
G75*
G02*
X110914500Y-50180000I-79500J0D01*
G01*
X110755500Y-50180000D01*
G75*
G02*
X110676000Y-50100500I0J79500D01*
G01*
X110676000Y-49899500D01*
G75*
G02*
X110755500Y-49820000I79500J0D01*
G01*
X110914500Y-49820000D01*
G75*
G02*
X110994000Y-49899500I0J-79500D01*
G01*
G37*
G36*
G01*
X111684000Y-49899500D02*
X111684000Y-50100500D01*
G75*
G02*
X111604500Y-50180000I-79500J0D01*
G01*
X111445500Y-50180000D01*
G75*
G02*
X111366000Y-50100500I0J79500D01*
G01*
X111366000Y-49899500D01*
G75*
G02*
X111445500Y-49820000I79500J0D01*
G01*
X111604500Y-49820000D01*
G75*
G02*
X111684000Y-49899500I0J-79500D01*
G01*
G37*
D17*
X104900000Y-80500000D03*
X102360000Y-80500000D03*
X103630000Y-86500000D03*
X101090000Y-86500000D03*
X90900000Y-80500000D03*
X88360000Y-80500000D03*
X89630000Y-86500000D03*
X87090000Y-86500000D03*
G36*
G01*
X58706250Y-57050000D02*
X57793750Y-57050000D01*
G75*
G02*
X57550000Y-56806250I0J243750D01*
G01*
X57550000Y-56318750D01*
G75*
G02*
X57793750Y-56075000I243750J0D01*
G01*
X58706250Y-56075000D01*
G75*
G02*
X58950000Y-56318750I0J-243750D01*
G01*
X58950000Y-56806250D01*
G75*
G02*
X58706250Y-57050000I-243750J0D01*
G01*
G37*
G36*
G01*
X58706250Y-58925000D02*
X57793750Y-58925000D01*
G75*
G02*
X57550000Y-58681250I0J243750D01*
G01*
X57550000Y-58193750D01*
G75*
G02*
X57793750Y-57950000I243750J0D01*
G01*
X58706250Y-57950000D01*
G75*
G02*
X58950000Y-58193750I0J-243750D01*
G01*
X58950000Y-58681250D01*
G75*
G02*
X58706250Y-58925000I-243750J0D01*
G01*
G37*
G36*
G01*
X55456250Y-57050000D02*
X54543750Y-57050000D01*
G75*
G02*
X54300000Y-56806250I0J243750D01*
G01*
X54300000Y-56318750D01*
G75*
G02*
X54543750Y-56075000I243750J0D01*
G01*
X55456250Y-56075000D01*
G75*
G02*
X55700000Y-56318750I0J-243750D01*
G01*
X55700000Y-56806250D01*
G75*
G02*
X55456250Y-57050000I-243750J0D01*
G01*
G37*
G36*
G01*
X55456250Y-58925000D02*
X54543750Y-58925000D01*
G75*
G02*
X54300000Y-58681250I0J243750D01*
G01*
X54300000Y-58193750D01*
G75*
G02*
X54543750Y-57950000I243750J0D01*
G01*
X55456250Y-57950000D01*
G75*
G02*
X55700000Y-58193750I0J-243750D01*
G01*
X55700000Y-58681250D01*
G75*
G02*
X55456250Y-58925000I-243750J0D01*
G01*
G37*
G36*
G01*
X108943750Y-37412500D02*
X109456250Y-37412500D01*
G75*
G02*
X109675000Y-37631250I0J-218750D01*
G01*
X109675000Y-38068750D01*
G75*
G02*
X109456250Y-38287500I-218750J0D01*
G01*
X108943750Y-38287500D01*
G75*
G02*
X108725000Y-38068750I0J218750D01*
G01*
X108725000Y-37631250D01*
G75*
G02*
X108943750Y-37412500I218750J0D01*
G01*
G37*
G36*
G01*
X108943750Y-35837500D02*
X109456250Y-35837500D01*
G75*
G02*
X109675000Y-36056250I0J-218750D01*
G01*
X109675000Y-36493750D01*
G75*
G02*
X109456250Y-36712500I-218750J0D01*
G01*
X108943750Y-36712500D01*
G75*
G02*
X108725000Y-36493750I0J218750D01*
G01*
X108725000Y-36056250D01*
G75*
G02*
X108943750Y-35837500I218750J0D01*
G01*
G37*
G36*
G01*
X60256250Y-40150000D02*
X59743750Y-40150000D01*
G75*
G02*
X59525000Y-39931250I0J218750D01*
G01*
X59525000Y-39493750D01*
G75*
G02*
X59743750Y-39275000I218750J0D01*
G01*
X60256250Y-39275000D01*
G75*
G02*
X60475000Y-39493750I0J-218750D01*
G01*
X60475000Y-39931250D01*
G75*
G02*
X60256250Y-40150000I-218750J0D01*
G01*
G37*
G36*
G01*
X60256250Y-41725000D02*
X59743750Y-41725000D01*
G75*
G02*
X59525000Y-41506250I0J218750D01*
G01*
X59525000Y-41068750D01*
G75*
G02*
X59743750Y-40850000I218750J0D01*
G01*
X60256250Y-40850000D01*
G75*
G02*
X60475000Y-41068750I0J-218750D01*
G01*
X60475000Y-41506250D01*
G75*
G02*
X60256250Y-41725000I-218750J0D01*
G01*
G37*
M02*
