%FSLAX45Y45*%
G04 Gerber Fmt 4.5, Leading zero omitted, Abs format (unit mm)*
G04 Created by KiCad (PCBNEW (5.1.7)-1) date 2021-06-27 15:04:40*
%MOMM*%
%LPD*%
G01*
G04 APERTURE LIST*
%TA.AperFunction,Profile*%
%ADD10C,0.100000*%
%TD*%
%TA.AperFunction,Profile*%
%ADD11C,0.050000*%
%TD*%
%ADD12C,0.200000*%
%ADD13C,0.300000*%
G04 APERTURE END LIST*
D10*
X11260000Y-3750000D02*
X11140000Y-3750000D01*
X11140000Y-3600000D02*
X11260000Y-3600000D01*
X6900000Y-10500000D02*
X7100000Y-10500000D01*
D11*
X12000000Y-9400000D02*
X12000000Y-9600000D01*
X9300000Y-9400000D02*
G75*
G02*
X9300000Y-9200000I0J100000D01*
G01*
D10*
X10750000Y-10100000D02*
X10750000Y-10520000D01*
X10940000Y-10100000D02*
X10750000Y-10100000D01*
X7100000Y-10500000D02*
X7100000Y-10060000D01*
X6900000Y-10060000D02*
X6900000Y-10500000D01*
X10940000Y-10520000D02*
X10940000Y-10100000D01*
X7100000Y-10060000D02*
X6900000Y-10060000D01*
D11*
X11100000Y-9200000D02*
G75*
G02*
X11100000Y-9400000I0J-100000D01*
G01*
X11800000Y-9400000D02*
X12000000Y-9400000D01*
X8500000Y-9600000D02*
X8500000Y-9400000D01*
X9300000Y-9400000D02*
X11100000Y-9400000D01*
X11800000Y-9400000D02*
G75*
G02*
X11800000Y-9200000I0J100000D01*
G01*
X11600000Y-11000000D02*
X12000000Y-11000000D01*
D10*
X10750000Y-10520000D02*
X10940000Y-10520000D01*
D11*
X8200000Y-9600000D02*
X8200000Y-9400000D01*
X8600000Y-9400000D02*
X8500000Y-9400000D01*
X8500000Y-11000000D02*
X11600000Y-11000000D01*
X8200000Y-11000000D02*
X8200000Y-9600000D01*
X5500000Y-9400000D02*
X7300000Y-9400000D01*
X8000000Y-9400000D02*
G75*
G02*
X8000000Y-9200000I0J100000D01*
G01*
X8500000Y-9600000D02*
X8500000Y-11000000D01*
X8600000Y-9200000D02*
G75*
G02*
X8600000Y-9400000I0J-100000D01*
G01*
X12000000Y-11000000D02*
X12000000Y-9600000D01*
X4800000Y-9200000D02*
G75*
G02*
X4800000Y-9400000I0J-100000D01*
G01*
X4700000Y-9600000D02*
X4700000Y-11000000D01*
X7800000Y-11000000D02*
X8200000Y-11000000D01*
X4700000Y-9600000D02*
X4700000Y-9400000D01*
X4800000Y-9400000D02*
X4700000Y-9400000D01*
X5500000Y-9400000D02*
G75*
G02*
X5500000Y-9200000I0J100000D01*
G01*
X8000000Y-9400000D02*
X8200000Y-9400000D01*
X7300000Y-9200000D02*
G75*
G02*
X7300000Y-9400000I0J-100000D01*
G01*
X4700000Y-11000000D02*
X7800000Y-11000000D01*
D10*
X11260000Y-3380000D02*
X11260000Y-3600000D01*
X11140000Y-3380000D02*
X11260000Y-3380000D01*
X11140000Y-3600000D02*
X11140000Y-3380000D01*
X11260000Y-3750000D02*
X11260000Y-3960000D01*
X11140000Y-3960000D02*
X11140000Y-3750000D01*
X11260000Y-3960000D02*
X11140000Y-3960000D01*
X11620000Y-3860000D02*
X11620000Y-3960000D01*
X11400000Y-3860000D02*
X11620000Y-3860000D01*
X11400000Y-3960000D02*
X11400000Y-3860000D01*
X11620000Y-3960000D02*
X11400000Y-3960000D01*
D11*
X11800000Y-9200000D02*
X12000000Y-9200000D01*
X8500000Y-9200000D02*
X8400000Y-9200000D01*
X11100000Y-9200000D02*
X9300000Y-9200000D01*
X8500000Y-9200000D02*
X8600000Y-9200000D01*
X7300000Y-9200000D02*
X5500000Y-9200000D01*
X8000000Y-9200000D02*
X8400000Y-9200000D01*
X4700000Y-9200000D02*
X4800000Y-9200000D01*
X12000000Y-9200000D02*
X12000000Y-9000000D01*
X4700000Y-9000000D02*
X4700000Y-9200000D01*
X12000000Y-9000000D02*
X12000000Y-3300000D01*
X4700000Y-3300000D02*
X4700000Y-9000000D01*
X12000000Y-3300000D02*
X4700000Y-3300000D01*
D12*
X7353630Y-9360630D02*
X7432370Y-9439370D01*
X7432370Y-9360630D02*
X7353630Y-9439370D01*
X7480630Y-9360630D02*
X7559370Y-9439370D01*
X7559370Y-9360630D02*
X7480630Y-9439370D01*
X7607630Y-9360630D02*
X7686370Y-9439370D01*
X7686370Y-9360630D02*
X7607630Y-9439370D01*
X7734630Y-9360630D02*
X7813370Y-9439370D01*
X7813370Y-9360630D02*
X7734630Y-9439370D01*
X7861630Y-9360630D02*
X7940370Y-9439370D01*
X7940370Y-9360630D02*
X7861630Y-9439370D01*
X7353630Y-9160630D02*
X7432370Y-9239370D01*
X7432370Y-9160630D02*
X7353630Y-9239370D01*
X7480630Y-9160630D02*
X7559370Y-9239370D01*
X7559370Y-9160630D02*
X7480630Y-9239370D01*
X7607630Y-9160630D02*
X7686370Y-9239370D01*
X7686370Y-9160630D02*
X7607630Y-9239370D01*
X7734630Y-9160630D02*
X7813370Y-9239370D01*
X7813370Y-9160630D02*
X7734630Y-9239370D01*
X7861630Y-9160630D02*
X7940370Y-9239370D01*
X7940370Y-9160630D02*
X7861630Y-9239370D01*
X4833630Y-9160630D02*
X4912370Y-9239370D01*
X4912370Y-9160630D02*
X4833630Y-9239370D01*
X4960630Y-9160630D02*
X5039370Y-9239370D01*
X5039370Y-9160630D02*
X4960630Y-9239370D01*
X5087630Y-9160630D02*
X5166370Y-9239370D01*
X5166370Y-9160630D02*
X5087630Y-9239370D01*
X5214630Y-9160630D02*
X5293370Y-9239370D01*
X5293370Y-9160630D02*
X5214630Y-9239370D01*
X5341630Y-9160630D02*
X5420370Y-9239370D01*
X5420370Y-9160630D02*
X5341630Y-9239370D01*
X4846630Y-9360630D02*
X4925370Y-9439370D01*
X4925370Y-9360630D02*
X4846630Y-9439370D01*
X4973630Y-9360630D02*
X5052370Y-9439370D01*
X5052370Y-9360630D02*
X4973630Y-9439370D01*
X5100630Y-9360630D02*
X5179370Y-9439370D01*
X5179370Y-9360630D02*
X5100630Y-9439370D01*
X5227630Y-9360630D02*
X5306370Y-9439370D01*
X5306370Y-9360630D02*
X5227630Y-9439370D01*
X5354630Y-9360630D02*
X5433370Y-9439370D01*
X5433370Y-9360630D02*
X5354630Y-9439370D01*
X8656630Y-9160630D02*
X8735370Y-9239370D01*
X8735370Y-9160630D02*
X8656630Y-9239370D01*
X8783630Y-9160630D02*
X8862370Y-9239370D01*
X8862370Y-9160630D02*
X8783630Y-9239370D01*
X8910630Y-9160630D02*
X8989370Y-9239370D01*
X8989370Y-9160630D02*
X8910630Y-9239370D01*
X9037630Y-9160630D02*
X9116370Y-9239370D01*
X9116370Y-9160630D02*
X9037630Y-9239370D01*
X9164630Y-9160630D02*
X9243370Y-9239370D01*
X9243370Y-9160630D02*
X9164630Y-9239370D01*
X11176630Y-9360630D02*
X11255370Y-9439370D01*
X11255370Y-9360630D02*
X11176630Y-9439370D01*
X11303630Y-9360630D02*
X11382370Y-9439370D01*
X11382370Y-9360630D02*
X11303630Y-9439370D01*
X11430630Y-9360630D02*
X11509370Y-9439370D01*
X11509370Y-9360630D02*
X11430630Y-9439370D01*
X11557630Y-9360630D02*
X11636370Y-9439370D01*
X11636370Y-9360630D02*
X11557630Y-9439370D01*
X11684630Y-9360630D02*
X11763370Y-9439370D01*
X11763370Y-9360630D02*
X11684630Y-9439370D01*
X8669630Y-9360630D02*
X8748370Y-9439370D01*
X8748370Y-9360630D02*
X8669630Y-9439370D01*
X8796630Y-9360630D02*
X8875370Y-9439370D01*
X8875370Y-9360630D02*
X8796630Y-9439370D01*
X8923630Y-9360630D02*
X9002370Y-9439370D01*
X9002370Y-9360630D02*
X8923630Y-9439370D01*
X9050630Y-9360630D02*
X9129370Y-9439370D01*
X9129370Y-9360630D02*
X9050630Y-9439370D01*
X9177630Y-9360630D02*
X9256370Y-9439370D01*
X9256370Y-9360630D02*
X9177630Y-9439370D01*
X11176630Y-9160630D02*
X11255370Y-9239370D01*
X11255370Y-9160630D02*
X11176630Y-9239370D01*
X11303630Y-9160630D02*
X11382370Y-9239370D01*
X11382370Y-9160630D02*
X11303630Y-9239370D01*
X11430630Y-9160630D02*
X11509370Y-9239370D01*
X11509370Y-9160630D02*
X11430630Y-9239370D01*
X11557630Y-9160630D02*
X11636370Y-9239370D01*
X11636370Y-9160630D02*
X11557630Y-9239370D01*
X11684630Y-9160630D02*
X11763370Y-9239370D01*
X11763370Y-9160630D02*
X11684630Y-9239370D01*
X5305000Y-9897000D02*
G75*
G03*
X5305000Y-9897000I-95000J0D01*
G01*
X5305000Y-10663000D02*
G75*
G03*
X5305000Y-10663000I-95000J0D01*
G01*
X8612000Y-8540000D02*
G75*
G03*
X8612000Y-8540000I-95000J0D01*
G01*
X9378000Y-8540000D02*
G75*
G03*
X9378000Y-8540000I-95000J0D01*
G01*
X10012000Y-8540000D02*
G75*
G03*
X10012000Y-8540000I-95000J0D01*
G01*
X10778000Y-8540000D02*
G75*
G03*
X10778000Y-8540000I-95000J0D01*
G01*
X9105000Y-9897000D02*
G75*
G03*
X9105000Y-9897000I-95000J0D01*
G01*
X9105000Y-10663000D02*
G75*
G03*
X9105000Y-10663000I-95000J0D01*
G01*
X11600000Y-10195000D02*
X11600000Y-10405000D01*
X11495000Y-10300000D02*
X11705000Y-10300000D01*
X7800000Y-10195000D02*
X7800000Y-10405000D01*
X7695000Y-10300000D02*
X7905000Y-10300000D01*
X6768339Y-6792839D02*
X6768339Y-6606161D01*
X6581661Y-6606161D01*
X6581661Y-6792839D01*
X6768339Y-6792839D01*
X11416339Y-5593839D02*
X11416339Y-5407161D01*
X11229661Y-5407161D01*
X11229661Y-5593839D01*
X11416339Y-5593839D01*
X6768339Y-8592839D02*
X6768339Y-8406161D01*
X6581661Y-8406161D01*
X6581661Y-8592839D01*
X6768339Y-8592839D01*
X11416339Y-7393839D02*
X11416339Y-7207161D01*
X11229661Y-7207161D01*
X11229661Y-7393839D01*
X11416339Y-7393839D01*
D13*
X4983928Y-11468214D02*
X4983928Y-11168214D01*
X5055357Y-11168214D01*
X5098214Y-11182500D01*
X5126786Y-11211071D01*
X5141071Y-11239643D01*
X5155357Y-11296786D01*
X5155357Y-11339643D01*
X5141071Y-11396786D01*
X5126786Y-11425357D01*
X5098214Y-11453929D01*
X5055357Y-11468214D01*
X4983928Y-11468214D01*
X5283928Y-11468214D02*
X5283928Y-11268214D01*
X5283928Y-11325357D02*
X5298214Y-11296786D01*
X5312500Y-11282500D01*
X5341071Y-11268214D01*
X5369643Y-11268214D01*
X5469643Y-11468214D02*
X5469643Y-11268214D01*
X5469643Y-11168214D02*
X5455357Y-11182500D01*
X5469643Y-11196786D01*
X5483928Y-11182500D01*
X5469643Y-11168214D01*
X5469643Y-11196786D01*
X5655357Y-11468214D02*
X5626786Y-11453929D01*
X5612500Y-11425357D01*
X5612500Y-11168214D01*
X5812500Y-11468214D02*
X5783928Y-11453929D01*
X5769643Y-11425357D01*
X5769643Y-11168214D01*
X6155357Y-11468214D02*
X6155357Y-11168214D01*
X6255357Y-11382500D01*
X6355357Y-11168214D01*
X6355357Y-11468214D01*
X6626786Y-11468214D02*
X6626786Y-11311071D01*
X6612500Y-11282500D01*
X6583928Y-11268214D01*
X6526786Y-11268214D01*
X6498214Y-11282500D01*
X6626786Y-11453929D02*
X6598214Y-11468214D01*
X6526786Y-11468214D01*
X6498214Y-11453929D01*
X6483928Y-11425357D01*
X6483928Y-11396786D01*
X6498214Y-11368214D01*
X6526786Y-11353929D01*
X6598214Y-11353929D01*
X6626786Y-11339643D01*
X6769643Y-11268214D02*
X6769643Y-11568214D01*
X6769643Y-11282500D02*
X6798214Y-11268214D01*
X6855357Y-11268214D01*
X6883928Y-11282500D01*
X6898214Y-11296786D01*
X6912500Y-11325357D01*
X6912500Y-11411071D01*
X6898214Y-11439643D01*
X6883928Y-11453929D01*
X6855357Y-11468214D01*
X6798214Y-11468214D01*
X6769643Y-11453929D01*
X7041071Y-11439643D02*
X7055357Y-11453929D01*
X7041071Y-11468214D01*
X7026786Y-11453929D01*
X7041071Y-11439643D01*
X7041071Y-11468214D01*
X7041071Y-11282500D02*
X7055357Y-11296786D01*
X7041071Y-11311071D01*
X7026786Y-11296786D01*
X7041071Y-11282500D01*
X7041071Y-11311071D01*
X4618760Y-11923130D02*
X4697500Y-12001870D01*
X4697500Y-11923130D02*
X4618760Y-12001870D01*
X5041071Y-11798214D02*
X5069643Y-11798214D01*
X5098214Y-11812500D01*
X5112500Y-11826786D01*
X5126786Y-11855357D01*
X5141071Y-11912500D01*
X5141071Y-11983929D01*
X5126786Y-12041071D01*
X5112500Y-12069643D01*
X5098214Y-12083929D01*
X5069643Y-12098214D01*
X5041071Y-12098214D01*
X5012500Y-12083929D01*
X4998214Y-12069643D01*
X4983928Y-12041071D01*
X4969643Y-11983929D01*
X4969643Y-11912500D01*
X4983928Y-11855357D01*
X4998214Y-11826786D01*
X5012500Y-11812500D01*
X5041071Y-11798214D01*
X5269643Y-12069643D02*
X5283928Y-12083929D01*
X5269643Y-12098214D01*
X5255357Y-12083929D01*
X5269643Y-12069643D01*
X5269643Y-12098214D01*
X5383928Y-11798214D02*
X5583928Y-11798214D01*
X5455357Y-12098214D01*
X5712500Y-12098214D02*
X5769643Y-12098214D01*
X5798214Y-12083929D01*
X5812500Y-12069643D01*
X5841071Y-12026786D01*
X5855357Y-11969643D01*
X5855357Y-11855357D01*
X5841071Y-11826786D01*
X5826786Y-11812500D01*
X5798214Y-11798214D01*
X5741071Y-11798214D01*
X5712500Y-11812500D01*
X5698214Y-11826786D01*
X5683928Y-11855357D01*
X5683928Y-11926786D01*
X5698214Y-11955357D01*
X5712500Y-11969643D01*
X5741071Y-11983929D01*
X5798214Y-11983929D01*
X5826786Y-11969643D01*
X5841071Y-11955357D01*
X5855357Y-11926786D01*
X5983928Y-12098214D02*
X5983928Y-11898214D01*
X5983928Y-11926786D02*
X5998214Y-11912500D01*
X6026786Y-11898214D01*
X6069643Y-11898214D01*
X6098214Y-11912500D01*
X6112500Y-11941071D01*
X6112500Y-12098214D01*
X6112500Y-11941071D02*
X6126786Y-11912500D01*
X6155357Y-11898214D01*
X6198214Y-11898214D01*
X6226786Y-11912500D01*
X6241071Y-11941071D01*
X6241071Y-12098214D01*
X6383928Y-12098214D02*
X6383928Y-11898214D01*
X6383928Y-11926786D02*
X6398214Y-11912500D01*
X6426786Y-11898214D01*
X6469643Y-11898214D01*
X6498214Y-11912500D01*
X6512500Y-11941071D01*
X6512500Y-12098214D01*
X6512500Y-11941071D02*
X6526786Y-11912500D01*
X6555357Y-11898214D01*
X6598214Y-11898214D01*
X6626786Y-11912500D01*
X6641071Y-11941071D01*
X6641071Y-12098214D01*
X7226786Y-11783929D02*
X6969643Y-12169643D01*
X7612500Y-11798214D02*
X7641071Y-11798214D01*
X7669643Y-11812500D01*
X7683928Y-11826786D01*
X7698214Y-11855357D01*
X7712500Y-11912500D01*
X7712500Y-11983929D01*
X7698214Y-12041071D01*
X7683928Y-12069643D01*
X7669643Y-12083929D01*
X7641071Y-12098214D01*
X7612500Y-12098214D01*
X7583928Y-12083929D01*
X7569643Y-12069643D01*
X7555357Y-12041071D01*
X7541071Y-11983929D01*
X7541071Y-11912500D01*
X7555357Y-11855357D01*
X7569643Y-11826786D01*
X7583928Y-11812500D01*
X7612500Y-11798214D01*
X7841071Y-12069643D02*
X7855357Y-12083929D01*
X7841071Y-12098214D01*
X7826786Y-12083929D01*
X7841071Y-12069643D01*
X7841071Y-12098214D01*
X8041071Y-11798214D02*
X8069643Y-11798214D01*
X8098214Y-11812500D01*
X8112500Y-11826786D01*
X8126786Y-11855357D01*
X8141071Y-11912500D01*
X8141071Y-11983929D01*
X8126786Y-12041071D01*
X8112500Y-12069643D01*
X8098214Y-12083929D01*
X8069643Y-12098214D01*
X8041071Y-12098214D01*
X8012500Y-12083929D01*
X7998214Y-12069643D01*
X7983928Y-12041071D01*
X7969643Y-11983929D01*
X7969643Y-11912500D01*
X7983928Y-11855357D01*
X7998214Y-11826786D01*
X8012500Y-11812500D01*
X8041071Y-11798214D01*
X8241071Y-11798214D02*
X8426786Y-11798214D01*
X8326786Y-11912500D01*
X8369643Y-11912500D01*
X8398214Y-11926786D01*
X8412500Y-11941071D01*
X8426786Y-11969643D01*
X8426786Y-12041071D01*
X8412500Y-12069643D01*
X8398214Y-12083929D01*
X8369643Y-12098214D01*
X8283928Y-12098214D01*
X8255357Y-12083929D01*
X8241071Y-12069643D01*
X8712500Y-12098214D02*
X8541071Y-12098214D01*
X8626786Y-12098214D02*
X8626786Y-11798214D01*
X8598214Y-11841071D01*
X8569643Y-11869643D01*
X8541071Y-11883929D01*
X8826786Y-11798214D02*
X8826786Y-11855357D01*
X8941071Y-11798214D02*
X8941071Y-11855357D01*
X9383928Y-12212500D02*
X9369643Y-12198214D01*
X9341071Y-12155357D01*
X9326786Y-12126786D01*
X9312500Y-12083929D01*
X9298214Y-12012500D01*
X9298214Y-11955357D01*
X9312500Y-11883929D01*
X9326786Y-11841071D01*
X9341071Y-11812500D01*
X9369643Y-11769643D01*
X9383928Y-11755357D01*
X9626786Y-11898214D02*
X9626786Y-12098214D01*
X9555357Y-11783929D02*
X9483928Y-11998214D01*
X9669643Y-11998214D01*
X9841071Y-11798214D02*
X9869643Y-11798214D01*
X9898214Y-11812500D01*
X9912500Y-11826786D01*
X9926786Y-11855357D01*
X9941071Y-11912500D01*
X9941071Y-11983929D01*
X9926786Y-12041071D01*
X9912500Y-12069643D01*
X9898214Y-12083929D01*
X9869643Y-12098214D01*
X9841071Y-12098214D01*
X9812500Y-12083929D01*
X9798214Y-12069643D01*
X9783928Y-12041071D01*
X9769643Y-11983929D01*
X9769643Y-11912500D01*
X9783928Y-11855357D01*
X9798214Y-11826786D01*
X9812500Y-11812500D01*
X9841071Y-11798214D01*
X10298214Y-12098214D02*
X10298214Y-11798214D01*
X10426786Y-12098214D02*
X10426786Y-11941071D01*
X10412500Y-11912500D01*
X10383928Y-11898214D01*
X10341071Y-11898214D01*
X10312500Y-11912500D01*
X10298214Y-11926786D01*
X10612500Y-12098214D02*
X10583928Y-12083929D01*
X10569643Y-12069643D01*
X10555357Y-12041071D01*
X10555357Y-11955357D01*
X10569643Y-11926786D01*
X10583928Y-11912500D01*
X10612500Y-11898214D01*
X10655357Y-11898214D01*
X10683928Y-11912500D01*
X10698214Y-11926786D01*
X10712500Y-11955357D01*
X10712500Y-12041071D01*
X10698214Y-12069643D01*
X10683928Y-12083929D01*
X10655357Y-12098214D01*
X10612500Y-12098214D01*
X10883928Y-12098214D02*
X10855357Y-12083929D01*
X10841071Y-12055357D01*
X10841071Y-11798214D01*
X11112500Y-12083929D02*
X11083928Y-12098214D01*
X11026786Y-12098214D01*
X10998214Y-12083929D01*
X10983928Y-12055357D01*
X10983928Y-11941071D01*
X10998214Y-11912500D01*
X11026786Y-11898214D01*
X11083928Y-11898214D01*
X11112500Y-11912500D01*
X11126786Y-11941071D01*
X11126786Y-11969643D01*
X10983928Y-11998214D01*
X11241071Y-12083929D02*
X11269643Y-12098214D01*
X11326786Y-12098214D01*
X11355357Y-12083929D01*
X11369643Y-12055357D01*
X11369643Y-12041071D01*
X11355357Y-12012500D01*
X11326786Y-11998214D01*
X11283928Y-11998214D01*
X11255357Y-11983929D01*
X11241071Y-11955357D01*
X11241071Y-11941071D01*
X11255357Y-11912500D01*
X11283928Y-11898214D01*
X11326786Y-11898214D01*
X11355357Y-11912500D01*
X11469643Y-12212500D02*
X11483928Y-12198214D01*
X11512500Y-12155357D01*
X11526786Y-12126786D01*
X11541071Y-12083929D01*
X11555357Y-12012500D01*
X11555357Y-11955357D01*
X11541071Y-11883929D01*
X11526786Y-11841071D01*
X11512500Y-11812500D01*
X11483928Y-11769643D01*
X11469643Y-11755357D01*
X12012500Y-12212500D02*
X11998214Y-12198214D01*
X11969643Y-12155357D01*
X11955357Y-12126786D01*
X11941071Y-12083929D01*
X11926786Y-12012500D01*
X11926786Y-11955357D01*
X11941071Y-11883929D01*
X11955357Y-11841071D01*
X11969643Y-11812500D01*
X11998214Y-11769643D01*
X12012500Y-11755357D01*
X12126786Y-11898214D02*
X12126786Y-12098214D01*
X12126786Y-11926786D02*
X12141071Y-11912500D01*
X12169643Y-11898214D01*
X12212500Y-11898214D01*
X12241071Y-11912500D01*
X12255357Y-11941071D01*
X12255357Y-12098214D01*
X12441071Y-12098214D02*
X12412500Y-12083929D01*
X12398214Y-12069643D01*
X12383928Y-12041071D01*
X12383928Y-11955357D01*
X12398214Y-11926786D01*
X12412500Y-11912500D01*
X12441071Y-11898214D01*
X12483928Y-11898214D01*
X12512500Y-11912500D01*
X12526786Y-11926786D01*
X12541071Y-11955357D01*
X12541071Y-12041071D01*
X12526786Y-12069643D01*
X12512500Y-12083929D01*
X12483928Y-12098214D01*
X12441071Y-12098214D01*
X12626786Y-11898214D02*
X12741071Y-11898214D01*
X12669643Y-11798214D02*
X12669643Y-12055357D01*
X12683928Y-12083929D01*
X12712500Y-12098214D01*
X12741071Y-12098214D01*
X13069643Y-11898214D02*
X13069643Y-12198214D01*
X13069643Y-11912500D02*
X13098214Y-11898214D01*
X13155357Y-11898214D01*
X13183928Y-11912500D01*
X13198214Y-11926786D01*
X13212500Y-11955357D01*
X13212500Y-12041071D01*
X13198214Y-12069643D01*
X13183928Y-12083929D01*
X13155357Y-12098214D01*
X13098214Y-12098214D01*
X13069643Y-12083929D01*
X13383928Y-12098214D02*
X13355357Y-12083929D01*
X13341071Y-12055357D01*
X13341071Y-11798214D01*
X13626786Y-12098214D02*
X13626786Y-11941071D01*
X13612500Y-11912500D01*
X13583928Y-11898214D01*
X13526786Y-11898214D01*
X13498214Y-11912500D01*
X13626786Y-12083929D02*
X13598214Y-12098214D01*
X13526786Y-12098214D01*
X13498214Y-12083929D01*
X13483928Y-12055357D01*
X13483928Y-12026786D01*
X13498214Y-11998214D01*
X13526786Y-11983929D01*
X13598214Y-11983929D01*
X13626786Y-11969643D01*
X13726786Y-11898214D02*
X13841071Y-11898214D01*
X13769643Y-11798214D02*
X13769643Y-12055357D01*
X13783928Y-12083929D01*
X13812500Y-12098214D01*
X13841071Y-12098214D01*
X14055357Y-12083929D02*
X14026786Y-12098214D01*
X13969643Y-12098214D01*
X13941071Y-12083929D01*
X13926786Y-12055357D01*
X13926786Y-11941071D01*
X13941071Y-11912500D01*
X13969643Y-11898214D01*
X14026786Y-11898214D01*
X14055357Y-11912500D01*
X14069643Y-11941071D01*
X14069643Y-11969643D01*
X13926786Y-11998214D01*
X14326786Y-12098214D02*
X14326786Y-11798214D01*
X14326786Y-12083929D02*
X14298214Y-12098214D01*
X14241071Y-12098214D01*
X14212500Y-12083929D01*
X14198214Y-12069643D01*
X14183928Y-12041071D01*
X14183928Y-11955357D01*
X14198214Y-11926786D01*
X14212500Y-11912500D01*
X14241071Y-11898214D01*
X14298214Y-11898214D01*
X14326786Y-11912500D01*
X14441071Y-12212500D02*
X14455357Y-12198214D01*
X14483928Y-12155357D01*
X14498214Y-12126786D01*
X14512500Y-12083929D01*
X14526786Y-12012500D01*
X14526786Y-11955357D01*
X14512500Y-11883929D01*
X14498214Y-11841071D01*
X14483928Y-11812500D01*
X14455357Y-11769643D01*
X14441071Y-11755357D01*
X4697500Y-12358500D02*
G75*
G03*
X4697500Y-12358500I-95000J0D01*
G01*
X5141071Y-12494214D02*
X4969643Y-12494214D01*
X5055357Y-12494214D02*
X5055357Y-12194214D01*
X5026786Y-12237071D01*
X4998214Y-12265643D01*
X4969643Y-12279929D01*
X5269643Y-12465643D02*
X5283928Y-12479929D01*
X5269643Y-12494214D01*
X5255357Y-12479929D01*
X5269643Y-12465643D01*
X5269643Y-12494214D01*
X5426786Y-12494214D02*
X5483928Y-12494214D01*
X5512500Y-12479929D01*
X5526786Y-12465643D01*
X5555357Y-12422786D01*
X5569643Y-12365643D01*
X5569643Y-12251357D01*
X5555357Y-12222786D01*
X5541071Y-12208500D01*
X5512500Y-12194214D01*
X5455357Y-12194214D01*
X5426786Y-12208500D01*
X5412500Y-12222786D01*
X5398214Y-12251357D01*
X5398214Y-12322786D01*
X5412500Y-12351357D01*
X5426786Y-12365643D01*
X5455357Y-12379929D01*
X5512500Y-12379929D01*
X5541071Y-12365643D01*
X5555357Y-12351357D01*
X5569643Y-12322786D01*
X5755357Y-12194214D02*
X5783928Y-12194214D01*
X5812500Y-12208500D01*
X5826786Y-12222786D01*
X5841071Y-12251357D01*
X5855357Y-12308500D01*
X5855357Y-12379929D01*
X5841071Y-12437071D01*
X5826786Y-12465643D01*
X5812500Y-12479929D01*
X5783928Y-12494214D01*
X5755357Y-12494214D01*
X5726786Y-12479929D01*
X5712500Y-12465643D01*
X5698214Y-12437071D01*
X5683928Y-12379929D01*
X5683928Y-12308500D01*
X5698214Y-12251357D01*
X5712500Y-12222786D01*
X5726786Y-12208500D01*
X5755357Y-12194214D01*
X5983928Y-12494214D02*
X5983928Y-12294214D01*
X5983928Y-12322786D02*
X5998214Y-12308500D01*
X6026786Y-12294214D01*
X6069643Y-12294214D01*
X6098214Y-12308500D01*
X6112500Y-12337071D01*
X6112500Y-12494214D01*
X6112500Y-12337071D02*
X6126786Y-12308500D01*
X6155357Y-12294214D01*
X6198214Y-12294214D01*
X6226786Y-12308500D01*
X6241071Y-12337071D01*
X6241071Y-12494214D01*
X6383928Y-12494214D02*
X6383928Y-12294214D01*
X6383928Y-12322786D02*
X6398214Y-12308500D01*
X6426786Y-12294214D01*
X6469643Y-12294214D01*
X6498214Y-12308500D01*
X6512500Y-12337071D01*
X6512500Y-12494214D01*
X6512500Y-12337071D02*
X6526786Y-12308500D01*
X6555357Y-12294214D01*
X6598214Y-12294214D01*
X6626786Y-12308500D01*
X6641071Y-12337071D01*
X6641071Y-12494214D01*
X7226786Y-12179929D02*
X6969643Y-12565643D01*
X7612500Y-12194214D02*
X7641071Y-12194214D01*
X7669643Y-12208500D01*
X7683928Y-12222786D01*
X7698214Y-12251357D01*
X7712500Y-12308500D01*
X7712500Y-12379929D01*
X7698214Y-12437071D01*
X7683928Y-12465643D01*
X7669643Y-12479929D01*
X7641071Y-12494214D01*
X7612500Y-12494214D01*
X7583928Y-12479929D01*
X7569643Y-12465643D01*
X7555357Y-12437071D01*
X7541071Y-12379929D01*
X7541071Y-12308500D01*
X7555357Y-12251357D01*
X7569643Y-12222786D01*
X7583928Y-12208500D01*
X7612500Y-12194214D01*
X7841071Y-12465643D02*
X7855357Y-12479929D01*
X7841071Y-12494214D01*
X7826786Y-12479929D01*
X7841071Y-12465643D01*
X7841071Y-12494214D01*
X8041071Y-12194214D02*
X8069643Y-12194214D01*
X8098214Y-12208500D01*
X8112500Y-12222786D01*
X8126786Y-12251357D01*
X8141071Y-12308500D01*
X8141071Y-12379929D01*
X8126786Y-12437071D01*
X8112500Y-12465643D01*
X8098214Y-12479929D01*
X8069643Y-12494214D01*
X8041071Y-12494214D01*
X8012500Y-12479929D01*
X7998214Y-12465643D01*
X7983928Y-12437071D01*
X7969643Y-12379929D01*
X7969643Y-12308500D01*
X7983928Y-12251357D01*
X7998214Y-12222786D01*
X8012500Y-12208500D01*
X8041071Y-12194214D01*
X8241071Y-12194214D02*
X8441071Y-12194214D01*
X8312500Y-12494214D01*
X8698214Y-12194214D02*
X8555357Y-12194214D01*
X8541071Y-12337071D01*
X8555357Y-12322786D01*
X8583928Y-12308500D01*
X8655357Y-12308500D01*
X8683928Y-12322786D01*
X8698214Y-12337071D01*
X8712500Y-12365643D01*
X8712500Y-12437071D01*
X8698214Y-12465643D01*
X8683928Y-12479929D01*
X8655357Y-12494214D01*
X8583928Y-12494214D01*
X8555357Y-12479929D01*
X8541071Y-12465643D01*
X8826786Y-12194214D02*
X8826786Y-12251357D01*
X8941071Y-12194214D02*
X8941071Y-12251357D01*
X9383928Y-12608500D02*
X9369643Y-12594214D01*
X9341071Y-12551357D01*
X9326786Y-12522786D01*
X9312500Y-12479929D01*
X9298214Y-12408500D01*
X9298214Y-12351357D01*
X9312500Y-12279929D01*
X9326786Y-12237071D01*
X9341071Y-12208500D01*
X9369643Y-12165643D01*
X9383928Y-12151357D01*
X9541071Y-12322786D02*
X9512500Y-12308500D01*
X9498214Y-12294214D01*
X9483928Y-12265643D01*
X9483928Y-12251357D01*
X9498214Y-12222786D01*
X9512500Y-12208500D01*
X9541071Y-12194214D01*
X9598214Y-12194214D01*
X9626786Y-12208500D01*
X9641071Y-12222786D01*
X9655357Y-12251357D01*
X9655357Y-12265643D01*
X9641071Y-12294214D01*
X9626786Y-12308500D01*
X9598214Y-12322786D01*
X9541071Y-12322786D01*
X9512500Y-12337071D01*
X9498214Y-12351357D01*
X9483928Y-12379929D01*
X9483928Y-12437071D01*
X9498214Y-12465643D01*
X9512500Y-12479929D01*
X9541071Y-12494214D01*
X9598214Y-12494214D01*
X9626786Y-12479929D01*
X9641071Y-12465643D01*
X9655357Y-12437071D01*
X9655357Y-12379929D01*
X9641071Y-12351357D01*
X9626786Y-12337071D01*
X9598214Y-12322786D01*
X10012500Y-12494214D02*
X10012500Y-12194214D01*
X10141071Y-12494214D02*
X10141071Y-12337071D01*
X10126786Y-12308500D01*
X10098214Y-12294214D01*
X10055357Y-12294214D01*
X10026786Y-12308500D01*
X10012500Y-12322786D01*
X10326786Y-12494214D02*
X10298214Y-12479929D01*
X10283928Y-12465643D01*
X10269643Y-12437071D01*
X10269643Y-12351357D01*
X10283928Y-12322786D01*
X10298214Y-12308500D01*
X10326786Y-12294214D01*
X10369643Y-12294214D01*
X10398214Y-12308500D01*
X10412500Y-12322786D01*
X10426786Y-12351357D01*
X10426786Y-12437071D01*
X10412500Y-12465643D01*
X10398214Y-12479929D01*
X10369643Y-12494214D01*
X10326786Y-12494214D01*
X10598214Y-12494214D02*
X10569643Y-12479929D01*
X10555357Y-12451357D01*
X10555357Y-12194214D01*
X10826786Y-12479929D02*
X10798214Y-12494214D01*
X10741071Y-12494214D01*
X10712500Y-12479929D01*
X10698214Y-12451357D01*
X10698214Y-12337071D01*
X10712500Y-12308500D01*
X10741071Y-12294214D01*
X10798214Y-12294214D01*
X10826786Y-12308500D01*
X10841071Y-12337071D01*
X10841071Y-12365643D01*
X10698214Y-12394214D01*
X10955357Y-12479929D02*
X10983928Y-12494214D01*
X11041071Y-12494214D01*
X11069643Y-12479929D01*
X11083928Y-12451357D01*
X11083928Y-12437071D01*
X11069643Y-12408500D01*
X11041071Y-12394214D01*
X10998214Y-12394214D01*
X10969643Y-12379929D01*
X10955357Y-12351357D01*
X10955357Y-12337071D01*
X10969643Y-12308500D01*
X10998214Y-12294214D01*
X11041071Y-12294214D01*
X11069643Y-12308500D01*
X11183928Y-12608500D02*
X11198214Y-12594214D01*
X11226786Y-12551357D01*
X11241071Y-12522786D01*
X11255357Y-12479929D01*
X11269643Y-12408500D01*
X11269643Y-12351357D01*
X11255357Y-12279929D01*
X11241071Y-12237071D01*
X11226786Y-12208500D01*
X11198214Y-12165643D01*
X11183928Y-12151357D01*
X11726786Y-12608500D02*
X11712500Y-12594214D01*
X11683928Y-12551357D01*
X11669643Y-12522786D01*
X11655357Y-12479929D01*
X11641071Y-12408500D01*
X11641071Y-12351357D01*
X11655357Y-12279929D01*
X11669643Y-12237071D01*
X11683928Y-12208500D01*
X11712500Y-12165643D01*
X11726786Y-12151357D01*
X11841071Y-12294214D02*
X11841071Y-12494214D01*
X11841071Y-12322786D02*
X11855357Y-12308500D01*
X11883928Y-12294214D01*
X11926786Y-12294214D01*
X11955357Y-12308500D01*
X11969643Y-12337071D01*
X11969643Y-12494214D01*
X12155357Y-12494214D02*
X12126786Y-12479929D01*
X12112500Y-12465643D01*
X12098214Y-12437071D01*
X12098214Y-12351357D01*
X12112500Y-12322786D01*
X12126786Y-12308500D01*
X12155357Y-12294214D01*
X12198214Y-12294214D01*
X12226786Y-12308500D01*
X12241071Y-12322786D01*
X12255357Y-12351357D01*
X12255357Y-12437071D01*
X12241071Y-12465643D01*
X12226786Y-12479929D01*
X12198214Y-12494214D01*
X12155357Y-12494214D01*
X12341071Y-12294214D02*
X12455357Y-12294214D01*
X12383928Y-12194214D02*
X12383928Y-12451357D01*
X12398214Y-12479929D01*
X12426786Y-12494214D01*
X12455357Y-12494214D01*
X12783928Y-12294214D02*
X12783928Y-12594214D01*
X12783928Y-12308500D02*
X12812500Y-12294214D01*
X12869643Y-12294214D01*
X12898214Y-12308500D01*
X12912500Y-12322786D01*
X12926786Y-12351357D01*
X12926786Y-12437071D01*
X12912500Y-12465643D01*
X12898214Y-12479929D01*
X12869643Y-12494214D01*
X12812500Y-12494214D01*
X12783928Y-12479929D01*
X13098214Y-12494214D02*
X13069643Y-12479929D01*
X13055357Y-12451357D01*
X13055357Y-12194214D01*
X13341071Y-12494214D02*
X13341071Y-12337071D01*
X13326786Y-12308500D01*
X13298214Y-12294214D01*
X13241071Y-12294214D01*
X13212500Y-12308500D01*
X13341071Y-12479929D02*
X13312500Y-12494214D01*
X13241071Y-12494214D01*
X13212500Y-12479929D01*
X13198214Y-12451357D01*
X13198214Y-12422786D01*
X13212500Y-12394214D01*
X13241071Y-12379929D01*
X13312500Y-12379929D01*
X13341071Y-12365643D01*
X13441071Y-12294214D02*
X13555357Y-12294214D01*
X13483928Y-12194214D02*
X13483928Y-12451357D01*
X13498214Y-12479929D01*
X13526786Y-12494214D01*
X13555357Y-12494214D01*
X13769643Y-12479929D02*
X13741071Y-12494214D01*
X13683928Y-12494214D01*
X13655357Y-12479929D01*
X13641071Y-12451357D01*
X13641071Y-12337071D01*
X13655357Y-12308500D01*
X13683928Y-12294214D01*
X13741071Y-12294214D01*
X13769643Y-12308500D01*
X13783928Y-12337071D01*
X13783928Y-12365643D01*
X13641071Y-12394214D01*
X14041071Y-12494214D02*
X14041071Y-12194214D01*
X14041071Y-12479929D02*
X14012500Y-12494214D01*
X13955357Y-12494214D01*
X13926786Y-12479929D01*
X13912500Y-12465643D01*
X13898214Y-12437071D01*
X13898214Y-12351357D01*
X13912500Y-12322786D01*
X13926786Y-12308500D01*
X13955357Y-12294214D01*
X14012500Y-12294214D01*
X14041071Y-12308500D01*
X14155357Y-12608500D02*
X14169643Y-12594214D01*
X14198214Y-12551357D01*
X14212500Y-12522786D01*
X14226786Y-12479929D01*
X14241071Y-12408500D01*
X14241071Y-12351357D01*
X14226786Y-12279929D01*
X14212500Y-12237071D01*
X14198214Y-12208500D01*
X14169643Y-12165643D01*
X14155357Y-12151357D01*
X4592500Y-12649500D02*
X4592500Y-12859500D01*
X4487500Y-12754500D02*
X4697500Y-12754500D01*
X4969643Y-12618786D02*
X4983928Y-12604500D01*
X5012500Y-12590214D01*
X5083928Y-12590214D01*
X5112500Y-12604500D01*
X5126786Y-12618786D01*
X5141071Y-12647357D01*
X5141071Y-12675929D01*
X5126786Y-12718786D01*
X4955357Y-12890214D01*
X5141071Y-12890214D01*
X5269643Y-12861643D02*
X5283928Y-12875929D01*
X5269643Y-12890214D01*
X5255357Y-12875929D01*
X5269643Y-12861643D01*
X5269643Y-12890214D01*
X5569643Y-12890214D02*
X5398214Y-12890214D01*
X5483928Y-12890214D02*
X5483928Y-12590214D01*
X5455357Y-12633071D01*
X5426786Y-12661643D01*
X5398214Y-12675929D01*
X5755357Y-12590214D02*
X5783928Y-12590214D01*
X5812500Y-12604500D01*
X5826786Y-12618786D01*
X5841071Y-12647357D01*
X5855357Y-12704500D01*
X5855357Y-12775929D01*
X5841071Y-12833071D01*
X5826786Y-12861643D01*
X5812500Y-12875929D01*
X5783928Y-12890214D01*
X5755357Y-12890214D01*
X5726786Y-12875929D01*
X5712500Y-12861643D01*
X5698214Y-12833071D01*
X5683928Y-12775929D01*
X5683928Y-12704500D01*
X5698214Y-12647357D01*
X5712500Y-12618786D01*
X5726786Y-12604500D01*
X5755357Y-12590214D01*
X5983928Y-12890214D02*
X5983928Y-12690214D01*
X5983928Y-12718786D02*
X5998214Y-12704500D01*
X6026786Y-12690214D01*
X6069643Y-12690214D01*
X6098214Y-12704500D01*
X6112500Y-12733071D01*
X6112500Y-12890214D01*
X6112500Y-12733071D02*
X6126786Y-12704500D01*
X6155357Y-12690214D01*
X6198214Y-12690214D01*
X6226786Y-12704500D01*
X6241071Y-12733071D01*
X6241071Y-12890214D01*
X6383928Y-12890214D02*
X6383928Y-12690214D01*
X6383928Y-12718786D02*
X6398214Y-12704500D01*
X6426786Y-12690214D01*
X6469643Y-12690214D01*
X6498214Y-12704500D01*
X6512500Y-12733071D01*
X6512500Y-12890214D01*
X6512500Y-12733071D02*
X6526786Y-12704500D01*
X6555357Y-12690214D01*
X6598214Y-12690214D01*
X6626786Y-12704500D01*
X6641071Y-12733071D01*
X6641071Y-12890214D01*
X7226786Y-12575929D02*
X6969643Y-12961643D01*
X7612500Y-12590214D02*
X7641071Y-12590214D01*
X7669643Y-12604500D01*
X7683928Y-12618786D01*
X7698214Y-12647357D01*
X7712500Y-12704500D01*
X7712500Y-12775929D01*
X7698214Y-12833071D01*
X7683928Y-12861643D01*
X7669643Y-12875929D01*
X7641071Y-12890214D01*
X7612500Y-12890214D01*
X7583928Y-12875929D01*
X7569643Y-12861643D01*
X7555357Y-12833071D01*
X7541071Y-12775929D01*
X7541071Y-12704500D01*
X7555357Y-12647357D01*
X7569643Y-12618786D01*
X7583928Y-12604500D01*
X7612500Y-12590214D01*
X7841071Y-12861643D02*
X7855357Y-12875929D01*
X7841071Y-12890214D01*
X7826786Y-12875929D01*
X7841071Y-12861643D01*
X7841071Y-12890214D01*
X8041071Y-12590214D02*
X8069643Y-12590214D01*
X8098214Y-12604500D01*
X8112500Y-12618786D01*
X8126786Y-12647357D01*
X8141071Y-12704500D01*
X8141071Y-12775929D01*
X8126786Y-12833071D01*
X8112500Y-12861643D01*
X8098214Y-12875929D01*
X8069643Y-12890214D01*
X8041071Y-12890214D01*
X8012500Y-12875929D01*
X7998214Y-12861643D01*
X7983928Y-12833071D01*
X7969643Y-12775929D01*
X7969643Y-12704500D01*
X7983928Y-12647357D01*
X7998214Y-12618786D01*
X8012500Y-12604500D01*
X8041071Y-12590214D01*
X8312500Y-12718786D02*
X8283928Y-12704500D01*
X8269643Y-12690214D01*
X8255357Y-12661643D01*
X8255357Y-12647357D01*
X8269643Y-12618786D01*
X8283928Y-12604500D01*
X8312500Y-12590214D01*
X8369643Y-12590214D01*
X8398214Y-12604500D01*
X8412500Y-12618786D01*
X8426786Y-12647357D01*
X8426786Y-12661643D01*
X8412500Y-12690214D01*
X8398214Y-12704500D01*
X8369643Y-12718786D01*
X8312500Y-12718786D01*
X8283928Y-12733071D01*
X8269643Y-12747357D01*
X8255357Y-12775929D01*
X8255357Y-12833071D01*
X8269643Y-12861643D01*
X8283928Y-12875929D01*
X8312500Y-12890214D01*
X8369643Y-12890214D01*
X8398214Y-12875929D01*
X8412500Y-12861643D01*
X8426786Y-12833071D01*
X8426786Y-12775929D01*
X8412500Y-12747357D01*
X8398214Y-12733071D01*
X8369643Y-12718786D01*
X8526786Y-12590214D02*
X8712500Y-12590214D01*
X8612500Y-12704500D01*
X8655357Y-12704500D01*
X8683928Y-12718786D01*
X8698214Y-12733071D01*
X8712500Y-12761643D01*
X8712500Y-12833071D01*
X8698214Y-12861643D01*
X8683928Y-12875929D01*
X8655357Y-12890214D01*
X8569643Y-12890214D01*
X8541071Y-12875929D01*
X8526786Y-12861643D01*
X8826786Y-12590214D02*
X8826786Y-12647357D01*
X8941071Y-12590214D02*
X8941071Y-12647357D01*
X9383928Y-13004500D02*
X9369643Y-12990214D01*
X9341071Y-12947357D01*
X9326786Y-12918786D01*
X9312500Y-12875929D01*
X9298214Y-12804500D01*
X9298214Y-12747357D01*
X9312500Y-12675929D01*
X9326786Y-12633071D01*
X9341071Y-12604500D01*
X9369643Y-12561643D01*
X9383928Y-12547357D01*
X9483928Y-12618786D02*
X9498214Y-12604500D01*
X9526786Y-12590214D01*
X9598214Y-12590214D01*
X9626786Y-12604500D01*
X9641071Y-12618786D01*
X9655357Y-12647357D01*
X9655357Y-12675929D01*
X9641071Y-12718786D01*
X9469643Y-12890214D01*
X9655357Y-12890214D01*
X10012500Y-12890214D02*
X10012500Y-12590214D01*
X10141071Y-12890214D02*
X10141071Y-12733071D01*
X10126786Y-12704500D01*
X10098214Y-12690214D01*
X10055357Y-12690214D01*
X10026786Y-12704500D01*
X10012500Y-12718786D01*
X10326786Y-12890214D02*
X10298214Y-12875929D01*
X10283928Y-12861643D01*
X10269643Y-12833071D01*
X10269643Y-12747357D01*
X10283928Y-12718786D01*
X10298214Y-12704500D01*
X10326786Y-12690214D01*
X10369643Y-12690214D01*
X10398214Y-12704500D01*
X10412500Y-12718786D01*
X10426786Y-12747357D01*
X10426786Y-12833071D01*
X10412500Y-12861643D01*
X10398214Y-12875929D01*
X10369643Y-12890214D01*
X10326786Y-12890214D01*
X10598214Y-12890214D02*
X10569643Y-12875929D01*
X10555357Y-12847357D01*
X10555357Y-12590214D01*
X10826786Y-12875929D02*
X10798214Y-12890214D01*
X10741071Y-12890214D01*
X10712500Y-12875929D01*
X10698214Y-12847357D01*
X10698214Y-12733071D01*
X10712500Y-12704500D01*
X10741071Y-12690214D01*
X10798214Y-12690214D01*
X10826786Y-12704500D01*
X10841071Y-12733071D01*
X10841071Y-12761643D01*
X10698214Y-12790214D01*
X10955357Y-12875929D02*
X10983928Y-12890214D01*
X11041071Y-12890214D01*
X11069643Y-12875929D01*
X11083928Y-12847357D01*
X11083928Y-12833071D01*
X11069643Y-12804500D01*
X11041071Y-12790214D01*
X10998214Y-12790214D01*
X10969643Y-12775929D01*
X10955357Y-12747357D01*
X10955357Y-12733071D01*
X10969643Y-12704500D01*
X10998214Y-12690214D01*
X11041071Y-12690214D01*
X11069643Y-12704500D01*
X11183928Y-13004500D02*
X11198214Y-12990214D01*
X11226786Y-12947357D01*
X11241071Y-12918786D01*
X11255357Y-12875929D01*
X11269643Y-12804500D01*
X11269643Y-12747357D01*
X11255357Y-12675929D01*
X11241071Y-12633071D01*
X11226786Y-12604500D01*
X11198214Y-12561643D01*
X11183928Y-12547357D01*
X11726786Y-13004500D02*
X11712500Y-12990214D01*
X11683928Y-12947357D01*
X11669643Y-12918786D01*
X11655357Y-12875929D01*
X11641071Y-12804500D01*
X11641071Y-12747357D01*
X11655357Y-12675929D01*
X11669643Y-12633071D01*
X11683928Y-12604500D01*
X11712500Y-12561643D01*
X11726786Y-12547357D01*
X11841071Y-12690214D02*
X11841071Y-12890214D01*
X11841071Y-12718786D02*
X11855357Y-12704500D01*
X11883928Y-12690214D01*
X11926786Y-12690214D01*
X11955357Y-12704500D01*
X11969643Y-12733071D01*
X11969643Y-12890214D01*
X12155357Y-12890214D02*
X12126786Y-12875929D01*
X12112500Y-12861643D01*
X12098214Y-12833071D01*
X12098214Y-12747357D01*
X12112500Y-12718786D01*
X12126786Y-12704500D01*
X12155357Y-12690214D01*
X12198214Y-12690214D01*
X12226786Y-12704500D01*
X12241071Y-12718786D01*
X12255357Y-12747357D01*
X12255357Y-12833071D01*
X12241071Y-12861643D01*
X12226786Y-12875929D01*
X12198214Y-12890214D01*
X12155357Y-12890214D01*
X12341071Y-12690214D02*
X12455357Y-12690214D01*
X12383928Y-12590214D02*
X12383928Y-12847357D01*
X12398214Y-12875929D01*
X12426786Y-12890214D01*
X12455357Y-12890214D01*
X12783928Y-12690214D02*
X12783928Y-12990214D01*
X12783928Y-12704500D02*
X12812500Y-12690214D01*
X12869643Y-12690214D01*
X12898214Y-12704500D01*
X12912500Y-12718786D01*
X12926786Y-12747357D01*
X12926786Y-12833071D01*
X12912500Y-12861643D01*
X12898214Y-12875929D01*
X12869643Y-12890214D01*
X12812500Y-12890214D01*
X12783928Y-12875929D01*
X13098214Y-12890214D02*
X13069643Y-12875929D01*
X13055357Y-12847357D01*
X13055357Y-12590214D01*
X13341071Y-12890214D02*
X13341071Y-12733071D01*
X13326786Y-12704500D01*
X13298214Y-12690214D01*
X13241071Y-12690214D01*
X13212500Y-12704500D01*
X13341071Y-12875929D02*
X13312500Y-12890214D01*
X13241071Y-12890214D01*
X13212500Y-12875929D01*
X13198214Y-12847357D01*
X13198214Y-12818786D01*
X13212500Y-12790214D01*
X13241071Y-12775929D01*
X13312500Y-12775929D01*
X13341071Y-12761643D01*
X13441071Y-12690214D02*
X13555357Y-12690214D01*
X13483928Y-12590214D02*
X13483928Y-12847357D01*
X13498214Y-12875929D01*
X13526786Y-12890214D01*
X13555357Y-12890214D01*
X13769643Y-12875929D02*
X13741071Y-12890214D01*
X13683928Y-12890214D01*
X13655357Y-12875929D01*
X13641071Y-12847357D01*
X13641071Y-12733071D01*
X13655357Y-12704500D01*
X13683928Y-12690214D01*
X13741071Y-12690214D01*
X13769643Y-12704500D01*
X13783928Y-12733071D01*
X13783928Y-12761643D01*
X13641071Y-12790214D01*
X14041071Y-12890214D02*
X14041071Y-12590214D01*
X14041071Y-12875929D02*
X14012500Y-12890214D01*
X13955357Y-12890214D01*
X13926786Y-12875929D01*
X13912500Y-12861643D01*
X13898214Y-12833071D01*
X13898214Y-12747357D01*
X13912500Y-12718786D01*
X13926786Y-12704500D01*
X13955357Y-12690214D01*
X14012500Y-12690214D01*
X14041071Y-12704500D01*
X14155357Y-13004500D02*
X14169643Y-12990214D01*
X14198214Y-12947357D01*
X14212500Y-12918786D01*
X14226786Y-12875929D01*
X14241071Y-12804500D01*
X14241071Y-12747357D01*
X14226786Y-12675929D01*
X14212500Y-12633071D01*
X14198214Y-12604500D01*
X14169643Y-12561643D01*
X14155357Y-12547357D01*
X4658839Y-13243839D02*
X4658839Y-13057161D01*
X4472161Y-13057161D01*
X4472161Y-13243839D01*
X4658839Y-13243839D01*
X4969643Y-13014786D02*
X4983928Y-13000500D01*
X5012500Y-12986214D01*
X5083928Y-12986214D01*
X5112500Y-13000500D01*
X5126786Y-13014786D01*
X5141071Y-13043357D01*
X5141071Y-13071929D01*
X5126786Y-13114786D01*
X4955357Y-13286214D01*
X5141071Y-13286214D01*
X5269643Y-13257643D02*
X5283928Y-13271929D01*
X5269643Y-13286214D01*
X5255357Y-13271929D01*
X5269643Y-13257643D01*
X5269643Y-13286214D01*
X5541071Y-12986214D02*
X5483928Y-12986214D01*
X5455357Y-13000500D01*
X5441071Y-13014786D01*
X5412500Y-13057643D01*
X5398214Y-13114786D01*
X5398214Y-13229071D01*
X5412500Y-13257643D01*
X5426786Y-13271929D01*
X5455357Y-13286214D01*
X5512500Y-13286214D01*
X5541071Y-13271929D01*
X5555357Y-13257643D01*
X5569643Y-13229071D01*
X5569643Y-13157643D01*
X5555357Y-13129071D01*
X5541071Y-13114786D01*
X5512500Y-13100500D01*
X5455357Y-13100500D01*
X5426786Y-13114786D01*
X5412500Y-13129071D01*
X5398214Y-13157643D01*
X5826786Y-13086214D02*
X5826786Y-13286214D01*
X5755357Y-12971929D02*
X5683928Y-13186214D01*
X5869643Y-13186214D01*
X5983928Y-13286214D02*
X5983928Y-13086214D01*
X5983928Y-13114786D02*
X5998214Y-13100500D01*
X6026786Y-13086214D01*
X6069643Y-13086214D01*
X6098214Y-13100500D01*
X6112500Y-13129071D01*
X6112500Y-13286214D01*
X6112500Y-13129071D02*
X6126786Y-13100500D01*
X6155357Y-13086214D01*
X6198214Y-13086214D01*
X6226786Y-13100500D01*
X6241071Y-13129071D01*
X6241071Y-13286214D01*
X6383928Y-13286214D02*
X6383928Y-13086214D01*
X6383928Y-13114786D02*
X6398214Y-13100500D01*
X6426786Y-13086214D01*
X6469643Y-13086214D01*
X6498214Y-13100500D01*
X6512500Y-13129071D01*
X6512500Y-13286214D01*
X6512500Y-13129071D02*
X6526786Y-13100500D01*
X6555357Y-13086214D01*
X6598214Y-13086214D01*
X6626786Y-13100500D01*
X6641071Y-13129071D01*
X6641071Y-13286214D01*
X7226786Y-12971929D02*
X6969643Y-13357643D01*
X7612500Y-12986214D02*
X7641071Y-12986214D01*
X7669643Y-13000500D01*
X7683928Y-13014786D01*
X7698214Y-13043357D01*
X7712500Y-13100500D01*
X7712500Y-13171929D01*
X7698214Y-13229071D01*
X7683928Y-13257643D01*
X7669643Y-13271929D01*
X7641071Y-13286214D01*
X7612500Y-13286214D01*
X7583928Y-13271929D01*
X7569643Y-13257643D01*
X7555357Y-13229071D01*
X7541071Y-13171929D01*
X7541071Y-13100500D01*
X7555357Y-13043357D01*
X7569643Y-13014786D01*
X7583928Y-13000500D01*
X7612500Y-12986214D01*
X7841071Y-13257643D02*
X7855357Y-13271929D01*
X7841071Y-13286214D01*
X7826786Y-13271929D01*
X7841071Y-13257643D01*
X7841071Y-13286214D01*
X8141071Y-13286214D02*
X7969643Y-13286214D01*
X8055357Y-13286214D02*
X8055357Y-12986214D01*
X8026786Y-13029071D01*
X7998214Y-13057643D01*
X7969643Y-13071929D01*
X8326786Y-12986214D02*
X8355357Y-12986214D01*
X8383928Y-13000500D01*
X8398214Y-13014786D01*
X8412500Y-13043357D01*
X8426786Y-13100500D01*
X8426786Y-13171929D01*
X8412500Y-13229071D01*
X8398214Y-13257643D01*
X8383928Y-13271929D01*
X8355357Y-13286214D01*
X8326786Y-13286214D01*
X8298214Y-13271929D01*
X8283928Y-13257643D01*
X8269643Y-13229071D01*
X8255357Y-13171929D01*
X8255357Y-13100500D01*
X8269643Y-13043357D01*
X8283928Y-13014786D01*
X8298214Y-13000500D01*
X8326786Y-12986214D01*
X8683928Y-13086214D02*
X8683928Y-13286214D01*
X8612500Y-12971929D02*
X8541071Y-13186214D01*
X8726786Y-13186214D01*
X8826786Y-12986214D02*
X8826786Y-13043357D01*
X8941071Y-12986214D02*
X8941071Y-13043357D01*
X9383928Y-13400500D02*
X9369643Y-13386214D01*
X9341071Y-13343357D01*
X9326786Y-13314786D01*
X9312500Y-13271929D01*
X9298214Y-13200500D01*
X9298214Y-13143357D01*
X9312500Y-13071929D01*
X9326786Y-13029071D01*
X9341071Y-13000500D01*
X9369643Y-12957643D01*
X9383928Y-12943357D01*
X9626786Y-13086214D02*
X9626786Y-13286214D01*
X9555357Y-12971929D02*
X9483928Y-13186214D01*
X9669643Y-13186214D01*
X10012500Y-13286214D02*
X10012500Y-12986214D01*
X10141071Y-13286214D02*
X10141071Y-13129071D01*
X10126786Y-13100500D01*
X10098214Y-13086214D01*
X10055357Y-13086214D01*
X10026786Y-13100500D01*
X10012500Y-13114786D01*
X10326786Y-13286214D02*
X10298214Y-13271929D01*
X10283928Y-13257643D01*
X10269643Y-13229071D01*
X10269643Y-13143357D01*
X10283928Y-13114786D01*
X10298214Y-13100500D01*
X10326786Y-13086214D01*
X10369643Y-13086214D01*
X10398214Y-13100500D01*
X10412500Y-13114786D01*
X10426786Y-13143357D01*
X10426786Y-13229071D01*
X10412500Y-13257643D01*
X10398214Y-13271929D01*
X10369643Y-13286214D01*
X10326786Y-13286214D01*
X10598214Y-13286214D02*
X10569643Y-13271929D01*
X10555357Y-13243357D01*
X10555357Y-12986214D01*
X10826786Y-13271929D02*
X10798214Y-13286214D01*
X10741071Y-13286214D01*
X10712500Y-13271929D01*
X10698214Y-13243357D01*
X10698214Y-13129071D01*
X10712500Y-13100500D01*
X10741071Y-13086214D01*
X10798214Y-13086214D01*
X10826786Y-13100500D01*
X10841071Y-13129071D01*
X10841071Y-13157643D01*
X10698214Y-13186214D01*
X10955357Y-13271929D02*
X10983928Y-13286214D01*
X11041071Y-13286214D01*
X11069643Y-13271929D01*
X11083928Y-13243357D01*
X11083928Y-13229071D01*
X11069643Y-13200500D01*
X11041071Y-13186214D01*
X10998214Y-13186214D01*
X10969643Y-13171929D01*
X10955357Y-13143357D01*
X10955357Y-13129071D01*
X10969643Y-13100500D01*
X10998214Y-13086214D01*
X11041071Y-13086214D01*
X11069643Y-13100500D01*
X11183928Y-13400500D02*
X11198214Y-13386214D01*
X11226786Y-13343357D01*
X11241071Y-13314786D01*
X11255357Y-13271929D01*
X11269643Y-13200500D01*
X11269643Y-13143357D01*
X11255357Y-13071929D01*
X11241071Y-13029071D01*
X11226786Y-13000500D01*
X11198214Y-12957643D01*
X11183928Y-12943357D01*
X11726786Y-13400500D02*
X11712500Y-13386214D01*
X11683928Y-13343357D01*
X11669643Y-13314786D01*
X11655357Y-13271929D01*
X11641071Y-13200500D01*
X11641071Y-13143357D01*
X11655357Y-13071929D01*
X11669643Y-13029071D01*
X11683928Y-13000500D01*
X11712500Y-12957643D01*
X11726786Y-12943357D01*
X11841071Y-13086214D02*
X11841071Y-13286214D01*
X11841071Y-13114786D02*
X11855357Y-13100500D01*
X11883928Y-13086214D01*
X11926786Y-13086214D01*
X11955357Y-13100500D01*
X11969643Y-13129071D01*
X11969643Y-13286214D01*
X12155357Y-13286214D02*
X12126786Y-13271929D01*
X12112500Y-13257643D01*
X12098214Y-13229071D01*
X12098214Y-13143357D01*
X12112500Y-13114786D01*
X12126786Y-13100500D01*
X12155357Y-13086214D01*
X12198214Y-13086214D01*
X12226786Y-13100500D01*
X12241071Y-13114786D01*
X12255357Y-13143357D01*
X12255357Y-13229071D01*
X12241071Y-13257643D01*
X12226786Y-13271929D01*
X12198214Y-13286214D01*
X12155357Y-13286214D01*
X12341071Y-13086214D02*
X12455357Y-13086214D01*
X12383928Y-12986214D02*
X12383928Y-13243357D01*
X12398214Y-13271929D01*
X12426786Y-13286214D01*
X12455357Y-13286214D01*
X12783928Y-13086214D02*
X12783928Y-13386214D01*
X12783928Y-13100500D02*
X12812500Y-13086214D01*
X12869643Y-13086214D01*
X12898214Y-13100500D01*
X12912500Y-13114786D01*
X12926786Y-13143357D01*
X12926786Y-13229071D01*
X12912500Y-13257643D01*
X12898214Y-13271929D01*
X12869643Y-13286214D01*
X12812500Y-13286214D01*
X12783928Y-13271929D01*
X13098214Y-13286214D02*
X13069643Y-13271929D01*
X13055357Y-13243357D01*
X13055357Y-12986214D01*
X13341071Y-13286214D02*
X13341071Y-13129071D01*
X13326786Y-13100500D01*
X13298214Y-13086214D01*
X13241071Y-13086214D01*
X13212500Y-13100500D01*
X13341071Y-13271929D02*
X13312500Y-13286214D01*
X13241071Y-13286214D01*
X13212500Y-13271929D01*
X13198214Y-13243357D01*
X13198214Y-13214786D01*
X13212500Y-13186214D01*
X13241071Y-13171929D01*
X13312500Y-13171929D01*
X13341071Y-13157643D01*
X13441071Y-13086214D02*
X13555357Y-13086214D01*
X13483928Y-12986214D02*
X13483928Y-13243357D01*
X13498214Y-13271929D01*
X13526786Y-13286214D01*
X13555357Y-13286214D01*
X13769643Y-13271929D02*
X13741071Y-13286214D01*
X13683928Y-13286214D01*
X13655357Y-13271929D01*
X13641071Y-13243357D01*
X13641071Y-13129071D01*
X13655357Y-13100500D01*
X13683928Y-13086214D01*
X13741071Y-13086214D01*
X13769643Y-13100500D01*
X13783928Y-13129071D01*
X13783928Y-13157643D01*
X13641071Y-13186214D01*
X14041071Y-13286214D02*
X14041071Y-12986214D01*
X14041071Y-13271929D02*
X14012500Y-13286214D01*
X13955357Y-13286214D01*
X13926786Y-13271929D01*
X13912500Y-13257643D01*
X13898214Y-13229071D01*
X13898214Y-13143357D01*
X13912500Y-13114786D01*
X13926786Y-13100500D01*
X13955357Y-13086214D01*
X14012500Y-13086214D01*
X14041071Y-13100500D01*
X14155357Y-13400500D02*
X14169643Y-13386214D01*
X14198214Y-13343357D01*
X14212500Y-13314786D01*
X14226786Y-13271929D01*
X14241071Y-13200500D01*
X14241071Y-13143357D01*
X14226786Y-13071929D01*
X14212500Y-13029071D01*
X14198214Y-13000500D01*
X14169643Y-12957643D01*
X14155357Y-12943357D01*
M02*
