M48
; DRILL file {KiCad (5.1.7)-1} date 06/29/21 10:57:20
; FORMAT={-:-/ absolute / metric / decimal}
; #@! TF.CreationDate,2021-06-29T10:57:20+02:00
; #@! TF.GenerationSoftware,Kicad,Pcbnew,(5.1.7)-1
; #@! TF.FileFunction,Plated,1,2,PTH
FMAT,2
METRIC
T1C0.400
T2C0.762
T3C1.000
T4C1.020
%
G90
G05
T1
X52.2Y-73.9
X53.5Y-63.4
X53.8Y-37.6
X56.0Y-45.5
X59.4Y-105.2
X59.6Y-61.0
X59.6Y-62.4
X59.6Y-63.775
X59.75Y-66.9
X60.4Y-52.6
X60.6Y-50.6
X60.6Y-57.8
X63.5Y-82.9
X65.0Y-43.8
X65.2Y-45.6
X65.3Y-102.7
X66.3Y-63.0
X68.6Y-45.6
X70.67Y-42.33
X75.0Y-103.2
X75.05Y-72.35
X76.4Y-63.8
X77.0Y-51.5
X77.55Y-41.45
X81.75Y-48.75
X82.105Y-41.1
X92.05Y-73.1
X96.1Y-80.3
X96.2Y-86.9
X97.4Y-105.4
X99.4Y-36.0
X100.6Y-49.6
X102.05Y-57.0
X103.3Y-102.9
X104.1Y-40.5
X106.0Y-36.6
X106.95Y-63.55
X113.0Y-100.0
T2
X56.1Y-75.05
X56.1Y-86.55
T3
X117.0Y-42.6
X117.0Y-45.14
X117.0Y-47.68
X117.0Y-50.22
X117.0Y-52.76
X117.0Y-55.3
X93.78Y-46.2
X96.32Y-46.2
X98.86Y-46.2
X101.4Y-46.2
X86.0Y-41.0
X86.0Y-43.54
X86.0Y-46.08
X86.0Y-48.62
X86.0Y-51.16
X86.0Y-53.7
X86.0Y-56.24
X86.0Y-58.78
X108.86Y-41.0
X108.86Y-43.54
X108.86Y-46.08
X108.86Y-48.62
X108.86Y-51.16
X108.86Y-53.7
X108.86Y-56.24
X108.86Y-58.78
X92.58Y-52.4
X95.12Y-52.4
X97.66Y-52.4
X100.2Y-52.4
T4
X64.0Y-61.0
X115.99Y-61.0
X64.0Y-79.0
X115.99Y-79.0
T0
M30
