G04 #@! TF.GenerationSoftware,KiCad,Pcbnew,(5.1.7)-1*
G04 #@! TF.CreationDate,2021-06-27T15:04:39+02:00*
G04 #@! TF.ProjectId,TwomesSensor,54776f6d-6573-4536-956e-736f722e6b69,rev?*
G04 #@! TF.SameCoordinates,Original*
G04 #@! TF.FileFunction,Legend,Top*
G04 #@! TF.FilePolarity,Positive*
%FSLAX46Y46*%
G04 Gerber Fmt 4.6, Leading zero omitted, Abs format (unit mm)*
G04 Created by KiCad (PCBNEW (5.1.7)-1) date 2021-06-27 15:04:39*
%MOMM*%
%LPD*%
G01*
G04 APERTURE LIST*
%ADD10C,0.150000*%
%ADD11C,0.100000*%
%ADD12C,0.200000*%
%ADD13C,0.120000*%
%ADD14O,1.700000X1.700000*%
%ADD15R,1.700000X1.700000*%
%ADD16C,2.100000*%
%ADD17C,0.787400*%
%ADD18C,1.900000*%
%ADD19R,2.000000X0.900000*%
%ADD20R,0.900000X2.000000*%
%ADD21R,5.000000X5.000000*%
%ADD22R,2.000000X2.000000*%
%ADD23C,2.000000*%
%ADD24C,2.640000*%
%ADD25R,1.300000X1.550000*%
%ADD26C,1.524000*%
%ADD27R,1.500000X2.400000*%
%ADD28O,2.000000X1.600000*%
%ADD29R,1.550000X1.300000*%
%ADD30R,0.800000X0.900000*%
%ADD31R,0.900000X0.800000*%
%ADD32R,1.200000X2.000000*%
G04 APERTURE END LIST*
D10*
X116027380Y-75600000D02*
X116027380Y-76076190D01*
X115027380Y-76076190D01*
X116027380Y-75266666D02*
X115360714Y-75266666D01*
X115027380Y-75266666D02*
X115075000Y-75314285D01*
X115122619Y-75266666D01*
X115075000Y-75219047D01*
X115027380Y-75266666D01*
X115122619Y-75266666D01*
X115979761Y-74361904D02*
X116027380Y-74457142D01*
X116027380Y-74647619D01*
X115979761Y-74742857D01*
X115932142Y-74790476D01*
X115836904Y-74838095D01*
X115551190Y-74838095D01*
X115455952Y-74790476D01*
X115408333Y-74742857D01*
X115360714Y-74647619D01*
X115360714Y-74457142D01*
X115408333Y-74361904D01*
X115979761Y-73552380D02*
X116027380Y-73647619D01*
X116027380Y-73838095D01*
X115979761Y-73933333D01*
X115884523Y-73980952D01*
X115503571Y-73980952D01*
X115408333Y-73933333D01*
X115360714Y-73838095D01*
X115360714Y-73647619D01*
X115408333Y-73552380D01*
X115503571Y-73504761D01*
X115598809Y-73504761D01*
X115694047Y-73980952D01*
X115360714Y-73076190D02*
X116027380Y-73076190D01*
X115455952Y-73076190D02*
X115408333Y-73028571D01*
X115360714Y-72933333D01*
X115360714Y-72790476D01*
X115408333Y-72695238D01*
X115503571Y-72647619D01*
X116027380Y-72647619D01*
X115979761Y-72219047D02*
X116027380Y-72123809D01*
X116027380Y-71933333D01*
X115979761Y-71838095D01*
X115884523Y-71790476D01*
X115836904Y-71790476D01*
X115741666Y-71838095D01*
X115694047Y-71933333D01*
X115694047Y-72076190D01*
X115646428Y-72171428D01*
X115551190Y-72219047D01*
X115503571Y-72219047D01*
X115408333Y-72171428D01*
X115360714Y-72076190D01*
X115360714Y-71933333D01*
X115408333Y-71838095D01*
X115979761Y-70980952D02*
X116027380Y-71076190D01*
X116027380Y-71266666D01*
X115979761Y-71361904D01*
X115884523Y-71409523D01*
X115503571Y-71409523D01*
X115408333Y-71361904D01*
X115360714Y-71266666D01*
X115360714Y-71076190D01*
X115408333Y-70980952D01*
X115503571Y-70933333D01*
X115598809Y-70933333D01*
X115694047Y-71409523D01*
X116027380Y-70076190D02*
X115027380Y-70076190D01*
X115979761Y-70076190D02*
X116027380Y-70171428D01*
X116027380Y-70361904D01*
X115979761Y-70457142D01*
X115932142Y-70504761D01*
X115836904Y-70552380D01*
X115551190Y-70552380D01*
X115455952Y-70504761D01*
X115408333Y-70457142D01*
X115360714Y-70361904D01*
X115360714Y-70171428D01*
X115408333Y-70076190D01*
X115360714Y-68409523D02*
X116027380Y-68409523D01*
X115360714Y-68838095D02*
X115884523Y-68838095D01*
X115979761Y-68790476D01*
X116027380Y-68695238D01*
X116027380Y-68552380D01*
X115979761Y-68457142D01*
X115932142Y-68409523D01*
X115360714Y-67933333D02*
X116027380Y-67933333D01*
X115455952Y-67933333D02*
X115408333Y-67885714D01*
X115360714Y-67790476D01*
X115360714Y-67647619D01*
X115408333Y-67552380D01*
X115503571Y-67504761D01*
X116027380Y-67504761D01*
X116027380Y-66600000D02*
X115027380Y-66600000D01*
X115979761Y-66600000D02*
X116027380Y-66695238D01*
X116027380Y-66885714D01*
X115979761Y-66980952D01*
X115932142Y-67028571D01*
X115836904Y-67076190D01*
X115551190Y-67076190D01*
X115455952Y-67028571D01*
X115408333Y-66980952D01*
X115360714Y-66885714D01*
X115360714Y-66695238D01*
X115408333Y-66600000D01*
X115979761Y-65742857D02*
X116027380Y-65838095D01*
X116027380Y-66028571D01*
X115979761Y-66123809D01*
X115884523Y-66171428D01*
X115503571Y-66171428D01*
X115408333Y-66123809D01*
X115360714Y-66028571D01*
X115360714Y-65838095D01*
X115408333Y-65742857D01*
X115503571Y-65695238D01*
X115598809Y-65695238D01*
X115694047Y-66171428D01*
X116027380Y-65266666D02*
X115360714Y-65266666D01*
X115551190Y-65266666D02*
X115455952Y-65219047D01*
X115408333Y-65171428D01*
X115360714Y-65076190D01*
X115360714Y-64980952D01*
X117582142Y-76195238D02*
X117629761Y-76242857D01*
X117677380Y-76385714D01*
X117677380Y-76480952D01*
X117629761Y-76623809D01*
X117534523Y-76719047D01*
X117439285Y-76766666D01*
X117248809Y-76814285D01*
X117105952Y-76814285D01*
X116915476Y-76766666D01*
X116820238Y-76719047D01*
X116725000Y-76623809D01*
X116677380Y-76480952D01*
X116677380Y-76385714D01*
X116725000Y-76242857D01*
X116772619Y-76195238D01*
X117153571Y-75766666D02*
X117153571Y-75433333D01*
X117677380Y-75290476D02*
X117677380Y-75766666D01*
X116677380Y-75766666D01*
X116677380Y-75290476D01*
X117677380Y-74290476D02*
X117201190Y-74623809D01*
X117677380Y-74861904D02*
X116677380Y-74861904D01*
X116677380Y-74480952D01*
X116725000Y-74385714D01*
X116772619Y-74338095D01*
X116867857Y-74290476D01*
X117010714Y-74290476D01*
X117105952Y-74338095D01*
X117153571Y-74385714D01*
X117201190Y-74480952D01*
X117201190Y-74861904D01*
X117677380Y-73861904D02*
X116677380Y-73861904D01*
X117677380Y-73290476D01*
X116677380Y-73290476D01*
X117296428Y-72814285D02*
X117296428Y-72052380D01*
X116677380Y-71385714D02*
X116677380Y-71195238D01*
X116725000Y-71100000D01*
X116820238Y-71004761D01*
X117010714Y-70957142D01*
X117344047Y-70957142D01*
X117534523Y-71004761D01*
X117629761Y-71100000D01*
X117677380Y-71195238D01*
X117677380Y-71385714D01*
X117629761Y-71480952D01*
X117534523Y-71576190D01*
X117344047Y-71623809D01*
X117010714Y-71623809D01*
X116820238Y-71576190D01*
X116725000Y-71480952D01*
X116677380Y-71385714D01*
X117677380Y-70528571D02*
X116677380Y-70528571D01*
X117153571Y-70528571D02*
X117153571Y-69957142D01*
X117677380Y-69957142D02*
X116677380Y-69957142D01*
X117677380Y-69004761D02*
X117677380Y-69480952D01*
X116677380Y-69480952D01*
X117296428Y-68671428D02*
X117296428Y-67909523D01*
X117677380Y-67433333D02*
X116677380Y-67433333D01*
X116677380Y-67052380D01*
X116725000Y-66957142D01*
X116772619Y-66909523D01*
X116867857Y-66861904D01*
X117010714Y-66861904D01*
X117105952Y-66909523D01*
X117153571Y-66957142D01*
X117201190Y-67052380D01*
X117201190Y-67433333D01*
X117010714Y-65766666D02*
X117677380Y-65528571D01*
X117010714Y-65290476D01*
X116772619Y-64957142D02*
X116725000Y-64909523D01*
X116677380Y-64814285D01*
X116677380Y-64576190D01*
X116725000Y-64480952D01*
X116772619Y-64433333D01*
X116867857Y-64385714D01*
X116963095Y-64385714D01*
X117105952Y-64433333D01*
X117677380Y-65004761D01*
X117677380Y-64385714D01*
X92804761Y-56814285D02*
X92852380Y-56671428D01*
X92852380Y-56433333D01*
X92804761Y-56338095D01*
X92757142Y-56290476D01*
X92661904Y-56242857D01*
X92566666Y-56242857D01*
X92471428Y-56290476D01*
X92423809Y-56338095D01*
X92376190Y-56433333D01*
X92328571Y-56623809D01*
X92280952Y-56719047D01*
X92233333Y-56766666D01*
X92138095Y-56814285D01*
X92042857Y-56814285D01*
X91947619Y-56766666D01*
X91900000Y-56719047D01*
X91852380Y-56623809D01*
X91852380Y-56385714D01*
X91900000Y-56242857D01*
X92852380Y-55814285D02*
X91852380Y-55814285D01*
X91852380Y-55576190D01*
X91900000Y-55433333D01*
X91995238Y-55338095D01*
X92090476Y-55290476D01*
X92280952Y-55242857D01*
X92423809Y-55242857D01*
X92614285Y-55290476D01*
X92709523Y-55338095D01*
X92804761Y-55433333D01*
X92852380Y-55576190D01*
X92852380Y-55814285D01*
X92566666Y-54861904D02*
X92566666Y-54385714D01*
X92852380Y-54957142D02*
X91852380Y-54623809D01*
X92852380Y-54290476D01*
X97252380Y-56933333D02*
X98252380Y-56600000D01*
X97252380Y-56266666D01*
X98157142Y-55361904D02*
X98204761Y-55409523D01*
X98252380Y-55552380D01*
X98252380Y-55647619D01*
X98204761Y-55790476D01*
X98109523Y-55885714D01*
X98014285Y-55933333D01*
X97823809Y-55980952D01*
X97680952Y-55980952D01*
X97490476Y-55933333D01*
X97395238Y-55885714D01*
X97300000Y-55790476D01*
X97252380Y-55647619D01*
X97252380Y-55552380D01*
X97300000Y-55409523D01*
X97347619Y-55361904D01*
X98157142Y-54361904D02*
X98204761Y-54409523D01*
X98252380Y-54552380D01*
X98252380Y-54647619D01*
X98204761Y-54790476D01*
X98109523Y-54885714D01*
X98014285Y-54933333D01*
X97823809Y-54980952D01*
X97680952Y-54980952D01*
X97490476Y-54933333D01*
X97395238Y-54885714D01*
X97300000Y-54790476D01*
X97252380Y-54647619D01*
X97252380Y-54552380D01*
X97300000Y-54409523D01*
X97347619Y-54361904D01*
X99900000Y-56361904D02*
X99852380Y-56457142D01*
X99852380Y-56600000D01*
X99900000Y-56742857D01*
X99995238Y-56838095D01*
X100090476Y-56885714D01*
X100280952Y-56933333D01*
X100423809Y-56933333D01*
X100614285Y-56885714D01*
X100709523Y-56838095D01*
X100804761Y-56742857D01*
X100852380Y-56600000D01*
X100852380Y-56504761D01*
X100804761Y-56361904D01*
X100757142Y-56314285D01*
X100423809Y-56314285D01*
X100423809Y-56504761D01*
X100852380Y-55885714D02*
X99852380Y-55885714D01*
X100852380Y-55314285D01*
X99852380Y-55314285D01*
X100852380Y-54838095D02*
X99852380Y-54838095D01*
X99852380Y-54600000D01*
X99900000Y-54457142D01*
X99995238Y-54361904D01*
X100090476Y-54314285D01*
X100280952Y-54266666D01*
X100423809Y-54266666D01*
X100614285Y-54314285D01*
X100709523Y-54361904D01*
X100804761Y-54457142D01*
X100852380Y-54600000D01*
X100852380Y-54838095D01*
X95404761Y-56790476D02*
X95452380Y-56647619D01*
X95452380Y-56409523D01*
X95404761Y-56314285D01*
X95357142Y-56266666D01*
X95261904Y-56219047D01*
X95166666Y-56219047D01*
X95071428Y-56266666D01*
X95023809Y-56314285D01*
X94976190Y-56409523D01*
X94928571Y-56600000D01*
X94880952Y-56695238D01*
X94833333Y-56742857D01*
X94738095Y-56790476D01*
X94642857Y-56790476D01*
X94547619Y-56742857D01*
X94500000Y-56695238D01*
X94452380Y-56600000D01*
X94452380Y-56361904D01*
X94500000Y-56219047D01*
X95357142Y-55219047D02*
X95404761Y-55266666D01*
X95452380Y-55409523D01*
X95452380Y-55504761D01*
X95404761Y-55647619D01*
X95309523Y-55742857D01*
X95214285Y-55790476D01*
X95023809Y-55838095D01*
X94880952Y-55838095D01*
X94690476Y-55790476D01*
X94595238Y-55742857D01*
X94500000Y-55647619D01*
X94452380Y-55504761D01*
X94452380Y-55409523D01*
X94500000Y-55266666D01*
X94547619Y-55219047D01*
X95452380Y-54314285D02*
X95452380Y-54790476D01*
X94452380Y-54790476D01*
X48127380Y-75714285D02*
X49127380Y-75476190D01*
X48413095Y-75285714D01*
X49127380Y-75095238D01*
X48127380Y-74857142D01*
X49127380Y-74476190D02*
X48460714Y-74476190D01*
X48127380Y-74476190D02*
X48175000Y-74523809D01*
X48222619Y-74476190D01*
X48175000Y-74428571D01*
X48127380Y-74476190D01*
X48222619Y-74476190D01*
X48460714Y-74000000D02*
X49127380Y-74000000D01*
X48555952Y-74000000D02*
X48508333Y-73952380D01*
X48460714Y-73857142D01*
X48460714Y-73714285D01*
X48508333Y-73619047D01*
X48603571Y-73571428D01*
X49127380Y-73571428D01*
X49127380Y-72666666D02*
X48127380Y-72666666D01*
X49079761Y-72666666D02*
X49127380Y-72761904D01*
X49127380Y-72952380D01*
X49079761Y-73047619D01*
X49032142Y-73095238D01*
X48936904Y-73142857D01*
X48651190Y-73142857D01*
X48555952Y-73095238D01*
X48508333Y-73047619D01*
X48460714Y-72952380D01*
X48460714Y-72761904D01*
X48508333Y-72666666D01*
X49079761Y-71809523D02*
X49127380Y-71904761D01*
X49127380Y-72095238D01*
X49079761Y-72190476D01*
X48984523Y-72238095D01*
X48603571Y-72238095D01*
X48508333Y-72190476D01*
X48460714Y-72095238D01*
X48460714Y-71904761D01*
X48508333Y-71809523D01*
X48603571Y-71761904D01*
X48698809Y-71761904D01*
X48794047Y-72238095D01*
X49079761Y-71380952D02*
X49127380Y-71285714D01*
X49127380Y-71095238D01*
X49079761Y-71000000D01*
X48984523Y-70952380D01*
X48936904Y-70952380D01*
X48841666Y-71000000D01*
X48794047Y-71095238D01*
X48794047Y-71238095D01*
X48746428Y-71333333D01*
X48651190Y-71380952D01*
X48603571Y-71380952D01*
X48508333Y-71333333D01*
X48460714Y-71238095D01*
X48460714Y-71095238D01*
X48508333Y-71000000D01*
X49127380Y-70523809D02*
X48127380Y-70523809D01*
X49127380Y-70095238D02*
X48603571Y-70095238D01*
X48508333Y-70142857D01*
X48460714Y-70238095D01*
X48460714Y-70380952D01*
X48508333Y-70476190D01*
X48555952Y-70523809D01*
X49079761Y-69238095D02*
X49127380Y-69333333D01*
X49127380Y-69523809D01*
X49079761Y-69619047D01*
X48984523Y-69666666D01*
X48603571Y-69666666D01*
X48508333Y-69619047D01*
X48460714Y-69523809D01*
X48460714Y-69333333D01*
X48508333Y-69238095D01*
X48603571Y-69190476D01*
X48698809Y-69190476D01*
X48794047Y-69666666D01*
X49127380Y-68761904D02*
X48460714Y-68761904D01*
X48127380Y-68761904D02*
X48175000Y-68809523D01*
X48222619Y-68761904D01*
X48175000Y-68714285D01*
X48127380Y-68761904D01*
X48222619Y-68761904D01*
X49127380Y-68285714D02*
X48460714Y-68285714D01*
X48555952Y-68285714D02*
X48508333Y-68238095D01*
X48460714Y-68142857D01*
X48460714Y-68000000D01*
X48508333Y-67904761D01*
X48603571Y-67857142D01*
X49127380Y-67857142D01*
X48603571Y-67857142D02*
X48508333Y-67809523D01*
X48460714Y-67714285D01*
X48460714Y-67571428D01*
X48508333Y-67476190D01*
X48603571Y-67428571D01*
X49127380Y-67428571D01*
X48127380Y-66190476D02*
X48936904Y-66190476D01*
X49032142Y-66142857D01*
X49079761Y-66095238D01*
X49127380Y-65999999D01*
X49127380Y-65809523D01*
X49079761Y-65714285D01*
X49032142Y-65666666D01*
X48936904Y-65619047D01*
X48127380Y-65619047D01*
X48460714Y-65142857D02*
X49127380Y-65142857D01*
X48555952Y-65142857D02*
X48508333Y-65095238D01*
X48460714Y-65000000D01*
X48460714Y-64857142D01*
X48508333Y-64761904D01*
X48603571Y-64714285D01*
X49127380Y-64714285D01*
X49127380Y-64238095D02*
X48460714Y-64238095D01*
X48127380Y-64238095D02*
X48175000Y-64285714D01*
X48222619Y-64238095D01*
X48175000Y-64190476D01*
X48127380Y-64238095D01*
X48222619Y-64238095D01*
X48460714Y-63857142D02*
X49127380Y-63619047D01*
X48460714Y-63380952D01*
X49079761Y-62619047D02*
X49127380Y-62714285D01*
X49127380Y-62904761D01*
X49079761Y-63000000D01*
X48984523Y-63047619D01*
X48603571Y-63047619D01*
X48508333Y-63000000D01*
X48460714Y-62904761D01*
X48460714Y-62714285D01*
X48508333Y-62619047D01*
X48603571Y-62571428D01*
X48698809Y-62571428D01*
X48794047Y-63047619D01*
X49127380Y-62142857D02*
X48460714Y-62142857D01*
X48651190Y-62142857D02*
X48555952Y-62095238D01*
X48508333Y-62047619D01*
X48460714Y-61952380D01*
X48460714Y-61857142D01*
X49079761Y-61571428D02*
X49127380Y-61476190D01*
X49127380Y-61285714D01*
X49079761Y-61190476D01*
X48984523Y-61142857D01*
X48936904Y-61142857D01*
X48841666Y-61190476D01*
X48794047Y-61285714D01*
X48794047Y-61428571D01*
X48746428Y-61523809D01*
X48651190Y-61571428D01*
X48603571Y-61571428D01*
X48508333Y-61523809D01*
X48460714Y-61428571D01*
X48460714Y-61285714D01*
X48508333Y-61190476D01*
X49127380Y-60714285D02*
X48460714Y-60714285D01*
X48127380Y-60714285D02*
X48175000Y-60761904D01*
X48222619Y-60714285D01*
X48175000Y-60666666D01*
X48127380Y-60714285D01*
X48222619Y-60714285D01*
X48460714Y-60380952D02*
X48460714Y-60000000D01*
X48127380Y-60238095D02*
X48984523Y-60238095D01*
X49079761Y-60190476D01*
X49127380Y-60095238D01*
X49127380Y-60000000D01*
X48460714Y-59761904D02*
X49127380Y-59523809D01*
X48460714Y-59285714D02*
X49127380Y-59523809D01*
X49365476Y-59619047D01*
X49413095Y-59666666D01*
X49460714Y-59761904D01*
X50777380Y-74619047D02*
X50729761Y-74714285D01*
X50682142Y-74761904D01*
X50586904Y-74809523D01*
X50301190Y-74809523D01*
X50205952Y-74761904D01*
X50158333Y-74714285D01*
X50110714Y-74619047D01*
X50110714Y-74476190D01*
X50158333Y-74380952D01*
X50205952Y-74333333D01*
X50301190Y-74285714D01*
X50586904Y-74285714D01*
X50682142Y-74333333D01*
X50729761Y-74380952D01*
X50777380Y-74476190D01*
X50777380Y-74619047D01*
X50110714Y-74000000D02*
X50110714Y-73619047D01*
X50777380Y-73857142D02*
X49920238Y-73857142D01*
X49825000Y-73809523D01*
X49777380Y-73714285D01*
X49777380Y-73619047D01*
X50491666Y-72571428D02*
X50491666Y-72095238D01*
X50777380Y-72666666D02*
X49777380Y-72333333D01*
X50777380Y-72000000D01*
X50110714Y-71666666D02*
X51110714Y-71666666D01*
X50158333Y-71666666D02*
X50110714Y-71571428D01*
X50110714Y-71380952D01*
X50158333Y-71285714D01*
X50205952Y-71238095D01*
X50301190Y-71190476D01*
X50586904Y-71190476D01*
X50682142Y-71238095D01*
X50729761Y-71285714D01*
X50777380Y-71380952D01*
X50777380Y-71571428D01*
X50729761Y-71666666D01*
X50110714Y-70761904D02*
X51110714Y-70761904D01*
X50158333Y-70761904D02*
X50110714Y-70666666D01*
X50110714Y-70476190D01*
X50158333Y-70380952D01*
X50205952Y-70333333D01*
X50301190Y-70285714D01*
X50586904Y-70285714D01*
X50682142Y-70333333D01*
X50729761Y-70380952D01*
X50777380Y-70476190D01*
X50777380Y-70666666D01*
X50729761Y-70761904D01*
X50777380Y-69714285D02*
X50729761Y-69809523D01*
X50634523Y-69857142D01*
X49777380Y-69857142D01*
X50777380Y-69333333D02*
X50110714Y-69333333D01*
X49777380Y-69333333D02*
X49825000Y-69380952D01*
X49872619Y-69333333D01*
X49825000Y-69285714D01*
X49777380Y-69333333D01*
X49872619Y-69333333D01*
X50729761Y-68476190D02*
X50777380Y-68571428D01*
X50777380Y-68761904D01*
X50729761Y-68857142D01*
X50634523Y-68904761D01*
X50253571Y-68904761D01*
X50158333Y-68857142D01*
X50110714Y-68761904D01*
X50110714Y-68571428D01*
X50158333Y-68476190D01*
X50253571Y-68428571D01*
X50348809Y-68428571D01*
X50444047Y-68904761D01*
X50777380Y-67571428D02*
X49777380Y-67571428D01*
X50729761Y-67571428D02*
X50777380Y-67666666D01*
X50777380Y-67857142D01*
X50729761Y-67952380D01*
X50682142Y-68000000D01*
X50586904Y-68047619D01*
X50301190Y-68047619D01*
X50205952Y-68000000D01*
X50158333Y-67952380D01*
X50110714Y-67857142D01*
X50110714Y-67666666D01*
X50158333Y-67571428D01*
X50729761Y-66380952D02*
X50777380Y-66238095D01*
X50777380Y-66000000D01*
X50729761Y-65904761D01*
X50682142Y-65857142D01*
X50586904Y-65809523D01*
X50491666Y-65809523D01*
X50396428Y-65857142D01*
X50348809Y-65904761D01*
X50301190Y-66000000D01*
X50253571Y-66190476D01*
X50205952Y-66285714D01*
X50158333Y-66333333D01*
X50063095Y-66380952D01*
X49967857Y-66380952D01*
X49872619Y-66333333D01*
X49825000Y-66285714D01*
X49777380Y-66190476D01*
X49777380Y-65952380D01*
X49825000Y-65809523D01*
X50729761Y-64952380D02*
X50777380Y-65047619D01*
X50777380Y-65238095D01*
X50729761Y-65333333D01*
X50682142Y-65380952D01*
X50586904Y-65428571D01*
X50301190Y-65428571D01*
X50205952Y-65380952D01*
X50158333Y-65333333D01*
X50110714Y-65238095D01*
X50110714Y-65047619D01*
X50158333Y-64952380D01*
X50777380Y-64523809D02*
X50110714Y-64523809D01*
X49777380Y-64523809D02*
X49825000Y-64571428D01*
X49872619Y-64523809D01*
X49825000Y-64476190D01*
X49777380Y-64523809D01*
X49872619Y-64523809D01*
X50729761Y-63666666D02*
X50777380Y-63761904D01*
X50777380Y-63952380D01*
X50729761Y-64047619D01*
X50634523Y-64095238D01*
X50253571Y-64095238D01*
X50158333Y-64047619D01*
X50110714Y-63952380D01*
X50110714Y-63761904D01*
X50158333Y-63666666D01*
X50253571Y-63619047D01*
X50348809Y-63619047D01*
X50444047Y-64095238D01*
X50110714Y-63190476D02*
X50777380Y-63190476D01*
X50205952Y-63190476D02*
X50158333Y-63142857D01*
X50110714Y-63047619D01*
X50110714Y-62904761D01*
X50158333Y-62809523D01*
X50253571Y-62761904D01*
X50777380Y-62761904D01*
X50729761Y-61857142D02*
X50777380Y-61952380D01*
X50777380Y-62142857D01*
X50729761Y-62238095D01*
X50682142Y-62285714D01*
X50586904Y-62333333D01*
X50301190Y-62333333D01*
X50205952Y-62285714D01*
X50158333Y-62238095D01*
X50110714Y-62142857D01*
X50110714Y-61952380D01*
X50158333Y-61857142D01*
X50729761Y-61047619D02*
X50777380Y-61142857D01*
X50777380Y-61333333D01*
X50729761Y-61428571D01*
X50634523Y-61476190D01*
X50253571Y-61476190D01*
X50158333Y-61428571D01*
X50110714Y-61333333D01*
X50110714Y-61142857D01*
X50158333Y-61047619D01*
X50253571Y-61000000D01*
X50348809Y-61000000D01*
X50444047Y-61476190D01*
X50729761Y-60619047D02*
X50777380Y-60523809D01*
X50777380Y-60333333D01*
X50729761Y-60238095D01*
X50634523Y-60190476D01*
X50586904Y-60190476D01*
X50491666Y-60238095D01*
X50444047Y-60333333D01*
X50444047Y-60476190D01*
X50396428Y-60571428D01*
X50301190Y-60619047D01*
X50253571Y-60619047D01*
X50158333Y-60571428D01*
X50110714Y-60476190D01*
X50110714Y-60333333D01*
X50158333Y-60238095D01*
X87585714Y-46452380D02*
X87585714Y-45452380D01*
X87966666Y-45452380D01*
X88061904Y-45500000D01*
X88109523Y-45547619D01*
X88157142Y-45642857D01*
X88157142Y-45785714D01*
X88109523Y-45880952D01*
X88061904Y-45928571D01*
X87966666Y-45976190D01*
X87585714Y-45976190D01*
X88538095Y-45547619D02*
X88585714Y-45500000D01*
X88680952Y-45452380D01*
X88919047Y-45452380D01*
X89014285Y-45500000D01*
X89061904Y-45547619D01*
X89109523Y-45642857D01*
X89109523Y-45738095D01*
X89061904Y-45880952D01*
X88490476Y-46452380D01*
X89109523Y-46452380D01*
X89966666Y-45452380D02*
X89776190Y-45452380D01*
X89680952Y-45500000D01*
X89633333Y-45547619D01*
X89538095Y-45690476D01*
X89490476Y-45880952D01*
X89490476Y-46261904D01*
X89538095Y-46357142D01*
X89585714Y-46404761D01*
X89680952Y-46452380D01*
X89871428Y-46452380D01*
X89966666Y-46404761D01*
X90014285Y-46357142D01*
X90061904Y-46261904D01*
X90061904Y-46023809D01*
X90014285Y-45928571D01*
X89966666Y-45880952D01*
X89871428Y-45833333D01*
X89680952Y-45833333D01*
X89585714Y-45880952D01*
X89538095Y-45928571D01*
X89490476Y-46023809D01*
X88347619Y-41652380D02*
X88014285Y-41176190D01*
X87776190Y-41652380D02*
X87776190Y-40652380D01*
X88157142Y-40652380D01*
X88252380Y-40700000D01*
X88300000Y-40747619D01*
X88347619Y-40842857D01*
X88347619Y-40985714D01*
X88300000Y-41080952D01*
X88252380Y-41128571D01*
X88157142Y-41176190D01*
X87776190Y-41176190D01*
X88776190Y-41128571D02*
X89109523Y-41128571D01*
X89252380Y-41652380D02*
X88776190Y-41652380D01*
X88776190Y-40652380D01*
X89252380Y-40652380D01*
X89633333Y-41604761D02*
X89776190Y-41652380D01*
X90014285Y-41652380D01*
X90109523Y-41604761D01*
X90157142Y-41557142D01*
X90204761Y-41461904D01*
X90204761Y-41366666D01*
X90157142Y-41271428D01*
X90109523Y-41223809D01*
X90014285Y-41176190D01*
X89823809Y-41128571D01*
X89728571Y-41080952D01*
X89680952Y-41033333D01*
X89633333Y-40938095D01*
X89633333Y-40842857D01*
X89680952Y-40747619D01*
X89728571Y-40700000D01*
X89823809Y-40652380D01*
X90061904Y-40652380D01*
X90204761Y-40700000D01*
X90633333Y-41128571D02*
X90966666Y-41128571D01*
X91109523Y-41652380D02*
X90633333Y-41652380D01*
X90633333Y-40652380D01*
X91109523Y-40652380D01*
X91395238Y-40652380D02*
X91966666Y-40652380D01*
X91680952Y-41652380D02*
X91680952Y-40652380D01*
X87566666Y-43052380D02*
X87900000Y-44052380D01*
X88233333Y-43052380D01*
X88566666Y-44052380D02*
X88566666Y-43052380D01*
X88947619Y-43052380D01*
X89042857Y-43100000D01*
X89090476Y-43147619D01*
X89138095Y-43242857D01*
X89138095Y-43385714D01*
X89090476Y-43480952D01*
X89042857Y-43528571D01*
X88947619Y-43576190D01*
X88566666Y-43576190D01*
X87714285Y-49204761D02*
X87857142Y-49252380D01*
X88095238Y-49252380D01*
X88190476Y-49204761D01*
X88238095Y-49157142D01*
X88285714Y-49061904D01*
X88285714Y-48966666D01*
X88238095Y-48871428D01*
X88190476Y-48823809D01*
X88095238Y-48776190D01*
X87904761Y-48728571D01*
X87809523Y-48680952D01*
X87761904Y-48633333D01*
X87714285Y-48538095D01*
X87714285Y-48442857D01*
X87761904Y-48347619D01*
X87809523Y-48300000D01*
X87904761Y-48252380D01*
X88142857Y-48252380D01*
X88285714Y-48300000D01*
X89285714Y-49157142D02*
X89238095Y-49204761D01*
X89095238Y-49252380D01*
X89000000Y-49252380D01*
X88857142Y-49204761D01*
X88761904Y-49109523D01*
X88714285Y-49014285D01*
X88666666Y-48823809D01*
X88666666Y-48680952D01*
X88714285Y-48490476D01*
X88761904Y-48395238D01*
X88857142Y-48300000D01*
X89000000Y-48252380D01*
X89095238Y-48252380D01*
X89238095Y-48300000D01*
X89285714Y-48347619D01*
X89714285Y-49252380D02*
X89714285Y-48252380D01*
X90285714Y-49252380D02*
X89857142Y-48680952D01*
X90285714Y-48252380D02*
X89714285Y-48823809D01*
X87428571Y-51652380D02*
X87428571Y-50652380D01*
X87761904Y-51366666D01*
X88095238Y-50652380D01*
X88095238Y-51652380D01*
X88571428Y-51652380D02*
X88571428Y-50652380D01*
X89000000Y-51604761D02*
X89142857Y-51652380D01*
X89380952Y-51652380D01*
X89476190Y-51604761D01*
X89523809Y-51557142D01*
X89571428Y-51461904D01*
X89571428Y-51366666D01*
X89523809Y-51271428D01*
X89476190Y-51223809D01*
X89380952Y-51176190D01*
X89190476Y-51128571D01*
X89095238Y-51080952D01*
X89047619Y-51033333D01*
X89000000Y-50938095D01*
X89000000Y-50842857D01*
X89047619Y-50747619D01*
X89095238Y-50700000D01*
X89190476Y-50652380D01*
X89428571Y-50652380D01*
X89571428Y-50700000D01*
X90190476Y-50652380D02*
X90380952Y-50652380D01*
X90476190Y-50700000D01*
X90571428Y-50795238D01*
X90619047Y-50985714D01*
X90619047Y-51319047D01*
X90571428Y-51509523D01*
X90476190Y-51604761D01*
X90380952Y-51652380D01*
X90190476Y-51652380D01*
X90095238Y-51604761D01*
X90000000Y-51509523D01*
X89952380Y-51319047D01*
X89952380Y-50985714D01*
X90000000Y-50795238D01*
X90095238Y-50700000D01*
X90190476Y-50652380D01*
X87428571Y-54252380D02*
X87428571Y-53252380D01*
X87761904Y-53966666D01*
X88095238Y-53252380D01*
X88095238Y-54252380D01*
X88761904Y-53252380D02*
X88952380Y-53252380D01*
X89047619Y-53300000D01*
X89142857Y-53395238D01*
X89190476Y-53585714D01*
X89190476Y-53919047D01*
X89142857Y-54109523D01*
X89047619Y-54204761D01*
X88952380Y-54252380D01*
X88761904Y-54252380D01*
X88666666Y-54204761D01*
X88571428Y-54109523D01*
X88523809Y-53919047D01*
X88523809Y-53585714D01*
X88571428Y-53395238D01*
X88666666Y-53300000D01*
X88761904Y-53252380D01*
X89571428Y-54204761D02*
X89714285Y-54252380D01*
X89952380Y-54252380D01*
X90047619Y-54204761D01*
X90095238Y-54157142D01*
X90142857Y-54061904D01*
X90142857Y-53966666D01*
X90095238Y-53871428D01*
X90047619Y-53823809D01*
X89952380Y-53776190D01*
X89761904Y-53728571D01*
X89666666Y-53680952D01*
X89619047Y-53633333D01*
X89571428Y-53538095D01*
X89571428Y-53442857D01*
X89619047Y-53347619D01*
X89666666Y-53300000D01*
X89761904Y-53252380D01*
X90000000Y-53252380D01*
X90142857Y-53300000D01*
X90571428Y-54252380D02*
X90571428Y-53252380D01*
X88433333Y-56557142D02*
X88385714Y-56604761D01*
X88242857Y-56652380D01*
X88147619Y-56652380D01*
X88004761Y-56604761D01*
X87909523Y-56509523D01*
X87861904Y-56414285D01*
X87814285Y-56223809D01*
X87814285Y-56080952D01*
X87861904Y-55890476D01*
X87909523Y-55795238D01*
X88004761Y-55700000D01*
X88147619Y-55652380D01*
X88242857Y-55652380D01*
X88385714Y-55700000D01*
X88433333Y-55747619D01*
X88814285Y-56604761D02*
X88957142Y-56652380D01*
X89195238Y-56652380D01*
X89290476Y-56604761D01*
X89338095Y-56557142D01*
X89385714Y-56461904D01*
X89385714Y-56366666D01*
X89338095Y-56271428D01*
X89290476Y-56223809D01*
X89195238Y-56176190D01*
X89004761Y-56128571D01*
X88909523Y-56080952D01*
X88861904Y-56033333D01*
X88814285Y-55938095D01*
X88814285Y-55842857D01*
X88861904Y-55747619D01*
X88909523Y-55700000D01*
X89004761Y-55652380D01*
X89242857Y-55652380D01*
X89385714Y-55700000D01*
X87361904Y-58252380D02*
X87980952Y-58252380D01*
X87647619Y-58633333D01*
X87790476Y-58633333D01*
X87885714Y-58680952D01*
X87933333Y-58728571D01*
X87980952Y-58823809D01*
X87980952Y-59061904D01*
X87933333Y-59157142D01*
X87885714Y-59204761D01*
X87790476Y-59252380D01*
X87504761Y-59252380D01*
X87409523Y-59204761D01*
X87361904Y-59157142D01*
X88266666Y-58252380D02*
X88600000Y-59252380D01*
X88933333Y-58252380D01*
X89171428Y-58252380D02*
X89790476Y-58252380D01*
X89457142Y-58633333D01*
X89600000Y-58633333D01*
X89695238Y-58680952D01*
X89742857Y-58728571D01*
X89790476Y-58823809D01*
X89790476Y-59061904D01*
X89742857Y-59157142D01*
X89695238Y-59204761D01*
X89600000Y-59252380D01*
X89314285Y-59252380D01*
X89219047Y-59204761D01*
X89171428Y-59157142D01*
X104761904Y-58452380D02*
X105380952Y-58452380D01*
X105047619Y-58833333D01*
X105190476Y-58833333D01*
X105285714Y-58880952D01*
X105333333Y-58928571D01*
X105380952Y-59023809D01*
X105380952Y-59261904D01*
X105333333Y-59357142D01*
X105285714Y-59404761D01*
X105190476Y-59452380D01*
X104904761Y-59452380D01*
X104809523Y-59404761D01*
X104761904Y-59357142D01*
X105666666Y-58452380D02*
X106000000Y-59452380D01*
X106333333Y-58452380D01*
X106571428Y-58452380D02*
X107190476Y-58452380D01*
X106857142Y-58833333D01*
X107000000Y-58833333D01*
X107095238Y-58880952D01*
X107142857Y-58928571D01*
X107190476Y-59023809D01*
X107190476Y-59261904D01*
X107142857Y-59357142D01*
X107095238Y-59404761D01*
X107000000Y-59452380D01*
X106714285Y-59452380D01*
X106619047Y-59404761D01*
X106571428Y-59357142D01*
X105038095Y-55700000D02*
X104942857Y-55652380D01*
X104800000Y-55652380D01*
X104657142Y-55700000D01*
X104561904Y-55795238D01*
X104514285Y-55890476D01*
X104466666Y-56080952D01*
X104466666Y-56223809D01*
X104514285Y-56414285D01*
X104561904Y-56509523D01*
X104657142Y-56604761D01*
X104800000Y-56652380D01*
X104895238Y-56652380D01*
X105038095Y-56604761D01*
X105085714Y-56557142D01*
X105085714Y-56223809D01*
X104895238Y-56223809D01*
X105514285Y-56652380D02*
X105514285Y-55652380D01*
X106085714Y-56652380D01*
X106085714Y-55652380D01*
X106561904Y-56652380D02*
X106561904Y-55652380D01*
X106800000Y-55652380D01*
X106942857Y-55700000D01*
X107038095Y-55795238D01*
X107085714Y-55890476D01*
X107133333Y-56080952D01*
X107133333Y-56223809D01*
X107085714Y-56414285D01*
X107038095Y-56509523D01*
X106942857Y-56604761D01*
X106800000Y-56652380D01*
X106561904Y-56652380D01*
X104585714Y-54052380D02*
X104585714Y-53052380D01*
X104966666Y-53052380D01*
X105061904Y-53100000D01*
X105109523Y-53147619D01*
X105157142Y-53242857D01*
X105157142Y-53385714D01*
X105109523Y-53480952D01*
X105061904Y-53528571D01*
X104966666Y-53576190D01*
X104585714Y-53576190D01*
X106109523Y-54052380D02*
X105538095Y-54052380D01*
X105823809Y-54052380D02*
X105823809Y-53052380D01*
X105728571Y-53195238D01*
X105633333Y-53290476D01*
X105538095Y-53338095D01*
X106966666Y-53052380D02*
X106776190Y-53052380D01*
X106680952Y-53100000D01*
X106633333Y-53147619D01*
X106538095Y-53290476D01*
X106490476Y-53480952D01*
X106490476Y-53861904D01*
X106538095Y-53957142D01*
X106585714Y-54004761D01*
X106680952Y-54052380D01*
X106871428Y-54052380D01*
X106966666Y-54004761D01*
X107014285Y-53957142D01*
X107061904Y-53861904D01*
X107061904Y-53623809D01*
X107014285Y-53528571D01*
X106966666Y-53480952D01*
X106871428Y-53433333D01*
X106680952Y-53433333D01*
X106585714Y-53480952D01*
X106538095Y-53528571D01*
X106490476Y-53623809D01*
X104785714Y-51652380D02*
X104785714Y-50652380D01*
X105166666Y-50652380D01*
X105261904Y-50700000D01*
X105309523Y-50747619D01*
X105357142Y-50842857D01*
X105357142Y-50985714D01*
X105309523Y-51080952D01*
X105261904Y-51128571D01*
X105166666Y-51176190D01*
X104785714Y-51176190D01*
X106309523Y-51652380D02*
X105738095Y-51652380D01*
X106023809Y-51652380D02*
X106023809Y-50652380D01*
X105928571Y-50795238D01*
X105833333Y-50890476D01*
X105738095Y-50938095D01*
X106642857Y-50652380D02*
X107309523Y-50652380D01*
X106880952Y-51652380D01*
X104785714Y-49004761D02*
X104928571Y-49052380D01*
X105166666Y-49052380D01*
X105261904Y-49004761D01*
X105309523Y-48957142D01*
X105357142Y-48861904D01*
X105357142Y-48766666D01*
X105309523Y-48671428D01*
X105261904Y-48623809D01*
X105166666Y-48576190D01*
X104976190Y-48528571D01*
X104880952Y-48480952D01*
X104833333Y-48433333D01*
X104785714Y-48338095D01*
X104785714Y-48242857D01*
X104833333Y-48147619D01*
X104880952Y-48100000D01*
X104976190Y-48052380D01*
X105214285Y-48052380D01*
X105357142Y-48100000D01*
X105785714Y-49052380D02*
X105785714Y-48052380D01*
X106023809Y-48052380D01*
X106166666Y-48100000D01*
X106261904Y-48195238D01*
X106309523Y-48290476D01*
X106357142Y-48480952D01*
X106357142Y-48623809D01*
X106309523Y-48814285D01*
X106261904Y-48909523D01*
X106166666Y-49004761D01*
X106023809Y-49052380D01*
X105785714Y-49052380D01*
X106738095Y-48766666D02*
X107214285Y-48766666D01*
X106642857Y-49052380D02*
X106976190Y-48052380D01*
X107309523Y-49052380D01*
X104809523Y-46404761D02*
X104952380Y-46452380D01*
X105190476Y-46452380D01*
X105285714Y-46404761D01*
X105333333Y-46357142D01*
X105380952Y-46261904D01*
X105380952Y-46166666D01*
X105333333Y-46071428D01*
X105285714Y-46023809D01*
X105190476Y-45976190D01*
X105000000Y-45928571D01*
X104904761Y-45880952D01*
X104857142Y-45833333D01*
X104809523Y-45738095D01*
X104809523Y-45642857D01*
X104857142Y-45547619D01*
X104904761Y-45500000D01*
X105000000Y-45452380D01*
X105238095Y-45452380D01*
X105380952Y-45500000D01*
X106380952Y-46357142D02*
X106333333Y-46404761D01*
X106190476Y-46452380D01*
X106095238Y-46452380D01*
X105952380Y-46404761D01*
X105857142Y-46309523D01*
X105809523Y-46214285D01*
X105761904Y-46023809D01*
X105761904Y-45880952D01*
X105809523Y-45690476D01*
X105857142Y-45595238D01*
X105952380Y-45500000D01*
X106095238Y-45452380D01*
X106190476Y-45452380D01*
X106333333Y-45500000D01*
X106380952Y-45547619D01*
X107285714Y-46452380D02*
X106809523Y-46452380D01*
X106809523Y-45452380D01*
X106033333Y-44052380D02*
X105700000Y-43576190D01*
X105461904Y-44052380D02*
X105461904Y-43052380D01*
X105842857Y-43052380D01*
X105938095Y-43100000D01*
X105985714Y-43147619D01*
X106033333Y-43242857D01*
X106033333Y-43385714D01*
X105985714Y-43480952D01*
X105938095Y-43528571D01*
X105842857Y-43576190D01*
X105461904Y-43576190D01*
X106366666Y-43052380D02*
X107033333Y-44052380D01*
X107033333Y-43052380D02*
X106366666Y-44052380D01*
X105438095Y-40452380D02*
X106009523Y-40452380D01*
X105723809Y-41452380D02*
X105723809Y-40452380D01*
X106247619Y-40452380D02*
X106914285Y-41452380D01*
X106914285Y-40452380D02*
X106247619Y-41452380D01*
X100852380Y-44533333D02*
X101852380Y-44200000D01*
X100852380Y-43866666D01*
X101757142Y-42961904D02*
X101804761Y-43009523D01*
X101852380Y-43152380D01*
X101852380Y-43247619D01*
X101804761Y-43390476D01*
X101709523Y-43485714D01*
X101614285Y-43533333D01*
X101423809Y-43580952D01*
X101280952Y-43580952D01*
X101090476Y-43533333D01*
X100995238Y-43485714D01*
X100900000Y-43390476D01*
X100852380Y-43247619D01*
X100852380Y-43152380D01*
X100900000Y-43009523D01*
X100947619Y-42961904D01*
X101757142Y-41961904D02*
X101804761Y-42009523D01*
X101852380Y-42152380D01*
X101852380Y-42247619D01*
X101804761Y-42390476D01*
X101709523Y-42485714D01*
X101614285Y-42533333D01*
X101423809Y-42580952D01*
X101280952Y-42580952D01*
X101090476Y-42533333D01*
X100995238Y-42485714D01*
X100900000Y-42390476D01*
X100852380Y-42247619D01*
X100852380Y-42152380D01*
X100900000Y-42009523D01*
X100947619Y-41961904D01*
X98300000Y-43961904D02*
X98252380Y-44057142D01*
X98252380Y-44200000D01*
X98300000Y-44342857D01*
X98395238Y-44438095D01*
X98490476Y-44485714D01*
X98680952Y-44533333D01*
X98823809Y-44533333D01*
X99014285Y-44485714D01*
X99109523Y-44438095D01*
X99204761Y-44342857D01*
X99252380Y-44200000D01*
X99252380Y-44104761D01*
X99204761Y-43961904D01*
X99157142Y-43914285D01*
X98823809Y-43914285D01*
X98823809Y-44104761D01*
X99252380Y-43485714D02*
X98252380Y-43485714D01*
X99252380Y-42914285D01*
X98252380Y-42914285D01*
X99252380Y-42438095D02*
X98252380Y-42438095D01*
X98252380Y-42200000D01*
X98300000Y-42057142D01*
X98395238Y-41961904D01*
X98490476Y-41914285D01*
X98680952Y-41866666D01*
X98823809Y-41866666D01*
X99014285Y-41914285D01*
X99109523Y-41961904D01*
X99204761Y-42057142D01*
X99252380Y-42200000D01*
X99252380Y-42438095D01*
X96604761Y-44390476D02*
X96652380Y-44247619D01*
X96652380Y-44009523D01*
X96604761Y-43914285D01*
X96557142Y-43866666D01*
X96461904Y-43819047D01*
X96366666Y-43819047D01*
X96271428Y-43866666D01*
X96223809Y-43914285D01*
X96176190Y-44009523D01*
X96128571Y-44200000D01*
X96080952Y-44295238D01*
X96033333Y-44342857D01*
X95938095Y-44390476D01*
X95842857Y-44390476D01*
X95747619Y-44342857D01*
X95700000Y-44295238D01*
X95652380Y-44200000D01*
X95652380Y-43961904D01*
X95700000Y-43819047D01*
X96557142Y-42819047D02*
X96604761Y-42866666D01*
X96652380Y-43009523D01*
X96652380Y-43104761D01*
X96604761Y-43247619D01*
X96509523Y-43342857D01*
X96414285Y-43390476D01*
X96223809Y-43438095D01*
X96080952Y-43438095D01*
X95890476Y-43390476D01*
X95795238Y-43342857D01*
X95700000Y-43247619D01*
X95652380Y-43104761D01*
X95652380Y-43009523D01*
X95700000Y-42866666D01*
X95747619Y-42819047D01*
X96652380Y-41914285D02*
X96652380Y-42390476D01*
X95652380Y-42390476D01*
X94004761Y-44414285D02*
X94052380Y-44271428D01*
X94052380Y-44033333D01*
X94004761Y-43938095D01*
X93957142Y-43890476D01*
X93861904Y-43842857D01*
X93766666Y-43842857D01*
X93671428Y-43890476D01*
X93623809Y-43938095D01*
X93576190Y-44033333D01*
X93528571Y-44223809D01*
X93480952Y-44319047D01*
X93433333Y-44366666D01*
X93338095Y-44414285D01*
X93242857Y-44414285D01*
X93147619Y-44366666D01*
X93100000Y-44319047D01*
X93052380Y-44223809D01*
X93052380Y-43985714D01*
X93100000Y-43842857D01*
X94052380Y-43414285D02*
X93052380Y-43414285D01*
X93052380Y-43176190D01*
X93100000Y-43033333D01*
X93195238Y-42938095D01*
X93290476Y-42890476D01*
X93480952Y-42842857D01*
X93623809Y-42842857D01*
X93814285Y-42890476D01*
X93909523Y-42938095D01*
X94004761Y-43033333D01*
X94052380Y-43176190D01*
X94052380Y-43414285D01*
X93766666Y-42461904D02*
X93766666Y-41985714D01*
X94052380Y-42557142D02*
X93052380Y-42223809D01*
X94052380Y-41890476D01*
X100059523Y-89254761D02*
X100202380Y-89302380D01*
X100440476Y-89302380D01*
X100535714Y-89254761D01*
X100583333Y-89207142D01*
X100630952Y-89111904D01*
X100630952Y-89016666D01*
X100583333Y-88921428D01*
X100535714Y-88873809D01*
X100440476Y-88826190D01*
X100250000Y-88778571D01*
X100154761Y-88730952D01*
X100107142Y-88683333D01*
X100059523Y-88588095D01*
X100059523Y-88492857D01*
X100107142Y-88397619D01*
X100154761Y-88350000D01*
X100250000Y-88302380D01*
X100488095Y-88302380D01*
X100630952Y-88350000D01*
X101440476Y-89254761D02*
X101345238Y-89302380D01*
X101154761Y-89302380D01*
X101059523Y-89254761D01*
X101011904Y-89159523D01*
X101011904Y-88778571D01*
X101059523Y-88683333D01*
X101154761Y-88635714D01*
X101345238Y-88635714D01*
X101440476Y-88683333D01*
X101488095Y-88778571D01*
X101488095Y-88873809D01*
X101011904Y-88969047D01*
X101916666Y-88635714D02*
X101916666Y-89302380D01*
X101916666Y-88730952D02*
X101964285Y-88683333D01*
X102059523Y-88635714D01*
X102202380Y-88635714D01*
X102297619Y-88683333D01*
X102345238Y-88778571D01*
X102345238Y-89302380D01*
X102773809Y-89254761D02*
X102869047Y-89302380D01*
X103059523Y-89302380D01*
X103154761Y-89254761D01*
X103202380Y-89159523D01*
X103202380Y-89111904D01*
X103154761Y-89016666D01*
X103059523Y-88969047D01*
X102916666Y-88969047D01*
X102821428Y-88921428D01*
X102773809Y-88826190D01*
X102773809Y-88778571D01*
X102821428Y-88683333D01*
X102916666Y-88635714D01*
X103059523Y-88635714D01*
X103154761Y-88683333D01*
X103773809Y-89302380D02*
X103678571Y-89254761D01*
X103630952Y-89207142D01*
X103583333Y-89111904D01*
X103583333Y-88826190D01*
X103630952Y-88730952D01*
X103678571Y-88683333D01*
X103773809Y-88635714D01*
X103916666Y-88635714D01*
X104011904Y-88683333D01*
X104059523Y-88730952D01*
X104107142Y-88826190D01*
X104107142Y-89111904D01*
X104059523Y-89207142D01*
X104011904Y-89254761D01*
X103916666Y-89302380D01*
X103773809Y-89302380D01*
X104535714Y-89302380D02*
X104535714Y-88635714D01*
X104535714Y-88826190D02*
X104583333Y-88730952D01*
X104630952Y-88683333D01*
X104726190Y-88635714D01*
X104821428Y-88635714D01*
X105869047Y-88397619D02*
X105916666Y-88350000D01*
X106011904Y-88302380D01*
X106250000Y-88302380D01*
X106345238Y-88350000D01*
X106392857Y-88397619D01*
X106440476Y-88492857D01*
X106440476Y-88588095D01*
X106392857Y-88730952D01*
X105821428Y-89302380D01*
X106440476Y-89302380D01*
X85309523Y-89304761D02*
X85452380Y-89352380D01*
X85690476Y-89352380D01*
X85785714Y-89304761D01*
X85833333Y-89257142D01*
X85880952Y-89161904D01*
X85880952Y-89066666D01*
X85833333Y-88971428D01*
X85785714Y-88923809D01*
X85690476Y-88876190D01*
X85500000Y-88828571D01*
X85404761Y-88780952D01*
X85357142Y-88733333D01*
X85309523Y-88638095D01*
X85309523Y-88542857D01*
X85357142Y-88447619D01*
X85404761Y-88400000D01*
X85500000Y-88352380D01*
X85738095Y-88352380D01*
X85880952Y-88400000D01*
X86690476Y-89304761D02*
X86595238Y-89352380D01*
X86404761Y-89352380D01*
X86309523Y-89304761D01*
X86261904Y-89209523D01*
X86261904Y-88828571D01*
X86309523Y-88733333D01*
X86404761Y-88685714D01*
X86595238Y-88685714D01*
X86690476Y-88733333D01*
X86738095Y-88828571D01*
X86738095Y-88923809D01*
X86261904Y-89019047D01*
X87166666Y-88685714D02*
X87166666Y-89352380D01*
X87166666Y-88780952D02*
X87214285Y-88733333D01*
X87309523Y-88685714D01*
X87452380Y-88685714D01*
X87547619Y-88733333D01*
X87595238Y-88828571D01*
X87595238Y-89352380D01*
X88023809Y-89304761D02*
X88119047Y-89352380D01*
X88309523Y-89352380D01*
X88404761Y-89304761D01*
X88452380Y-89209523D01*
X88452380Y-89161904D01*
X88404761Y-89066666D01*
X88309523Y-89019047D01*
X88166666Y-89019047D01*
X88071428Y-88971428D01*
X88023809Y-88876190D01*
X88023809Y-88828571D01*
X88071428Y-88733333D01*
X88166666Y-88685714D01*
X88309523Y-88685714D01*
X88404761Y-88733333D01*
X89023809Y-89352380D02*
X88928571Y-89304761D01*
X88880952Y-89257142D01*
X88833333Y-89161904D01*
X88833333Y-88876190D01*
X88880952Y-88780952D01*
X88928571Y-88733333D01*
X89023809Y-88685714D01*
X89166666Y-88685714D01*
X89261904Y-88733333D01*
X89309523Y-88780952D01*
X89357142Y-88876190D01*
X89357142Y-89161904D01*
X89309523Y-89257142D01*
X89261904Y-89304761D01*
X89166666Y-89352380D01*
X89023809Y-89352380D01*
X89785714Y-89352380D02*
X89785714Y-88685714D01*
X89785714Y-88876190D02*
X89833333Y-88780952D01*
X89880952Y-88733333D01*
X89976190Y-88685714D01*
X90071428Y-88685714D01*
X91690476Y-89352380D02*
X91119047Y-89352380D01*
X91404761Y-89352380D02*
X91404761Y-88352380D01*
X91309523Y-88495238D01*
X91214285Y-88590476D01*
X91119047Y-88638095D01*
X49127380Y-84047619D02*
X49127380Y-84523809D01*
X49603571Y-84571428D01*
X49555952Y-84523809D01*
X49508333Y-84428571D01*
X49508333Y-84190476D01*
X49555952Y-84095238D01*
X49603571Y-84047619D01*
X49698809Y-84000000D01*
X49936904Y-84000000D01*
X50032142Y-84047619D01*
X50079761Y-84095238D01*
X50127380Y-84190476D01*
X50127380Y-84428571D01*
X50079761Y-84523809D01*
X50032142Y-84571428D01*
X49127380Y-83714285D02*
X50127380Y-83380952D01*
X49127380Y-83047619D01*
X49127380Y-81761904D02*
X49127380Y-81666666D01*
X49175000Y-81571428D01*
X49222619Y-81523809D01*
X49317857Y-81476190D01*
X49508333Y-81428571D01*
X49746428Y-81428571D01*
X49936904Y-81476190D01*
X50032142Y-81523809D01*
X50079761Y-81571428D01*
X50127380Y-81666666D01*
X50127380Y-81761904D01*
X50079761Y-81857142D01*
X50032142Y-81904761D01*
X49936904Y-81952380D01*
X49746428Y-82000000D01*
X49508333Y-82000000D01*
X49317857Y-81952380D01*
X49222619Y-81904761D01*
X49175000Y-81857142D01*
X49127380Y-81761904D01*
X50032142Y-81000000D02*
X50079761Y-80952380D01*
X50127380Y-81000000D01*
X50079761Y-81047619D01*
X50032142Y-81000000D01*
X50127380Y-81000000D01*
X49460714Y-80095238D02*
X50127380Y-80095238D01*
X49079761Y-80333333D02*
X49794047Y-80571428D01*
X49794047Y-79952380D01*
X49127380Y-79666666D02*
X49127380Y-79000000D01*
X50127380Y-79428571D01*
X49603571Y-78285714D02*
X49603571Y-78619047D01*
X50127380Y-78619047D02*
X49127380Y-78619047D01*
X49127380Y-78142857D01*
X51729761Y-84261904D02*
X51777380Y-84119047D01*
X51777380Y-83880952D01*
X51729761Y-83785714D01*
X51682142Y-83738095D01*
X51586904Y-83690476D01*
X51491666Y-83690476D01*
X51396428Y-83738095D01*
X51348809Y-83785714D01*
X51301190Y-83880952D01*
X51253571Y-84071428D01*
X51205952Y-84166666D01*
X51158333Y-84214285D01*
X51063095Y-84261904D01*
X50967857Y-84261904D01*
X50872619Y-84214285D01*
X50825000Y-84166666D01*
X50777380Y-84071428D01*
X50777380Y-83833333D01*
X50825000Y-83690476D01*
X51110714Y-82833333D02*
X51777380Y-82833333D01*
X51110714Y-83261904D02*
X51634523Y-83261904D01*
X51729761Y-83214285D01*
X51777380Y-83119047D01*
X51777380Y-82976190D01*
X51729761Y-82880952D01*
X51682142Y-82833333D01*
X51110714Y-82357142D02*
X52110714Y-82357142D01*
X51158333Y-82357142D02*
X51110714Y-82261904D01*
X51110714Y-82071428D01*
X51158333Y-81976190D01*
X51205952Y-81928571D01*
X51301190Y-81880952D01*
X51586904Y-81880952D01*
X51682142Y-81928571D01*
X51729761Y-81976190D01*
X51777380Y-82071428D01*
X51777380Y-82261904D01*
X51729761Y-82357142D01*
X51729761Y-81071428D02*
X51777380Y-81166666D01*
X51777380Y-81357142D01*
X51729761Y-81452380D01*
X51634523Y-81500000D01*
X51253571Y-81500000D01*
X51158333Y-81452380D01*
X51110714Y-81357142D01*
X51110714Y-81166666D01*
X51158333Y-81071428D01*
X51253571Y-81023809D01*
X51348809Y-81023809D01*
X51444047Y-81500000D01*
X51777380Y-80595238D02*
X51110714Y-80595238D01*
X51301190Y-80595238D02*
X51205952Y-80547619D01*
X51158333Y-80500000D01*
X51110714Y-80404761D01*
X51110714Y-80309523D01*
X51729761Y-79547619D02*
X51777380Y-79642857D01*
X51777380Y-79833333D01*
X51729761Y-79928571D01*
X51682142Y-79976190D01*
X51586904Y-80023809D01*
X51301190Y-80023809D01*
X51205952Y-79976190D01*
X51158333Y-79928571D01*
X51110714Y-79833333D01*
X51110714Y-79642857D01*
X51158333Y-79547619D01*
X51777380Y-78690476D02*
X51253571Y-78690476D01*
X51158333Y-78738095D01*
X51110714Y-78833333D01*
X51110714Y-79023809D01*
X51158333Y-79119047D01*
X51729761Y-78690476D02*
X51777380Y-78785714D01*
X51777380Y-79023809D01*
X51729761Y-79119047D01*
X51634523Y-79166666D01*
X51539285Y-79166666D01*
X51444047Y-79119047D01*
X51396428Y-79023809D01*
X51396428Y-78785714D01*
X51348809Y-78690476D01*
X51110714Y-78214285D02*
X52110714Y-78214285D01*
X51158333Y-78214285D02*
X51110714Y-78119047D01*
X51110714Y-77928571D01*
X51158333Y-77833333D01*
X51205952Y-77785714D01*
X51301190Y-77738095D01*
X51586904Y-77738095D01*
X51682142Y-77785714D01*
X51729761Y-77833333D01*
X51777380Y-77928571D01*
X51777380Y-78119047D01*
X51729761Y-78214285D01*
D11*
X55043536Y-51325651D02*
X55232097Y-51137089D01*
X55609221Y-51352589D02*
X55339847Y-51621963D01*
X54774162Y-51056277D01*
X55043536Y-50786903D01*
X56174906Y-50786903D02*
X55716971Y-50706091D01*
X55851658Y-51110152D02*
X55285972Y-50544467D01*
X55501471Y-50328967D01*
X55582284Y-50302030D01*
X55636158Y-50302030D01*
X55716971Y-50328967D01*
X55797783Y-50409780D01*
X55824720Y-50490592D01*
X55824720Y-50544467D01*
X55797783Y-50625279D01*
X55582284Y-50840778D01*
X56740592Y-50221218D02*
X56282656Y-50140406D01*
X56417343Y-50544467D02*
X55851658Y-49978781D01*
X56067157Y-49763282D01*
X56147969Y-49736345D01*
X56201844Y-49736345D01*
X56282656Y-49763282D01*
X56363468Y-49844094D01*
X56390406Y-49924906D01*
X56390406Y-49978781D01*
X56363468Y-50059593D01*
X56147969Y-50275093D01*
X56525093Y-49305346D02*
X56632842Y-49197597D01*
X56713654Y-49170659D01*
X56821404Y-49170659D01*
X56956091Y-49251471D01*
X57144653Y-49440033D01*
X57225465Y-49574720D01*
X57225465Y-49682470D01*
X57198528Y-49763282D01*
X57090778Y-49871032D01*
X57009966Y-49897969D01*
X56902216Y-49897969D01*
X56767529Y-49817157D01*
X56578967Y-49628595D01*
X56498155Y-49493908D01*
X56498155Y-49386158D01*
X56525093Y-49305346D01*
X57898900Y-49062910D02*
X57440964Y-48982097D01*
X57575651Y-49386158D02*
X57009966Y-48820473D01*
X57225465Y-48604974D01*
X57306277Y-48578036D01*
X57360152Y-48578036D01*
X57440964Y-48604974D01*
X57521776Y-48685786D01*
X57548714Y-48766598D01*
X57548714Y-48820473D01*
X57521776Y-48901285D01*
X57306277Y-49116784D01*
X57928223Y-51829712D02*
X58035972Y-51775837D01*
X58170659Y-51641150D01*
X58197597Y-51560338D01*
X58197597Y-51506463D01*
X58170659Y-51425651D01*
X58116784Y-51371776D01*
X58035972Y-51344839D01*
X57982097Y-51344839D01*
X57901285Y-51371776D01*
X57766598Y-51452589D01*
X57685786Y-51479526D01*
X57631911Y-51479526D01*
X57551099Y-51452589D01*
X57497224Y-51398714D01*
X57470287Y-51317902D01*
X57470287Y-51264027D01*
X57497224Y-51183215D01*
X57631911Y-51048528D01*
X57739661Y-50994653D01*
X57874348Y-50806091D02*
X58197597Y-50482842D01*
X58601658Y-51210152D02*
X58035972Y-50644467D01*
X58763282Y-50725279D02*
X59032656Y-50455905D01*
X58871032Y-50940778D02*
X58493908Y-50186531D01*
X59248155Y-50563654D01*
X58790219Y-49890219D02*
X59113468Y-49566971D01*
X59517529Y-50294280D02*
X58951844Y-49728595D01*
X59302030Y-49378409D02*
X59759966Y-49836345D01*
X59840778Y-49863282D01*
X59894653Y-49863282D01*
X59975465Y-49836345D01*
X60083215Y-49728595D01*
X60110152Y-49647783D01*
X60110152Y-49593908D01*
X60083215Y-49513096D01*
X59625279Y-49055160D01*
X60406463Y-49351471D02*
X60514213Y-49297597D01*
X60648900Y-49162910D01*
X60675837Y-49082097D01*
X60675837Y-49028223D01*
X60648900Y-48947410D01*
X60595025Y-48893536D01*
X60514213Y-48866598D01*
X60460338Y-48866598D01*
X60379526Y-48893536D01*
X60244839Y-48974348D01*
X60164027Y-49001285D01*
X60110152Y-49001285D01*
X60029340Y-48974348D01*
X59975465Y-48920473D01*
X59948528Y-48839661D01*
X59948528Y-48785786D01*
X59975465Y-48704974D01*
X60110152Y-48570287D01*
X60217902Y-48516412D01*
D10*
X76297619Y-62902380D02*
X75964285Y-62426190D01*
X75726190Y-62902380D02*
X75726190Y-61902380D01*
X76107142Y-61902380D01*
X76202380Y-61950000D01*
X76250000Y-61997619D01*
X76297619Y-62092857D01*
X76297619Y-62235714D01*
X76250000Y-62330952D01*
X76202380Y-62378571D01*
X76107142Y-62426190D01*
X75726190Y-62426190D01*
X76726190Y-62378571D02*
X77059523Y-62378571D01*
X77202380Y-62902380D02*
X76726190Y-62902380D01*
X76726190Y-61902380D01*
X77202380Y-61902380D01*
X77583333Y-62854761D02*
X77726190Y-62902380D01*
X77964285Y-62902380D01*
X78059523Y-62854761D01*
X78107142Y-62807142D01*
X78154761Y-62711904D01*
X78154761Y-62616666D01*
X78107142Y-62521428D01*
X78059523Y-62473809D01*
X77964285Y-62426190D01*
X77773809Y-62378571D01*
X77678571Y-62330952D01*
X77630952Y-62283333D01*
X77583333Y-62188095D01*
X77583333Y-62092857D01*
X77630952Y-61997619D01*
X77678571Y-61950000D01*
X77773809Y-61902380D01*
X78011904Y-61902380D01*
X78154761Y-61950000D01*
X78583333Y-62378571D02*
X78916666Y-62378571D01*
X79059523Y-62902380D02*
X78583333Y-62902380D01*
X78583333Y-61902380D01*
X79059523Y-61902380D01*
X79345238Y-61902380D02*
X79916666Y-61902380D01*
X79630952Y-62902380D02*
X79630952Y-61902380D01*
X75800000Y-80276190D02*
X75752380Y-80371428D01*
X75752380Y-80514285D01*
X75800000Y-80657142D01*
X75895238Y-80752380D01*
X75990476Y-80800000D01*
X76180952Y-80847619D01*
X76323809Y-80847619D01*
X76514285Y-80800000D01*
X76609523Y-80752380D01*
X76704761Y-80657142D01*
X76752380Y-80514285D01*
X76752380Y-80419047D01*
X76704761Y-80276190D01*
X76657142Y-80228571D01*
X76323809Y-80228571D01*
X76323809Y-80419047D01*
X76752380Y-79800000D02*
X75752380Y-79800000D01*
X75752380Y-79419047D01*
X75800000Y-79323809D01*
X75847619Y-79276190D01*
X75942857Y-79228571D01*
X76085714Y-79228571D01*
X76180952Y-79276190D01*
X76228571Y-79323809D01*
X76276190Y-79419047D01*
X76276190Y-79800000D01*
X76752380Y-78800000D02*
X75752380Y-78800000D01*
X75752380Y-78133333D02*
X75752380Y-77942857D01*
X75800000Y-77847619D01*
X75895238Y-77752380D01*
X76085714Y-77704761D01*
X76419047Y-77704761D01*
X76609523Y-77752380D01*
X76704761Y-77847619D01*
X76752380Y-77942857D01*
X76752380Y-78133333D01*
X76704761Y-78228571D01*
X76609523Y-78323809D01*
X76419047Y-78371428D01*
X76085714Y-78371428D01*
X75895238Y-78323809D01*
X75800000Y-78228571D01*
X75752380Y-78133333D01*
X75752380Y-77085714D02*
X75752380Y-76990476D01*
X75800000Y-76895238D01*
X75847619Y-76847619D01*
X75942857Y-76800000D01*
X76133333Y-76752380D01*
X76371428Y-76752380D01*
X76561904Y-76800000D01*
X76657142Y-76847619D01*
X76704761Y-76895238D01*
X76752380Y-76990476D01*
X76752380Y-77085714D01*
X76704761Y-77180952D01*
X76657142Y-77228571D01*
X76561904Y-77276190D01*
X76371428Y-77323809D01*
X76133333Y-77323809D01*
X75942857Y-77276190D01*
X75847619Y-77228571D01*
X75800000Y-77180952D01*
X75752380Y-77085714D01*
X103147619Y-77200000D02*
X103052380Y-77152380D01*
X102909523Y-77152380D01*
X102766666Y-77200000D01*
X102671428Y-77295238D01*
X102623809Y-77390476D01*
X102576190Y-77580952D01*
X102576190Y-77723809D01*
X102623809Y-77914285D01*
X102671428Y-78009523D01*
X102766666Y-78104761D01*
X102909523Y-78152380D01*
X103004761Y-78152380D01*
X103147619Y-78104761D01*
X103195238Y-78057142D01*
X103195238Y-77723809D01*
X103004761Y-77723809D01*
X103623809Y-78152380D02*
X103623809Y-77152380D01*
X104004761Y-77152380D01*
X104100000Y-77200000D01*
X104147619Y-77247619D01*
X104195238Y-77342857D01*
X104195238Y-77485714D01*
X104147619Y-77580952D01*
X104100000Y-77628571D01*
X104004761Y-77676190D01*
X103623809Y-77676190D01*
X104623809Y-78152380D02*
X104623809Y-77152380D01*
X105290476Y-77152380D02*
X105480952Y-77152380D01*
X105576190Y-77200000D01*
X105671428Y-77295238D01*
X105719047Y-77485714D01*
X105719047Y-77819047D01*
X105671428Y-78009523D01*
X105576190Y-78104761D01*
X105480952Y-78152380D01*
X105290476Y-78152380D01*
X105195238Y-78104761D01*
X105100000Y-78009523D01*
X105052380Y-77819047D01*
X105052380Y-77485714D01*
X105100000Y-77295238D01*
X105195238Y-77200000D01*
X105290476Y-77152380D01*
X106671428Y-78152380D02*
X106100000Y-78152380D01*
X106385714Y-78152380D02*
X106385714Y-77152380D01*
X106290476Y-77295238D01*
X106195238Y-77390476D01*
X106100000Y-77438095D01*
X107576190Y-77152380D02*
X107100000Y-77152380D01*
X107052380Y-77628571D01*
X107100000Y-77580952D01*
X107195238Y-77533333D01*
X107433333Y-77533333D01*
X107528571Y-77580952D01*
X107576190Y-77628571D01*
X107623809Y-77723809D01*
X107623809Y-77961904D01*
X107576190Y-78057142D01*
X107528571Y-78104761D01*
X107433333Y-78152380D01*
X107195238Y-78152380D01*
X107100000Y-78104761D01*
X107052380Y-78057142D01*
X81559523Y-73202380D02*
X81892857Y-74202380D01*
X82226190Y-73202380D01*
X82940476Y-74154761D02*
X82845238Y-74202380D01*
X82654761Y-74202380D01*
X82559523Y-74154761D01*
X82511904Y-74059523D01*
X82511904Y-73678571D01*
X82559523Y-73583333D01*
X82654761Y-73535714D01*
X82845238Y-73535714D01*
X82940476Y-73583333D01*
X82988095Y-73678571D01*
X82988095Y-73773809D01*
X82511904Y-73869047D01*
X83416666Y-74202380D02*
X83416666Y-73535714D01*
X83416666Y-73726190D02*
X83464285Y-73630952D01*
X83511904Y-73583333D01*
X83607142Y-73535714D01*
X83702380Y-73535714D01*
X83988095Y-74154761D02*
X84083333Y-74202380D01*
X84273809Y-74202380D01*
X84369047Y-74154761D01*
X84416666Y-74059523D01*
X84416666Y-74011904D01*
X84369047Y-73916666D01*
X84273809Y-73869047D01*
X84130952Y-73869047D01*
X84035714Y-73821428D01*
X83988095Y-73726190D01*
X83988095Y-73678571D01*
X84035714Y-73583333D01*
X84130952Y-73535714D01*
X84273809Y-73535714D01*
X84369047Y-73583333D01*
X84845238Y-74202380D02*
X84845238Y-73535714D01*
X84845238Y-73202380D02*
X84797619Y-73250000D01*
X84845238Y-73297619D01*
X84892857Y-73250000D01*
X84845238Y-73202380D01*
X84845238Y-73297619D01*
X85464285Y-74202380D02*
X85369047Y-74154761D01*
X85321428Y-74107142D01*
X85273809Y-74011904D01*
X85273809Y-73726190D01*
X85321428Y-73630952D01*
X85369047Y-73583333D01*
X85464285Y-73535714D01*
X85607142Y-73535714D01*
X85702380Y-73583333D01*
X85750000Y-73630952D01*
X85797619Y-73726190D01*
X85797619Y-74011904D01*
X85750000Y-74107142D01*
X85702380Y-74154761D01*
X85607142Y-74202380D01*
X85464285Y-74202380D01*
X86226190Y-73535714D02*
X86226190Y-74202380D01*
X86226190Y-73630952D02*
X86273809Y-73583333D01*
X86369047Y-73535714D01*
X86511904Y-73535714D01*
X86607142Y-73583333D01*
X86654761Y-73678571D01*
X86654761Y-74202380D01*
X87845238Y-73297619D02*
X87892857Y-73250000D01*
X87988095Y-73202380D01*
X88226190Y-73202380D01*
X88321428Y-73250000D01*
X88369047Y-73297619D01*
X88416666Y-73392857D01*
X88416666Y-73488095D01*
X88369047Y-73630952D01*
X87797619Y-74202380D01*
X88416666Y-74202380D01*
X88845238Y-74107142D02*
X88892857Y-74154761D01*
X88845238Y-74202380D01*
X88797619Y-74154761D01*
X88845238Y-74107142D01*
X88845238Y-74202380D01*
X89511904Y-73202380D02*
X89607142Y-73202380D01*
X89702380Y-73250000D01*
X89750000Y-73297619D01*
X89797619Y-73392857D01*
X89845238Y-73583333D01*
X89845238Y-73821428D01*
X89797619Y-74011904D01*
X89750000Y-74107142D01*
X89702380Y-74154761D01*
X89607142Y-74202380D01*
X89511904Y-74202380D01*
X89416666Y-74154761D01*
X89369047Y-74107142D01*
X89321428Y-74011904D01*
X89273809Y-73821428D01*
X89273809Y-73583333D01*
X89321428Y-73392857D01*
X89369047Y-73297619D01*
X89416666Y-73250000D01*
X89511904Y-73202380D01*
X77059523Y-75852380D02*
X77059523Y-74852380D01*
X77297619Y-74852380D01*
X77440476Y-74900000D01*
X77535714Y-74995238D01*
X77583333Y-75090476D01*
X77630952Y-75280952D01*
X77630952Y-75423809D01*
X77583333Y-75614285D01*
X77535714Y-75709523D01*
X77440476Y-75804761D01*
X77297619Y-75852380D01*
X77059523Y-75852380D01*
X78440476Y-75804761D02*
X78345238Y-75852380D01*
X78154761Y-75852380D01*
X78059523Y-75804761D01*
X78011904Y-75709523D01*
X78011904Y-75328571D01*
X78059523Y-75233333D01*
X78154761Y-75185714D01*
X78345238Y-75185714D01*
X78440476Y-75233333D01*
X78488095Y-75328571D01*
X78488095Y-75423809D01*
X78011904Y-75519047D01*
X78869047Y-75804761D02*
X78964285Y-75852380D01*
X79154761Y-75852380D01*
X79250000Y-75804761D01*
X79297619Y-75709523D01*
X79297619Y-75661904D01*
X79250000Y-75566666D01*
X79154761Y-75519047D01*
X79011904Y-75519047D01*
X78916666Y-75471428D01*
X78869047Y-75376190D01*
X78869047Y-75328571D01*
X78916666Y-75233333D01*
X79011904Y-75185714D01*
X79154761Y-75185714D01*
X79250000Y-75233333D01*
X79726190Y-75852380D02*
X79726190Y-75185714D01*
X79726190Y-74852380D02*
X79678571Y-74900000D01*
X79726190Y-74947619D01*
X79773809Y-74900000D01*
X79726190Y-74852380D01*
X79726190Y-74947619D01*
X80630952Y-75185714D02*
X80630952Y-75995238D01*
X80583333Y-76090476D01*
X80535714Y-76138095D01*
X80440476Y-76185714D01*
X80297619Y-76185714D01*
X80202380Y-76138095D01*
X80630952Y-75804761D02*
X80535714Y-75852380D01*
X80345238Y-75852380D01*
X80250000Y-75804761D01*
X80202380Y-75757142D01*
X80154761Y-75661904D01*
X80154761Y-75376190D01*
X80202380Y-75280952D01*
X80250000Y-75233333D01*
X80345238Y-75185714D01*
X80535714Y-75185714D01*
X80630952Y-75233333D01*
X81107142Y-75185714D02*
X81107142Y-75852380D01*
X81107142Y-75280952D02*
X81154761Y-75233333D01*
X81250000Y-75185714D01*
X81392857Y-75185714D01*
X81488095Y-75233333D01*
X81535714Y-75328571D01*
X81535714Y-75852380D01*
X82392857Y-75804761D02*
X82297619Y-75852380D01*
X82107142Y-75852380D01*
X82011904Y-75804761D01*
X81964285Y-75709523D01*
X81964285Y-75328571D01*
X82011904Y-75233333D01*
X82107142Y-75185714D01*
X82297619Y-75185714D01*
X82392857Y-75233333D01*
X82440476Y-75328571D01*
X82440476Y-75423809D01*
X81964285Y-75519047D01*
X83297619Y-75852380D02*
X83297619Y-74852380D01*
X83297619Y-75804761D02*
X83202380Y-75852380D01*
X83011904Y-75852380D01*
X82916666Y-75804761D01*
X82869047Y-75757142D01*
X82821428Y-75661904D01*
X82821428Y-75376190D01*
X82869047Y-75280952D01*
X82916666Y-75233333D01*
X83011904Y-75185714D01*
X83202380Y-75185714D01*
X83297619Y-75233333D01*
X84869047Y-75328571D02*
X85011904Y-75376190D01*
X85059523Y-75423809D01*
X85107142Y-75519047D01*
X85107142Y-75661904D01*
X85059523Y-75757142D01*
X85011904Y-75804761D01*
X84916666Y-75852380D01*
X84535714Y-75852380D01*
X84535714Y-74852380D01*
X84869047Y-74852380D01*
X84964285Y-74900000D01*
X85011904Y-74947619D01*
X85059523Y-75042857D01*
X85059523Y-75138095D01*
X85011904Y-75233333D01*
X84964285Y-75280952D01*
X84869047Y-75328571D01*
X84535714Y-75328571D01*
X85440476Y-75185714D02*
X85678571Y-75852380D01*
X85916666Y-75185714D02*
X85678571Y-75852380D01*
X85583333Y-76090476D01*
X85535714Y-76138095D01*
X85440476Y-76185714D01*
X87011904Y-75804761D02*
X87154761Y-75852380D01*
X87392857Y-75852380D01*
X87488095Y-75804761D01*
X87535714Y-75757142D01*
X87583333Y-75661904D01*
X87583333Y-75566666D01*
X87535714Y-75471428D01*
X87488095Y-75423809D01*
X87392857Y-75376190D01*
X87202380Y-75328571D01*
X87107142Y-75280952D01*
X87059523Y-75233333D01*
X87011904Y-75138095D01*
X87011904Y-75042857D01*
X87059523Y-74947619D01*
X87107142Y-74900000D01*
X87202380Y-74852380D01*
X87440476Y-74852380D01*
X87583333Y-74900000D01*
X88011904Y-75185714D02*
X88011904Y-76042857D01*
X87964285Y-76138095D01*
X87869047Y-76185714D01*
X87821428Y-76185714D01*
X88011904Y-74852380D02*
X87964285Y-74900000D01*
X88011904Y-74947619D01*
X88059523Y-74900000D01*
X88011904Y-74852380D01*
X88011904Y-74947619D01*
X88630952Y-75852380D02*
X88535714Y-75804761D01*
X88488095Y-75757142D01*
X88440476Y-75661904D01*
X88440476Y-75376190D01*
X88488095Y-75280952D01*
X88535714Y-75233333D01*
X88630952Y-75185714D01*
X88773809Y-75185714D01*
X88869047Y-75233333D01*
X88916666Y-75280952D01*
X88964285Y-75376190D01*
X88964285Y-75661904D01*
X88916666Y-75757142D01*
X88869047Y-75804761D01*
X88773809Y-75852380D01*
X88630952Y-75852380D01*
X89392857Y-75852380D02*
X89392857Y-75185714D01*
X89392857Y-75376190D02*
X89440476Y-75280952D01*
X89488095Y-75233333D01*
X89583333Y-75185714D01*
X89678571Y-75185714D01*
X89964285Y-75804761D02*
X90059523Y-75852380D01*
X90250000Y-75852380D01*
X90345238Y-75804761D01*
X90392857Y-75709523D01*
X90392857Y-75661904D01*
X90345238Y-75566666D01*
X90250000Y-75519047D01*
X90107142Y-75519047D01*
X90011904Y-75471428D01*
X89964285Y-75376190D01*
X89964285Y-75328571D01*
X90011904Y-75233333D01*
X90107142Y-75185714D01*
X90250000Y-75185714D01*
X90345238Y-75233333D01*
X91535714Y-75804761D02*
X91678571Y-75852380D01*
X91916666Y-75852380D01*
X92011904Y-75804761D01*
X92059523Y-75757142D01*
X92107142Y-75661904D01*
X92107142Y-75566666D01*
X92059523Y-75471428D01*
X92011904Y-75423809D01*
X91916666Y-75376190D01*
X91726190Y-75328571D01*
X91630952Y-75280952D01*
X91583333Y-75233333D01*
X91535714Y-75138095D01*
X91535714Y-75042857D01*
X91583333Y-74947619D01*
X91630952Y-74900000D01*
X91726190Y-74852380D01*
X91964285Y-74852380D01*
X92107142Y-74900000D01*
X92535714Y-75852380D02*
X92535714Y-75185714D01*
X92535714Y-75280952D02*
X92583333Y-75233333D01*
X92678571Y-75185714D01*
X92821428Y-75185714D01*
X92916666Y-75233333D01*
X92964285Y-75328571D01*
X92964285Y-75852380D01*
X92964285Y-75328571D02*
X93011904Y-75233333D01*
X93107142Y-75185714D01*
X93249999Y-75185714D01*
X93345238Y-75233333D01*
X93392857Y-75328571D01*
X93392857Y-75852380D01*
X93869047Y-75852380D02*
X93869047Y-75185714D01*
X93869047Y-74852380D02*
X93821428Y-74900000D01*
X93869047Y-74947619D01*
X93916666Y-74900000D01*
X93869047Y-74852380D01*
X93869047Y-74947619D01*
X94202380Y-75185714D02*
X94583333Y-75185714D01*
X94345238Y-74852380D02*
X94345238Y-75709523D01*
X94392857Y-75804761D01*
X94488095Y-75852380D01*
X94583333Y-75852380D01*
X81964285Y-77216666D02*
X82440476Y-77216666D01*
X81869047Y-77502380D02*
X82202380Y-76502380D01*
X82535714Y-77502380D01*
X82869047Y-76835714D02*
X82869047Y-77835714D01*
X82869047Y-76883333D02*
X82964285Y-76835714D01*
X83154761Y-76835714D01*
X83250000Y-76883333D01*
X83297619Y-76930952D01*
X83345238Y-77026190D01*
X83345238Y-77311904D01*
X83297619Y-77407142D01*
X83250000Y-77454761D01*
X83154761Y-77502380D01*
X82964285Y-77502380D01*
X82869047Y-77454761D01*
X83773809Y-77502380D02*
X83773809Y-76835714D01*
X83773809Y-77026190D02*
X83821428Y-76930952D01*
X83869047Y-76883333D01*
X83964285Y-76835714D01*
X84059523Y-76835714D01*
X84392857Y-77502380D02*
X84392857Y-76835714D01*
X84392857Y-76502380D02*
X84345238Y-76550000D01*
X84392857Y-76597619D01*
X84440476Y-76550000D01*
X84392857Y-76502380D01*
X84392857Y-76597619D01*
X85011904Y-77502380D02*
X84916666Y-77454761D01*
X84869047Y-77359523D01*
X84869047Y-76502380D01*
X86107142Y-76597619D02*
X86154761Y-76550000D01*
X86250000Y-76502380D01*
X86488095Y-76502380D01*
X86583333Y-76550000D01*
X86630952Y-76597619D01*
X86678571Y-76692857D01*
X86678571Y-76788095D01*
X86630952Y-76930952D01*
X86059523Y-77502380D01*
X86678571Y-77502380D01*
X87297619Y-76502380D02*
X87392857Y-76502380D01*
X87488095Y-76550000D01*
X87535714Y-76597619D01*
X87583333Y-76692857D01*
X87630952Y-76883333D01*
X87630952Y-77121428D01*
X87583333Y-77311904D01*
X87535714Y-77407142D01*
X87488095Y-77454761D01*
X87392857Y-77502380D01*
X87297619Y-77502380D01*
X87202380Y-77454761D01*
X87154761Y-77407142D01*
X87107142Y-77311904D01*
X87059523Y-77121428D01*
X87059523Y-76883333D01*
X87107142Y-76692857D01*
X87154761Y-76597619D01*
X87202380Y-76550000D01*
X87297619Y-76502380D01*
X88011904Y-76597619D02*
X88059523Y-76550000D01*
X88154761Y-76502380D01*
X88392857Y-76502380D01*
X88488095Y-76550000D01*
X88535714Y-76597619D01*
X88583333Y-76692857D01*
X88583333Y-76788095D01*
X88535714Y-76930952D01*
X87964285Y-77502380D01*
X88583333Y-77502380D01*
X89535714Y-77502380D02*
X88964285Y-77502380D01*
X89250000Y-77502380D02*
X89250000Y-76502380D01*
X89154761Y-76645238D01*
X89059523Y-76740476D01*
X88964285Y-76788095D01*
D12*
X79192857Y-67853571D02*
X80050000Y-67853571D01*
X79621428Y-69353571D02*
X79621428Y-67853571D01*
X80407142Y-68353571D02*
X80692857Y-69353571D01*
X80978571Y-68639285D01*
X81264285Y-69353571D01*
X81550000Y-68353571D01*
X82335714Y-69353571D02*
X82192857Y-69282142D01*
X82121428Y-69210714D01*
X82050000Y-69067857D01*
X82050000Y-68639285D01*
X82121428Y-68496428D01*
X82192857Y-68425000D01*
X82335714Y-68353571D01*
X82550000Y-68353571D01*
X82692857Y-68425000D01*
X82764285Y-68496428D01*
X82835714Y-68639285D01*
X82835714Y-69067857D01*
X82764285Y-69210714D01*
X82692857Y-69282142D01*
X82550000Y-69353571D01*
X82335714Y-69353571D01*
X83478571Y-69353571D02*
X83478571Y-68353571D01*
X83478571Y-68496428D02*
X83550000Y-68425000D01*
X83692857Y-68353571D01*
X83907142Y-68353571D01*
X84050000Y-68425000D01*
X84121428Y-68567857D01*
X84121428Y-69353571D01*
X84121428Y-68567857D02*
X84192857Y-68425000D01*
X84335714Y-68353571D01*
X84550000Y-68353571D01*
X84692857Y-68425000D01*
X84764285Y-68567857D01*
X84764285Y-69353571D01*
X86050000Y-69282142D02*
X85907142Y-69353571D01*
X85621428Y-69353571D01*
X85478571Y-69282142D01*
X85407142Y-69139285D01*
X85407142Y-68567857D01*
X85478571Y-68425000D01*
X85621428Y-68353571D01*
X85907142Y-68353571D01*
X86050000Y-68425000D01*
X86121428Y-68567857D01*
X86121428Y-68710714D01*
X85407142Y-68853571D01*
X86692857Y-69282142D02*
X86835714Y-69353571D01*
X87121428Y-69353571D01*
X87264285Y-69282142D01*
X87335714Y-69139285D01*
X87335714Y-69067857D01*
X87264285Y-68925000D01*
X87121428Y-68853571D01*
X86907142Y-68853571D01*
X86764285Y-68782142D01*
X86692857Y-68639285D01*
X86692857Y-68567857D01*
X86764285Y-68425000D01*
X86907142Y-68353571D01*
X87121428Y-68353571D01*
X87264285Y-68425000D01*
X88907142Y-67853571D02*
X89764285Y-67853571D01*
X89335714Y-69353571D02*
X89335714Y-67853571D01*
X90835714Y-69282142D02*
X90692857Y-69353571D01*
X90407142Y-69353571D01*
X90264285Y-69282142D01*
X90192857Y-69139285D01*
X90192857Y-68567857D01*
X90264285Y-68425000D01*
X90407142Y-68353571D01*
X90692857Y-68353571D01*
X90835714Y-68425000D01*
X90907142Y-68567857D01*
X90907142Y-68710714D01*
X90192857Y-68853571D01*
X91550000Y-69353571D02*
X91550000Y-68353571D01*
X91550000Y-68496428D02*
X91621428Y-68425000D01*
X91764285Y-68353571D01*
X91978571Y-68353571D01*
X92121428Y-68425000D01*
X92192857Y-68567857D01*
X92192857Y-69353571D01*
X92192857Y-68567857D02*
X92264285Y-68425000D01*
X92407142Y-68353571D01*
X92621428Y-68353571D01*
X92764285Y-68425000D01*
X92835714Y-68567857D01*
X92835714Y-69353571D01*
X93550000Y-68353571D02*
X93550000Y-69853571D01*
X93550000Y-68425000D02*
X93692857Y-68353571D01*
X93978571Y-68353571D01*
X94121428Y-68425000D01*
X94192857Y-68496428D01*
X94264285Y-68639285D01*
X94264285Y-69067857D01*
X94192857Y-69210714D01*
X94121428Y-69282142D01*
X93978571Y-69353571D01*
X93692857Y-69353571D01*
X93550000Y-69282142D01*
X95478571Y-69282142D02*
X95335714Y-69353571D01*
X95050000Y-69353571D01*
X94907142Y-69282142D01*
X94835714Y-69139285D01*
X94835714Y-68567857D01*
X94907142Y-68425000D01*
X95050000Y-68353571D01*
X95335714Y-68353571D01*
X95478571Y-68425000D01*
X95550000Y-68567857D01*
X95550000Y-68710714D01*
X94835714Y-68853571D01*
X96192857Y-69353571D02*
X96192857Y-68353571D01*
X96192857Y-68639285D02*
X96264285Y-68496428D01*
X96335714Y-68425000D01*
X96478571Y-68353571D01*
X96621428Y-68353571D01*
X97764285Y-69353571D02*
X97764285Y-68567857D01*
X97692857Y-68425000D01*
X97550000Y-68353571D01*
X97264285Y-68353571D01*
X97121428Y-68425000D01*
X97764285Y-69282142D02*
X97621428Y-69353571D01*
X97264285Y-69353571D01*
X97121428Y-69282142D01*
X97050000Y-69139285D01*
X97050000Y-68996428D01*
X97121428Y-68853571D01*
X97264285Y-68782142D01*
X97621428Y-68782142D01*
X97764285Y-68710714D01*
X98264285Y-68353571D02*
X98835714Y-68353571D01*
X98478571Y-67853571D02*
X98478571Y-69139285D01*
X98550000Y-69282142D01*
X98692857Y-69353571D01*
X98835714Y-69353571D01*
X99978571Y-68353571D02*
X99978571Y-69353571D01*
X99335714Y-68353571D02*
X99335714Y-69139285D01*
X99407142Y-69282142D01*
X99550000Y-69353571D01*
X99764285Y-69353571D01*
X99907142Y-69282142D01*
X99978571Y-69210714D01*
X100692857Y-69353571D02*
X100692857Y-68353571D01*
X100692857Y-68639285D02*
X100764285Y-68496428D01*
X100835714Y-68425000D01*
X100978571Y-68353571D01*
X101121428Y-68353571D01*
X102192857Y-69282142D02*
X102050000Y-69353571D01*
X101764285Y-69353571D01*
X101621428Y-69282142D01*
X101550000Y-69139285D01*
X101550000Y-68567857D01*
X101621428Y-68425000D01*
X101764285Y-68353571D01*
X102050000Y-68353571D01*
X102192857Y-68425000D01*
X102264285Y-68567857D01*
X102264285Y-68710714D01*
X101550000Y-68853571D01*
X83942857Y-71732142D02*
X84157142Y-71803571D01*
X84514285Y-71803571D01*
X84657142Y-71732142D01*
X84728571Y-71660714D01*
X84800000Y-71517857D01*
X84800000Y-71375000D01*
X84728571Y-71232142D01*
X84657142Y-71160714D01*
X84514285Y-71089285D01*
X84228571Y-71017857D01*
X84085714Y-70946428D01*
X84014285Y-70875000D01*
X83942857Y-70732142D01*
X83942857Y-70589285D01*
X84014285Y-70446428D01*
X84085714Y-70375000D01*
X84228571Y-70303571D01*
X84585714Y-70303571D01*
X84800000Y-70375000D01*
X86014285Y-71732142D02*
X85871428Y-71803571D01*
X85585714Y-71803571D01*
X85442857Y-71732142D01*
X85371428Y-71589285D01*
X85371428Y-71017857D01*
X85442857Y-70875000D01*
X85585714Y-70803571D01*
X85871428Y-70803571D01*
X86014285Y-70875000D01*
X86085714Y-71017857D01*
X86085714Y-71160714D01*
X85371428Y-71303571D01*
X86728571Y-70803571D02*
X86728571Y-71803571D01*
X86728571Y-70946428D02*
X86800000Y-70875000D01*
X86942857Y-70803571D01*
X87157142Y-70803571D01*
X87300000Y-70875000D01*
X87371428Y-71017857D01*
X87371428Y-71803571D01*
X88014285Y-71732142D02*
X88157142Y-71803571D01*
X88442857Y-71803571D01*
X88585714Y-71732142D01*
X88657142Y-71589285D01*
X88657142Y-71517857D01*
X88585714Y-71375000D01*
X88442857Y-71303571D01*
X88228571Y-71303571D01*
X88085714Y-71232142D01*
X88014285Y-71089285D01*
X88014285Y-71017857D01*
X88085714Y-70875000D01*
X88228571Y-70803571D01*
X88442857Y-70803571D01*
X88585714Y-70875000D01*
X89514285Y-71803571D02*
X89371428Y-71732142D01*
X89300000Y-71660714D01*
X89228571Y-71517857D01*
X89228571Y-71089285D01*
X89300000Y-70946428D01*
X89371428Y-70875000D01*
X89514285Y-70803571D01*
X89728571Y-70803571D01*
X89871428Y-70875000D01*
X89942857Y-70946428D01*
X90014285Y-71089285D01*
X90014285Y-71517857D01*
X89942857Y-71660714D01*
X89871428Y-71732142D01*
X89728571Y-71803571D01*
X89514285Y-71803571D01*
X90657142Y-71803571D02*
X90657142Y-70803571D01*
X90657142Y-71089285D02*
X90728571Y-70946428D01*
X90800000Y-70875000D01*
X90942857Y-70803571D01*
X91085714Y-70803571D01*
X92728571Y-71803571D02*
X92728571Y-70303571D01*
X93585714Y-71803571D01*
X93585714Y-70303571D01*
X94514285Y-71803571D02*
X94371428Y-71732142D01*
X94299999Y-71660714D01*
X94228571Y-71517857D01*
X94228571Y-71089285D01*
X94299999Y-70946428D01*
X94371428Y-70875000D01*
X94514285Y-70803571D01*
X94728571Y-70803571D01*
X94871428Y-70875000D01*
X94942857Y-70946428D01*
X95014285Y-71089285D01*
X95014285Y-71517857D01*
X94942857Y-71660714D01*
X94871428Y-71732142D01*
X94728571Y-71803571D01*
X94514285Y-71803571D01*
X96299999Y-71803571D02*
X96299999Y-70303571D01*
X96299999Y-71732142D02*
X96157142Y-71803571D01*
X95871428Y-71803571D01*
X95728571Y-71732142D01*
X95657142Y-71660714D01*
X95585714Y-71517857D01*
X95585714Y-71089285D01*
X95657142Y-70946428D01*
X95728571Y-70875000D01*
X95871428Y-70803571D01*
X96157142Y-70803571D01*
X96299999Y-70875000D01*
X97585714Y-71732142D02*
X97442857Y-71803571D01*
X97157142Y-71803571D01*
X97014285Y-71732142D01*
X96942857Y-71589285D01*
X96942857Y-71017857D01*
X97014285Y-70875000D01*
X97157142Y-70803571D01*
X97442857Y-70803571D01*
X97585714Y-70875000D01*
X97657142Y-71017857D01*
X97657142Y-71160714D01*
X96942857Y-71303571D01*
D10*
X116238095Y-57000000D02*
X116142857Y-56952380D01*
X116000000Y-56952380D01*
X115857142Y-57000000D01*
X115761904Y-57095238D01*
X115714285Y-57190476D01*
X115666666Y-57380952D01*
X115666666Y-57523809D01*
X115714285Y-57714285D01*
X115761904Y-57809523D01*
X115857142Y-57904761D01*
X116000000Y-57952380D01*
X116095238Y-57952380D01*
X116238095Y-57904761D01*
X116285714Y-57857142D01*
X116285714Y-57523809D01*
X116095238Y-57523809D01*
X116714285Y-57952380D02*
X116714285Y-56952380D01*
X117285714Y-57952380D01*
X117285714Y-56952380D01*
X117761904Y-57952380D02*
X117761904Y-56952380D01*
X118000000Y-56952380D01*
X118142857Y-57000000D01*
X118238095Y-57095238D01*
X118285714Y-57190476D01*
X118333333Y-57380952D01*
X118333333Y-57523809D01*
X118285714Y-57714285D01*
X118238095Y-57809523D01*
X118142857Y-57904761D01*
X118000000Y-57952380D01*
X117761904Y-57952380D01*
X112761904Y-49952380D02*
X113380952Y-49952380D01*
X113047619Y-50333333D01*
X113190476Y-50333333D01*
X113285714Y-50380952D01*
X113333333Y-50428571D01*
X113380952Y-50523809D01*
X113380952Y-50761904D01*
X113333333Y-50857142D01*
X113285714Y-50904761D01*
X113190476Y-50952380D01*
X112904761Y-50952380D01*
X112809523Y-50904761D01*
X112761904Y-50857142D01*
X113666666Y-49952380D02*
X114000000Y-50952380D01*
X114333333Y-49952380D01*
X114571428Y-49952380D02*
X115190476Y-49952380D01*
X114857142Y-50333333D01*
X115000000Y-50333333D01*
X115095238Y-50380952D01*
X115142857Y-50428571D01*
X115190476Y-50523809D01*
X115190476Y-50761904D01*
X115142857Y-50857142D01*
X115095238Y-50904761D01*
X115000000Y-50952380D01*
X114714285Y-50952380D01*
X114619047Y-50904761D01*
X114571428Y-50857142D01*
X113238095Y-44952380D02*
X113809523Y-44952380D01*
X113523809Y-45952380D02*
X113523809Y-44952380D01*
X114047619Y-44952380D02*
X114714285Y-45952380D01*
X114714285Y-44952380D02*
X114047619Y-45952380D01*
X113833333Y-48452380D02*
X113500000Y-47976190D01*
X113261904Y-48452380D02*
X113261904Y-47452380D01*
X113642857Y-47452380D01*
X113738095Y-47500000D01*
X113785714Y-47547619D01*
X113833333Y-47642857D01*
X113833333Y-47785714D01*
X113785714Y-47880952D01*
X113738095Y-47928571D01*
X113642857Y-47976190D01*
X113261904Y-47976190D01*
X114166666Y-47452380D02*
X114833333Y-48452380D01*
X114833333Y-47452380D02*
X114166666Y-48452380D01*
D13*
X101530000Y-51070000D02*
X101530000Y-52400000D01*
X100200000Y-51070000D02*
X101530000Y-51070000D01*
X98930000Y-51070000D02*
X98930000Y-53730000D01*
X98930000Y-53730000D02*
X91250000Y-53730000D01*
X98930000Y-51070000D02*
X91250000Y-51070000D01*
X91250000Y-51070000D02*
X91250000Y-53730000D01*
X57490000Y-40640580D02*
X57490000Y-40359420D01*
X58510000Y-40640580D02*
X58510000Y-40359420D01*
X70000000Y-100240000D02*
X66550000Y-100240000D01*
X70000000Y-100240000D02*
X71950000Y-100240000D01*
X70000000Y-105360000D02*
X68050000Y-105360000D01*
X70000000Y-105360000D02*
X71950000Y-105360000D01*
X108400000Y-100440000D02*
X104950000Y-100440000D01*
X108400000Y-100440000D02*
X110350000Y-100440000D01*
X108400000Y-105560000D02*
X106450000Y-105560000D01*
X108400000Y-105560000D02*
X110350000Y-105560000D01*
X92450000Y-44870000D02*
X92450000Y-47530000D01*
X100130000Y-44870000D02*
X92450000Y-44870000D01*
X100130000Y-47530000D02*
X92450000Y-47530000D01*
X100130000Y-44870000D02*
X100130000Y-47530000D01*
X101400000Y-44870000D02*
X102730000Y-44870000D01*
X102730000Y-44870000D02*
X102730000Y-46200000D01*
X61880000Y-38555000D02*
X61500000Y-38555000D01*
X61880000Y-32135000D02*
X61880000Y-38555000D01*
X80120000Y-32135000D02*
X80120000Y-38555000D01*
X61880000Y-32135000D02*
X80120000Y-32135000D01*
X80120000Y-57880000D02*
X79120000Y-57880000D01*
X80120000Y-57100000D02*
X80120000Y-57880000D01*
X61880000Y-57880000D02*
X62880000Y-57880000D01*
X61880000Y-57100000D02*
X61880000Y-57880000D01*
X76790000Y-71012779D02*
X76790000Y-70687221D01*
X77810000Y-71012779D02*
X77810000Y-70687221D01*
X68720000Y-62720000D02*
X68750000Y-62720000D01*
X75180000Y-62720000D02*
X75150000Y-62720000D01*
X75180000Y-69180000D02*
X75150000Y-69180000D01*
X68750000Y-69180000D02*
X68720000Y-69180000D01*
X70650000Y-62720000D02*
X73250000Y-62720000D01*
X68720000Y-69180000D02*
X68720000Y-62720000D01*
X70650000Y-69180000D02*
X73250000Y-69180000D01*
X75180000Y-69180000D02*
X75180000Y-62720000D01*
X76840000Y-67162779D02*
X76840000Y-66837221D01*
X77860000Y-67162779D02*
X77860000Y-66837221D01*
X59600000Y-88050000D02*
X60600000Y-88050000D01*
X59850000Y-73300000D02*
X59850000Y-73550000D01*
X59600000Y-72800000D02*
X59100000Y-72800000D01*
X59350000Y-72800000D02*
X60600000Y-72800000D01*
X59850000Y-72050000D02*
X59850000Y-73300000D01*
X60100000Y-82800000D02*
X52100000Y-82800000D01*
X52100000Y-84800000D02*
X52100000Y-76800000D01*
X60100000Y-76800000D02*
X60100000Y-84800000D01*
X60100000Y-84800000D02*
G75*
G02*
X52100000Y-84800000I-4000000J0D01*
G01*
X52100000Y-76800000D02*
G75*
G02*
X60100000Y-76800000I4000000J0D01*
G01*
X116700000Y-35190000D02*
X113700000Y-35190000D01*
X115200000Y-38410000D02*
X113700000Y-38410000D01*
X55991422Y-70210000D02*
X56508578Y-70210000D01*
X55991422Y-68790000D02*
X56508578Y-68790000D01*
X48990000Y-50100000D02*
X49990000Y-50100000D01*
X49490000Y-50600000D02*
X49490000Y-49600000D01*
X55295563Y-49360000D02*
X56360000Y-48295563D01*
X48704437Y-49360000D02*
X47640000Y-48295563D01*
X48704437Y-49360000D02*
X50490000Y-49360000D01*
X55295563Y-49360000D02*
X53510000Y-49360000D01*
X56360000Y-48295563D02*
X56360000Y-40640000D01*
X47640000Y-48295563D02*
X47640000Y-40640000D01*
X47640000Y-40640000D02*
X50490000Y-40640000D01*
X56360000Y-40640000D02*
X53510000Y-40640000D01*
X87040000Y-60220000D02*
X87040000Y-67120000D01*
X84500000Y-60220000D02*
X87040000Y-60220000D01*
D10*
G36*
X83460000Y-40365000D02*
G01*
X83460000Y-41635000D01*
X84095000Y-41000000D01*
X83460000Y-40365000D01*
G37*
X83460000Y-40365000D02*
X83460000Y-41635000D01*
X84095000Y-41000000D01*
X83460000Y-40365000D01*
D13*
X108240000Y-32660000D02*
X86630000Y-32660000D01*
X110360000Y-67120000D02*
X110360000Y-34790000D01*
X84500000Y-60220000D02*
X84500000Y-34790000D01*
X87040000Y-67120000D02*
X110360000Y-67120000D01*
X108230000Y-32660000D02*
G75*
G02*
X110360000Y-34790000I0J-2130000D01*
G01*
X84500000Y-34790000D02*
G75*
G02*
X86630000Y-32660000I2130000J0D01*
G01*
X108280000Y-70320000D02*
X108280000Y-70350000D01*
X108280000Y-76780000D02*
X108280000Y-76750000D01*
X101820000Y-76780000D02*
X101820000Y-76750000D01*
X101820000Y-70350000D02*
X101820000Y-70320000D01*
X108280000Y-72250000D02*
X108280000Y-74850000D01*
X101820000Y-70320000D02*
X108280000Y-70320000D01*
X101820000Y-72250000D02*
X101820000Y-74850000D01*
X101820000Y-76780000D02*
X108280000Y-76780000D01*
X68720000Y-75320000D02*
X68750000Y-75320000D01*
X75180000Y-75320000D02*
X75150000Y-75320000D01*
X75180000Y-81780000D02*
X75150000Y-81780000D01*
X68750000Y-81780000D02*
X68720000Y-81780000D01*
X70650000Y-75320000D02*
X73250000Y-75320000D01*
X68720000Y-81780000D02*
X68720000Y-75320000D01*
X70650000Y-81780000D02*
X73250000Y-81780000D01*
X75180000Y-81780000D02*
X75180000Y-75320000D01*
X52587221Y-62510000D02*
X52912779Y-62510000D01*
X52587221Y-61490000D02*
X52912779Y-61490000D01*
X80490000Y-81337221D02*
X80490000Y-81662779D01*
X81510000Y-81337221D02*
X81510000Y-81662779D01*
X104710000Y-41562779D02*
X104710000Y-41237221D01*
X103690000Y-41562779D02*
X103690000Y-41237221D01*
X103090000Y-49237221D02*
X103090000Y-49562779D01*
X104110000Y-49237221D02*
X104110000Y-49562779D01*
X57740000Y-53337221D02*
X57740000Y-53662779D01*
X58760000Y-53337221D02*
X58760000Y-53662779D01*
X54490000Y-53337221D02*
X54490000Y-53662779D01*
X55510000Y-53337221D02*
X55510000Y-53662779D01*
X58030000Y-62840000D02*
X58030000Y-64300000D01*
X54870000Y-62840000D02*
X54870000Y-65000000D01*
X54870000Y-62840000D02*
X55800000Y-62840000D01*
X58030000Y-62840000D02*
X57100000Y-62840000D01*
X61760000Y-71580000D02*
X60300000Y-71580000D01*
X61760000Y-68420000D02*
X59600000Y-68420000D01*
X61760000Y-68420000D02*
X61760000Y-69350000D01*
X61760000Y-71580000D02*
X61760000Y-70650000D01*
X98440000Y-81320000D02*
X98440000Y-84320000D01*
X100200000Y-86310000D02*
X100200000Y-87500000D01*
X100070000Y-86310000D02*
X100200000Y-86310000D01*
X102640000Y-85680000D02*
X102090000Y-85680000D01*
X105580000Y-85680000D02*
X104530000Y-85680000D01*
X107560000Y-81320000D02*
X107560000Y-84350000D01*
X105800000Y-81320000D02*
X107560000Y-81320000D01*
X103360000Y-81320000D02*
X103910000Y-81320000D01*
X98440000Y-81320000D02*
X101470000Y-81320000D01*
X98460172Y-84334991D02*
G75*
G03*
X100070000Y-86310000I709828J-1065009D01*
G01*
X105580963Y-85674424D02*
G75*
G03*
X107560000Y-84350000I1249037J274424D01*
G01*
X84440000Y-81320000D02*
X84440000Y-84320000D01*
X86200000Y-86310000D02*
X86200000Y-87500000D01*
X86070000Y-86310000D02*
X86200000Y-86310000D01*
X88640000Y-85680000D02*
X88090000Y-85680000D01*
X91580000Y-85680000D02*
X90530000Y-85680000D01*
X93560000Y-81320000D02*
X93560000Y-84350000D01*
X91800000Y-81320000D02*
X93560000Y-81320000D01*
X89360000Y-81320000D02*
X89910000Y-81320000D01*
X84440000Y-81320000D02*
X87470000Y-81320000D01*
X84460172Y-84334991D02*
G75*
G03*
X86070000Y-86310000I709828J-1065009D01*
G01*
X91580963Y-85674424D02*
G75*
G03*
X93560000Y-84350000I1249037J274424D01*
G01*
X115670000Y-41270000D02*
X117000000Y-41270000D01*
X115670000Y-42600000D02*
X115670000Y-41270000D01*
X115670000Y-43870000D02*
X118330000Y-43870000D01*
X118330000Y-43870000D02*
X118330000Y-56630000D01*
X115670000Y-43870000D02*
X115670000Y-56630000D01*
X115670000Y-56630000D02*
X118330000Y-56630000D01*
X59210000Y-59185000D02*
X59210000Y-56500000D01*
X57290000Y-59185000D02*
X59210000Y-59185000D01*
X57290000Y-56500000D02*
X57290000Y-59185000D01*
X55960000Y-59185000D02*
X55960000Y-56500000D01*
X54040000Y-59185000D02*
X55960000Y-59185000D01*
X54040000Y-56500000D02*
X54040000Y-59185000D01*
X108690000Y-36899721D02*
X108690000Y-37225279D01*
X109710000Y-36899721D02*
X109710000Y-37225279D01*
X60510000Y-40662779D02*
X60510000Y-40337221D01*
X59490000Y-40662779D02*
X59490000Y-40337221D01*
D11*
X92100000Y-50321428D02*
X92057142Y-50364285D01*
X91928571Y-50407142D01*
X91842857Y-50407142D01*
X91714285Y-50364285D01*
X91628571Y-50278571D01*
X91585714Y-50192857D01*
X91542857Y-50021428D01*
X91542857Y-49892857D01*
X91585714Y-49721428D01*
X91628571Y-49635714D01*
X91714285Y-49550000D01*
X91842857Y-49507142D01*
X91928571Y-49507142D01*
X92057142Y-49550000D01*
X92100000Y-49592857D01*
X92657142Y-49507142D02*
X92828571Y-49507142D01*
X92914285Y-49550000D01*
X93000000Y-49635714D01*
X93042857Y-49807142D01*
X93042857Y-50107142D01*
X93000000Y-50278571D01*
X92914285Y-50364285D01*
X92828571Y-50407142D01*
X92657142Y-50407142D01*
X92571428Y-50364285D01*
X92485714Y-50278571D01*
X92442857Y-50107142D01*
X92442857Y-49807142D01*
X92485714Y-49635714D01*
X92571428Y-49550000D01*
X92657142Y-49507142D01*
X93385714Y-49592857D02*
X93428571Y-49550000D01*
X93514285Y-49507142D01*
X93728571Y-49507142D01*
X93814285Y-49550000D01*
X93857142Y-49592857D01*
X93900000Y-49678571D01*
X93900000Y-49764285D01*
X93857142Y-49892857D01*
X93342857Y-50407142D01*
X93900000Y-50407142D01*
X94285714Y-50064285D02*
X94971428Y-50064285D01*
X95700000Y-49935714D02*
X95828571Y-49978571D01*
X95871428Y-50021428D01*
X95914285Y-50107142D01*
X95914285Y-50235714D01*
X95871428Y-50321428D01*
X95828571Y-50364285D01*
X95742857Y-50407142D01*
X95400000Y-50407142D01*
X95400000Y-49507142D01*
X95700000Y-49507142D01*
X95785714Y-49550000D01*
X95828571Y-49592857D01*
X95871428Y-49678571D01*
X95871428Y-49764285D01*
X95828571Y-49850000D01*
X95785714Y-49892857D01*
X95700000Y-49935714D01*
X95400000Y-49935714D01*
X96685714Y-50407142D02*
X96685714Y-49935714D01*
X96642857Y-49850000D01*
X96557142Y-49807142D01*
X96385714Y-49807142D01*
X96300000Y-49850000D01*
X96685714Y-50364285D02*
X96600000Y-50407142D01*
X96385714Y-50407142D01*
X96300000Y-50364285D01*
X96257142Y-50278571D01*
X96257142Y-50192857D01*
X96300000Y-50107142D01*
X96385714Y-50064285D01*
X96600000Y-50064285D01*
X96685714Y-50021428D01*
X97114285Y-50407142D02*
X97114285Y-49807142D01*
X97114285Y-49978571D02*
X97157142Y-49892857D01*
X97200000Y-49850000D01*
X97285714Y-49807142D01*
X97371428Y-49807142D01*
X98014285Y-50364285D02*
X97928571Y-50407142D01*
X97757142Y-50407142D01*
X97671428Y-50364285D01*
X97628571Y-50278571D01*
X97628571Y-49935714D01*
X97671428Y-49850000D01*
X97757142Y-49807142D01*
X97928571Y-49807142D01*
X98014285Y-49850000D01*
X98057142Y-49935714D01*
X98057142Y-50021428D01*
X97628571Y-50107142D01*
D10*
X58357142Y-44142857D02*
X58404761Y-44190476D01*
X58452380Y-44333333D01*
X58452380Y-44428571D01*
X58404761Y-44571428D01*
X58309523Y-44666666D01*
X58214285Y-44714285D01*
X58023809Y-44761904D01*
X57880952Y-44761904D01*
X57690476Y-44714285D01*
X57595238Y-44666666D01*
X57500000Y-44571428D01*
X57452380Y-44428571D01*
X57452380Y-44333333D01*
X57500000Y-44190476D01*
X57547619Y-44142857D01*
X58452380Y-43190476D02*
X58452380Y-43761904D01*
X58452380Y-43476190D02*
X57452380Y-43476190D01*
X57595238Y-43571428D01*
X57690476Y-43666666D01*
X57738095Y-43761904D01*
X57452380Y-42571428D02*
X57452380Y-42476190D01*
X57500000Y-42380952D01*
X57547619Y-42333333D01*
X57642857Y-42285714D01*
X57833333Y-42238095D01*
X58071428Y-42238095D01*
X58261904Y-42285714D01*
X58357142Y-42333333D01*
X58404761Y-42380952D01*
X58452380Y-42476190D01*
X58452380Y-42571428D01*
X58404761Y-42666666D01*
X58357142Y-42714285D01*
X58261904Y-42761904D01*
X58071428Y-42809523D01*
X57833333Y-42809523D01*
X57642857Y-42761904D01*
X57547619Y-42714285D01*
X57500000Y-42666666D01*
X57452380Y-42571428D01*
X69238095Y-98852380D02*
X69238095Y-99661904D01*
X69285714Y-99757142D01*
X69333333Y-99804761D01*
X69428571Y-99852380D01*
X69619047Y-99852380D01*
X69714285Y-99804761D01*
X69761904Y-99757142D01*
X69809523Y-99661904D01*
X69809523Y-98852380D01*
X70714285Y-99185714D02*
X70714285Y-99852380D01*
X70476190Y-98804761D02*
X70238095Y-99519047D01*
X70857142Y-99519047D01*
X107638095Y-99052380D02*
X107638095Y-99861904D01*
X107685714Y-99957142D01*
X107733333Y-100004761D01*
X107828571Y-100052380D01*
X108019047Y-100052380D01*
X108114285Y-100004761D01*
X108161904Y-99957142D01*
X108209523Y-99861904D01*
X108209523Y-99052380D01*
X108590476Y-99052380D02*
X109209523Y-99052380D01*
X108876190Y-99433333D01*
X109019047Y-99433333D01*
X109114285Y-99480952D01*
X109161904Y-99528571D01*
X109209523Y-99623809D01*
X109209523Y-99861904D01*
X109161904Y-99957142D01*
X109114285Y-100004761D01*
X109019047Y-100052380D01*
X108733333Y-100052380D01*
X108638095Y-100004761D01*
X108590476Y-99957142D01*
D11*
X92664285Y-48921428D02*
X92621428Y-48964285D01*
X92492857Y-49007142D01*
X92407142Y-49007142D01*
X92278571Y-48964285D01*
X92192857Y-48878571D01*
X92150000Y-48792857D01*
X92107142Y-48621428D01*
X92107142Y-48492857D01*
X92150000Y-48321428D01*
X92192857Y-48235714D01*
X92278571Y-48150000D01*
X92407142Y-48107142D01*
X92492857Y-48107142D01*
X92621428Y-48150000D01*
X92664285Y-48192857D01*
X93221428Y-48107142D02*
X93392857Y-48107142D01*
X93478571Y-48150000D01*
X93564285Y-48235714D01*
X93607142Y-48407142D01*
X93607142Y-48707142D01*
X93564285Y-48878571D01*
X93478571Y-48964285D01*
X93392857Y-49007142D01*
X93221428Y-49007142D01*
X93135714Y-48964285D01*
X93050000Y-48878571D01*
X93007142Y-48707142D01*
X93007142Y-48407142D01*
X93050000Y-48235714D01*
X93135714Y-48150000D01*
X93221428Y-48107142D01*
X93950000Y-48192857D02*
X93992857Y-48150000D01*
X94078571Y-48107142D01*
X94292857Y-48107142D01*
X94378571Y-48150000D01*
X94421428Y-48192857D01*
X94464285Y-48278571D01*
X94464285Y-48364285D01*
X94421428Y-48492857D01*
X93907142Y-49007142D01*
X94464285Y-49007142D01*
X94850000Y-48664285D02*
X95535714Y-48664285D01*
X96264285Y-48535714D02*
X96392857Y-48578571D01*
X96435714Y-48621428D01*
X96478571Y-48707142D01*
X96478571Y-48835714D01*
X96435714Y-48921428D01*
X96392857Y-48964285D01*
X96307142Y-49007142D01*
X95964285Y-49007142D01*
X95964285Y-48107142D01*
X96264285Y-48107142D01*
X96350000Y-48150000D01*
X96392857Y-48192857D01*
X96435714Y-48278571D01*
X96435714Y-48364285D01*
X96392857Y-48450000D01*
X96350000Y-48492857D01*
X96264285Y-48535714D01*
X95964285Y-48535714D01*
X96864285Y-49007142D02*
X96864285Y-48407142D01*
X96864285Y-48578571D02*
X96907142Y-48492857D01*
X96950000Y-48450000D01*
X97035714Y-48407142D01*
X97121428Y-48407142D01*
X97764285Y-48964285D02*
X97678571Y-49007142D01*
X97507142Y-49007142D01*
X97421428Y-48964285D01*
X97378571Y-48878571D01*
X97378571Y-48535714D01*
X97421428Y-48450000D01*
X97507142Y-48407142D01*
X97678571Y-48407142D01*
X97764285Y-48450000D01*
X97807142Y-48535714D01*
X97807142Y-48621428D01*
X97378571Y-48707142D01*
X98578571Y-49007142D02*
X98578571Y-48535714D01*
X98535714Y-48450000D01*
X98450000Y-48407142D01*
X98278571Y-48407142D01*
X98192857Y-48450000D01*
X98578571Y-48964285D02*
X98492857Y-49007142D01*
X98278571Y-49007142D01*
X98192857Y-48964285D01*
X98150000Y-48878571D01*
X98150000Y-48792857D01*
X98192857Y-48707142D01*
X98278571Y-48664285D01*
X98492857Y-48664285D01*
X98578571Y-48621428D01*
X99007142Y-49007142D02*
X99007142Y-48107142D01*
X99092857Y-48664285D02*
X99350000Y-49007142D01*
X99350000Y-48407142D02*
X99007142Y-48750000D01*
X99864285Y-49007142D02*
X99778571Y-48964285D01*
X99735714Y-48921428D01*
X99692857Y-48835714D01*
X99692857Y-48578571D01*
X99735714Y-48492857D01*
X99778571Y-48450000D01*
X99864285Y-48407142D01*
X99992857Y-48407142D01*
X100078571Y-48450000D01*
X100121428Y-48492857D01*
X100164285Y-48578571D01*
X100164285Y-48835714D01*
X100121428Y-48921428D01*
X100078571Y-48964285D01*
X99992857Y-49007142D01*
X99864285Y-49007142D01*
X100935714Y-48407142D02*
X100935714Y-49007142D01*
X100550000Y-48407142D02*
X100550000Y-48878571D01*
X100592857Y-48964285D01*
X100678571Y-49007142D01*
X100807142Y-49007142D01*
X100892857Y-48964285D01*
X100935714Y-48921428D01*
X101235714Y-48407142D02*
X101578571Y-48407142D01*
X101364285Y-48107142D02*
X101364285Y-48878571D01*
X101407142Y-48964285D01*
X101492857Y-49007142D01*
X101578571Y-49007142D01*
D10*
X59842380Y-57191904D02*
X60651904Y-57191904D01*
X60747142Y-57144285D01*
X60794761Y-57096666D01*
X60842380Y-57001428D01*
X60842380Y-56810952D01*
X60794761Y-56715714D01*
X60747142Y-56668095D01*
X60651904Y-56620476D01*
X59842380Y-56620476D01*
X60842380Y-55620476D02*
X60842380Y-56191904D01*
X60842380Y-55906190D02*
X59842380Y-55906190D01*
X59985238Y-56001428D01*
X60080476Y-56096666D01*
X60128095Y-56191904D01*
X77752380Y-73516666D02*
X77276190Y-73850000D01*
X77752380Y-74088095D02*
X76752380Y-74088095D01*
X76752380Y-73707142D01*
X76800000Y-73611904D01*
X76847619Y-73564285D01*
X76942857Y-73516666D01*
X77085714Y-73516666D01*
X77180952Y-73564285D01*
X77228571Y-73611904D01*
X77276190Y-73707142D01*
X77276190Y-74088095D01*
X76847619Y-73135714D02*
X76800000Y-73088095D01*
X76752380Y-72992857D01*
X76752380Y-72754761D01*
X76800000Y-72659523D01*
X76847619Y-72611904D01*
X76942857Y-72564285D01*
X77038095Y-72564285D01*
X77180952Y-72611904D01*
X77752380Y-73183333D01*
X77752380Y-72564285D01*
X68304761Y-64833333D02*
X68352380Y-64690476D01*
X68352380Y-64452380D01*
X68304761Y-64357142D01*
X68257142Y-64309523D01*
X68161904Y-64261904D01*
X68066666Y-64261904D01*
X67971428Y-64309523D01*
X67923809Y-64357142D01*
X67876190Y-64452380D01*
X67828571Y-64642857D01*
X67780952Y-64738095D01*
X67733333Y-64785714D01*
X67638095Y-64833333D01*
X67542857Y-64833333D01*
X67447619Y-64785714D01*
X67400000Y-64738095D01*
X67352380Y-64642857D01*
X67352380Y-64404761D01*
X67400000Y-64261904D01*
X67352380Y-63928571D02*
X68352380Y-63690476D01*
X67638095Y-63500000D01*
X68352380Y-63309523D01*
X67352380Y-63071428D01*
X68352380Y-62166666D02*
X68352380Y-62738095D01*
X68352380Y-62452380D02*
X67352380Y-62452380D01*
X67495238Y-62547619D01*
X67590476Y-62642857D01*
X67638095Y-62738095D01*
X79257142Y-67016666D02*
X79304761Y-67064285D01*
X79352380Y-67207142D01*
X79352380Y-67302380D01*
X79304761Y-67445238D01*
X79209523Y-67540476D01*
X79114285Y-67588095D01*
X78923809Y-67635714D01*
X78780952Y-67635714D01*
X78590476Y-67588095D01*
X78495238Y-67540476D01*
X78400000Y-67445238D01*
X78352380Y-67302380D01*
X78352380Y-67207142D01*
X78400000Y-67064285D01*
X78447619Y-67016666D01*
X79352380Y-66064285D02*
X79352380Y-66635714D01*
X79352380Y-66350000D02*
X78352380Y-66350000D01*
X78495238Y-66445238D01*
X78590476Y-66540476D01*
X78638095Y-66635714D01*
X57933333Y-72407142D02*
X57885714Y-72454761D01*
X57742857Y-72502380D01*
X57647619Y-72502380D01*
X57504761Y-72454761D01*
X57409523Y-72359523D01*
X57361904Y-72264285D01*
X57314285Y-72073809D01*
X57314285Y-71930952D01*
X57361904Y-71740476D01*
X57409523Y-71645238D01*
X57504761Y-71550000D01*
X57647619Y-71502380D01*
X57742857Y-71502380D01*
X57885714Y-71550000D01*
X57933333Y-71597619D01*
X58314285Y-71597619D02*
X58361904Y-71550000D01*
X58457142Y-71502380D01*
X58695238Y-71502380D01*
X58790476Y-71550000D01*
X58838095Y-71597619D01*
X58885714Y-71692857D01*
X58885714Y-71788095D01*
X58838095Y-71930952D01*
X58266666Y-72502380D01*
X58885714Y-72502380D01*
X116938095Y-33852380D02*
X116938095Y-34661904D01*
X116985714Y-34757142D01*
X117033333Y-34804761D01*
X117128571Y-34852380D01*
X117319047Y-34852380D01*
X117414285Y-34804761D01*
X117461904Y-34757142D01*
X117509523Y-34661904D01*
X117509523Y-33852380D01*
X117938095Y-33947619D02*
X117985714Y-33900000D01*
X118080952Y-33852380D01*
X118319047Y-33852380D01*
X118414285Y-33900000D01*
X118461904Y-33947619D01*
X118509523Y-34042857D01*
X118509523Y-34138095D01*
X118461904Y-34280952D01*
X117890476Y-34852380D01*
X118509523Y-34852380D01*
X56083333Y-68522380D02*
X55750000Y-68046190D01*
X55511904Y-68522380D02*
X55511904Y-67522380D01*
X55892857Y-67522380D01*
X55988095Y-67570000D01*
X56035714Y-67617619D01*
X56083333Y-67712857D01*
X56083333Y-67855714D01*
X56035714Y-67950952D01*
X55988095Y-67998571D01*
X55892857Y-68046190D01*
X55511904Y-68046190D01*
X57035714Y-68522380D02*
X56464285Y-68522380D01*
X56750000Y-68522380D02*
X56750000Y-67522380D01*
X56654761Y-67665238D01*
X56559523Y-67760476D01*
X56464285Y-67808095D01*
X48833333Y-40107142D02*
X48785714Y-40154761D01*
X48642857Y-40202380D01*
X48547619Y-40202380D01*
X48404761Y-40154761D01*
X48309523Y-40059523D01*
X48261904Y-39964285D01*
X48214285Y-39773809D01*
X48214285Y-39630952D01*
X48261904Y-39440476D01*
X48309523Y-39345238D01*
X48404761Y-39250000D01*
X48547619Y-39202380D01*
X48642857Y-39202380D01*
X48785714Y-39250000D01*
X48833333Y-39297619D01*
X49690476Y-39535714D02*
X49690476Y-40202380D01*
X49452380Y-39154761D02*
X49214285Y-39869047D01*
X49833333Y-39869047D01*
X107238095Y-67452380D02*
X107238095Y-68261904D01*
X107285714Y-68357142D01*
X107333333Y-68404761D01*
X107428571Y-68452380D01*
X107619047Y-68452380D01*
X107714285Y-68404761D01*
X107761904Y-68357142D01*
X107809523Y-68261904D01*
X107809523Y-67452380D01*
X108761904Y-67452380D02*
X108285714Y-67452380D01*
X108238095Y-67928571D01*
X108285714Y-67880952D01*
X108380952Y-67833333D01*
X108619047Y-67833333D01*
X108714285Y-67880952D01*
X108761904Y-67928571D01*
X108809523Y-68023809D01*
X108809523Y-68261904D01*
X108761904Y-68357142D01*
X108714285Y-68404761D01*
X108619047Y-68452380D01*
X108380952Y-68452380D01*
X108285714Y-68404761D01*
X108238095Y-68357142D01*
X103716666Y-69904761D02*
X103859523Y-69952380D01*
X104097619Y-69952380D01*
X104192857Y-69904761D01*
X104240476Y-69857142D01*
X104288095Y-69761904D01*
X104288095Y-69666666D01*
X104240476Y-69571428D01*
X104192857Y-69523809D01*
X104097619Y-69476190D01*
X103907142Y-69428571D01*
X103811904Y-69380952D01*
X103764285Y-69333333D01*
X103716666Y-69238095D01*
X103716666Y-69142857D01*
X103764285Y-69047619D01*
X103811904Y-69000000D01*
X103907142Y-68952380D01*
X104145238Y-68952380D01*
X104288095Y-69000000D01*
X104621428Y-68952380D02*
X104859523Y-69952380D01*
X105050000Y-69238095D01*
X105240476Y-69952380D01*
X105478571Y-68952380D01*
X105764285Y-68952380D02*
X106383333Y-68952380D01*
X106050000Y-69333333D01*
X106192857Y-69333333D01*
X106288095Y-69380952D01*
X106335714Y-69428571D01*
X106383333Y-69523809D01*
X106383333Y-69761904D01*
X106335714Y-69857142D01*
X106288095Y-69904761D01*
X106192857Y-69952380D01*
X105907142Y-69952380D01*
X105811904Y-69904761D01*
X105764285Y-69857142D01*
X68304761Y-79883333D02*
X68352380Y-79740476D01*
X68352380Y-79502380D01*
X68304761Y-79407142D01*
X68257142Y-79359523D01*
X68161904Y-79311904D01*
X68066666Y-79311904D01*
X67971428Y-79359523D01*
X67923809Y-79407142D01*
X67876190Y-79502380D01*
X67828571Y-79692857D01*
X67780952Y-79788095D01*
X67733333Y-79835714D01*
X67638095Y-79883333D01*
X67542857Y-79883333D01*
X67447619Y-79835714D01*
X67400000Y-79788095D01*
X67352380Y-79692857D01*
X67352380Y-79454761D01*
X67400000Y-79311904D01*
X67352380Y-78978571D02*
X68352380Y-78740476D01*
X67638095Y-78550000D01*
X68352380Y-78359523D01*
X67352380Y-78121428D01*
X67447619Y-77788095D02*
X67400000Y-77740476D01*
X67352380Y-77645238D01*
X67352380Y-77407142D01*
X67400000Y-77311904D01*
X67447619Y-77264285D01*
X67542857Y-77216666D01*
X67638095Y-77216666D01*
X67780952Y-77264285D01*
X68352380Y-77835714D01*
X68352380Y-77216666D01*
X52452380Y-60142857D02*
X51976190Y-60476190D01*
X52452380Y-60714285D02*
X51452380Y-60714285D01*
X51452380Y-60333333D01*
X51500000Y-60238095D01*
X51547619Y-60190476D01*
X51642857Y-60142857D01*
X51785714Y-60142857D01*
X51880952Y-60190476D01*
X51928571Y-60238095D01*
X51976190Y-60333333D01*
X51976190Y-60714285D01*
X52452380Y-59190476D02*
X52452380Y-59761904D01*
X52452380Y-59476190D02*
X51452380Y-59476190D01*
X51595238Y-59571428D01*
X51690476Y-59666666D01*
X51738095Y-59761904D01*
X51452380Y-58571428D02*
X51452380Y-58476190D01*
X51500000Y-58380952D01*
X51547619Y-58333333D01*
X51642857Y-58285714D01*
X51833333Y-58238095D01*
X52071428Y-58238095D01*
X52261904Y-58285714D01*
X52357142Y-58333333D01*
X52404761Y-58380952D01*
X52452380Y-58476190D01*
X52452380Y-58571428D01*
X52404761Y-58666666D01*
X52357142Y-58714285D01*
X52261904Y-58761904D01*
X52071428Y-58809523D01*
X51833333Y-58809523D01*
X51642857Y-58761904D01*
X51547619Y-58714285D01*
X51500000Y-58666666D01*
X51452380Y-58571428D01*
X81702380Y-79166666D02*
X81226190Y-79500000D01*
X81702380Y-79738095D02*
X80702380Y-79738095D01*
X80702380Y-79357142D01*
X80750000Y-79261904D01*
X80797619Y-79214285D01*
X80892857Y-79166666D01*
X81035714Y-79166666D01*
X81130952Y-79214285D01*
X81178571Y-79261904D01*
X81226190Y-79357142D01*
X81226190Y-79738095D01*
X81130952Y-78595238D02*
X81083333Y-78690476D01*
X81035714Y-78738095D01*
X80940476Y-78785714D01*
X80892857Y-78785714D01*
X80797619Y-78738095D01*
X80750000Y-78690476D01*
X80702380Y-78595238D01*
X80702380Y-78404761D01*
X80750000Y-78309523D01*
X80797619Y-78261904D01*
X80892857Y-78214285D01*
X80940476Y-78214285D01*
X81035714Y-78261904D01*
X81083333Y-78309523D01*
X81130952Y-78404761D01*
X81130952Y-78595238D01*
X81178571Y-78690476D01*
X81226190Y-78738095D01*
X81321428Y-78785714D01*
X81511904Y-78785714D01*
X81607142Y-78738095D01*
X81654761Y-78690476D01*
X81702380Y-78595238D01*
X81702380Y-78404761D01*
X81654761Y-78309523D01*
X81607142Y-78261904D01*
X81511904Y-78214285D01*
X81321428Y-78214285D01*
X81226190Y-78261904D01*
X81178571Y-78309523D01*
X81130952Y-78404761D01*
X103222380Y-41566666D02*
X102746190Y-41900000D01*
X103222380Y-42138095D02*
X102222380Y-42138095D01*
X102222380Y-41757142D01*
X102270000Y-41661904D01*
X102317619Y-41614285D01*
X102412857Y-41566666D01*
X102555714Y-41566666D01*
X102650952Y-41614285D01*
X102698571Y-41661904D01*
X102746190Y-41757142D01*
X102746190Y-42138095D01*
X102222380Y-41233333D02*
X102222380Y-40566666D01*
X103222380Y-40995238D01*
X104252380Y-52166666D02*
X103776190Y-52500000D01*
X104252380Y-52738095D02*
X103252380Y-52738095D01*
X103252380Y-52357142D01*
X103300000Y-52261904D01*
X103347619Y-52214285D01*
X103442857Y-52166666D01*
X103585714Y-52166666D01*
X103680952Y-52214285D01*
X103728571Y-52261904D01*
X103776190Y-52357142D01*
X103776190Y-52738095D01*
X103252380Y-51309523D02*
X103252380Y-51500000D01*
X103300000Y-51595238D01*
X103347619Y-51642857D01*
X103490476Y-51738095D01*
X103680952Y-51785714D01*
X104061904Y-51785714D01*
X104157142Y-51738095D01*
X104204761Y-51690476D01*
X104252380Y-51595238D01*
X104252380Y-51404761D01*
X104204761Y-51309523D01*
X104157142Y-51261904D01*
X104061904Y-51214285D01*
X103823809Y-51214285D01*
X103728571Y-51261904D01*
X103680952Y-51309523D01*
X103633333Y-51404761D01*
X103633333Y-51595238D01*
X103680952Y-51690476D01*
X103728571Y-51738095D01*
X103823809Y-51785714D01*
X60132380Y-53666666D02*
X59656190Y-54000000D01*
X60132380Y-54238095D02*
X59132380Y-54238095D01*
X59132380Y-53857142D01*
X59180000Y-53761904D01*
X59227619Y-53714285D01*
X59322857Y-53666666D01*
X59465714Y-53666666D01*
X59560952Y-53714285D01*
X59608571Y-53761904D01*
X59656190Y-53857142D01*
X59656190Y-54238095D01*
X59465714Y-52809523D02*
X60132380Y-52809523D01*
X59084761Y-53047619D02*
X59799047Y-53285714D01*
X59799047Y-52666666D01*
X56882380Y-53666666D02*
X56406190Y-54000000D01*
X56882380Y-54238095D02*
X55882380Y-54238095D01*
X55882380Y-53857142D01*
X55930000Y-53761904D01*
X55977619Y-53714285D01*
X56072857Y-53666666D01*
X56215714Y-53666666D01*
X56310952Y-53714285D01*
X56358571Y-53761904D01*
X56406190Y-53857142D01*
X56406190Y-54238095D01*
X55882380Y-53333333D02*
X55882380Y-52714285D01*
X56263333Y-53047619D01*
X56263333Y-52904761D01*
X56310952Y-52809523D01*
X56358571Y-52761904D01*
X56453809Y-52714285D01*
X56691904Y-52714285D01*
X56787142Y-52761904D01*
X56834761Y-52809523D01*
X56882380Y-52904761D01*
X56882380Y-53190476D01*
X56834761Y-53285714D01*
X56787142Y-53333333D01*
X54547619Y-66095238D02*
X54500000Y-66190476D01*
X54404761Y-66285714D01*
X54261904Y-66428571D01*
X54214285Y-66523809D01*
X54214285Y-66619047D01*
X54452380Y-66571428D02*
X54404761Y-66666666D01*
X54309523Y-66761904D01*
X54119047Y-66809523D01*
X53785714Y-66809523D01*
X53595238Y-66761904D01*
X53500000Y-66666666D01*
X53452380Y-66571428D01*
X53452380Y-66380952D01*
X53500000Y-66285714D01*
X53595238Y-66190476D01*
X53785714Y-66142857D01*
X54119047Y-66142857D01*
X54309523Y-66190476D01*
X54404761Y-66285714D01*
X54452380Y-66380952D01*
X54452380Y-66571428D01*
X53547619Y-65761904D02*
X53500000Y-65714285D01*
X53452380Y-65619047D01*
X53452380Y-65380952D01*
X53500000Y-65285714D01*
X53547619Y-65238095D01*
X53642857Y-65190476D01*
X53738095Y-65190476D01*
X53880952Y-65238095D01*
X54452380Y-65809523D01*
X54452380Y-65190476D01*
X60904761Y-68047619D02*
X60809523Y-68000000D01*
X60714285Y-67904761D01*
X60571428Y-67761904D01*
X60476190Y-67714285D01*
X60380952Y-67714285D01*
X60428571Y-67952380D02*
X60333333Y-67904761D01*
X60238095Y-67809523D01*
X60190476Y-67619047D01*
X60190476Y-67285714D01*
X60238095Y-67095238D01*
X60333333Y-67000000D01*
X60428571Y-66952380D01*
X60619047Y-66952380D01*
X60714285Y-67000000D01*
X60809523Y-67095238D01*
X60857142Y-67285714D01*
X60857142Y-67619047D01*
X60809523Y-67809523D01*
X60714285Y-67904761D01*
X60619047Y-67952380D01*
X60428571Y-67952380D01*
X61809523Y-67952380D02*
X61238095Y-67952380D01*
X61523809Y-67952380D02*
X61523809Y-66952380D01*
X61428571Y-67095238D01*
X61333333Y-67190476D01*
X61238095Y-67238095D01*
X96292380Y-83833333D02*
X97006666Y-83833333D01*
X97149523Y-83880952D01*
X97244761Y-83976190D01*
X97292380Y-84119047D01*
X97292380Y-84214285D01*
X96292380Y-83452380D02*
X96292380Y-82833333D01*
X96673333Y-83166666D01*
X96673333Y-83023809D01*
X96720952Y-82928571D01*
X96768571Y-82880952D01*
X96863809Y-82833333D01*
X97101904Y-82833333D01*
X97197142Y-82880952D01*
X97244761Y-82928571D01*
X97292380Y-83023809D01*
X97292380Y-83309523D01*
X97244761Y-83404761D01*
X97197142Y-83452380D01*
X82292380Y-83833333D02*
X83006666Y-83833333D01*
X83149523Y-83880952D01*
X83244761Y-83976190D01*
X83292380Y-84119047D01*
X83292380Y-84214285D01*
X82387619Y-83404761D02*
X82340000Y-83357142D01*
X82292380Y-83261904D01*
X82292380Y-83023809D01*
X82340000Y-82928571D01*
X82387619Y-82880952D01*
X82482857Y-82833333D01*
X82578095Y-82833333D01*
X82720952Y-82880952D01*
X83292380Y-83452380D01*
X83292380Y-82833333D01*
X117166666Y-39952380D02*
X117166666Y-40666666D01*
X117119047Y-40809523D01*
X117023809Y-40904761D01*
X116880952Y-40952380D01*
X116785714Y-40952380D01*
X118166666Y-40952380D02*
X117595238Y-40952380D01*
X117880952Y-40952380D02*
X117880952Y-39952380D01*
X117785714Y-40095238D01*
X117690476Y-40190476D01*
X117595238Y-40238095D01*
X58702380Y-60988095D02*
X57702380Y-60988095D01*
X57702380Y-60750000D01*
X57750000Y-60607142D01*
X57845238Y-60511904D01*
X57940476Y-60464285D01*
X58130952Y-60416666D01*
X58273809Y-60416666D01*
X58464285Y-60464285D01*
X58559523Y-60511904D01*
X58654761Y-60607142D01*
X58702380Y-60750000D01*
X58702380Y-60988095D01*
X57797619Y-60035714D02*
X57750000Y-59988095D01*
X57702380Y-59892857D01*
X57702380Y-59654761D01*
X57750000Y-59559523D01*
X57797619Y-59511904D01*
X57892857Y-59464285D01*
X57988095Y-59464285D01*
X58130952Y-59511904D01*
X58702380Y-60083333D01*
X58702380Y-59464285D01*
X55702380Y-61050595D02*
X54702380Y-61050595D01*
X54702380Y-60812500D01*
X54750000Y-60669642D01*
X54845238Y-60574404D01*
X54940476Y-60526785D01*
X55130952Y-60479166D01*
X55273809Y-60479166D01*
X55464285Y-60526785D01*
X55559523Y-60574404D01*
X55654761Y-60669642D01*
X55702380Y-60812500D01*
X55702380Y-61050595D01*
X55702380Y-59526785D02*
X55702380Y-60098214D01*
X55702380Y-59812500D02*
X54702380Y-59812500D01*
X54845238Y-59907738D01*
X54940476Y-60002976D01*
X54988095Y-60098214D01*
X108157142Y-37429166D02*
X108204761Y-37476785D01*
X108252380Y-37619642D01*
X108252380Y-37714880D01*
X108204761Y-37857738D01*
X108109523Y-37952976D01*
X108014285Y-38000595D01*
X107823809Y-38048214D01*
X107680952Y-38048214D01*
X107490476Y-38000595D01*
X107395238Y-37952976D01*
X107300000Y-37857738D01*
X107252380Y-37714880D01*
X107252380Y-37619642D01*
X107300000Y-37476785D01*
X107347619Y-37429166D01*
X107252380Y-36524404D02*
X107252380Y-37000595D01*
X107728571Y-37048214D01*
X107680952Y-37000595D01*
X107633333Y-36905357D01*
X107633333Y-36667261D01*
X107680952Y-36572023D01*
X107728571Y-36524404D01*
X107823809Y-36476785D01*
X108061904Y-36476785D01*
X108157142Y-36524404D01*
X108204761Y-36572023D01*
X108252380Y-36667261D01*
X108252380Y-36905357D01*
X108204761Y-37000595D01*
X108157142Y-37048214D01*
X60357142Y-43166666D02*
X60404761Y-43214285D01*
X60452380Y-43357142D01*
X60452380Y-43452380D01*
X60404761Y-43595238D01*
X60309523Y-43690476D01*
X60214285Y-43738095D01*
X60023809Y-43785714D01*
X59880952Y-43785714D01*
X59690476Y-43738095D01*
X59595238Y-43690476D01*
X59500000Y-43595238D01*
X59452380Y-43452380D01*
X59452380Y-43357142D01*
X59500000Y-43214285D01*
X59547619Y-43166666D01*
X59452380Y-42833333D02*
X59452380Y-42214285D01*
X59833333Y-42547619D01*
X59833333Y-42404761D01*
X59880952Y-42309523D01*
X59928571Y-42261904D01*
X60023809Y-42214285D01*
X60261904Y-42214285D01*
X60357142Y-42261904D01*
X60404761Y-42309523D01*
X60452380Y-42404761D01*
X60452380Y-42690476D01*
X60404761Y-42785714D01*
X60357142Y-42833333D01*
%LPC*%
D14*
X92580000Y-52400000D03*
X95120000Y-52400000D03*
X97660000Y-52400000D03*
D15*
X100200000Y-52400000D03*
G36*
G01*
X58250000Y-40175000D02*
X57750000Y-40175000D01*
G75*
G02*
X57525000Y-39950000I0J225000D01*
G01*
X57525000Y-39500000D01*
G75*
G02*
X57750000Y-39275000I225000J0D01*
G01*
X58250000Y-39275000D01*
G75*
G02*
X58475000Y-39500000I0J-225000D01*
G01*
X58475000Y-39950000D01*
G75*
G02*
X58250000Y-40175000I-225000J0D01*
G01*
G37*
G36*
G01*
X58250000Y-41725000D02*
X57750000Y-41725000D01*
G75*
G02*
X57525000Y-41500000I0J225000D01*
G01*
X57525000Y-41050000D01*
G75*
G02*
X57750000Y-40825000I225000J0D01*
G01*
X58250000Y-40825000D01*
G75*
G02*
X58475000Y-41050000I0J-225000D01*
G01*
X58475000Y-41500000D01*
G75*
G02*
X58250000Y-41725000I-225000J0D01*
G01*
G37*
D16*
X78000000Y-103000000D03*
D17*
X87090000Y-94000000D03*
X88360000Y-94000000D03*
X92170000Y-94000000D03*
X90900000Y-94000000D03*
X89630000Y-94000000D03*
D16*
X116000000Y-103000000D03*
D17*
X112160000Y-94000000D03*
X113430000Y-94000000D03*
X117240000Y-94000000D03*
X115970000Y-94000000D03*
X114700000Y-94000000D03*
D18*
X90100000Y-98970000D03*
X90100000Y-106630000D03*
X52100000Y-98970000D03*
X52100000Y-106630000D03*
G36*
G01*
X71500000Y-101045000D02*
X71500000Y-100745000D01*
G75*
G02*
X71650000Y-100595000I150000J0D01*
G01*
X73300000Y-100595000D01*
G75*
G02*
X73450000Y-100745000I0J-150000D01*
G01*
X73450000Y-101045000D01*
G75*
G02*
X73300000Y-101195000I-150000J0D01*
G01*
X71650000Y-101195000D01*
G75*
G02*
X71500000Y-101045000I0J150000D01*
G01*
G37*
G36*
G01*
X71500000Y-102315000D02*
X71500000Y-102015000D01*
G75*
G02*
X71650000Y-101865000I150000J0D01*
G01*
X73300000Y-101865000D01*
G75*
G02*
X73450000Y-102015000I0J-150000D01*
G01*
X73450000Y-102315000D01*
G75*
G02*
X73300000Y-102465000I-150000J0D01*
G01*
X71650000Y-102465000D01*
G75*
G02*
X71500000Y-102315000I0J150000D01*
G01*
G37*
G36*
G01*
X71500000Y-103585000D02*
X71500000Y-103285000D01*
G75*
G02*
X71650000Y-103135000I150000J0D01*
G01*
X73300000Y-103135000D01*
G75*
G02*
X73450000Y-103285000I0J-150000D01*
G01*
X73450000Y-103585000D01*
G75*
G02*
X73300000Y-103735000I-150000J0D01*
G01*
X71650000Y-103735000D01*
G75*
G02*
X71500000Y-103585000I0J150000D01*
G01*
G37*
G36*
G01*
X71500000Y-104855000D02*
X71500000Y-104555000D01*
G75*
G02*
X71650000Y-104405000I150000J0D01*
G01*
X73300000Y-104405000D01*
G75*
G02*
X73450000Y-104555000I0J-150000D01*
G01*
X73450000Y-104855000D01*
G75*
G02*
X73300000Y-105005000I-150000J0D01*
G01*
X71650000Y-105005000D01*
G75*
G02*
X71500000Y-104855000I0J150000D01*
G01*
G37*
G36*
G01*
X66550000Y-104855000D02*
X66550000Y-104555000D01*
G75*
G02*
X66700000Y-104405000I150000J0D01*
G01*
X68350000Y-104405000D01*
G75*
G02*
X68500000Y-104555000I0J-150000D01*
G01*
X68500000Y-104855000D01*
G75*
G02*
X68350000Y-105005000I-150000J0D01*
G01*
X66700000Y-105005000D01*
G75*
G02*
X66550000Y-104855000I0J150000D01*
G01*
G37*
G36*
G01*
X66550000Y-103585000D02*
X66550000Y-103285000D01*
G75*
G02*
X66700000Y-103135000I150000J0D01*
G01*
X68350000Y-103135000D01*
G75*
G02*
X68500000Y-103285000I0J-150000D01*
G01*
X68500000Y-103585000D01*
G75*
G02*
X68350000Y-103735000I-150000J0D01*
G01*
X66700000Y-103735000D01*
G75*
G02*
X66550000Y-103585000I0J150000D01*
G01*
G37*
G36*
G01*
X66550000Y-102315000D02*
X66550000Y-102015000D01*
G75*
G02*
X66700000Y-101865000I150000J0D01*
G01*
X68350000Y-101865000D01*
G75*
G02*
X68500000Y-102015000I0J-150000D01*
G01*
X68500000Y-102315000D01*
G75*
G02*
X68350000Y-102465000I-150000J0D01*
G01*
X66700000Y-102465000D01*
G75*
G02*
X66550000Y-102315000I0J150000D01*
G01*
G37*
G36*
G01*
X66550000Y-101045000D02*
X66550000Y-100745000D01*
G75*
G02*
X66700000Y-100595000I150000J0D01*
G01*
X68350000Y-100595000D01*
G75*
G02*
X68500000Y-100745000I0J-150000D01*
G01*
X68500000Y-101045000D01*
G75*
G02*
X68350000Y-101195000I-150000J0D01*
G01*
X66700000Y-101195000D01*
G75*
G02*
X66550000Y-101045000I0J150000D01*
G01*
G37*
D17*
X51400000Y-94000000D03*
X52670000Y-94000000D03*
X53940000Y-94000000D03*
X50130000Y-94000000D03*
X48860000Y-94000000D03*
G36*
G01*
X109900000Y-101245000D02*
X109900000Y-100945000D01*
G75*
G02*
X110050000Y-100795000I150000J0D01*
G01*
X111700000Y-100795000D01*
G75*
G02*
X111850000Y-100945000I0J-150000D01*
G01*
X111850000Y-101245000D01*
G75*
G02*
X111700000Y-101395000I-150000J0D01*
G01*
X110050000Y-101395000D01*
G75*
G02*
X109900000Y-101245000I0J150000D01*
G01*
G37*
G36*
G01*
X109900000Y-102515000D02*
X109900000Y-102215000D01*
G75*
G02*
X110050000Y-102065000I150000J0D01*
G01*
X111700000Y-102065000D01*
G75*
G02*
X111850000Y-102215000I0J-150000D01*
G01*
X111850000Y-102515000D01*
G75*
G02*
X111700000Y-102665000I-150000J0D01*
G01*
X110050000Y-102665000D01*
G75*
G02*
X109900000Y-102515000I0J150000D01*
G01*
G37*
G36*
G01*
X109900000Y-103785000D02*
X109900000Y-103485000D01*
G75*
G02*
X110050000Y-103335000I150000J0D01*
G01*
X111700000Y-103335000D01*
G75*
G02*
X111850000Y-103485000I0J-150000D01*
G01*
X111850000Y-103785000D01*
G75*
G02*
X111700000Y-103935000I-150000J0D01*
G01*
X110050000Y-103935000D01*
G75*
G02*
X109900000Y-103785000I0J150000D01*
G01*
G37*
G36*
G01*
X109900000Y-105055000D02*
X109900000Y-104755000D01*
G75*
G02*
X110050000Y-104605000I150000J0D01*
G01*
X111700000Y-104605000D01*
G75*
G02*
X111850000Y-104755000I0J-150000D01*
G01*
X111850000Y-105055000D01*
G75*
G02*
X111700000Y-105205000I-150000J0D01*
G01*
X110050000Y-105205000D01*
G75*
G02*
X109900000Y-105055000I0J150000D01*
G01*
G37*
G36*
G01*
X104950000Y-105055000D02*
X104950000Y-104755000D01*
G75*
G02*
X105100000Y-104605000I150000J0D01*
G01*
X106750000Y-104605000D01*
G75*
G02*
X106900000Y-104755000I0J-150000D01*
G01*
X106900000Y-105055000D01*
G75*
G02*
X106750000Y-105205000I-150000J0D01*
G01*
X105100000Y-105205000D01*
G75*
G02*
X104950000Y-105055000I0J150000D01*
G01*
G37*
G36*
G01*
X104950000Y-103785000D02*
X104950000Y-103485000D01*
G75*
G02*
X105100000Y-103335000I150000J0D01*
G01*
X106750000Y-103335000D01*
G75*
G02*
X106900000Y-103485000I0J-150000D01*
G01*
X106900000Y-103785000D01*
G75*
G02*
X106750000Y-103935000I-150000J0D01*
G01*
X105100000Y-103935000D01*
G75*
G02*
X104950000Y-103785000I0J150000D01*
G01*
G37*
G36*
G01*
X104950000Y-102515000D02*
X104950000Y-102215000D01*
G75*
G02*
X105100000Y-102065000I150000J0D01*
G01*
X106750000Y-102065000D01*
G75*
G02*
X106900000Y-102215000I0J-150000D01*
G01*
X106900000Y-102515000D01*
G75*
G02*
X106750000Y-102665000I-150000J0D01*
G01*
X105100000Y-102665000D01*
G75*
G02*
X104950000Y-102515000I0J150000D01*
G01*
G37*
G36*
G01*
X104950000Y-101245000D02*
X104950000Y-100945000D01*
G75*
G02*
X105100000Y-100795000I150000J0D01*
G01*
X106750000Y-100795000D01*
G75*
G02*
X106900000Y-100945000I0J-150000D01*
G01*
X106900000Y-101245000D01*
G75*
G02*
X106750000Y-101395000I-150000J0D01*
G01*
X105100000Y-101395000D01*
G75*
G02*
X104950000Y-101245000I0J150000D01*
G01*
G37*
X76470000Y-94000000D03*
X77740000Y-94000000D03*
X79010000Y-94000000D03*
X75200000Y-94000000D03*
X73930000Y-94000000D03*
X89500000Y-92000000D03*
X90770000Y-92000000D03*
X92040000Y-92000000D03*
X88230000Y-92000000D03*
X86960000Y-92000000D03*
X112160000Y-92000000D03*
X113430000Y-92000000D03*
X117240000Y-92000000D03*
X115970000Y-92000000D03*
X114700000Y-92000000D03*
X48730000Y-92000000D03*
X50000000Y-92000000D03*
X53810000Y-92000000D03*
X52540000Y-92000000D03*
X51270000Y-92000000D03*
X76470000Y-92000000D03*
X77740000Y-92000000D03*
X79010000Y-92000000D03*
X75200000Y-92000000D03*
X73930000Y-92000000D03*
D14*
X93780000Y-46200000D03*
X96320000Y-46200000D03*
X98860000Y-46200000D03*
D15*
X101400000Y-46200000D03*
D19*
X79500000Y-39745000D03*
X79500000Y-41015000D03*
X79500000Y-42285000D03*
X79500000Y-43555000D03*
X79500000Y-44825000D03*
X79500000Y-46095000D03*
X79500000Y-47365000D03*
X79500000Y-48635000D03*
X79500000Y-49905000D03*
X79500000Y-51175000D03*
X79500000Y-52445000D03*
X79500000Y-53715000D03*
X79500000Y-54985000D03*
X79500000Y-56255000D03*
D20*
X76715000Y-57255000D03*
X75445000Y-57255000D03*
X74175000Y-57255000D03*
X72905000Y-57255000D03*
X71635000Y-57255000D03*
X70365000Y-57255000D03*
X69095000Y-57255000D03*
X67825000Y-57255000D03*
X66555000Y-57255000D03*
X65285000Y-57255000D03*
D19*
X62500000Y-56255000D03*
X62500000Y-54985000D03*
X62500000Y-53715000D03*
X62500000Y-52445000D03*
X62500000Y-51175000D03*
X62500000Y-49905000D03*
X62500000Y-48635000D03*
X62500000Y-47365000D03*
X62500000Y-46095000D03*
X62500000Y-44825000D03*
X62500000Y-43555000D03*
X62500000Y-42285000D03*
X62500000Y-41015000D03*
X62500000Y-39745000D03*
D21*
X70000000Y-47245000D03*
D22*
X64000000Y-61000000D03*
D23*
X115990000Y-61000000D03*
D24*
X113230000Y-55005000D03*
X66750000Y-66995000D03*
G36*
G01*
X77556250Y-72075000D02*
X77043750Y-72075000D01*
G75*
G02*
X76825000Y-71856250I0J218750D01*
G01*
X76825000Y-71418750D01*
G75*
G02*
X77043750Y-71200000I218750J0D01*
G01*
X77556250Y-71200000D01*
G75*
G02*
X77775000Y-71418750I0J-218750D01*
G01*
X77775000Y-71856250D01*
G75*
G02*
X77556250Y-72075000I-218750J0D01*
G01*
G37*
G36*
G01*
X77556250Y-70500000D02*
X77043750Y-70500000D01*
G75*
G02*
X76825000Y-70281250I0J218750D01*
G01*
X76825000Y-69843750D01*
G75*
G02*
X77043750Y-69625000I218750J0D01*
G01*
X77556250Y-69625000D01*
G75*
G02*
X77775000Y-69843750I0J-218750D01*
G01*
X77775000Y-70281250D01*
G75*
G02*
X77556250Y-70500000I-218750J0D01*
G01*
G37*
D25*
X74200000Y-69925000D03*
X69700000Y-69925000D03*
X69700000Y-61975000D03*
X74200000Y-61975000D03*
G36*
G01*
X77606250Y-68225000D02*
X77093750Y-68225000D01*
G75*
G02*
X76875000Y-68006250I0J218750D01*
G01*
X76875000Y-67568750D01*
G75*
G02*
X77093750Y-67350000I218750J0D01*
G01*
X77606250Y-67350000D01*
G75*
G02*
X77825000Y-67568750I0J-218750D01*
G01*
X77825000Y-68006250D01*
G75*
G02*
X77606250Y-68225000I-218750J0D01*
G01*
G37*
G36*
G01*
X77606250Y-66650000D02*
X77093750Y-66650000D01*
G75*
G02*
X76875000Y-66431250I0J218750D01*
G01*
X76875000Y-65993750D01*
G75*
G02*
X77093750Y-65775000I218750J0D01*
G01*
X77606250Y-65775000D01*
G75*
G02*
X77825000Y-65993750I0J-218750D01*
G01*
X77825000Y-66431250D01*
G75*
G02*
X77606250Y-66650000I-218750J0D01*
G01*
G37*
D26*
X56100000Y-86550000D03*
X56100000Y-75050000D03*
D27*
X115200000Y-36800000D03*
G36*
G01*
X114150000Y-37700000D02*
X114150000Y-37900000D01*
G75*
G02*
X114050000Y-38000000I-100000J0D01*
G01*
X113450000Y-38000000D01*
G75*
G02*
X113350000Y-37900000I0J100000D01*
G01*
X113350000Y-37700000D01*
G75*
G02*
X113450000Y-37600000I100000J0D01*
G01*
X114050000Y-37600000D01*
G75*
G02*
X114150000Y-37700000I0J-100000D01*
G01*
G37*
G36*
G01*
X114150000Y-36700000D02*
X114150000Y-36900000D01*
G75*
G02*
X114050000Y-37000000I-100000J0D01*
G01*
X113450000Y-37000000D01*
G75*
G02*
X113350000Y-36900000I0J100000D01*
G01*
X113350000Y-36700000D01*
G75*
G02*
X113450000Y-36600000I100000J0D01*
G01*
X114050000Y-36600000D01*
G75*
G02*
X114150000Y-36700000I0J-100000D01*
G01*
G37*
G36*
G01*
X114150000Y-35700000D02*
X114150000Y-35900000D01*
G75*
G02*
X114050000Y-36000000I-100000J0D01*
G01*
X113450000Y-36000000D01*
G75*
G02*
X113350000Y-35900000I0J100000D01*
G01*
X113350000Y-35700000D01*
G75*
G02*
X113450000Y-35600000I100000J0D01*
G01*
X114050000Y-35600000D01*
G75*
G02*
X114150000Y-35700000I0J-100000D01*
G01*
G37*
G36*
G01*
X117050000Y-35700000D02*
X117050000Y-35900000D01*
G75*
G02*
X116950000Y-36000000I-100000J0D01*
G01*
X116350000Y-36000000D01*
G75*
G02*
X116250000Y-35900000I0J100000D01*
G01*
X116250000Y-35700000D01*
G75*
G02*
X116350000Y-35600000I100000J0D01*
G01*
X116950000Y-35600000D01*
G75*
G02*
X117050000Y-35700000I0J-100000D01*
G01*
G37*
G36*
G01*
X117050000Y-36700000D02*
X117050000Y-36900000D01*
G75*
G02*
X116950000Y-37000000I-100000J0D01*
G01*
X116350000Y-37000000D01*
G75*
G02*
X116250000Y-36900000I0J100000D01*
G01*
X116250000Y-36700000D01*
G75*
G02*
X116350000Y-36600000I100000J0D01*
G01*
X116950000Y-36600000D01*
G75*
G02*
X117050000Y-36700000I0J-100000D01*
G01*
G37*
G36*
G01*
X117050000Y-37700000D02*
X117050000Y-37900000D01*
G75*
G02*
X116950000Y-38000000I-100000J0D01*
G01*
X116350000Y-38000000D01*
G75*
G02*
X116250000Y-37900000I0J100000D01*
G01*
X116250000Y-37700000D01*
G75*
G02*
X116350000Y-37600000I100000J0D01*
G01*
X116950000Y-37600000D01*
G75*
G02*
X117050000Y-37700000I0J-100000D01*
G01*
G37*
G36*
G01*
X56700000Y-69956250D02*
X56700000Y-69043750D01*
G75*
G02*
X56943750Y-68800000I243750J0D01*
G01*
X57431250Y-68800000D01*
G75*
G02*
X57675000Y-69043750I0J-243750D01*
G01*
X57675000Y-69956250D01*
G75*
G02*
X57431250Y-70200000I-243750J0D01*
G01*
X56943750Y-70200000D01*
G75*
G02*
X56700000Y-69956250I0J243750D01*
G01*
G37*
G36*
G01*
X54825000Y-69956250D02*
X54825000Y-69043750D01*
G75*
G02*
X55068750Y-68800000I243750J0D01*
G01*
X55556250Y-68800000D01*
G75*
G02*
X55800000Y-69043750I0J-243750D01*
G01*
X55800000Y-69956250D01*
G75*
G02*
X55556250Y-70200000I-243750J0D01*
G01*
X55068750Y-70200000D01*
G75*
G02*
X54825000Y-69956250I0J243750D01*
G01*
G37*
G36*
G01*
X53000000Y-43500000D02*
X51000000Y-43500000D01*
G75*
G02*
X50750000Y-43250000I0J250000D01*
G01*
X50750000Y-39350000D01*
G75*
G02*
X51000000Y-39100000I250000J0D01*
G01*
X53000000Y-39100000D01*
G75*
G02*
X53250000Y-39350000I0J-250000D01*
G01*
X53250000Y-43250000D01*
G75*
G02*
X53000000Y-43500000I-250000J0D01*
G01*
G37*
G36*
G01*
X53000000Y-50900000D02*
X51000000Y-50900000D01*
G75*
G02*
X50750000Y-50650000I0J250000D01*
G01*
X50750000Y-46750000D01*
G75*
G02*
X51000000Y-46500000I250000J0D01*
G01*
X53000000Y-46500000D01*
G75*
G02*
X53250000Y-46750000I0J-250000D01*
G01*
X53250000Y-50650000D01*
G75*
G02*
X53000000Y-50900000I-250000J0D01*
G01*
G37*
D28*
X108860000Y-41000000D03*
X108860000Y-43540000D03*
X108860000Y-46080000D03*
X108860000Y-48620000D03*
X108860000Y-51160000D03*
X108860000Y-53700000D03*
X108860000Y-56240000D03*
X108860000Y-58780000D03*
X86000000Y-58780000D03*
X86000000Y-56240000D03*
X86000000Y-53700000D03*
X86000000Y-51160000D03*
X86000000Y-48620000D03*
X86000000Y-46080000D03*
D22*
X86000000Y-41000000D03*
D28*
X86000000Y-43540000D03*
D29*
X101075000Y-75800000D03*
X101075000Y-71300000D03*
X109025000Y-71300000D03*
X109025000Y-75800000D03*
D25*
X74200000Y-82525000D03*
X69700000Y-82525000D03*
X69700000Y-74575000D03*
X74200000Y-74575000D03*
G36*
G01*
X53100000Y-62256250D02*
X53100000Y-61743750D01*
G75*
G02*
X53318750Y-61525000I218750J0D01*
G01*
X53756250Y-61525000D01*
G75*
G02*
X53975000Y-61743750I0J-218750D01*
G01*
X53975000Y-62256250D01*
G75*
G02*
X53756250Y-62475000I-218750J0D01*
G01*
X53318750Y-62475000D01*
G75*
G02*
X53100000Y-62256250I0J218750D01*
G01*
G37*
G36*
G01*
X51525000Y-62256250D02*
X51525000Y-61743750D01*
G75*
G02*
X51743750Y-61525000I218750J0D01*
G01*
X52181250Y-61525000D01*
G75*
G02*
X52400000Y-61743750I0J-218750D01*
G01*
X52400000Y-62256250D01*
G75*
G02*
X52181250Y-62475000I-218750J0D01*
G01*
X51743750Y-62475000D01*
G75*
G02*
X51525000Y-62256250I0J218750D01*
G01*
G37*
G36*
G01*
X80743750Y-81850000D02*
X81256250Y-81850000D01*
G75*
G02*
X81475000Y-82068750I0J-218750D01*
G01*
X81475000Y-82506250D01*
G75*
G02*
X81256250Y-82725000I-218750J0D01*
G01*
X80743750Y-82725000D01*
G75*
G02*
X80525000Y-82506250I0J218750D01*
G01*
X80525000Y-82068750D01*
G75*
G02*
X80743750Y-81850000I218750J0D01*
G01*
G37*
G36*
G01*
X80743750Y-80275000D02*
X81256250Y-80275000D01*
G75*
G02*
X81475000Y-80493750I0J-218750D01*
G01*
X81475000Y-80931250D01*
G75*
G02*
X81256250Y-81150000I-218750J0D01*
G01*
X80743750Y-81150000D01*
G75*
G02*
X80525000Y-80931250I0J218750D01*
G01*
X80525000Y-80493750D01*
G75*
G02*
X80743750Y-80275000I218750J0D01*
G01*
G37*
G36*
G01*
X104456250Y-41050000D02*
X103943750Y-41050000D01*
G75*
G02*
X103725000Y-40831250I0J218750D01*
G01*
X103725000Y-40393750D01*
G75*
G02*
X103943750Y-40175000I218750J0D01*
G01*
X104456250Y-40175000D01*
G75*
G02*
X104675000Y-40393750I0J-218750D01*
G01*
X104675000Y-40831250D01*
G75*
G02*
X104456250Y-41050000I-218750J0D01*
G01*
G37*
G36*
G01*
X104456250Y-42625000D02*
X103943750Y-42625000D01*
G75*
G02*
X103725000Y-42406250I0J218750D01*
G01*
X103725000Y-41968750D01*
G75*
G02*
X103943750Y-41750000I218750J0D01*
G01*
X104456250Y-41750000D01*
G75*
G02*
X104675000Y-41968750I0J-218750D01*
G01*
X104675000Y-42406250D01*
G75*
G02*
X104456250Y-42625000I-218750J0D01*
G01*
G37*
G36*
G01*
X103343750Y-49750000D02*
X103856250Y-49750000D01*
G75*
G02*
X104075000Y-49968750I0J-218750D01*
G01*
X104075000Y-50406250D01*
G75*
G02*
X103856250Y-50625000I-218750J0D01*
G01*
X103343750Y-50625000D01*
G75*
G02*
X103125000Y-50406250I0J218750D01*
G01*
X103125000Y-49968750D01*
G75*
G02*
X103343750Y-49750000I218750J0D01*
G01*
G37*
G36*
G01*
X103343750Y-48175000D02*
X103856250Y-48175000D01*
G75*
G02*
X104075000Y-48393750I0J-218750D01*
G01*
X104075000Y-48831250D01*
G75*
G02*
X103856250Y-49050000I-218750J0D01*
G01*
X103343750Y-49050000D01*
G75*
G02*
X103125000Y-48831250I0J218750D01*
G01*
X103125000Y-48393750D01*
G75*
G02*
X103343750Y-48175000I218750J0D01*
G01*
G37*
G36*
G01*
X57993750Y-53850000D02*
X58506250Y-53850000D01*
G75*
G02*
X58725000Y-54068750I0J-218750D01*
G01*
X58725000Y-54506250D01*
G75*
G02*
X58506250Y-54725000I-218750J0D01*
G01*
X57993750Y-54725000D01*
G75*
G02*
X57775000Y-54506250I0J218750D01*
G01*
X57775000Y-54068750D01*
G75*
G02*
X57993750Y-53850000I218750J0D01*
G01*
G37*
G36*
G01*
X57993750Y-52275000D02*
X58506250Y-52275000D01*
G75*
G02*
X58725000Y-52493750I0J-218750D01*
G01*
X58725000Y-52931250D01*
G75*
G02*
X58506250Y-53150000I-218750J0D01*
G01*
X57993750Y-53150000D01*
G75*
G02*
X57775000Y-52931250I0J218750D01*
G01*
X57775000Y-52493750D01*
G75*
G02*
X57993750Y-52275000I218750J0D01*
G01*
G37*
G36*
G01*
X54743750Y-53850000D02*
X55256250Y-53850000D01*
G75*
G02*
X55475000Y-54068750I0J-218750D01*
G01*
X55475000Y-54506250D01*
G75*
G02*
X55256250Y-54725000I-218750J0D01*
G01*
X54743750Y-54725000D01*
G75*
G02*
X54525000Y-54506250I0J218750D01*
G01*
X54525000Y-54068750D01*
G75*
G02*
X54743750Y-53850000I218750J0D01*
G01*
G37*
G36*
G01*
X54743750Y-52275000D02*
X55256250Y-52275000D01*
G75*
G02*
X55475000Y-52493750I0J-218750D01*
G01*
X55475000Y-52931250D01*
G75*
G02*
X55256250Y-53150000I-218750J0D01*
G01*
X54743750Y-53150000D01*
G75*
G02*
X54525000Y-52931250I0J218750D01*
G01*
X54525000Y-52493750D01*
G75*
G02*
X54743750Y-52275000I218750J0D01*
G01*
G37*
D30*
X56450000Y-62600000D03*
X57400000Y-64600000D03*
X55500000Y-64600000D03*
D31*
X62000000Y-70000000D03*
X60000000Y-70950000D03*
X60000000Y-69050000D03*
G36*
G01*
X111090000Y-49900000D02*
X111090000Y-50100000D01*
G75*
G02*
X110990000Y-50200000I-100000J0D01*
G01*
X110730000Y-50200000D01*
G75*
G02*
X110630000Y-50100000I0J100000D01*
G01*
X110630000Y-49900000D01*
G75*
G02*
X110730000Y-49800000I100000J0D01*
G01*
X110990000Y-49800000D01*
G75*
G02*
X111090000Y-49900000I0J-100000D01*
G01*
G37*
G36*
G01*
X111730000Y-49900000D02*
X111730000Y-50100000D01*
G75*
G02*
X111630000Y-50200000I-100000J0D01*
G01*
X111370000Y-50200000D01*
G75*
G02*
X111270000Y-50100000I0J100000D01*
G01*
X111270000Y-49900000D01*
G75*
G02*
X111370000Y-49800000I100000J0D01*
G01*
X111630000Y-49800000D01*
G75*
G02*
X111730000Y-49900000I0J-100000D01*
G01*
G37*
D18*
X106830000Y-85400000D03*
X99170000Y-85400000D03*
D32*
X104900000Y-80500000D03*
X102360000Y-80500000D03*
X103630000Y-86500000D03*
X101090000Y-86500000D03*
D18*
X92830000Y-85400000D03*
X85170000Y-85400000D03*
D32*
X90900000Y-80500000D03*
X88360000Y-80500000D03*
X89630000Y-86500000D03*
X87090000Y-86500000D03*
D14*
X117000000Y-55300000D03*
X117000000Y-52760000D03*
X117000000Y-50220000D03*
X117000000Y-47680000D03*
X117000000Y-45140000D03*
D15*
X117000000Y-42600000D03*
G36*
G01*
X58706250Y-57050000D02*
X57793750Y-57050000D01*
G75*
G02*
X57550000Y-56806250I0J243750D01*
G01*
X57550000Y-56318750D01*
G75*
G02*
X57793750Y-56075000I243750J0D01*
G01*
X58706250Y-56075000D01*
G75*
G02*
X58950000Y-56318750I0J-243750D01*
G01*
X58950000Y-56806250D01*
G75*
G02*
X58706250Y-57050000I-243750J0D01*
G01*
G37*
G36*
G01*
X58706250Y-58925000D02*
X57793750Y-58925000D01*
G75*
G02*
X57550000Y-58681250I0J243750D01*
G01*
X57550000Y-58193750D01*
G75*
G02*
X57793750Y-57950000I243750J0D01*
G01*
X58706250Y-57950000D01*
G75*
G02*
X58950000Y-58193750I0J-243750D01*
G01*
X58950000Y-58681250D01*
G75*
G02*
X58706250Y-58925000I-243750J0D01*
G01*
G37*
G36*
G01*
X55456250Y-57050000D02*
X54543750Y-57050000D01*
G75*
G02*
X54300000Y-56806250I0J243750D01*
G01*
X54300000Y-56318750D01*
G75*
G02*
X54543750Y-56075000I243750J0D01*
G01*
X55456250Y-56075000D01*
G75*
G02*
X55700000Y-56318750I0J-243750D01*
G01*
X55700000Y-56806250D01*
G75*
G02*
X55456250Y-57050000I-243750J0D01*
G01*
G37*
G36*
G01*
X55456250Y-58925000D02*
X54543750Y-58925000D01*
G75*
G02*
X54300000Y-58681250I0J243750D01*
G01*
X54300000Y-58193750D01*
G75*
G02*
X54543750Y-57950000I243750J0D01*
G01*
X55456250Y-57950000D01*
G75*
G02*
X55700000Y-58193750I0J-243750D01*
G01*
X55700000Y-58681250D01*
G75*
G02*
X55456250Y-58925000I-243750J0D01*
G01*
G37*
G36*
G01*
X108943750Y-37412500D02*
X109456250Y-37412500D01*
G75*
G02*
X109675000Y-37631250I0J-218750D01*
G01*
X109675000Y-38068750D01*
G75*
G02*
X109456250Y-38287500I-218750J0D01*
G01*
X108943750Y-38287500D01*
G75*
G02*
X108725000Y-38068750I0J218750D01*
G01*
X108725000Y-37631250D01*
G75*
G02*
X108943750Y-37412500I218750J0D01*
G01*
G37*
G36*
G01*
X108943750Y-35837500D02*
X109456250Y-35837500D01*
G75*
G02*
X109675000Y-36056250I0J-218750D01*
G01*
X109675000Y-36493750D01*
G75*
G02*
X109456250Y-36712500I-218750J0D01*
G01*
X108943750Y-36712500D01*
G75*
G02*
X108725000Y-36493750I0J218750D01*
G01*
X108725000Y-36056250D01*
G75*
G02*
X108943750Y-35837500I218750J0D01*
G01*
G37*
G36*
G01*
X60256250Y-40150000D02*
X59743750Y-40150000D01*
G75*
G02*
X59525000Y-39931250I0J218750D01*
G01*
X59525000Y-39493750D01*
G75*
G02*
X59743750Y-39275000I218750J0D01*
G01*
X60256250Y-39275000D01*
G75*
G02*
X60475000Y-39493750I0J-218750D01*
G01*
X60475000Y-39931250D01*
G75*
G02*
X60256250Y-40150000I-218750J0D01*
G01*
G37*
G36*
G01*
X60256250Y-41725000D02*
X59743750Y-41725000D01*
G75*
G02*
X59525000Y-41506250I0J218750D01*
G01*
X59525000Y-41068750D01*
G75*
G02*
X59743750Y-40850000I218750J0D01*
G01*
X60256250Y-40850000D01*
G75*
G02*
X60475000Y-41068750I0J-218750D01*
G01*
X60475000Y-41506250D01*
G75*
G02*
X60256250Y-41725000I-218750J0D01*
G01*
G37*
D22*
X64000000Y-79000000D03*
D23*
X115990000Y-79000000D03*
D24*
X113230000Y-73005000D03*
X66750000Y-84995000D03*
M02*
