M48
; DRILL file {KiCad (5.1.7)-1} date 06/29/21 10:57:20
; FORMAT={-:-/ absolute / metric / decimal}
; #@! TF.CreationDate,2021-06-29T10:57:20+02:00
; #@! TF.GenerationSoftware,Kicad,Pcbnew,(5.1.7)-1
; #@! TF.FileFunction,NonPlated,1,2,NPTH
FMAT,2
METRIC
T1C0.787
T2C1.900
T3C2.100
T4C2.640
%
G90
G05
T1
X86.96Y-92.0
X88.23Y-92.0
X89.5Y-92.0
X90.77Y-92.0
X92.04Y-92.0
X87.09Y-94.0
X88.36Y-94.0
X89.63Y-94.0
X90.9Y-94.0
X92.17Y-94.0
X48.73Y-92.0
X50.0Y-92.0
X51.27Y-92.0
X52.54Y-92.0
X53.81Y-92.0
X112.16Y-92.0
X113.43Y-92.0
X114.7Y-92.0
X115.97Y-92.0
X117.24Y-92.0
X73.93Y-94.0
X75.2Y-94.0
X76.47Y-94.0
X77.74Y-94.0
X79.01Y-94.0
X48.86Y-94.0
X50.13Y-94.0
X51.4Y-94.0
X52.67Y-94.0
X53.94Y-94.0
X73.93Y-92.0
X75.2Y-92.0
X76.47Y-92.0
X77.74Y-92.0
X79.01Y-92.0
X112.16Y-94.0
X113.43Y-94.0
X114.7Y-94.0
X115.97Y-94.0
X117.24Y-94.0
T2
X85.17Y-85.4
X92.83Y-85.4
X52.1Y-98.97
X52.1Y-106.63
X99.17Y-85.4
X106.83Y-85.4
X90.1Y-98.97
X90.1Y-106.63
T3
X78.0Y-103.0
X116.0Y-103.0
T4
X66.75Y-66.995
X113.23Y-55.005
X66.75Y-84.995
X113.23Y-73.005
T0
M30
