G04 #@! TF.GenerationSoftware,KiCad,Pcbnew,(5.1.7)-1*
G04 #@! TF.CreationDate,2021-06-29T10:57:19+02:00*
G04 #@! TF.ProjectId,TwomesSensor,54776f6d-6573-4536-956e-736f722e6b69,rev?*
G04 #@! TF.SameCoordinates,Original*
G04 #@! TF.FileFunction,Copper,L2,Bot*
G04 #@! TF.FilePolarity,Positive*
%FSLAX46Y46*%
G04 Gerber Fmt 4.6, Leading zero omitted, Abs format (unit mm)*
G04 Created by KiCad (PCBNEW (5.1.7)-1) date 2021-06-29 10:57:19*
%MOMM*%
%LPD*%
G01*
G04 APERTURE LIST*
G04 #@! TA.AperFunction,NonConductor*
%ADD10C,0.100000*%
G04 #@! TD*
G04 #@! TA.AperFunction,ComponentPad*
%ADD11O,1.700000X1.700000*%
G04 #@! TD*
G04 #@! TA.AperFunction,ComponentPad*
%ADD12R,1.700000X1.700000*%
G04 #@! TD*
G04 #@! TA.AperFunction,SMDPad,CuDef*
%ADD13R,2.000000X1.200000*%
G04 #@! TD*
G04 #@! TA.AperFunction,ComponentPad*
%ADD14R,2.000000X2.000000*%
G04 #@! TD*
G04 #@! TA.AperFunction,ComponentPad*
%ADD15C,2.000000*%
G04 #@! TD*
G04 #@! TA.AperFunction,ComponentPad*
%ADD16C,1.524000*%
G04 #@! TD*
G04 #@! TA.AperFunction,ComponentPad*
%ADD17O,2.000000X1.600000*%
G04 #@! TD*
G04 #@! TA.AperFunction,ViaPad*
%ADD18C,0.800000*%
G04 #@! TD*
G04 #@! TA.AperFunction,Conductor*
%ADD19C,0.250000*%
G04 #@! TD*
G04 #@! TA.AperFunction,Conductor*
%ADD20C,0.500000*%
G04 #@! TD*
G04 #@! TA.AperFunction,Conductor*
%ADD21C,0.200000*%
G04 #@! TD*
G04 #@! TA.AperFunction,Conductor*
%ADD22C,0.450000*%
G04 #@! TD*
G04 #@! TA.AperFunction,Conductor*
%ADD23C,0.254000*%
G04 #@! TD*
G04 #@! TA.AperFunction,Conductor*
%ADD24C,0.100000*%
G04 #@! TD*
G04 APERTURE END LIST*
D10*
X67214285Y-108538095D02*
X67671428Y-108538095D01*
X67442857Y-107738095D02*
X67442857Y-108538095D01*
X67861904Y-108271428D02*
X68014285Y-107738095D01*
X68166666Y-108119047D01*
X68319047Y-107738095D01*
X68471428Y-108271428D01*
X68890476Y-107738095D02*
X68814285Y-107776190D01*
X68776190Y-107814285D01*
X68738095Y-107890476D01*
X68738095Y-108119047D01*
X68776190Y-108195238D01*
X68814285Y-108233333D01*
X68890476Y-108271428D01*
X69004761Y-108271428D01*
X69080952Y-108233333D01*
X69119047Y-108195238D01*
X69157142Y-108119047D01*
X69157142Y-107890476D01*
X69119047Y-107814285D01*
X69080952Y-107776190D01*
X69004761Y-107738095D01*
X68890476Y-107738095D01*
X69500000Y-107738095D02*
X69500000Y-108271428D01*
X69500000Y-108195238D02*
X69538095Y-108233333D01*
X69614285Y-108271428D01*
X69728571Y-108271428D01*
X69804761Y-108233333D01*
X69842857Y-108157142D01*
X69842857Y-107738095D01*
X69842857Y-108157142D02*
X69880952Y-108233333D01*
X69957142Y-108271428D01*
X70071428Y-108271428D01*
X70147619Y-108233333D01*
X70185714Y-108157142D01*
X70185714Y-107738095D01*
X70871428Y-107776190D02*
X70795238Y-107738095D01*
X70642857Y-107738095D01*
X70566666Y-107776190D01*
X70528571Y-107852380D01*
X70528571Y-108157142D01*
X70566666Y-108233333D01*
X70642857Y-108271428D01*
X70795238Y-108271428D01*
X70871428Y-108233333D01*
X70909523Y-108157142D01*
X70909523Y-108080952D01*
X70528571Y-108004761D01*
X71214285Y-107776190D02*
X71290476Y-107738095D01*
X71442857Y-107738095D01*
X71519047Y-107776190D01*
X71557142Y-107852380D01*
X71557142Y-107890476D01*
X71519047Y-107966666D01*
X71442857Y-108004761D01*
X71328571Y-108004761D01*
X71252380Y-108042857D01*
X71214285Y-108119047D01*
X71214285Y-108157142D01*
X71252380Y-108233333D01*
X71328571Y-108271428D01*
X71442857Y-108271428D01*
X71519047Y-108233333D01*
X72776190Y-108157142D02*
X72890476Y-108119047D01*
X72928571Y-108080952D01*
X72966666Y-108004761D01*
X72966666Y-107890476D01*
X72928571Y-107814285D01*
X72890476Y-107776190D01*
X72814285Y-107738095D01*
X72509523Y-107738095D01*
X72509523Y-108538095D01*
X72776190Y-108538095D01*
X72852380Y-108500000D01*
X72890476Y-108461904D01*
X72928571Y-108385714D01*
X72928571Y-108309523D01*
X72890476Y-108233333D01*
X72852380Y-108195238D01*
X72776190Y-108157142D01*
X72509523Y-108157142D01*
X73423809Y-107738095D02*
X73347619Y-107776190D01*
X73309523Y-107814285D01*
X73271428Y-107890476D01*
X73271428Y-108119047D01*
X73309523Y-108195238D01*
X73347619Y-108233333D01*
X73423809Y-108271428D01*
X73538095Y-108271428D01*
X73614285Y-108233333D01*
X73652380Y-108195238D01*
X73690476Y-108119047D01*
X73690476Y-107890476D01*
X73652380Y-107814285D01*
X73614285Y-107776190D01*
X73538095Y-107738095D01*
X73423809Y-107738095D01*
X74033333Y-107738095D02*
X74033333Y-108271428D01*
X74033333Y-108538095D02*
X73995238Y-108500000D01*
X74033333Y-108461904D01*
X74071428Y-108500000D01*
X74033333Y-108538095D01*
X74033333Y-108461904D01*
X74528571Y-107738095D02*
X74452380Y-107776190D01*
X74414285Y-107852380D01*
X74414285Y-108538095D01*
X75138095Y-107776190D02*
X75061904Y-107738095D01*
X74909523Y-107738095D01*
X74833333Y-107776190D01*
X74795238Y-107852380D01*
X74795238Y-108157142D01*
X74833333Y-108233333D01*
X74909523Y-108271428D01*
X75061904Y-108271428D01*
X75138095Y-108233333D01*
X75176190Y-108157142D01*
X75176190Y-108080952D01*
X74795238Y-108004761D01*
X75519047Y-107738095D02*
X75519047Y-108271428D01*
X75519047Y-108119047D02*
X75557142Y-108195238D01*
X75595238Y-108233333D01*
X75671428Y-108271428D01*
X75747619Y-108271428D01*
X76471428Y-107814285D02*
X76433333Y-107776190D01*
X76319047Y-107738095D01*
X76242857Y-107738095D01*
X76128571Y-107776190D01*
X76052380Y-107852380D01*
X76014285Y-107928571D01*
X75976190Y-108080952D01*
X75976190Y-108195238D01*
X76014285Y-108347619D01*
X76052380Y-108423809D01*
X76128571Y-108500000D01*
X76242857Y-108538095D01*
X76319047Y-108538095D01*
X76433333Y-108500000D01*
X76471428Y-108461904D01*
X76928571Y-107738095D02*
X76852380Y-107776190D01*
X76814285Y-107852380D01*
X76814285Y-108538095D01*
X77233333Y-107738095D02*
X77233333Y-108271428D01*
X77233333Y-108538095D02*
X77195238Y-108500000D01*
X77233333Y-108461904D01*
X77271428Y-108500000D01*
X77233333Y-108538095D01*
X77233333Y-108461904D01*
X77614285Y-108271428D02*
X77614285Y-107471428D01*
X77614285Y-108233333D02*
X77690476Y-108271428D01*
X77842857Y-108271428D01*
X77919047Y-108233333D01*
X77957142Y-108195238D01*
X77995238Y-108119047D01*
X77995238Y-107890476D01*
X77957142Y-107814285D01*
X77919047Y-107776190D01*
X77842857Y-107738095D01*
X77690476Y-107738095D01*
X77614285Y-107776190D01*
X78909523Y-108461904D02*
X78947619Y-108500000D01*
X79023809Y-108538095D01*
X79214285Y-108538095D01*
X79290476Y-108500000D01*
X79328571Y-108461904D01*
X79366666Y-108385714D01*
X79366666Y-108309523D01*
X79328571Y-108195238D01*
X78871428Y-107738095D01*
X79366666Y-107738095D01*
X79709523Y-107814285D02*
X79747619Y-107776190D01*
X79709523Y-107738095D01*
X79671428Y-107776190D01*
X79709523Y-107814285D01*
X79709523Y-107738095D01*
X80242857Y-108538095D02*
X80319047Y-108538095D01*
X80395238Y-108500000D01*
X80433333Y-108461904D01*
X80471428Y-108385714D01*
X80509523Y-108233333D01*
X80509523Y-108042857D01*
X80471428Y-107890476D01*
X80433333Y-107814285D01*
X80395238Y-107776190D01*
X80319047Y-107738095D01*
X80242857Y-107738095D01*
X80166666Y-107776190D01*
X80128571Y-107814285D01*
X80090476Y-107890476D01*
X80052380Y-108042857D01*
X80052380Y-108233333D01*
X80090476Y-108385714D01*
X80128571Y-108461904D01*
X80166666Y-108500000D01*
X80242857Y-108538095D01*
X105414285Y-108638095D02*
X105871428Y-108638095D01*
X105642857Y-107838095D02*
X105642857Y-108638095D01*
X106061904Y-108371428D02*
X106214285Y-107838095D01*
X106366666Y-108219047D01*
X106519047Y-107838095D01*
X106671428Y-108371428D01*
X107090476Y-107838095D02*
X107014285Y-107876190D01*
X106976190Y-107914285D01*
X106938095Y-107990476D01*
X106938095Y-108219047D01*
X106976190Y-108295238D01*
X107014285Y-108333333D01*
X107090476Y-108371428D01*
X107204761Y-108371428D01*
X107280952Y-108333333D01*
X107319047Y-108295238D01*
X107357142Y-108219047D01*
X107357142Y-107990476D01*
X107319047Y-107914285D01*
X107280952Y-107876190D01*
X107204761Y-107838095D01*
X107090476Y-107838095D01*
X107700000Y-107838095D02*
X107700000Y-108371428D01*
X107700000Y-108295238D02*
X107738095Y-108333333D01*
X107814285Y-108371428D01*
X107928571Y-108371428D01*
X108004761Y-108333333D01*
X108042857Y-108257142D01*
X108042857Y-107838095D01*
X108042857Y-108257142D02*
X108080952Y-108333333D01*
X108157142Y-108371428D01*
X108271428Y-108371428D01*
X108347619Y-108333333D01*
X108385714Y-108257142D01*
X108385714Y-107838095D01*
X109071428Y-107876190D02*
X108995238Y-107838095D01*
X108842857Y-107838095D01*
X108766666Y-107876190D01*
X108728571Y-107952380D01*
X108728571Y-108257142D01*
X108766666Y-108333333D01*
X108842857Y-108371428D01*
X108995238Y-108371428D01*
X109071428Y-108333333D01*
X109109523Y-108257142D01*
X109109523Y-108180952D01*
X108728571Y-108104761D01*
X109414285Y-107876190D02*
X109490476Y-107838095D01*
X109642857Y-107838095D01*
X109719047Y-107876190D01*
X109757142Y-107952380D01*
X109757142Y-107990476D01*
X109719047Y-108066666D01*
X109642857Y-108104761D01*
X109528571Y-108104761D01*
X109452380Y-108142857D01*
X109414285Y-108219047D01*
X109414285Y-108257142D01*
X109452380Y-108333333D01*
X109528571Y-108371428D01*
X109642857Y-108371428D01*
X109719047Y-108333333D01*
X110976190Y-108257142D02*
X111090476Y-108219047D01*
X111128571Y-108180952D01*
X111166666Y-108104761D01*
X111166666Y-107990476D01*
X111128571Y-107914285D01*
X111090476Y-107876190D01*
X111014285Y-107838095D01*
X110709523Y-107838095D01*
X110709523Y-108638095D01*
X110976190Y-108638095D01*
X111052380Y-108600000D01*
X111090476Y-108561904D01*
X111128571Y-108485714D01*
X111128571Y-108409523D01*
X111090476Y-108333333D01*
X111052380Y-108295238D01*
X110976190Y-108257142D01*
X110709523Y-108257142D01*
X111623809Y-107838095D02*
X111547619Y-107876190D01*
X111509523Y-107914285D01*
X111471428Y-107990476D01*
X111471428Y-108219047D01*
X111509523Y-108295238D01*
X111547619Y-108333333D01*
X111623809Y-108371428D01*
X111738095Y-108371428D01*
X111814285Y-108333333D01*
X111852380Y-108295238D01*
X111890476Y-108219047D01*
X111890476Y-107990476D01*
X111852380Y-107914285D01*
X111814285Y-107876190D01*
X111738095Y-107838095D01*
X111623809Y-107838095D01*
X112233333Y-107838095D02*
X112233333Y-108371428D01*
X112233333Y-108638095D02*
X112195238Y-108600000D01*
X112233333Y-108561904D01*
X112271428Y-108600000D01*
X112233333Y-108638095D01*
X112233333Y-108561904D01*
X112728571Y-107838095D02*
X112652380Y-107876190D01*
X112614285Y-107952380D01*
X112614285Y-108638095D01*
X113338095Y-107876190D02*
X113261904Y-107838095D01*
X113109523Y-107838095D01*
X113033333Y-107876190D01*
X112995238Y-107952380D01*
X112995238Y-108257142D01*
X113033333Y-108333333D01*
X113109523Y-108371428D01*
X113261904Y-108371428D01*
X113338095Y-108333333D01*
X113376190Y-108257142D01*
X113376190Y-108180952D01*
X112995238Y-108104761D01*
X113719047Y-107838095D02*
X113719047Y-108371428D01*
X113719047Y-108219047D02*
X113757142Y-108295238D01*
X113795238Y-108333333D01*
X113871428Y-108371428D01*
X113947619Y-108371428D01*
X114671428Y-107914285D02*
X114633333Y-107876190D01*
X114519047Y-107838095D01*
X114442857Y-107838095D01*
X114328571Y-107876190D01*
X114252380Y-107952380D01*
X114214285Y-108028571D01*
X114176190Y-108180952D01*
X114176190Y-108295238D01*
X114214285Y-108447619D01*
X114252380Y-108523809D01*
X114328571Y-108600000D01*
X114442857Y-108638095D01*
X114519047Y-108638095D01*
X114633333Y-108600000D01*
X114671428Y-108561904D01*
X115128571Y-107838095D02*
X115052380Y-107876190D01*
X115014285Y-107952380D01*
X115014285Y-108638095D01*
X115433333Y-107838095D02*
X115433333Y-108371428D01*
X115433333Y-108638095D02*
X115395238Y-108600000D01*
X115433333Y-108561904D01*
X115471428Y-108600000D01*
X115433333Y-108638095D01*
X115433333Y-108561904D01*
X115814285Y-108371428D02*
X115814285Y-107571428D01*
X115814285Y-108333333D02*
X115890476Y-108371428D01*
X116042857Y-108371428D01*
X116119047Y-108333333D01*
X116157142Y-108295238D01*
X116195238Y-108219047D01*
X116195238Y-107990476D01*
X116157142Y-107914285D01*
X116119047Y-107876190D01*
X116042857Y-107838095D01*
X115890476Y-107838095D01*
X115814285Y-107876190D01*
X117109523Y-108561904D02*
X117147619Y-108600000D01*
X117223809Y-108638095D01*
X117414285Y-108638095D01*
X117490476Y-108600000D01*
X117528571Y-108561904D01*
X117566666Y-108485714D01*
X117566666Y-108409523D01*
X117528571Y-108295238D01*
X117071428Y-107838095D01*
X117566666Y-107838095D01*
X117909523Y-107914285D02*
X117947619Y-107876190D01*
X117909523Y-107838095D01*
X117871428Y-107876190D01*
X117909523Y-107914285D01*
X117909523Y-107838095D01*
X118442857Y-108638095D02*
X118519047Y-108638095D01*
X118595238Y-108600000D01*
X118633333Y-108561904D01*
X118671428Y-108485714D01*
X118709523Y-108333333D01*
X118709523Y-108142857D01*
X118671428Y-107990476D01*
X118633333Y-107914285D01*
X118595238Y-107876190D01*
X118519047Y-107838095D01*
X118442857Y-107838095D01*
X118366666Y-107876190D01*
X118328571Y-107914285D01*
X118290476Y-107990476D01*
X118252380Y-108142857D01*
X118252380Y-108333333D01*
X118290476Y-108485714D01*
X118328571Y-108561904D01*
X118366666Y-108600000D01*
X118442857Y-108638095D01*
D11*
X92580000Y-52400000D03*
X95120000Y-52400000D03*
X97660000Y-52400000D03*
D12*
X100200000Y-52400000D03*
D13*
X95000000Y-100900000D03*
X95000000Y-103440000D03*
X89000000Y-102170000D03*
X89000000Y-104710000D03*
G04 #@! TA.AperFunction,SMDPad,CuDef*
G36*
G01*
X63456250Y-101050000D02*
X62943750Y-101050000D01*
G75*
G02*
X62725000Y-100831250I0J218750D01*
G01*
X62725000Y-100393750D01*
G75*
G02*
X62943750Y-100175000I218750J0D01*
G01*
X63456250Y-100175000D01*
G75*
G02*
X63675000Y-100393750I0J-218750D01*
G01*
X63675000Y-100831250D01*
G75*
G02*
X63456250Y-101050000I-218750J0D01*
G01*
G37*
G04 #@! TD.AperFunction*
G04 #@! TA.AperFunction,SMDPad,CuDef*
G36*
G01*
X63456250Y-102625000D02*
X62943750Y-102625000D01*
G75*
G02*
X62725000Y-102406250I0J218750D01*
G01*
X62725000Y-101968750D01*
G75*
G02*
X62943750Y-101750000I218750J0D01*
G01*
X63456250Y-101750000D01*
G75*
G02*
X63675000Y-101968750I0J-218750D01*
G01*
X63675000Y-102406250D01*
G75*
G02*
X63456250Y-102625000I-218750J0D01*
G01*
G37*
G04 #@! TD.AperFunction*
X57000000Y-100900000D03*
X57000000Y-103440000D03*
X51000000Y-102170000D03*
X51000000Y-104710000D03*
G04 #@! TA.AperFunction,SMDPad,CuDef*
G36*
G01*
X101456250Y-101250000D02*
X100943750Y-101250000D01*
G75*
G02*
X100725000Y-101031250I0J218750D01*
G01*
X100725000Y-100593750D01*
G75*
G02*
X100943750Y-100375000I218750J0D01*
G01*
X101456250Y-100375000D01*
G75*
G02*
X101675000Y-100593750I0J-218750D01*
G01*
X101675000Y-101031250D01*
G75*
G02*
X101456250Y-101250000I-218750J0D01*
G01*
G37*
G04 #@! TD.AperFunction*
G04 #@! TA.AperFunction,SMDPad,CuDef*
G36*
G01*
X101456250Y-102825000D02*
X100943750Y-102825000D01*
G75*
G02*
X100725000Y-102606250I0J218750D01*
G01*
X100725000Y-102168750D01*
G75*
G02*
X100943750Y-101950000I218750J0D01*
G01*
X101456250Y-101950000D01*
G75*
G02*
X101675000Y-102168750I0J-218750D01*
G01*
X101675000Y-102606250D01*
G75*
G02*
X101456250Y-102825000I-218750J0D01*
G01*
G37*
G04 #@! TD.AperFunction*
G04 #@! TA.AperFunction,SMDPad,CuDef*
G36*
G01*
X60456250Y-101050000D02*
X59943750Y-101050000D01*
G75*
G02*
X59725000Y-100831250I0J218750D01*
G01*
X59725000Y-100393750D01*
G75*
G02*
X59943750Y-100175000I218750J0D01*
G01*
X60456250Y-100175000D01*
G75*
G02*
X60675000Y-100393750I0J-218750D01*
G01*
X60675000Y-100831250D01*
G75*
G02*
X60456250Y-101050000I-218750J0D01*
G01*
G37*
G04 #@! TD.AperFunction*
G04 #@! TA.AperFunction,SMDPad,CuDef*
G36*
G01*
X60456250Y-102625000D02*
X59943750Y-102625000D01*
G75*
G02*
X59725000Y-102406250I0J218750D01*
G01*
X59725000Y-101968750D01*
G75*
G02*
X59943750Y-101750000I218750J0D01*
G01*
X60456250Y-101750000D01*
G75*
G02*
X60675000Y-101968750I0J-218750D01*
G01*
X60675000Y-102406250D01*
G75*
G02*
X60456250Y-102625000I-218750J0D01*
G01*
G37*
G04 #@! TD.AperFunction*
G04 #@! TA.AperFunction,SMDPad,CuDef*
G36*
G01*
X98656250Y-101250000D02*
X98143750Y-101250000D01*
G75*
G02*
X97925000Y-101031250I0J218750D01*
G01*
X97925000Y-100593750D01*
G75*
G02*
X98143750Y-100375000I218750J0D01*
G01*
X98656250Y-100375000D01*
G75*
G02*
X98875000Y-100593750I0J-218750D01*
G01*
X98875000Y-101031250D01*
G75*
G02*
X98656250Y-101250000I-218750J0D01*
G01*
G37*
G04 #@! TD.AperFunction*
G04 #@! TA.AperFunction,SMDPad,CuDef*
G36*
G01*
X98656250Y-102825000D02*
X98143750Y-102825000D01*
G75*
G02*
X97925000Y-102606250I0J218750D01*
G01*
X97925000Y-102168750D01*
G75*
G02*
X98143750Y-101950000I218750J0D01*
G01*
X98656250Y-101950000D01*
G75*
G02*
X98875000Y-102168750I0J-218750D01*
G01*
X98875000Y-102606250D01*
G75*
G02*
X98656250Y-102825000I-218750J0D01*
G01*
G37*
G04 #@! TD.AperFunction*
D11*
X93780000Y-46200000D03*
X96320000Y-46200000D03*
X98860000Y-46200000D03*
D12*
X101400000Y-46200000D03*
D14*
X64000000Y-61000000D03*
D15*
X115990000Y-61000000D03*
D16*
X56100000Y-86550000D03*
X56100000Y-75050000D03*
D17*
X108860000Y-41000000D03*
X108860000Y-43540000D03*
X108860000Y-46080000D03*
X108860000Y-48620000D03*
X108860000Y-51160000D03*
X108860000Y-53700000D03*
X108860000Y-56240000D03*
X108860000Y-58780000D03*
X86000000Y-58780000D03*
X86000000Y-56240000D03*
X86000000Y-53700000D03*
X86000000Y-51160000D03*
X86000000Y-48620000D03*
X86000000Y-46080000D03*
D14*
X86000000Y-41000000D03*
D17*
X86000000Y-43540000D03*
D11*
X117000000Y-55300000D03*
X117000000Y-52760000D03*
X117000000Y-50220000D03*
X117000000Y-47680000D03*
X117000000Y-45140000D03*
D12*
X117000000Y-42600000D03*
D14*
X64000000Y-79000000D03*
D15*
X115990000Y-79000000D03*
D18*
X68600000Y-45600000D03*
X65200000Y-45600000D03*
X53800000Y-37600000D03*
X56000000Y-45500000D03*
X99400000Y-36000000D03*
X60600000Y-57800000D03*
X59750000Y-66900000D03*
X52200000Y-73900000D03*
X63500000Y-82900000D03*
X92050000Y-73100000D03*
X106950000Y-63550000D03*
X102050000Y-57000000D03*
X76400000Y-63800000D03*
X66300000Y-63000000D03*
X82105000Y-41100000D03*
X96200000Y-86900000D03*
X96100000Y-80300000D03*
X70670001Y-42329999D03*
X59600000Y-63774999D03*
X100600000Y-49600000D03*
X104100000Y-40500000D03*
X106000000Y-36600000D03*
X75050000Y-72350000D03*
X59600000Y-62400000D03*
X59600000Y-61000000D03*
X97400000Y-105400000D03*
X59400000Y-105200000D03*
X60400000Y-52600000D03*
X53500000Y-63400000D03*
X77550000Y-41450000D03*
X81750000Y-48750000D03*
X77000000Y-51500000D03*
X60600000Y-50600000D03*
X65000000Y-43800000D03*
X113000000Y-100000000D03*
X103300000Y-102900000D03*
X75000000Y-103200000D03*
X65300000Y-102700000D03*
D19*
X82105000Y-41100000D02*
X79550000Y-41100000D01*
X79550000Y-41100000D02*
X78600000Y-40150000D01*
X78600000Y-40150000D02*
X75650000Y-40150000D01*
X75650000Y-40150000D02*
X72600000Y-43200000D01*
X72600000Y-43200000D02*
X70100000Y-43200000D01*
X70100000Y-43200000D02*
X69800000Y-42900000D01*
X84750000Y-41000000D02*
X83350000Y-39600000D01*
X86000000Y-41000000D02*
X84750000Y-41000000D01*
X83350000Y-39550000D02*
X73200000Y-39550000D01*
X73200000Y-39600000D02*
X70600000Y-42200000D01*
D20*
X59600000Y-63774999D02*
X59600000Y-63774999D01*
X80780000Y-58780000D02*
X86000000Y-58780000D01*
X106000000Y-38600000D02*
X104100000Y-40500000D01*
X106000000Y-36600000D02*
X106000000Y-38600000D01*
X91420000Y-58780000D02*
X86000000Y-58780000D01*
X100800000Y-49400000D02*
X91420000Y-58780000D01*
X64070000Y-58780000D02*
X65180000Y-58780000D01*
X64070000Y-58780000D02*
X80780000Y-58780000D01*
X65180000Y-58780000D02*
X67450000Y-61050000D01*
X67450000Y-61050000D02*
X72150000Y-65750000D01*
X72150000Y-65750000D02*
X72150000Y-70750000D01*
X72150000Y-70750000D02*
X73750000Y-72350000D01*
X73750000Y-72350000D02*
X75050000Y-72350000D01*
X75050000Y-72350000D02*
X75050000Y-72350000D01*
X59600000Y-62400000D02*
X59600000Y-63774999D01*
X59600000Y-61200000D02*
X59600000Y-62400000D01*
X62020000Y-58780000D02*
X59600000Y-61200000D01*
X64070000Y-58780000D02*
X62020000Y-58780000D01*
X91420000Y-58780000D02*
X108860000Y-58780000D01*
X101400000Y-48800000D02*
X101400000Y-46200000D01*
X100600000Y-49600000D02*
X101400000Y-48800000D01*
X101400000Y-43200000D02*
X104100000Y-40500000D01*
X101400000Y-46200000D02*
X101400000Y-43200000D01*
D21*
X117000000Y-47680000D02*
X115180000Y-47680000D01*
X111040000Y-43540000D02*
X108860000Y-43540000D01*
X115180000Y-47680000D02*
X111040000Y-43540000D01*
X110060000Y-41000000D02*
X108860000Y-41000000D01*
X111657919Y-41000000D02*
X110060000Y-41000000D01*
X115797919Y-45140000D02*
X111657919Y-41000000D01*
X117000000Y-45140000D02*
X115797919Y-45140000D01*
D19*
X97400000Y-105400000D02*
X97400000Y-104600000D01*
X97400000Y-104600000D02*
X96440000Y-103640000D01*
X96440000Y-103640000D02*
X95000000Y-103640000D01*
X59400000Y-104400000D02*
X58440000Y-103440000D01*
X58440000Y-103440000D02*
X57000000Y-103440000D01*
X59400000Y-105200000D02*
X59400000Y-104400000D01*
D21*
X56500000Y-52600000D02*
X53500000Y-55600000D01*
X53500000Y-55600000D02*
X53500000Y-63400000D01*
X53400000Y-63400000D02*
X53400000Y-63400000D01*
X56500000Y-52600000D02*
X60400000Y-52600000D01*
X92580000Y-47400000D02*
X93780000Y-46200000D01*
X92580000Y-52400000D02*
X92580000Y-47400000D01*
X95120000Y-47400000D02*
X96320000Y-46200000D01*
X95120000Y-52400000D02*
X95120000Y-47400000D01*
D19*
X86000000Y-53700000D02*
X82700000Y-53700000D01*
X82700000Y-53700000D02*
X77000000Y-48000000D01*
X77000000Y-48000000D02*
X77000000Y-41750000D01*
X77000000Y-41750000D02*
X77500000Y-41250000D01*
X77500000Y-41250000D02*
X77500000Y-41250000D01*
X86000000Y-51160000D02*
X86160000Y-51160000D01*
X86160000Y-51160000D02*
X83750000Y-48750000D01*
X83750000Y-48750000D02*
X81750000Y-48750000D01*
X81750000Y-48750000D02*
X81750000Y-48750000D01*
X86000000Y-56240000D02*
X81990000Y-56240000D01*
X81990000Y-56240000D02*
X78490000Y-56240000D01*
X78490000Y-56240000D02*
X76000000Y-53750000D01*
X76000000Y-53750000D02*
X76000000Y-52500000D01*
X76000000Y-52500000D02*
X77000000Y-51500000D01*
X77000000Y-51500000D02*
X77000000Y-51500000D01*
X87250000Y-46080000D02*
X89000000Y-44330000D01*
X86000000Y-46080000D02*
X87250000Y-46080000D01*
X89000000Y-44330000D02*
X89000000Y-41414998D01*
X89000000Y-41414998D02*
X86385002Y-38800000D01*
X86385002Y-38800000D02*
X61000000Y-38800000D01*
X61000000Y-38800000D02*
X60600000Y-39200000D01*
X60600000Y-39200000D02*
X60600000Y-49400000D01*
X60600000Y-49400000D02*
X60600000Y-50600000D01*
X60600000Y-50600000D02*
X60600000Y-50600000D01*
X65000000Y-43800000D02*
X65000000Y-43800000D01*
X73400000Y-43800000D02*
X65000000Y-43800000D01*
X80940000Y-43540000D02*
X78050000Y-40650000D01*
X86000000Y-43540000D02*
X80940000Y-43540000D01*
X76800000Y-40650000D02*
X73650000Y-43800000D01*
X78050000Y-40650000D02*
X76800000Y-40650000D01*
X73650000Y-43800000D02*
X73400000Y-43800000D01*
D22*
X64000000Y-61000000D02*
X64000000Y-79000000D01*
D19*
X102787500Y-102387500D02*
X101200000Y-102387500D01*
X101200000Y-102387500D02*
X101200000Y-102825000D01*
X103300000Y-102900000D02*
X102787500Y-102387500D01*
X100725000Y-102387500D02*
X98200000Y-102387500D01*
X95625000Y-108400000D02*
X88200000Y-108400000D01*
X101200000Y-102825000D02*
X95625000Y-108400000D01*
X88200000Y-108400000D02*
X87000000Y-107200000D01*
X87000000Y-107200000D02*
X87000000Y-105660000D01*
X101200000Y-102387500D02*
X100725000Y-102387500D01*
X87000000Y-105660000D02*
X87750000Y-104910000D01*
X87750000Y-104910000D02*
X89000000Y-104910000D01*
X75000000Y-103200000D02*
X75000000Y-103200000D01*
X64787500Y-102187500D02*
X63200000Y-102187500D01*
X63200000Y-102187500D02*
X62725000Y-102187500D01*
X62725000Y-102187500D02*
X60200000Y-102187500D01*
X65300000Y-102700000D02*
X64787500Y-102187500D01*
X49000000Y-107000000D02*
X49000000Y-105460000D01*
X63200000Y-102625000D02*
X57625000Y-108200000D01*
X49000000Y-105460000D02*
X49750000Y-104710000D01*
X63200000Y-102187500D02*
X63200000Y-102625000D01*
X50200000Y-108200000D02*
X49000000Y-107000000D01*
X49750000Y-104710000D02*
X51000000Y-104710000D01*
X57625000Y-108200000D02*
X50200000Y-108200000D01*
D23*
X56873000Y-38250000D02*
X56875440Y-38274776D01*
X56882667Y-38298601D01*
X56894403Y-38320557D01*
X56910197Y-38339803D01*
X56929443Y-38355597D01*
X56951399Y-38367333D01*
X56975224Y-38374560D01*
X57000000Y-38377000D01*
X60348198Y-38377000D01*
X60089002Y-38636197D01*
X60059999Y-38659999D01*
X60004871Y-38727174D01*
X59965026Y-38775724D01*
X59928289Y-38844454D01*
X59894454Y-38907754D01*
X59850997Y-39051015D01*
X59840000Y-39162668D01*
X59840000Y-39162678D01*
X59836324Y-39200000D01*
X59840000Y-39237322D01*
X59840001Y-49362658D01*
X59840000Y-49362668D01*
X59840000Y-49896289D01*
X59796063Y-49940226D01*
X59682795Y-50109744D01*
X59604774Y-50298102D01*
X59565000Y-50498061D01*
X59565000Y-50701939D01*
X59604774Y-50901898D01*
X59682795Y-51090256D01*
X59796063Y-51259774D01*
X59940226Y-51403937D01*
X60109744Y-51517205D01*
X60248791Y-51574800D01*
X60098102Y-51604774D01*
X59909744Y-51682795D01*
X59740226Y-51796063D01*
X59671289Y-51865000D01*
X56536105Y-51865000D01*
X56500000Y-51861444D01*
X56355915Y-51875635D01*
X56217366Y-51917663D01*
X56136100Y-51961101D01*
X56089680Y-51985913D01*
X55977762Y-52077762D01*
X55954746Y-52105807D01*
X53005808Y-55054746D01*
X52977762Y-55077763D01*
X52885913Y-55189681D01*
X52817663Y-55317368D01*
X52788384Y-55413887D01*
X52775635Y-55455915D01*
X52761444Y-55600000D01*
X52765000Y-55636105D01*
X52765001Y-62671288D01*
X52696063Y-62740226D01*
X52582795Y-62909744D01*
X52504774Y-63098102D01*
X52465000Y-63298061D01*
X52465000Y-63501939D01*
X52504774Y-63701898D01*
X52582795Y-63890256D01*
X52696063Y-64059774D01*
X52840226Y-64203937D01*
X53009744Y-64317205D01*
X53198102Y-64395226D01*
X53398061Y-64435000D01*
X53601939Y-64435000D01*
X53801898Y-64395226D01*
X53990256Y-64317205D01*
X54159774Y-64203937D01*
X54303937Y-64059774D01*
X54417205Y-63890256D01*
X54495226Y-63701898D01*
X54535000Y-63501939D01*
X54535000Y-63298061D01*
X54495226Y-63098102D01*
X54417205Y-62909744D01*
X54303937Y-62740226D01*
X54235000Y-62671289D01*
X54235000Y-55904446D01*
X56804447Y-53335000D01*
X59671289Y-53335000D01*
X59740226Y-53403937D01*
X59909744Y-53517205D01*
X60098102Y-53595226D01*
X60298061Y-53635000D01*
X60501939Y-53635000D01*
X60701898Y-53595226D01*
X60890256Y-53517205D01*
X61059774Y-53403937D01*
X61203937Y-53259774D01*
X61317205Y-53090256D01*
X61395226Y-52901898D01*
X61435000Y-52701939D01*
X61435000Y-52498061D01*
X61395226Y-52298102D01*
X61317205Y-52109744D01*
X61203937Y-51940226D01*
X61059774Y-51796063D01*
X60890256Y-51682795D01*
X60751209Y-51625200D01*
X60901898Y-51595226D01*
X61090256Y-51517205D01*
X61259774Y-51403937D01*
X61403937Y-51259774D01*
X61517205Y-51090256D01*
X61595226Y-50901898D01*
X61635000Y-50701939D01*
X61635000Y-50498061D01*
X61595226Y-50298102D01*
X61517205Y-50109744D01*
X61403937Y-49940226D01*
X61360000Y-49896289D01*
X61360000Y-39560000D01*
X72165198Y-39560000D01*
X70395969Y-41329230D01*
X70368103Y-41334773D01*
X70179745Y-41412794D01*
X70010227Y-41526062D01*
X69866064Y-41670225D01*
X69752796Y-41839743D01*
X69674775Y-42028101D01*
X69635001Y-42228060D01*
X69635001Y-42431938D01*
X69674775Y-42631897D01*
X69752796Y-42820255D01*
X69866064Y-42989773D01*
X69916291Y-43040000D01*
X65703711Y-43040000D01*
X65659774Y-42996063D01*
X65490256Y-42882795D01*
X65301898Y-42804774D01*
X65101939Y-42765000D01*
X64898061Y-42765000D01*
X64698102Y-42804774D01*
X64509744Y-42882795D01*
X64340226Y-42996063D01*
X64196063Y-43140226D01*
X64082795Y-43309744D01*
X64004774Y-43498102D01*
X63965000Y-43698061D01*
X63965000Y-43901939D01*
X64004774Y-44101898D01*
X64082795Y-44290256D01*
X64196063Y-44459774D01*
X64340226Y-44603937D01*
X64509744Y-44717205D01*
X64698102Y-44795226D01*
X64898061Y-44835000D01*
X65101939Y-44835000D01*
X65301898Y-44795226D01*
X65490256Y-44717205D01*
X65659774Y-44603937D01*
X65703711Y-44560000D01*
X73612678Y-44560000D01*
X73650000Y-44563676D01*
X73687322Y-44560000D01*
X73687333Y-44560000D01*
X73798986Y-44549003D01*
X73942247Y-44505546D01*
X74074276Y-44434974D01*
X74190001Y-44340001D01*
X74213804Y-44310997D01*
X76240001Y-42284801D01*
X76240000Y-47962677D01*
X76236324Y-48000000D01*
X76240000Y-48037322D01*
X76240000Y-48037332D01*
X76250997Y-48148985D01*
X76284595Y-48259744D01*
X76294454Y-48292246D01*
X76365026Y-48424276D01*
X76404871Y-48472826D01*
X76459999Y-48540001D01*
X76489003Y-48563804D01*
X82136201Y-54211003D01*
X82159999Y-54240001D01*
X82275724Y-54334974D01*
X82407753Y-54405546D01*
X82551014Y-54449003D01*
X82662667Y-54460000D01*
X82662676Y-54460000D01*
X82699999Y-54463676D01*
X82737322Y-54460000D01*
X84579099Y-54460000D01*
X84601068Y-54501101D01*
X84780392Y-54719608D01*
X84998899Y-54898932D01*
X85131858Y-54970000D01*
X84998899Y-55041068D01*
X84780392Y-55220392D01*
X84601068Y-55438899D01*
X84579099Y-55480000D01*
X78804802Y-55480000D01*
X76760000Y-53435199D01*
X76760000Y-52814801D01*
X77039802Y-52535000D01*
X77101939Y-52535000D01*
X77301898Y-52495226D01*
X77490256Y-52417205D01*
X77659774Y-52303937D01*
X77803937Y-52159774D01*
X77917205Y-51990256D01*
X77995226Y-51801898D01*
X78035000Y-51601939D01*
X78035000Y-51398061D01*
X77995226Y-51198102D01*
X77917205Y-51009744D01*
X77803937Y-50840226D01*
X77659774Y-50696063D01*
X77490256Y-50582795D01*
X77301898Y-50504774D01*
X77101939Y-50465000D01*
X76898061Y-50465000D01*
X76698102Y-50504774D01*
X76509744Y-50582795D01*
X76340226Y-50696063D01*
X76196063Y-50840226D01*
X76082795Y-51009744D01*
X76004774Y-51198102D01*
X75965000Y-51398061D01*
X75965000Y-51460198D01*
X75488998Y-51936201D01*
X75460000Y-51959999D01*
X75436202Y-51988997D01*
X75436201Y-51988998D01*
X75365026Y-52075724D01*
X75294454Y-52207754D01*
X75274663Y-52273000D01*
X75258331Y-52326842D01*
X75250998Y-52351015D01*
X75236324Y-52500000D01*
X75240001Y-52537332D01*
X75240000Y-53712677D01*
X75236324Y-53750000D01*
X75240000Y-53787322D01*
X75240000Y-53787332D01*
X75250997Y-53898985D01*
X75294454Y-54042246D01*
X75365026Y-54174276D01*
X75404871Y-54222826D01*
X75459999Y-54290001D01*
X75489003Y-54313804D01*
X77926201Y-56751003D01*
X77949999Y-56780001D01*
X78065724Y-56874974D01*
X78197753Y-56945546D01*
X78341014Y-56989003D01*
X78452667Y-57000000D01*
X78452675Y-57000000D01*
X78490000Y-57003676D01*
X78527325Y-57000000D01*
X84579099Y-57000000D01*
X84601068Y-57041101D01*
X84780392Y-57259608D01*
X84998899Y-57438932D01*
X85131858Y-57510000D01*
X84998899Y-57581068D01*
X84780392Y-57760392D01*
X84669922Y-57895000D01*
X65223469Y-57895000D01*
X65180000Y-57890719D01*
X65136531Y-57895000D01*
X62063469Y-57895000D01*
X62020000Y-57890719D01*
X61976531Y-57895000D01*
X61976523Y-57895000D01*
X61846510Y-57907805D01*
X61679687Y-57958411D01*
X61525941Y-58040589D01*
X61424953Y-58123468D01*
X61424951Y-58123470D01*
X61391183Y-58151183D01*
X61363470Y-58184951D01*
X59583422Y-59965000D01*
X59498061Y-59965000D01*
X59298102Y-60004774D01*
X59109744Y-60082795D01*
X58940226Y-60196063D01*
X58796063Y-60340226D01*
X58682795Y-60509744D01*
X58604774Y-60698102D01*
X58565000Y-60898061D01*
X58565000Y-61101939D01*
X58604774Y-61301898D01*
X58682795Y-61490256D01*
X58715000Y-61538455D01*
X58715001Y-61861545D01*
X58682795Y-61909744D01*
X58604774Y-62098102D01*
X58565000Y-62298061D01*
X58565000Y-62501939D01*
X58604774Y-62701898D01*
X58682795Y-62890256D01*
X58715000Y-62938455D01*
X58715001Y-63236544D01*
X58682795Y-63284743D01*
X58604774Y-63473101D01*
X58565000Y-63673060D01*
X58565000Y-63876938D01*
X58604774Y-64076897D01*
X58682795Y-64265255D01*
X58796063Y-64434773D01*
X58940226Y-64578936D01*
X59109744Y-64692204D01*
X59298102Y-64770225D01*
X59498061Y-64809999D01*
X59701939Y-64809999D01*
X59901898Y-64770225D01*
X60090256Y-64692204D01*
X60259774Y-64578936D01*
X60403937Y-64434773D01*
X60517205Y-64265255D01*
X60595226Y-64076897D01*
X60635000Y-63876938D01*
X60635000Y-63673060D01*
X60595226Y-63473101D01*
X60517205Y-63284743D01*
X60485000Y-63236545D01*
X60485000Y-62938454D01*
X60517205Y-62890256D01*
X60595226Y-62701898D01*
X60635000Y-62501939D01*
X60635000Y-62298061D01*
X60595226Y-62098102D01*
X60517205Y-61909744D01*
X60485000Y-61861546D01*
X60485000Y-61566578D01*
X62386579Y-59665000D01*
X62459043Y-59665000D01*
X62410498Y-59755820D01*
X62374188Y-59875518D01*
X62361928Y-60000000D01*
X62361928Y-62000000D01*
X62374188Y-62124482D01*
X62410498Y-62244180D01*
X62469463Y-62354494D01*
X62548815Y-62451185D01*
X62645506Y-62530537D01*
X62755820Y-62589502D01*
X62875518Y-62625812D01*
X63000000Y-62638072D01*
X63140000Y-62638072D01*
X63140001Y-77361928D01*
X63000000Y-77361928D01*
X62875518Y-77374188D01*
X62755820Y-77410498D01*
X62645506Y-77469463D01*
X62548815Y-77548815D01*
X62469463Y-77645506D01*
X62410498Y-77755820D01*
X62374188Y-77875518D01*
X62361928Y-78000000D01*
X62361928Y-80000000D01*
X62374188Y-80124482D01*
X62410498Y-80244180D01*
X62469463Y-80354494D01*
X62548815Y-80451185D01*
X62645506Y-80530537D01*
X62755820Y-80589502D01*
X62875518Y-80625812D01*
X63000000Y-80638072D01*
X65000000Y-80638072D01*
X65124482Y-80625812D01*
X65244180Y-80589502D01*
X65354494Y-80530537D01*
X65451185Y-80451185D01*
X65530537Y-80354494D01*
X65589502Y-80244180D01*
X65622496Y-80135413D01*
X115034192Y-80135413D01*
X115129956Y-80399814D01*
X115419571Y-80540704D01*
X115731108Y-80622384D01*
X116052595Y-80641718D01*
X116371675Y-80597961D01*
X116676088Y-80492795D01*
X116850044Y-80399814D01*
X116945808Y-80135413D01*
X115990000Y-79179605D01*
X115034192Y-80135413D01*
X65622496Y-80135413D01*
X65625812Y-80124482D01*
X65638072Y-80000000D01*
X65638072Y-79062595D01*
X114348282Y-79062595D01*
X114392039Y-79381675D01*
X114497205Y-79686088D01*
X114590186Y-79860044D01*
X114854587Y-79955808D01*
X115810395Y-79000000D01*
X116169605Y-79000000D01*
X117125413Y-79955808D01*
X117389814Y-79860044D01*
X117530704Y-79570429D01*
X117612384Y-79258892D01*
X117631718Y-78937405D01*
X117587961Y-78618325D01*
X117482795Y-78313912D01*
X117389814Y-78139956D01*
X117125413Y-78044192D01*
X116169605Y-79000000D01*
X115810395Y-79000000D01*
X114854587Y-78044192D01*
X114590186Y-78139956D01*
X114449296Y-78429571D01*
X114367616Y-78741108D01*
X114348282Y-79062595D01*
X65638072Y-79062595D01*
X65638072Y-78000000D01*
X65625812Y-77875518D01*
X65622497Y-77864587D01*
X115034192Y-77864587D01*
X115990000Y-78820395D01*
X116945808Y-77864587D01*
X116850044Y-77600186D01*
X116560429Y-77459296D01*
X116248892Y-77377616D01*
X115927405Y-77358282D01*
X115608325Y-77402039D01*
X115303912Y-77507205D01*
X115129956Y-77600186D01*
X115034192Y-77864587D01*
X65622497Y-77864587D01*
X65589502Y-77755820D01*
X65530537Y-77645506D01*
X65451185Y-77548815D01*
X65354494Y-77469463D01*
X65244180Y-77410498D01*
X65124482Y-77374188D01*
X65000000Y-77361928D01*
X64860000Y-77361928D01*
X64860000Y-67514325D01*
X64870130Y-67565252D01*
X65017502Y-67921040D01*
X65231453Y-68241240D01*
X65503760Y-68513547D01*
X65823960Y-68727498D01*
X66179748Y-68874870D01*
X66557449Y-68950000D01*
X66942551Y-68950000D01*
X67320252Y-68874870D01*
X67676040Y-68727498D01*
X67996240Y-68513547D01*
X68268547Y-68241240D01*
X68482498Y-67921040D01*
X68629870Y-67565252D01*
X68705000Y-67187551D01*
X68705000Y-66802449D01*
X68629870Y-66424748D01*
X68482498Y-66068960D01*
X68268547Y-65748760D01*
X67996240Y-65476453D01*
X67676040Y-65262502D01*
X67320252Y-65115130D01*
X66942551Y-65040000D01*
X66557449Y-65040000D01*
X66179748Y-65115130D01*
X65823960Y-65262502D01*
X65503760Y-65476453D01*
X65231453Y-65748760D01*
X65017502Y-66068960D01*
X64870130Y-66424748D01*
X64860000Y-66475675D01*
X64860000Y-62638072D01*
X65000000Y-62638072D01*
X65124482Y-62625812D01*
X65244180Y-62589502D01*
X65354494Y-62530537D01*
X65451185Y-62451185D01*
X65530537Y-62354494D01*
X65589502Y-62244180D01*
X65625812Y-62124482D01*
X65638072Y-62000000D01*
X65638072Y-60489650D01*
X66854953Y-61706532D01*
X66854959Y-61706537D01*
X71265000Y-66116579D01*
X71265001Y-70706521D01*
X71260719Y-70750000D01*
X71277805Y-70923490D01*
X71328412Y-71090313D01*
X71410590Y-71244059D01*
X71493468Y-71345046D01*
X71493471Y-71345049D01*
X71521184Y-71378817D01*
X71554951Y-71406529D01*
X73093470Y-72945049D01*
X73121183Y-72978817D01*
X73154951Y-73006530D01*
X73154953Y-73006532D01*
X73255941Y-73089411D01*
X73409687Y-73171589D01*
X73576510Y-73222195D01*
X73706523Y-73235000D01*
X73706531Y-73235000D01*
X73750000Y-73239281D01*
X73793469Y-73235000D01*
X74511546Y-73235000D01*
X74559744Y-73267205D01*
X74748102Y-73345226D01*
X74948061Y-73385000D01*
X75151939Y-73385000D01*
X75351898Y-73345226D01*
X75540256Y-73267205D01*
X75709774Y-73153937D01*
X75853937Y-73009774D01*
X75967205Y-72840256D01*
X75978723Y-72812449D01*
X111275000Y-72812449D01*
X111275000Y-73197551D01*
X111350130Y-73575252D01*
X111497502Y-73931040D01*
X111711453Y-74251240D01*
X111983760Y-74523547D01*
X112303960Y-74737498D01*
X112659748Y-74884870D01*
X113037449Y-74960000D01*
X113422551Y-74960000D01*
X113800252Y-74884870D01*
X114156040Y-74737498D01*
X114476240Y-74523547D01*
X114748547Y-74251240D01*
X114962498Y-73931040D01*
X115109870Y-73575252D01*
X115185000Y-73197551D01*
X115185000Y-72812449D01*
X115109870Y-72434748D01*
X114962498Y-72078960D01*
X114748547Y-71758760D01*
X114476240Y-71486453D01*
X114156040Y-71272502D01*
X113800252Y-71125130D01*
X113422551Y-71050000D01*
X113037449Y-71050000D01*
X112659748Y-71125130D01*
X112303960Y-71272502D01*
X111983760Y-71486453D01*
X111711453Y-71758760D01*
X111497502Y-72078960D01*
X111350130Y-72434748D01*
X111275000Y-72812449D01*
X75978723Y-72812449D01*
X76045226Y-72651898D01*
X76085000Y-72451939D01*
X76085000Y-72248061D01*
X76045226Y-72048102D01*
X75967205Y-71859744D01*
X75853937Y-71690226D01*
X75709774Y-71546063D01*
X75540256Y-71432795D01*
X75351898Y-71354774D01*
X75151939Y-71315000D01*
X74948061Y-71315000D01*
X74748102Y-71354774D01*
X74559744Y-71432795D01*
X74511546Y-71465000D01*
X74116579Y-71465000D01*
X73035000Y-70383422D01*
X73035000Y-65793469D01*
X73039281Y-65750000D01*
X73035000Y-65706531D01*
X73035000Y-65706523D01*
X73022195Y-65576510D01*
X72971589Y-65409687D01*
X72889411Y-65255941D01*
X72778817Y-65121183D01*
X72745050Y-65093472D01*
X69786991Y-62135413D01*
X115034192Y-62135413D01*
X115129956Y-62399814D01*
X115419571Y-62540704D01*
X115731108Y-62622384D01*
X116052595Y-62641718D01*
X116371675Y-62597961D01*
X116676088Y-62492795D01*
X116850044Y-62399814D01*
X116945808Y-62135413D01*
X115990000Y-61179605D01*
X115034192Y-62135413D01*
X69786991Y-62135413D01*
X68714173Y-61062595D01*
X114348282Y-61062595D01*
X114392039Y-61381675D01*
X114497205Y-61686088D01*
X114590186Y-61860044D01*
X114854587Y-61955808D01*
X115810395Y-61000000D01*
X116169605Y-61000000D01*
X117125413Y-61955808D01*
X117389814Y-61860044D01*
X117530704Y-61570429D01*
X117612384Y-61258892D01*
X117631718Y-60937405D01*
X117587961Y-60618325D01*
X117482795Y-60313912D01*
X117389814Y-60139956D01*
X117125413Y-60044192D01*
X116169605Y-61000000D01*
X115810395Y-61000000D01*
X114854587Y-60044192D01*
X114590186Y-60139956D01*
X114449296Y-60429571D01*
X114367616Y-60741108D01*
X114348282Y-61062595D01*
X68714173Y-61062595D01*
X68106537Y-60454959D01*
X68106532Y-60454953D01*
X67316579Y-59665000D01*
X84669922Y-59665000D01*
X84780392Y-59799608D01*
X84998899Y-59978932D01*
X85248192Y-60112182D01*
X85518691Y-60194236D01*
X85729508Y-60215000D01*
X86270492Y-60215000D01*
X86481309Y-60194236D01*
X86751808Y-60112182D01*
X87001101Y-59978932D01*
X87219608Y-59799608D01*
X87330078Y-59665000D01*
X91376531Y-59665000D01*
X91420000Y-59669281D01*
X91463469Y-59665000D01*
X107529922Y-59665000D01*
X107640392Y-59799608D01*
X107858899Y-59978932D01*
X108108192Y-60112182D01*
X108378691Y-60194236D01*
X108589508Y-60215000D01*
X109130492Y-60215000D01*
X109341309Y-60194236D01*
X109611808Y-60112182D01*
X109861101Y-59978932D01*
X110000430Y-59864587D01*
X115034192Y-59864587D01*
X115990000Y-60820395D01*
X116945808Y-59864587D01*
X116850044Y-59600186D01*
X116560429Y-59459296D01*
X116248892Y-59377616D01*
X115927405Y-59358282D01*
X115608325Y-59402039D01*
X115303912Y-59507205D01*
X115129956Y-59600186D01*
X115034192Y-59864587D01*
X110000430Y-59864587D01*
X110079608Y-59799608D01*
X110258932Y-59581101D01*
X110392182Y-59331808D01*
X110474236Y-59061309D01*
X110501943Y-58780000D01*
X110474236Y-58498691D01*
X110392182Y-58228192D01*
X110258932Y-57978899D01*
X110079608Y-57760392D01*
X109861101Y-57581068D01*
X109731655Y-57511878D01*
X109749227Y-57504430D01*
X109982662Y-57345673D01*
X110180639Y-57144425D01*
X110335551Y-56908421D01*
X110441444Y-56646730D01*
X110451904Y-56589039D01*
X110329915Y-56367000D01*
X108987000Y-56367000D01*
X108987000Y-56387000D01*
X108733000Y-56387000D01*
X108733000Y-56367000D01*
X107390085Y-56367000D01*
X107268096Y-56589039D01*
X107278556Y-56646730D01*
X107384449Y-56908421D01*
X107539361Y-57144425D01*
X107737338Y-57345673D01*
X107970773Y-57504430D01*
X107988345Y-57511878D01*
X107858899Y-57581068D01*
X107640392Y-57760392D01*
X107529922Y-57895000D01*
X93556578Y-57895000D01*
X97566579Y-53885000D01*
X97806260Y-53885000D01*
X98093158Y-53827932D01*
X98363411Y-53715990D01*
X98606632Y-53553475D01*
X98738487Y-53421620D01*
X98760498Y-53494180D01*
X98819463Y-53604494D01*
X98898815Y-53701185D01*
X98995506Y-53780537D01*
X99105820Y-53839502D01*
X99225518Y-53875812D01*
X99350000Y-53888072D01*
X99914250Y-53885000D01*
X100073000Y-53726250D01*
X100073000Y-52527000D01*
X100327000Y-52527000D01*
X100327000Y-53726250D01*
X100485750Y-53885000D01*
X101050000Y-53888072D01*
X101174482Y-53875812D01*
X101294180Y-53839502D01*
X101404494Y-53780537D01*
X101501185Y-53701185D01*
X101580537Y-53604494D01*
X101639502Y-53494180D01*
X101675812Y-53374482D01*
X101688072Y-53250000D01*
X101685000Y-52685750D01*
X101526250Y-52527000D01*
X100327000Y-52527000D01*
X100073000Y-52527000D01*
X100053000Y-52527000D01*
X100053000Y-52273000D01*
X100073000Y-52273000D01*
X100073000Y-52253000D01*
X100327000Y-52253000D01*
X100327000Y-52273000D01*
X101526250Y-52273000D01*
X101685000Y-52114250D01*
X101688072Y-51550000D01*
X101675812Y-51425518D01*
X101639502Y-51305820D01*
X101580537Y-51195506D01*
X101501185Y-51098815D01*
X101404494Y-51019463D01*
X101294180Y-50960498D01*
X101174482Y-50924188D01*
X101050000Y-50911928D01*
X100536857Y-50914722D01*
X100845044Y-50606535D01*
X100901898Y-50595226D01*
X101090256Y-50517205D01*
X101259774Y-50403937D01*
X101403937Y-50259774D01*
X101517205Y-50090256D01*
X101595226Y-49901898D01*
X101606535Y-49845044D01*
X101995050Y-49456529D01*
X102028817Y-49428817D01*
X102064799Y-49384974D01*
X102139411Y-49294059D01*
X102175516Y-49226511D01*
X102221589Y-49140313D01*
X102272195Y-48973490D01*
X102285000Y-48843477D01*
X102285000Y-48843469D01*
X102289281Y-48800000D01*
X102285000Y-48756531D01*
X102285000Y-47684625D01*
X102374482Y-47675812D01*
X102494180Y-47639502D01*
X102604494Y-47580537D01*
X102701185Y-47501185D01*
X102780537Y-47404494D01*
X102839502Y-47294180D01*
X102875812Y-47174482D01*
X102888072Y-47050000D01*
X102888072Y-45350000D01*
X102875812Y-45225518D01*
X102839502Y-45105820D01*
X102780537Y-44995506D01*
X102701185Y-44898815D01*
X102604494Y-44819463D01*
X102494180Y-44760498D01*
X102374482Y-44724188D01*
X102285000Y-44715375D01*
X102285000Y-43566578D01*
X104345044Y-41506535D01*
X104401898Y-41495226D01*
X104590256Y-41417205D01*
X104759774Y-41303937D01*
X104903937Y-41159774D01*
X105017205Y-40990256D01*
X105095226Y-40801898D01*
X105106535Y-40745043D01*
X106595049Y-39256530D01*
X106628817Y-39228817D01*
X106683106Y-39162667D01*
X106739411Y-39094059D01*
X106770336Y-39036201D01*
X106821589Y-38940313D01*
X106872195Y-38773490D01*
X106885000Y-38643477D01*
X106885000Y-38643469D01*
X106889281Y-38600000D01*
X106885000Y-38556531D01*
X106885000Y-37138454D01*
X106917205Y-37090256D01*
X106995226Y-36901898D01*
X107035000Y-36701939D01*
X107035000Y-36498061D01*
X106995226Y-36298102D01*
X106917205Y-36109744D01*
X106803937Y-35940226D01*
X106659774Y-35796063D01*
X106490256Y-35682795D01*
X106301898Y-35604774D01*
X106101939Y-35565000D01*
X105898061Y-35565000D01*
X105698102Y-35604774D01*
X105509744Y-35682795D01*
X105340226Y-35796063D01*
X105196063Y-35940226D01*
X105082795Y-36109744D01*
X105004774Y-36298102D01*
X104965000Y-36498061D01*
X104965000Y-36701939D01*
X105004774Y-36901898D01*
X105082795Y-37090256D01*
X105115000Y-37138455D01*
X105115001Y-38233420D01*
X103854957Y-39493465D01*
X103798102Y-39504774D01*
X103609744Y-39582795D01*
X103440226Y-39696063D01*
X103296063Y-39840226D01*
X103182795Y-40009744D01*
X103104774Y-40198102D01*
X103093465Y-40254956D01*
X100804951Y-42543471D01*
X100771184Y-42571183D01*
X100743471Y-42604951D01*
X100743468Y-42604954D01*
X100660590Y-42705941D01*
X100578412Y-42859687D01*
X100527805Y-43026510D01*
X100510719Y-43200000D01*
X100515001Y-43243479D01*
X100515000Y-44715375D01*
X100425518Y-44724188D01*
X100305820Y-44760498D01*
X100195506Y-44819463D01*
X100098815Y-44898815D01*
X100019463Y-44995506D01*
X99960498Y-45105820D01*
X99936034Y-45186466D01*
X99860269Y-45102412D01*
X99626920Y-44928359D01*
X99364099Y-44803175D01*
X99216890Y-44758524D01*
X98987000Y-44879845D01*
X98987000Y-46073000D01*
X99007000Y-46073000D01*
X99007000Y-46327000D01*
X98987000Y-46327000D01*
X98987000Y-47520155D01*
X99216890Y-47641476D01*
X99364099Y-47596825D01*
X99626920Y-47471641D01*
X99860269Y-47297588D01*
X99936034Y-47213534D01*
X99960498Y-47294180D01*
X100019463Y-47404494D01*
X100098815Y-47501185D01*
X100195506Y-47580537D01*
X100305820Y-47639502D01*
X100425518Y-47675812D01*
X100515000Y-47684625D01*
X100515000Y-48433421D01*
X100354956Y-48593465D01*
X100298102Y-48604774D01*
X100109744Y-48682795D01*
X99940226Y-48796063D01*
X99796063Y-48940226D01*
X99682795Y-49109744D01*
X99604774Y-49298102D01*
X99593465Y-49354956D01*
X97995733Y-50952689D01*
X97806260Y-50915000D01*
X97513740Y-50915000D01*
X97226842Y-50972068D01*
X96956589Y-51084010D01*
X96713368Y-51246525D01*
X96506525Y-51453368D01*
X96390000Y-51627760D01*
X96273475Y-51453368D01*
X96066632Y-51246525D01*
X95855000Y-51105117D01*
X95855000Y-47704446D01*
X95924103Y-47635344D01*
X96173740Y-47685000D01*
X96466260Y-47685000D01*
X96753158Y-47627932D01*
X97023411Y-47515990D01*
X97266632Y-47353475D01*
X97473475Y-47146632D01*
X97595195Y-46964466D01*
X97664822Y-47081355D01*
X97859731Y-47297588D01*
X98093080Y-47471641D01*
X98355901Y-47596825D01*
X98503110Y-47641476D01*
X98733000Y-47520155D01*
X98733000Y-46327000D01*
X98713000Y-46327000D01*
X98713000Y-46073000D01*
X98733000Y-46073000D01*
X98733000Y-44879845D01*
X98503110Y-44758524D01*
X98355901Y-44803175D01*
X98093080Y-44928359D01*
X97859731Y-45102412D01*
X97664822Y-45318645D01*
X97595195Y-45435534D01*
X97473475Y-45253368D01*
X97266632Y-45046525D01*
X97023411Y-44884010D01*
X96753158Y-44772068D01*
X96466260Y-44715000D01*
X96173740Y-44715000D01*
X95886842Y-44772068D01*
X95616589Y-44884010D01*
X95373368Y-45046525D01*
X95166525Y-45253368D01*
X95050000Y-45427760D01*
X94933475Y-45253368D01*
X94726632Y-45046525D01*
X94483411Y-44884010D01*
X94213158Y-44772068D01*
X93926260Y-44715000D01*
X93633740Y-44715000D01*
X93346842Y-44772068D01*
X93076589Y-44884010D01*
X92833368Y-45046525D01*
X92626525Y-45253368D01*
X92464010Y-45496589D01*
X92352068Y-45766842D01*
X92295000Y-46053740D01*
X92295000Y-46346260D01*
X92344656Y-46595897D01*
X92085808Y-46854746D01*
X92057763Y-46877762D01*
X91965914Y-46989680D01*
X91925167Y-47065913D01*
X91897664Y-47117367D01*
X91855635Y-47255915D01*
X91841444Y-47400000D01*
X91845001Y-47436115D01*
X91845000Y-51105117D01*
X91633368Y-51246525D01*
X91426525Y-51453368D01*
X91264010Y-51696589D01*
X91152068Y-51966842D01*
X91095000Y-52253740D01*
X91095000Y-52546260D01*
X91152068Y-52833158D01*
X91264010Y-53103411D01*
X91426525Y-53346632D01*
X91633368Y-53553475D01*
X91876589Y-53715990D01*
X92146842Y-53827932D01*
X92433740Y-53885000D01*
X92726260Y-53885000D01*
X93013158Y-53827932D01*
X93283411Y-53715990D01*
X93526632Y-53553475D01*
X93733475Y-53346632D01*
X93850000Y-53172240D01*
X93966525Y-53346632D01*
X94173368Y-53553475D01*
X94416589Y-53715990D01*
X94686842Y-53827932D01*
X94973740Y-53885000D01*
X95063422Y-53885000D01*
X91053422Y-57895000D01*
X87330078Y-57895000D01*
X87219608Y-57760392D01*
X87001101Y-57581068D01*
X86868142Y-57510000D01*
X87001101Y-57438932D01*
X87219608Y-57259608D01*
X87398932Y-57041101D01*
X87532182Y-56791808D01*
X87614236Y-56521309D01*
X87641943Y-56240000D01*
X87614236Y-55958691D01*
X87532182Y-55688192D01*
X87398932Y-55438899D01*
X87219608Y-55220392D01*
X87001101Y-55041068D01*
X86868142Y-54970000D01*
X87001101Y-54898932D01*
X87219608Y-54719608D01*
X87398932Y-54501101D01*
X87532182Y-54251808D01*
X87614236Y-53981309D01*
X87641943Y-53700000D01*
X87614236Y-53418691D01*
X87532182Y-53148192D01*
X87398932Y-52898899D01*
X87219608Y-52680392D01*
X87001101Y-52501068D01*
X86868142Y-52430000D01*
X87001101Y-52358932D01*
X87219608Y-52179608D01*
X87398932Y-51961101D01*
X87532182Y-51711808D01*
X87614236Y-51441309D01*
X87641943Y-51160000D01*
X87614236Y-50878691D01*
X87532182Y-50608192D01*
X87398932Y-50358899D01*
X87219608Y-50140392D01*
X87001101Y-49961068D01*
X86868142Y-49890000D01*
X87001101Y-49818932D01*
X87219608Y-49639608D01*
X87398932Y-49421101D01*
X87532182Y-49171808D01*
X87614236Y-48901309D01*
X87641943Y-48620000D01*
X87614236Y-48338691D01*
X87532182Y-48068192D01*
X87398932Y-47818899D01*
X87219608Y-47600392D01*
X87001101Y-47421068D01*
X86868142Y-47350000D01*
X87001101Y-47278932D01*
X87219608Y-47099608D01*
X87398932Y-46881101D01*
X87432157Y-46818941D01*
X87542247Y-46785546D01*
X87674276Y-46714974D01*
X87790001Y-46620001D01*
X87813804Y-46590997D01*
X89511004Y-44893798D01*
X89540001Y-44870001D01*
X89634974Y-44754276D01*
X89705546Y-44622247D01*
X89749003Y-44478986D01*
X89760000Y-44367333D01*
X89760000Y-44367325D01*
X89763676Y-44330000D01*
X89760000Y-44292675D01*
X89760000Y-41452323D01*
X89763676Y-41414998D01*
X89760000Y-41377673D01*
X89760000Y-41377665D01*
X89749003Y-41266012D01*
X89705546Y-41122751D01*
X89634974Y-40990722D01*
X89540001Y-40874997D01*
X89511003Y-40851199D01*
X86948806Y-38289003D01*
X86925003Y-38259999D01*
X86809278Y-38165026D01*
X86677249Y-38094454D01*
X86533988Y-38050997D01*
X86422335Y-38040000D01*
X86422324Y-38040000D01*
X86385002Y-38036324D01*
X86347680Y-38040000D01*
X84127000Y-38040000D01*
X84127000Y-34127000D01*
X110715001Y-34127000D01*
X110715000Y-35966353D01*
X110711686Y-36000000D01*
X110724912Y-36134283D01*
X110764081Y-36263406D01*
X110827688Y-36382407D01*
X110913289Y-36486711D01*
X111017593Y-36572312D01*
X111136594Y-36635919D01*
X111265717Y-36675088D01*
X111400000Y-36688314D01*
X111433647Y-36685000D01*
X111473000Y-36685000D01*
X111473000Y-36815000D01*
X111433647Y-36815000D01*
X111400000Y-36811686D01*
X111366353Y-36815000D01*
X111265717Y-36824912D01*
X111136594Y-36864081D01*
X111017593Y-36927688D01*
X110913289Y-37013289D01*
X110827688Y-37117593D01*
X110764081Y-37236594D01*
X110724912Y-37365717D01*
X110711686Y-37500000D01*
X110715001Y-37533657D01*
X110715000Y-39566353D01*
X110711686Y-39600000D01*
X110724912Y-39734283D01*
X110764081Y-39863406D01*
X110827688Y-39982407D01*
X110913289Y-40086711D01*
X110942889Y-40111003D01*
X111017593Y-40172312D01*
X111136594Y-40235919D01*
X111232461Y-40265000D01*
X110294264Y-40265000D01*
X110258932Y-40198899D01*
X110079608Y-39980392D01*
X109861101Y-39801068D01*
X109611808Y-39667818D01*
X109341309Y-39585764D01*
X109130492Y-39565000D01*
X108589508Y-39565000D01*
X108378691Y-39585764D01*
X108108192Y-39667818D01*
X107858899Y-39801068D01*
X107640392Y-39980392D01*
X107461068Y-40198899D01*
X107327818Y-40448192D01*
X107245764Y-40718691D01*
X107218057Y-41000000D01*
X107245764Y-41281309D01*
X107327818Y-41551808D01*
X107461068Y-41801101D01*
X107640392Y-42019608D01*
X107858899Y-42198932D01*
X107991858Y-42270000D01*
X107858899Y-42341068D01*
X107640392Y-42520392D01*
X107461068Y-42738899D01*
X107327818Y-42988192D01*
X107245764Y-43258691D01*
X107218057Y-43540000D01*
X107245764Y-43821309D01*
X107327818Y-44091808D01*
X107461068Y-44341101D01*
X107640392Y-44559608D01*
X107858899Y-44738932D01*
X107991858Y-44810000D01*
X107858899Y-44881068D01*
X107640392Y-45060392D01*
X107461068Y-45278899D01*
X107327818Y-45528192D01*
X107245764Y-45798691D01*
X107218057Y-46080000D01*
X107245764Y-46361309D01*
X107327818Y-46631808D01*
X107461068Y-46881101D01*
X107640392Y-47099608D01*
X107858899Y-47278932D01*
X107991858Y-47350000D01*
X107858899Y-47421068D01*
X107640392Y-47600392D01*
X107461068Y-47818899D01*
X107327818Y-48068192D01*
X107245764Y-48338691D01*
X107218057Y-48620000D01*
X107245764Y-48901309D01*
X107327818Y-49171808D01*
X107461068Y-49421101D01*
X107640392Y-49639608D01*
X107858899Y-49818932D01*
X107991858Y-49890000D01*
X107858899Y-49961068D01*
X107640392Y-50140392D01*
X107461068Y-50358899D01*
X107327818Y-50608192D01*
X107245764Y-50878691D01*
X107218057Y-51160000D01*
X107245764Y-51441309D01*
X107327818Y-51711808D01*
X107461068Y-51961101D01*
X107640392Y-52179608D01*
X107858899Y-52358932D01*
X107991858Y-52430000D01*
X107858899Y-52501068D01*
X107640392Y-52680392D01*
X107461068Y-52898899D01*
X107327818Y-53148192D01*
X107245764Y-53418691D01*
X107218057Y-53700000D01*
X107245764Y-53981309D01*
X107327818Y-54251808D01*
X107461068Y-54501101D01*
X107640392Y-54719608D01*
X107858899Y-54898932D01*
X107988345Y-54968122D01*
X107970773Y-54975570D01*
X107737338Y-55134327D01*
X107539361Y-55335575D01*
X107384449Y-55571579D01*
X107278556Y-55833270D01*
X107268096Y-55890961D01*
X107390085Y-56113000D01*
X108733000Y-56113000D01*
X108733000Y-56093000D01*
X108987000Y-56093000D01*
X108987000Y-56113000D01*
X110329915Y-56113000D01*
X110451904Y-55890961D01*
X110441444Y-55833270D01*
X110335551Y-55571579D01*
X110180639Y-55335575D01*
X109982662Y-55134327D01*
X109749227Y-54975570D01*
X109731655Y-54968122D01*
X109861101Y-54898932D01*
X109966480Y-54812449D01*
X111275000Y-54812449D01*
X111275000Y-55197551D01*
X111350130Y-55575252D01*
X111497502Y-55931040D01*
X111711453Y-56251240D01*
X111983760Y-56523547D01*
X112303960Y-56737498D01*
X112659748Y-56884870D01*
X113037449Y-56960000D01*
X113422551Y-56960000D01*
X113800252Y-56884870D01*
X114156040Y-56737498D01*
X114476240Y-56523547D01*
X114748547Y-56251240D01*
X114962498Y-55931040D01*
X115076054Y-55656890D01*
X115558524Y-55656890D01*
X115603175Y-55804099D01*
X115728359Y-56066920D01*
X115902412Y-56300269D01*
X116118645Y-56495178D01*
X116368748Y-56644157D01*
X116643109Y-56741481D01*
X116873000Y-56620814D01*
X116873000Y-55427000D01*
X117127000Y-55427000D01*
X117127000Y-56620814D01*
X117356891Y-56741481D01*
X117631252Y-56644157D01*
X117881355Y-56495178D01*
X118097588Y-56300269D01*
X118271641Y-56066920D01*
X118396825Y-55804099D01*
X118441476Y-55656890D01*
X118320155Y-55427000D01*
X117127000Y-55427000D01*
X116873000Y-55427000D01*
X115679845Y-55427000D01*
X115558524Y-55656890D01*
X115076054Y-55656890D01*
X115109870Y-55575252D01*
X115185000Y-55197551D01*
X115185000Y-54812449D01*
X115109870Y-54434748D01*
X114962498Y-54078960D01*
X114748547Y-53758760D01*
X114476240Y-53486453D01*
X114156040Y-53272502D01*
X113800252Y-53125130D01*
X113422551Y-53050000D01*
X113037449Y-53050000D01*
X112659748Y-53125130D01*
X112303960Y-53272502D01*
X111983760Y-53486453D01*
X111711453Y-53758760D01*
X111497502Y-54078960D01*
X111350130Y-54434748D01*
X111275000Y-54812449D01*
X109966480Y-54812449D01*
X110079608Y-54719608D01*
X110258932Y-54501101D01*
X110392182Y-54251808D01*
X110474236Y-53981309D01*
X110501943Y-53700000D01*
X110474236Y-53418691D01*
X110392182Y-53148192D01*
X110258932Y-52898899D01*
X110079608Y-52680392D01*
X109861101Y-52501068D01*
X109728142Y-52430000D01*
X109861101Y-52358932D01*
X110079608Y-52179608D01*
X110258932Y-51961101D01*
X110392182Y-51711808D01*
X110474236Y-51441309D01*
X110501943Y-51160000D01*
X110474236Y-50878691D01*
X110392182Y-50608192D01*
X110258932Y-50358899D01*
X110079608Y-50140392D01*
X109861101Y-49961068D01*
X109728142Y-49890000D01*
X109861101Y-49818932D01*
X110079608Y-49639608D01*
X110258932Y-49421101D01*
X110392182Y-49171808D01*
X110474236Y-48901309D01*
X110501943Y-48620000D01*
X110474236Y-48338691D01*
X110392182Y-48068192D01*
X110258932Y-47818899D01*
X110079608Y-47600392D01*
X109861101Y-47421068D01*
X109728142Y-47350000D01*
X109861101Y-47278932D01*
X110079608Y-47099608D01*
X110258932Y-46881101D01*
X110392182Y-46631808D01*
X110474236Y-46361309D01*
X110501943Y-46080000D01*
X110474236Y-45798691D01*
X110392182Y-45528192D01*
X110258932Y-45278899D01*
X110079608Y-45060392D01*
X109861101Y-44881068D01*
X109728142Y-44810000D01*
X109861101Y-44738932D01*
X110079608Y-44559608D01*
X110258932Y-44341101D01*
X110294264Y-44275000D01*
X110735554Y-44275000D01*
X114634746Y-48174193D01*
X114657762Y-48202238D01*
X114769680Y-48294087D01*
X114897367Y-48362337D01*
X114966839Y-48383411D01*
X115035914Y-48404365D01*
X115050132Y-48405765D01*
X115143895Y-48415000D01*
X115143902Y-48415000D01*
X115179999Y-48418555D01*
X115216096Y-48415000D01*
X115705117Y-48415000D01*
X115846525Y-48626632D01*
X116053368Y-48833475D01*
X116227760Y-48950000D01*
X116053368Y-49066525D01*
X115846525Y-49273368D01*
X115684010Y-49516589D01*
X115572068Y-49786842D01*
X115515000Y-50073740D01*
X115515000Y-50366260D01*
X115572068Y-50653158D01*
X115684010Y-50923411D01*
X115846525Y-51166632D01*
X116053368Y-51373475D01*
X116227760Y-51490000D01*
X116053368Y-51606525D01*
X115846525Y-51813368D01*
X115684010Y-52056589D01*
X115572068Y-52326842D01*
X115515000Y-52613740D01*
X115515000Y-52906260D01*
X115572068Y-53193158D01*
X115684010Y-53463411D01*
X115846525Y-53706632D01*
X116053368Y-53913475D01*
X116235534Y-54035195D01*
X116118645Y-54104822D01*
X115902412Y-54299731D01*
X115728359Y-54533080D01*
X115603175Y-54795901D01*
X115558524Y-54943110D01*
X115679845Y-55173000D01*
X116873000Y-55173000D01*
X116873000Y-55153000D01*
X117127000Y-55153000D01*
X117127000Y-55173000D01*
X118320155Y-55173000D01*
X118441476Y-54943110D01*
X118396825Y-54795901D01*
X118271641Y-54533080D01*
X118097588Y-54299731D01*
X117881355Y-54104822D01*
X117764466Y-54035195D01*
X117946632Y-53913475D01*
X118153475Y-53706632D01*
X118315990Y-53463411D01*
X118427932Y-53193158D01*
X118485000Y-52906260D01*
X118485000Y-52613740D01*
X118427932Y-52326842D01*
X118315990Y-52056589D01*
X118153475Y-51813368D01*
X117946632Y-51606525D01*
X117772240Y-51490000D01*
X117946632Y-51373475D01*
X118153475Y-51166632D01*
X118315990Y-50923411D01*
X118427932Y-50653158D01*
X118485000Y-50366260D01*
X118485000Y-50073740D01*
X118427932Y-49786842D01*
X118315990Y-49516589D01*
X118153475Y-49273368D01*
X117946632Y-49066525D01*
X117772240Y-48950000D01*
X117946632Y-48833475D01*
X118153475Y-48626632D01*
X118315990Y-48383411D01*
X118427932Y-48113158D01*
X118485000Y-47826260D01*
X118485000Y-47533740D01*
X118427932Y-47246842D01*
X118315990Y-46976589D01*
X118153475Y-46733368D01*
X117946632Y-46526525D01*
X117772240Y-46410000D01*
X117946632Y-46293475D01*
X118153475Y-46086632D01*
X118315990Y-45843411D01*
X118427932Y-45573158D01*
X118485000Y-45286260D01*
X118485000Y-44993740D01*
X118427932Y-44706842D01*
X118315990Y-44436589D01*
X118153475Y-44193368D01*
X118021620Y-44061513D01*
X118094180Y-44039502D01*
X118204494Y-43980537D01*
X118301185Y-43901185D01*
X118380537Y-43804494D01*
X118439502Y-43694180D01*
X118475812Y-43574482D01*
X118488072Y-43450000D01*
X118488072Y-41750000D01*
X118475812Y-41625518D01*
X118439502Y-41505820D01*
X118380537Y-41395506D01*
X118301185Y-41298815D01*
X118204494Y-41219463D01*
X118094180Y-41160498D01*
X117974482Y-41124188D01*
X117850000Y-41111928D01*
X116150000Y-41111928D01*
X116025518Y-41124188D01*
X115905820Y-41160498D01*
X115795506Y-41219463D01*
X115698815Y-41298815D01*
X115619463Y-41395506D01*
X115560498Y-41505820D01*
X115524188Y-41625518D01*
X115511928Y-41750000D01*
X115511928Y-43450000D01*
X115524188Y-43574482D01*
X115560498Y-43694180D01*
X115619463Y-43804494D01*
X115698815Y-43901185D01*
X115795506Y-43980537D01*
X115905820Y-44039502D01*
X115978380Y-44061513D01*
X115868629Y-44171264D01*
X112203178Y-40505813D01*
X112180157Y-40477762D01*
X112068239Y-40385913D01*
X111940552Y-40317663D01*
X111832876Y-40285000D01*
X112566353Y-40285000D01*
X112600000Y-40288314D01*
X112734283Y-40275088D01*
X112863406Y-40235919D01*
X112982407Y-40172312D01*
X113086711Y-40086711D01*
X113172312Y-39982407D01*
X113235919Y-39863406D01*
X113275088Y-39734283D01*
X113275805Y-39727000D01*
X113324195Y-39727000D01*
X113324912Y-39734283D01*
X113364081Y-39863406D01*
X113427688Y-39982407D01*
X113513289Y-40086711D01*
X113542889Y-40111003D01*
X113617593Y-40172312D01*
X113736594Y-40235919D01*
X113865717Y-40275088D01*
X114000000Y-40288314D01*
X114033647Y-40285000D01*
X116166353Y-40285000D01*
X116200000Y-40288314D01*
X116334283Y-40275088D01*
X116463406Y-40235919D01*
X116582407Y-40172312D01*
X116686711Y-40086711D01*
X116772312Y-39982407D01*
X116835919Y-39863406D01*
X116875088Y-39734283D01*
X116875805Y-39727000D01*
X118800000Y-39727000D01*
X118824776Y-39724560D01*
X118848601Y-39717333D01*
X118870557Y-39705597D01*
X118873000Y-39703592D01*
X118873000Y-88873000D01*
X48127000Y-88873000D01*
X48127000Y-87515565D01*
X55314040Y-87515565D01*
X55381020Y-87755656D01*
X55630048Y-87872756D01*
X55897135Y-87939023D01*
X56172017Y-87951910D01*
X56444133Y-87910922D01*
X56703023Y-87817636D01*
X56818980Y-87755656D01*
X56885960Y-87515565D01*
X56100000Y-86729605D01*
X55314040Y-87515565D01*
X48127000Y-87515565D01*
X48127000Y-86622017D01*
X54698090Y-86622017D01*
X54739078Y-86894133D01*
X54832364Y-87153023D01*
X54894344Y-87268980D01*
X55134435Y-87335960D01*
X55920395Y-86550000D01*
X56279605Y-86550000D01*
X57065565Y-87335960D01*
X57305656Y-87268980D01*
X57422756Y-87019952D01*
X57489023Y-86752865D01*
X57501910Y-86477983D01*
X57460922Y-86205867D01*
X57367636Y-85946977D01*
X57305656Y-85831020D01*
X57065565Y-85764040D01*
X56279605Y-86550000D01*
X55920395Y-86550000D01*
X55134435Y-85764040D01*
X54894344Y-85831020D01*
X54777244Y-86080048D01*
X54710977Y-86347135D01*
X54698090Y-86622017D01*
X48127000Y-86622017D01*
X48127000Y-85584435D01*
X55314040Y-85584435D01*
X56100000Y-86370395D01*
X56885960Y-85584435D01*
X56818980Y-85344344D01*
X56569952Y-85227244D01*
X56302865Y-85160977D01*
X56027983Y-85148090D01*
X55755867Y-85189078D01*
X55496977Y-85282364D01*
X55381020Y-85344344D01*
X55314040Y-85584435D01*
X48127000Y-85584435D01*
X48127000Y-84802449D01*
X64795000Y-84802449D01*
X64795000Y-85187551D01*
X64870130Y-85565252D01*
X65017502Y-85921040D01*
X65231453Y-86241240D01*
X65503760Y-86513547D01*
X65823960Y-86727498D01*
X66179748Y-86874870D01*
X66557449Y-86950000D01*
X66942551Y-86950000D01*
X67320252Y-86874870D01*
X67676040Y-86727498D01*
X67996240Y-86513547D01*
X68268547Y-86241240D01*
X68482498Y-85921040D01*
X68629870Y-85565252D01*
X68693793Y-85243891D01*
X83585000Y-85243891D01*
X83585000Y-85556109D01*
X83645911Y-85862327D01*
X83765391Y-86150779D01*
X83938850Y-86410379D01*
X84159621Y-86631150D01*
X84419221Y-86804609D01*
X84707673Y-86924089D01*
X85013891Y-86985000D01*
X85326109Y-86985000D01*
X85632327Y-86924089D01*
X85920779Y-86804609D01*
X86180379Y-86631150D01*
X86401150Y-86410379D01*
X86574609Y-86150779D01*
X86694089Y-85862327D01*
X86755000Y-85556109D01*
X86755000Y-85243891D01*
X91245000Y-85243891D01*
X91245000Y-85556109D01*
X91305911Y-85862327D01*
X91425391Y-86150779D01*
X91598850Y-86410379D01*
X91819621Y-86631150D01*
X92079221Y-86804609D01*
X92367673Y-86924089D01*
X92673891Y-86985000D01*
X92986109Y-86985000D01*
X93292327Y-86924089D01*
X93580779Y-86804609D01*
X93840379Y-86631150D01*
X94061150Y-86410379D01*
X94234609Y-86150779D01*
X94354089Y-85862327D01*
X94415000Y-85556109D01*
X94415000Y-85243891D01*
X97585000Y-85243891D01*
X97585000Y-85556109D01*
X97645911Y-85862327D01*
X97765391Y-86150779D01*
X97938850Y-86410379D01*
X98159621Y-86631150D01*
X98419221Y-86804609D01*
X98707673Y-86924089D01*
X99013891Y-86985000D01*
X99326109Y-86985000D01*
X99632327Y-86924089D01*
X99920779Y-86804609D01*
X100180379Y-86631150D01*
X100401150Y-86410379D01*
X100574609Y-86150779D01*
X100694089Y-85862327D01*
X100755000Y-85556109D01*
X100755000Y-85243891D01*
X105245000Y-85243891D01*
X105245000Y-85556109D01*
X105305911Y-85862327D01*
X105425391Y-86150779D01*
X105598850Y-86410379D01*
X105819621Y-86631150D01*
X106079221Y-86804609D01*
X106367673Y-86924089D01*
X106673891Y-86985000D01*
X106986109Y-86985000D01*
X107292327Y-86924089D01*
X107580779Y-86804609D01*
X107840379Y-86631150D01*
X108061150Y-86410379D01*
X108234609Y-86150779D01*
X108354089Y-85862327D01*
X108415000Y-85556109D01*
X108415000Y-85243891D01*
X108354089Y-84937673D01*
X108234609Y-84649221D01*
X108061150Y-84389621D01*
X107840379Y-84168850D01*
X107580779Y-83995391D01*
X107292327Y-83875911D01*
X106986109Y-83815000D01*
X106673891Y-83815000D01*
X106367673Y-83875911D01*
X106079221Y-83995391D01*
X105819621Y-84168850D01*
X105598850Y-84389621D01*
X105425391Y-84649221D01*
X105305911Y-84937673D01*
X105245000Y-85243891D01*
X100755000Y-85243891D01*
X100694089Y-84937673D01*
X100574609Y-84649221D01*
X100401150Y-84389621D01*
X100180379Y-84168850D01*
X99920779Y-83995391D01*
X99632327Y-83875911D01*
X99326109Y-83815000D01*
X99013891Y-83815000D01*
X98707673Y-83875911D01*
X98419221Y-83995391D01*
X98159621Y-84168850D01*
X97938850Y-84389621D01*
X97765391Y-84649221D01*
X97645911Y-84937673D01*
X97585000Y-85243891D01*
X94415000Y-85243891D01*
X94354089Y-84937673D01*
X94234609Y-84649221D01*
X94061150Y-84389621D01*
X93840379Y-84168850D01*
X93580779Y-83995391D01*
X93292327Y-83875911D01*
X92986109Y-83815000D01*
X92673891Y-83815000D01*
X92367673Y-83875911D01*
X92079221Y-83995391D01*
X91819621Y-84168850D01*
X91598850Y-84389621D01*
X91425391Y-84649221D01*
X91305911Y-84937673D01*
X91245000Y-85243891D01*
X86755000Y-85243891D01*
X86694089Y-84937673D01*
X86574609Y-84649221D01*
X86401150Y-84389621D01*
X86180379Y-84168850D01*
X85920779Y-83995391D01*
X85632327Y-83875911D01*
X85326109Y-83815000D01*
X85013891Y-83815000D01*
X84707673Y-83875911D01*
X84419221Y-83995391D01*
X84159621Y-84168850D01*
X83938850Y-84389621D01*
X83765391Y-84649221D01*
X83645911Y-84937673D01*
X83585000Y-85243891D01*
X68693793Y-85243891D01*
X68705000Y-85187551D01*
X68705000Y-84802449D01*
X68629870Y-84424748D01*
X68482498Y-84068960D01*
X68268547Y-83748760D01*
X67996240Y-83476453D01*
X67676040Y-83262502D01*
X67320252Y-83115130D01*
X66942551Y-83040000D01*
X66557449Y-83040000D01*
X66179748Y-83115130D01*
X65823960Y-83262502D01*
X65503760Y-83476453D01*
X65231453Y-83748760D01*
X65017502Y-84068960D01*
X64870130Y-84424748D01*
X64795000Y-84802449D01*
X48127000Y-84802449D01*
X48127000Y-74912408D01*
X54703000Y-74912408D01*
X54703000Y-75187592D01*
X54756686Y-75457490D01*
X54861995Y-75711727D01*
X55014880Y-75940535D01*
X55209465Y-76135120D01*
X55438273Y-76288005D01*
X55692510Y-76393314D01*
X55962408Y-76447000D01*
X56237592Y-76447000D01*
X56507490Y-76393314D01*
X56761727Y-76288005D01*
X56990535Y-76135120D01*
X57185120Y-75940535D01*
X57338005Y-75711727D01*
X57443314Y-75457490D01*
X57497000Y-75187592D01*
X57497000Y-74912408D01*
X57443314Y-74642510D01*
X57338005Y-74388273D01*
X57185120Y-74159465D01*
X56990535Y-73964880D01*
X56761727Y-73811995D01*
X56507490Y-73706686D01*
X56237592Y-73653000D01*
X55962408Y-73653000D01*
X55692510Y-73706686D01*
X55438273Y-73811995D01*
X55209465Y-73964880D01*
X55014880Y-74159465D01*
X54861995Y-74388273D01*
X54756686Y-74642510D01*
X54703000Y-74912408D01*
X48127000Y-74912408D01*
X48127000Y-34127000D01*
X56873000Y-34127000D01*
X56873000Y-38250000D01*
G04 #@! TA.AperFunction,Conductor*
D24*
G36*
X56873000Y-38250000D02*
G01*
X56875440Y-38274776D01*
X56882667Y-38298601D01*
X56894403Y-38320557D01*
X56910197Y-38339803D01*
X56929443Y-38355597D01*
X56951399Y-38367333D01*
X56975224Y-38374560D01*
X57000000Y-38377000D01*
X60348198Y-38377000D01*
X60089002Y-38636197D01*
X60059999Y-38659999D01*
X60004871Y-38727174D01*
X59965026Y-38775724D01*
X59928289Y-38844454D01*
X59894454Y-38907754D01*
X59850997Y-39051015D01*
X59840000Y-39162668D01*
X59840000Y-39162678D01*
X59836324Y-39200000D01*
X59840000Y-39237322D01*
X59840001Y-49362658D01*
X59840000Y-49362668D01*
X59840000Y-49896289D01*
X59796063Y-49940226D01*
X59682795Y-50109744D01*
X59604774Y-50298102D01*
X59565000Y-50498061D01*
X59565000Y-50701939D01*
X59604774Y-50901898D01*
X59682795Y-51090256D01*
X59796063Y-51259774D01*
X59940226Y-51403937D01*
X60109744Y-51517205D01*
X60248791Y-51574800D01*
X60098102Y-51604774D01*
X59909744Y-51682795D01*
X59740226Y-51796063D01*
X59671289Y-51865000D01*
X56536105Y-51865000D01*
X56500000Y-51861444D01*
X56355915Y-51875635D01*
X56217366Y-51917663D01*
X56136100Y-51961101D01*
X56089680Y-51985913D01*
X55977762Y-52077762D01*
X55954746Y-52105807D01*
X53005808Y-55054746D01*
X52977762Y-55077763D01*
X52885913Y-55189681D01*
X52817663Y-55317368D01*
X52788384Y-55413887D01*
X52775635Y-55455915D01*
X52761444Y-55600000D01*
X52765000Y-55636105D01*
X52765001Y-62671288D01*
X52696063Y-62740226D01*
X52582795Y-62909744D01*
X52504774Y-63098102D01*
X52465000Y-63298061D01*
X52465000Y-63501939D01*
X52504774Y-63701898D01*
X52582795Y-63890256D01*
X52696063Y-64059774D01*
X52840226Y-64203937D01*
X53009744Y-64317205D01*
X53198102Y-64395226D01*
X53398061Y-64435000D01*
X53601939Y-64435000D01*
X53801898Y-64395226D01*
X53990256Y-64317205D01*
X54159774Y-64203937D01*
X54303937Y-64059774D01*
X54417205Y-63890256D01*
X54495226Y-63701898D01*
X54535000Y-63501939D01*
X54535000Y-63298061D01*
X54495226Y-63098102D01*
X54417205Y-62909744D01*
X54303937Y-62740226D01*
X54235000Y-62671289D01*
X54235000Y-55904446D01*
X56804447Y-53335000D01*
X59671289Y-53335000D01*
X59740226Y-53403937D01*
X59909744Y-53517205D01*
X60098102Y-53595226D01*
X60298061Y-53635000D01*
X60501939Y-53635000D01*
X60701898Y-53595226D01*
X60890256Y-53517205D01*
X61059774Y-53403937D01*
X61203937Y-53259774D01*
X61317205Y-53090256D01*
X61395226Y-52901898D01*
X61435000Y-52701939D01*
X61435000Y-52498061D01*
X61395226Y-52298102D01*
X61317205Y-52109744D01*
X61203937Y-51940226D01*
X61059774Y-51796063D01*
X60890256Y-51682795D01*
X60751209Y-51625200D01*
X60901898Y-51595226D01*
X61090256Y-51517205D01*
X61259774Y-51403937D01*
X61403937Y-51259774D01*
X61517205Y-51090256D01*
X61595226Y-50901898D01*
X61635000Y-50701939D01*
X61635000Y-50498061D01*
X61595226Y-50298102D01*
X61517205Y-50109744D01*
X61403937Y-49940226D01*
X61360000Y-49896289D01*
X61360000Y-39560000D01*
X72165198Y-39560000D01*
X70395969Y-41329230D01*
X70368103Y-41334773D01*
X70179745Y-41412794D01*
X70010227Y-41526062D01*
X69866064Y-41670225D01*
X69752796Y-41839743D01*
X69674775Y-42028101D01*
X69635001Y-42228060D01*
X69635001Y-42431938D01*
X69674775Y-42631897D01*
X69752796Y-42820255D01*
X69866064Y-42989773D01*
X69916291Y-43040000D01*
X65703711Y-43040000D01*
X65659774Y-42996063D01*
X65490256Y-42882795D01*
X65301898Y-42804774D01*
X65101939Y-42765000D01*
X64898061Y-42765000D01*
X64698102Y-42804774D01*
X64509744Y-42882795D01*
X64340226Y-42996063D01*
X64196063Y-43140226D01*
X64082795Y-43309744D01*
X64004774Y-43498102D01*
X63965000Y-43698061D01*
X63965000Y-43901939D01*
X64004774Y-44101898D01*
X64082795Y-44290256D01*
X64196063Y-44459774D01*
X64340226Y-44603937D01*
X64509744Y-44717205D01*
X64698102Y-44795226D01*
X64898061Y-44835000D01*
X65101939Y-44835000D01*
X65301898Y-44795226D01*
X65490256Y-44717205D01*
X65659774Y-44603937D01*
X65703711Y-44560000D01*
X73612678Y-44560000D01*
X73650000Y-44563676D01*
X73687322Y-44560000D01*
X73687333Y-44560000D01*
X73798986Y-44549003D01*
X73942247Y-44505546D01*
X74074276Y-44434974D01*
X74190001Y-44340001D01*
X74213804Y-44310997D01*
X76240001Y-42284801D01*
X76240000Y-47962677D01*
X76236324Y-48000000D01*
X76240000Y-48037322D01*
X76240000Y-48037332D01*
X76250997Y-48148985D01*
X76284595Y-48259744D01*
X76294454Y-48292246D01*
X76365026Y-48424276D01*
X76404871Y-48472826D01*
X76459999Y-48540001D01*
X76489003Y-48563804D01*
X82136201Y-54211003D01*
X82159999Y-54240001D01*
X82275724Y-54334974D01*
X82407753Y-54405546D01*
X82551014Y-54449003D01*
X82662667Y-54460000D01*
X82662676Y-54460000D01*
X82699999Y-54463676D01*
X82737322Y-54460000D01*
X84579099Y-54460000D01*
X84601068Y-54501101D01*
X84780392Y-54719608D01*
X84998899Y-54898932D01*
X85131858Y-54970000D01*
X84998899Y-55041068D01*
X84780392Y-55220392D01*
X84601068Y-55438899D01*
X84579099Y-55480000D01*
X78804802Y-55480000D01*
X76760000Y-53435199D01*
X76760000Y-52814801D01*
X77039802Y-52535000D01*
X77101939Y-52535000D01*
X77301898Y-52495226D01*
X77490256Y-52417205D01*
X77659774Y-52303937D01*
X77803937Y-52159774D01*
X77917205Y-51990256D01*
X77995226Y-51801898D01*
X78035000Y-51601939D01*
X78035000Y-51398061D01*
X77995226Y-51198102D01*
X77917205Y-51009744D01*
X77803937Y-50840226D01*
X77659774Y-50696063D01*
X77490256Y-50582795D01*
X77301898Y-50504774D01*
X77101939Y-50465000D01*
X76898061Y-50465000D01*
X76698102Y-50504774D01*
X76509744Y-50582795D01*
X76340226Y-50696063D01*
X76196063Y-50840226D01*
X76082795Y-51009744D01*
X76004774Y-51198102D01*
X75965000Y-51398061D01*
X75965000Y-51460198D01*
X75488998Y-51936201D01*
X75460000Y-51959999D01*
X75436202Y-51988997D01*
X75436201Y-51988998D01*
X75365026Y-52075724D01*
X75294454Y-52207754D01*
X75274663Y-52273000D01*
X75258331Y-52326842D01*
X75250998Y-52351015D01*
X75236324Y-52500000D01*
X75240001Y-52537332D01*
X75240000Y-53712677D01*
X75236324Y-53750000D01*
X75240000Y-53787322D01*
X75240000Y-53787332D01*
X75250997Y-53898985D01*
X75294454Y-54042246D01*
X75365026Y-54174276D01*
X75404871Y-54222826D01*
X75459999Y-54290001D01*
X75489003Y-54313804D01*
X77926201Y-56751003D01*
X77949999Y-56780001D01*
X78065724Y-56874974D01*
X78197753Y-56945546D01*
X78341014Y-56989003D01*
X78452667Y-57000000D01*
X78452675Y-57000000D01*
X78490000Y-57003676D01*
X78527325Y-57000000D01*
X84579099Y-57000000D01*
X84601068Y-57041101D01*
X84780392Y-57259608D01*
X84998899Y-57438932D01*
X85131858Y-57510000D01*
X84998899Y-57581068D01*
X84780392Y-57760392D01*
X84669922Y-57895000D01*
X65223469Y-57895000D01*
X65180000Y-57890719D01*
X65136531Y-57895000D01*
X62063469Y-57895000D01*
X62020000Y-57890719D01*
X61976531Y-57895000D01*
X61976523Y-57895000D01*
X61846510Y-57907805D01*
X61679687Y-57958411D01*
X61525941Y-58040589D01*
X61424953Y-58123468D01*
X61424951Y-58123470D01*
X61391183Y-58151183D01*
X61363470Y-58184951D01*
X59583422Y-59965000D01*
X59498061Y-59965000D01*
X59298102Y-60004774D01*
X59109744Y-60082795D01*
X58940226Y-60196063D01*
X58796063Y-60340226D01*
X58682795Y-60509744D01*
X58604774Y-60698102D01*
X58565000Y-60898061D01*
X58565000Y-61101939D01*
X58604774Y-61301898D01*
X58682795Y-61490256D01*
X58715000Y-61538455D01*
X58715001Y-61861545D01*
X58682795Y-61909744D01*
X58604774Y-62098102D01*
X58565000Y-62298061D01*
X58565000Y-62501939D01*
X58604774Y-62701898D01*
X58682795Y-62890256D01*
X58715000Y-62938455D01*
X58715001Y-63236544D01*
X58682795Y-63284743D01*
X58604774Y-63473101D01*
X58565000Y-63673060D01*
X58565000Y-63876938D01*
X58604774Y-64076897D01*
X58682795Y-64265255D01*
X58796063Y-64434773D01*
X58940226Y-64578936D01*
X59109744Y-64692204D01*
X59298102Y-64770225D01*
X59498061Y-64809999D01*
X59701939Y-64809999D01*
X59901898Y-64770225D01*
X60090256Y-64692204D01*
X60259774Y-64578936D01*
X60403937Y-64434773D01*
X60517205Y-64265255D01*
X60595226Y-64076897D01*
X60635000Y-63876938D01*
X60635000Y-63673060D01*
X60595226Y-63473101D01*
X60517205Y-63284743D01*
X60485000Y-63236545D01*
X60485000Y-62938454D01*
X60517205Y-62890256D01*
X60595226Y-62701898D01*
X60635000Y-62501939D01*
X60635000Y-62298061D01*
X60595226Y-62098102D01*
X60517205Y-61909744D01*
X60485000Y-61861546D01*
X60485000Y-61566578D01*
X62386579Y-59665000D01*
X62459043Y-59665000D01*
X62410498Y-59755820D01*
X62374188Y-59875518D01*
X62361928Y-60000000D01*
X62361928Y-62000000D01*
X62374188Y-62124482D01*
X62410498Y-62244180D01*
X62469463Y-62354494D01*
X62548815Y-62451185D01*
X62645506Y-62530537D01*
X62755820Y-62589502D01*
X62875518Y-62625812D01*
X63000000Y-62638072D01*
X63140000Y-62638072D01*
X63140001Y-77361928D01*
X63000000Y-77361928D01*
X62875518Y-77374188D01*
X62755820Y-77410498D01*
X62645506Y-77469463D01*
X62548815Y-77548815D01*
X62469463Y-77645506D01*
X62410498Y-77755820D01*
X62374188Y-77875518D01*
X62361928Y-78000000D01*
X62361928Y-80000000D01*
X62374188Y-80124482D01*
X62410498Y-80244180D01*
X62469463Y-80354494D01*
X62548815Y-80451185D01*
X62645506Y-80530537D01*
X62755820Y-80589502D01*
X62875518Y-80625812D01*
X63000000Y-80638072D01*
X65000000Y-80638072D01*
X65124482Y-80625812D01*
X65244180Y-80589502D01*
X65354494Y-80530537D01*
X65451185Y-80451185D01*
X65530537Y-80354494D01*
X65589502Y-80244180D01*
X65622496Y-80135413D01*
X115034192Y-80135413D01*
X115129956Y-80399814D01*
X115419571Y-80540704D01*
X115731108Y-80622384D01*
X116052595Y-80641718D01*
X116371675Y-80597961D01*
X116676088Y-80492795D01*
X116850044Y-80399814D01*
X116945808Y-80135413D01*
X115990000Y-79179605D01*
X115034192Y-80135413D01*
X65622496Y-80135413D01*
X65625812Y-80124482D01*
X65638072Y-80000000D01*
X65638072Y-79062595D01*
X114348282Y-79062595D01*
X114392039Y-79381675D01*
X114497205Y-79686088D01*
X114590186Y-79860044D01*
X114854587Y-79955808D01*
X115810395Y-79000000D01*
X116169605Y-79000000D01*
X117125413Y-79955808D01*
X117389814Y-79860044D01*
X117530704Y-79570429D01*
X117612384Y-79258892D01*
X117631718Y-78937405D01*
X117587961Y-78618325D01*
X117482795Y-78313912D01*
X117389814Y-78139956D01*
X117125413Y-78044192D01*
X116169605Y-79000000D01*
X115810395Y-79000000D01*
X114854587Y-78044192D01*
X114590186Y-78139956D01*
X114449296Y-78429571D01*
X114367616Y-78741108D01*
X114348282Y-79062595D01*
X65638072Y-79062595D01*
X65638072Y-78000000D01*
X65625812Y-77875518D01*
X65622497Y-77864587D01*
X115034192Y-77864587D01*
X115990000Y-78820395D01*
X116945808Y-77864587D01*
X116850044Y-77600186D01*
X116560429Y-77459296D01*
X116248892Y-77377616D01*
X115927405Y-77358282D01*
X115608325Y-77402039D01*
X115303912Y-77507205D01*
X115129956Y-77600186D01*
X115034192Y-77864587D01*
X65622497Y-77864587D01*
X65589502Y-77755820D01*
X65530537Y-77645506D01*
X65451185Y-77548815D01*
X65354494Y-77469463D01*
X65244180Y-77410498D01*
X65124482Y-77374188D01*
X65000000Y-77361928D01*
X64860000Y-77361928D01*
X64860000Y-67514325D01*
X64870130Y-67565252D01*
X65017502Y-67921040D01*
X65231453Y-68241240D01*
X65503760Y-68513547D01*
X65823960Y-68727498D01*
X66179748Y-68874870D01*
X66557449Y-68950000D01*
X66942551Y-68950000D01*
X67320252Y-68874870D01*
X67676040Y-68727498D01*
X67996240Y-68513547D01*
X68268547Y-68241240D01*
X68482498Y-67921040D01*
X68629870Y-67565252D01*
X68705000Y-67187551D01*
X68705000Y-66802449D01*
X68629870Y-66424748D01*
X68482498Y-66068960D01*
X68268547Y-65748760D01*
X67996240Y-65476453D01*
X67676040Y-65262502D01*
X67320252Y-65115130D01*
X66942551Y-65040000D01*
X66557449Y-65040000D01*
X66179748Y-65115130D01*
X65823960Y-65262502D01*
X65503760Y-65476453D01*
X65231453Y-65748760D01*
X65017502Y-66068960D01*
X64870130Y-66424748D01*
X64860000Y-66475675D01*
X64860000Y-62638072D01*
X65000000Y-62638072D01*
X65124482Y-62625812D01*
X65244180Y-62589502D01*
X65354494Y-62530537D01*
X65451185Y-62451185D01*
X65530537Y-62354494D01*
X65589502Y-62244180D01*
X65625812Y-62124482D01*
X65638072Y-62000000D01*
X65638072Y-60489650D01*
X66854953Y-61706532D01*
X66854959Y-61706537D01*
X71265000Y-66116579D01*
X71265001Y-70706521D01*
X71260719Y-70750000D01*
X71277805Y-70923490D01*
X71328412Y-71090313D01*
X71410590Y-71244059D01*
X71493468Y-71345046D01*
X71493471Y-71345049D01*
X71521184Y-71378817D01*
X71554951Y-71406529D01*
X73093470Y-72945049D01*
X73121183Y-72978817D01*
X73154951Y-73006530D01*
X73154953Y-73006532D01*
X73255941Y-73089411D01*
X73409687Y-73171589D01*
X73576510Y-73222195D01*
X73706523Y-73235000D01*
X73706531Y-73235000D01*
X73750000Y-73239281D01*
X73793469Y-73235000D01*
X74511546Y-73235000D01*
X74559744Y-73267205D01*
X74748102Y-73345226D01*
X74948061Y-73385000D01*
X75151939Y-73385000D01*
X75351898Y-73345226D01*
X75540256Y-73267205D01*
X75709774Y-73153937D01*
X75853937Y-73009774D01*
X75967205Y-72840256D01*
X75978723Y-72812449D01*
X111275000Y-72812449D01*
X111275000Y-73197551D01*
X111350130Y-73575252D01*
X111497502Y-73931040D01*
X111711453Y-74251240D01*
X111983760Y-74523547D01*
X112303960Y-74737498D01*
X112659748Y-74884870D01*
X113037449Y-74960000D01*
X113422551Y-74960000D01*
X113800252Y-74884870D01*
X114156040Y-74737498D01*
X114476240Y-74523547D01*
X114748547Y-74251240D01*
X114962498Y-73931040D01*
X115109870Y-73575252D01*
X115185000Y-73197551D01*
X115185000Y-72812449D01*
X115109870Y-72434748D01*
X114962498Y-72078960D01*
X114748547Y-71758760D01*
X114476240Y-71486453D01*
X114156040Y-71272502D01*
X113800252Y-71125130D01*
X113422551Y-71050000D01*
X113037449Y-71050000D01*
X112659748Y-71125130D01*
X112303960Y-71272502D01*
X111983760Y-71486453D01*
X111711453Y-71758760D01*
X111497502Y-72078960D01*
X111350130Y-72434748D01*
X111275000Y-72812449D01*
X75978723Y-72812449D01*
X76045226Y-72651898D01*
X76085000Y-72451939D01*
X76085000Y-72248061D01*
X76045226Y-72048102D01*
X75967205Y-71859744D01*
X75853937Y-71690226D01*
X75709774Y-71546063D01*
X75540256Y-71432795D01*
X75351898Y-71354774D01*
X75151939Y-71315000D01*
X74948061Y-71315000D01*
X74748102Y-71354774D01*
X74559744Y-71432795D01*
X74511546Y-71465000D01*
X74116579Y-71465000D01*
X73035000Y-70383422D01*
X73035000Y-65793469D01*
X73039281Y-65750000D01*
X73035000Y-65706531D01*
X73035000Y-65706523D01*
X73022195Y-65576510D01*
X72971589Y-65409687D01*
X72889411Y-65255941D01*
X72778817Y-65121183D01*
X72745050Y-65093472D01*
X69786991Y-62135413D01*
X115034192Y-62135413D01*
X115129956Y-62399814D01*
X115419571Y-62540704D01*
X115731108Y-62622384D01*
X116052595Y-62641718D01*
X116371675Y-62597961D01*
X116676088Y-62492795D01*
X116850044Y-62399814D01*
X116945808Y-62135413D01*
X115990000Y-61179605D01*
X115034192Y-62135413D01*
X69786991Y-62135413D01*
X68714173Y-61062595D01*
X114348282Y-61062595D01*
X114392039Y-61381675D01*
X114497205Y-61686088D01*
X114590186Y-61860044D01*
X114854587Y-61955808D01*
X115810395Y-61000000D01*
X116169605Y-61000000D01*
X117125413Y-61955808D01*
X117389814Y-61860044D01*
X117530704Y-61570429D01*
X117612384Y-61258892D01*
X117631718Y-60937405D01*
X117587961Y-60618325D01*
X117482795Y-60313912D01*
X117389814Y-60139956D01*
X117125413Y-60044192D01*
X116169605Y-61000000D01*
X115810395Y-61000000D01*
X114854587Y-60044192D01*
X114590186Y-60139956D01*
X114449296Y-60429571D01*
X114367616Y-60741108D01*
X114348282Y-61062595D01*
X68714173Y-61062595D01*
X68106537Y-60454959D01*
X68106532Y-60454953D01*
X67316579Y-59665000D01*
X84669922Y-59665000D01*
X84780392Y-59799608D01*
X84998899Y-59978932D01*
X85248192Y-60112182D01*
X85518691Y-60194236D01*
X85729508Y-60215000D01*
X86270492Y-60215000D01*
X86481309Y-60194236D01*
X86751808Y-60112182D01*
X87001101Y-59978932D01*
X87219608Y-59799608D01*
X87330078Y-59665000D01*
X91376531Y-59665000D01*
X91420000Y-59669281D01*
X91463469Y-59665000D01*
X107529922Y-59665000D01*
X107640392Y-59799608D01*
X107858899Y-59978932D01*
X108108192Y-60112182D01*
X108378691Y-60194236D01*
X108589508Y-60215000D01*
X109130492Y-60215000D01*
X109341309Y-60194236D01*
X109611808Y-60112182D01*
X109861101Y-59978932D01*
X110000430Y-59864587D01*
X115034192Y-59864587D01*
X115990000Y-60820395D01*
X116945808Y-59864587D01*
X116850044Y-59600186D01*
X116560429Y-59459296D01*
X116248892Y-59377616D01*
X115927405Y-59358282D01*
X115608325Y-59402039D01*
X115303912Y-59507205D01*
X115129956Y-59600186D01*
X115034192Y-59864587D01*
X110000430Y-59864587D01*
X110079608Y-59799608D01*
X110258932Y-59581101D01*
X110392182Y-59331808D01*
X110474236Y-59061309D01*
X110501943Y-58780000D01*
X110474236Y-58498691D01*
X110392182Y-58228192D01*
X110258932Y-57978899D01*
X110079608Y-57760392D01*
X109861101Y-57581068D01*
X109731655Y-57511878D01*
X109749227Y-57504430D01*
X109982662Y-57345673D01*
X110180639Y-57144425D01*
X110335551Y-56908421D01*
X110441444Y-56646730D01*
X110451904Y-56589039D01*
X110329915Y-56367000D01*
X108987000Y-56367000D01*
X108987000Y-56387000D01*
X108733000Y-56387000D01*
X108733000Y-56367000D01*
X107390085Y-56367000D01*
X107268096Y-56589039D01*
X107278556Y-56646730D01*
X107384449Y-56908421D01*
X107539361Y-57144425D01*
X107737338Y-57345673D01*
X107970773Y-57504430D01*
X107988345Y-57511878D01*
X107858899Y-57581068D01*
X107640392Y-57760392D01*
X107529922Y-57895000D01*
X93556578Y-57895000D01*
X97566579Y-53885000D01*
X97806260Y-53885000D01*
X98093158Y-53827932D01*
X98363411Y-53715990D01*
X98606632Y-53553475D01*
X98738487Y-53421620D01*
X98760498Y-53494180D01*
X98819463Y-53604494D01*
X98898815Y-53701185D01*
X98995506Y-53780537D01*
X99105820Y-53839502D01*
X99225518Y-53875812D01*
X99350000Y-53888072D01*
X99914250Y-53885000D01*
X100073000Y-53726250D01*
X100073000Y-52527000D01*
X100327000Y-52527000D01*
X100327000Y-53726250D01*
X100485750Y-53885000D01*
X101050000Y-53888072D01*
X101174482Y-53875812D01*
X101294180Y-53839502D01*
X101404494Y-53780537D01*
X101501185Y-53701185D01*
X101580537Y-53604494D01*
X101639502Y-53494180D01*
X101675812Y-53374482D01*
X101688072Y-53250000D01*
X101685000Y-52685750D01*
X101526250Y-52527000D01*
X100327000Y-52527000D01*
X100073000Y-52527000D01*
X100053000Y-52527000D01*
X100053000Y-52273000D01*
X100073000Y-52273000D01*
X100073000Y-52253000D01*
X100327000Y-52253000D01*
X100327000Y-52273000D01*
X101526250Y-52273000D01*
X101685000Y-52114250D01*
X101688072Y-51550000D01*
X101675812Y-51425518D01*
X101639502Y-51305820D01*
X101580537Y-51195506D01*
X101501185Y-51098815D01*
X101404494Y-51019463D01*
X101294180Y-50960498D01*
X101174482Y-50924188D01*
X101050000Y-50911928D01*
X100536857Y-50914722D01*
X100845044Y-50606535D01*
X100901898Y-50595226D01*
X101090256Y-50517205D01*
X101259774Y-50403937D01*
X101403937Y-50259774D01*
X101517205Y-50090256D01*
X101595226Y-49901898D01*
X101606535Y-49845044D01*
X101995050Y-49456529D01*
X102028817Y-49428817D01*
X102064799Y-49384974D01*
X102139411Y-49294059D01*
X102175516Y-49226511D01*
X102221589Y-49140313D01*
X102272195Y-48973490D01*
X102285000Y-48843477D01*
X102285000Y-48843469D01*
X102289281Y-48800000D01*
X102285000Y-48756531D01*
X102285000Y-47684625D01*
X102374482Y-47675812D01*
X102494180Y-47639502D01*
X102604494Y-47580537D01*
X102701185Y-47501185D01*
X102780537Y-47404494D01*
X102839502Y-47294180D01*
X102875812Y-47174482D01*
X102888072Y-47050000D01*
X102888072Y-45350000D01*
X102875812Y-45225518D01*
X102839502Y-45105820D01*
X102780537Y-44995506D01*
X102701185Y-44898815D01*
X102604494Y-44819463D01*
X102494180Y-44760498D01*
X102374482Y-44724188D01*
X102285000Y-44715375D01*
X102285000Y-43566578D01*
X104345044Y-41506535D01*
X104401898Y-41495226D01*
X104590256Y-41417205D01*
X104759774Y-41303937D01*
X104903937Y-41159774D01*
X105017205Y-40990256D01*
X105095226Y-40801898D01*
X105106535Y-40745043D01*
X106595049Y-39256530D01*
X106628817Y-39228817D01*
X106683106Y-39162667D01*
X106739411Y-39094059D01*
X106770336Y-39036201D01*
X106821589Y-38940313D01*
X106872195Y-38773490D01*
X106885000Y-38643477D01*
X106885000Y-38643469D01*
X106889281Y-38600000D01*
X106885000Y-38556531D01*
X106885000Y-37138454D01*
X106917205Y-37090256D01*
X106995226Y-36901898D01*
X107035000Y-36701939D01*
X107035000Y-36498061D01*
X106995226Y-36298102D01*
X106917205Y-36109744D01*
X106803937Y-35940226D01*
X106659774Y-35796063D01*
X106490256Y-35682795D01*
X106301898Y-35604774D01*
X106101939Y-35565000D01*
X105898061Y-35565000D01*
X105698102Y-35604774D01*
X105509744Y-35682795D01*
X105340226Y-35796063D01*
X105196063Y-35940226D01*
X105082795Y-36109744D01*
X105004774Y-36298102D01*
X104965000Y-36498061D01*
X104965000Y-36701939D01*
X105004774Y-36901898D01*
X105082795Y-37090256D01*
X105115000Y-37138455D01*
X105115001Y-38233420D01*
X103854957Y-39493465D01*
X103798102Y-39504774D01*
X103609744Y-39582795D01*
X103440226Y-39696063D01*
X103296063Y-39840226D01*
X103182795Y-40009744D01*
X103104774Y-40198102D01*
X103093465Y-40254956D01*
X100804951Y-42543471D01*
X100771184Y-42571183D01*
X100743471Y-42604951D01*
X100743468Y-42604954D01*
X100660590Y-42705941D01*
X100578412Y-42859687D01*
X100527805Y-43026510D01*
X100510719Y-43200000D01*
X100515001Y-43243479D01*
X100515000Y-44715375D01*
X100425518Y-44724188D01*
X100305820Y-44760498D01*
X100195506Y-44819463D01*
X100098815Y-44898815D01*
X100019463Y-44995506D01*
X99960498Y-45105820D01*
X99936034Y-45186466D01*
X99860269Y-45102412D01*
X99626920Y-44928359D01*
X99364099Y-44803175D01*
X99216890Y-44758524D01*
X98987000Y-44879845D01*
X98987000Y-46073000D01*
X99007000Y-46073000D01*
X99007000Y-46327000D01*
X98987000Y-46327000D01*
X98987000Y-47520155D01*
X99216890Y-47641476D01*
X99364099Y-47596825D01*
X99626920Y-47471641D01*
X99860269Y-47297588D01*
X99936034Y-47213534D01*
X99960498Y-47294180D01*
X100019463Y-47404494D01*
X100098815Y-47501185D01*
X100195506Y-47580537D01*
X100305820Y-47639502D01*
X100425518Y-47675812D01*
X100515000Y-47684625D01*
X100515000Y-48433421D01*
X100354956Y-48593465D01*
X100298102Y-48604774D01*
X100109744Y-48682795D01*
X99940226Y-48796063D01*
X99796063Y-48940226D01*
X99682795Y-49109744D01*
X99604774Y-49298102D01*
X99593465Y-49354956D01*
X97995733Y-50952689D01*
X97806260Y-50915000D01*
X97513740Y-50915000D01*
X97226842Y-50972068D01*
X96956589Y-51084010D01*
X96713368Y-51246525D01*
X96506525Y-51453368D01*
X96390000Y-51627760D01*
X96273475Y-51453368D01*
X96066632Y-51246525D01*
X95855000Y-51105117D01*
X95855000Y-47704446D01*
X95924103Y-47635344D01*
X96173740Y-47685000D01*
X96466260Y-47685000D01*
X96753158Y-47627932D01*
X97023411Y-47515990D01*
X97266632Y-47353475D01*
X97473475Y-47146632D01*
X97595195Y-46964466D01*
X97664822Y-47081355D01*
X97859731Y-47297588D01*
X98093080Y-47471641D01*
X98355901Y-47596825D01*
X98503110Y-47641476D01*
X98733000Y-47520155D01*
X98733000Y-46327000D01*
X98713000Y-46327000D01*
X98713000Y-46073000D01*
X98733000Y-46073000D01*
X98733000Y-44879845D01*
X98503110Y-44758524D01*
X98355901Y-44803175D01*
X98093080Y-44928359D01*
X97859731Y-45102412D01*
X97664822Y-45318645D01*
X97595195Y-45435534D01*
X97473475Y-45253368D01*
X97266632Y-45046525D01*
X97023411Y-44884010D01*
X96753158Y-44772068D01*
X96466260Y-44715000D01*
X96173740Y-44715000D01*
X95886842Y-44772068D01*
X95616589Y-44884010D01*
X95373368Y-45046525D01*
X95166525Y-45253368D01*
X95050000Y-45427760D01*
X94933475Y-45253368D01*
X94726632Y-45046525D01*
X94483411Y-44884010D01*
X94213158Y-44772068D01*
X93926260Y-44715000D01*
X93633740Y-44715000D01*
X93346842Y-44772068D01*
X93076589Y-44884010D01*
X92833368Y-45046525D01*
X92626525Y-45253368D01*
X92464010Y-45496589D01*
X92352068Y-45766842D01*
X92295000Y-46053740D01*
X92295000Y-46346260D01*
X92344656Y-46595897D01*
X92085808Y-46854746D01*
X92057763Y-46877762D01*
X91965914Y-46989680D01*
X91925167Y-47065913D01*
X91897664Y-47117367D01*
X91855635Y-47255915D01*
X91841444Y-47400000D01*
X91845001Y-47436115D01*
X91845000Y-51105117D01*
X91633368Y-51246525D01*
X91426525Y-51453368D01*
X91264010Y-51696589D01*
X91152068Y-51966842D01*
X91095000Y-52253740D01*
X91095000Y-52546260D01*
X91152068Y-52833158D01*
X91264010Y-53103411D01*
X91426525Y-53346632D01*
X91633368Y-53553475D01*
X91876589Y-53715990D01*
X92146842Y-53827932D01*
X92433740Y-53885000D01*
X92726260Y-53885000D01*
X93013158Y-53827932D01*
X93283411Y-53715990D01*
X93526632Y-53553475D01*
X93733475Y-53346632D01*
X93850000Y-53172240D01*
X93966525Y-53346632D01*
X94173368Y-53553475D01*
X94416589Y-53715990D01*
X94686842Y-53827932D01*
X94973740Y-53885000D01*
X95063422Y-53885000D01*
X91053422Y-57895000D01*
X87330078Y-57895000D01*
X87219608Y-57760392D01*
X87001101Y-57581068D01*
X86868142Y-57510000D01*
X87001101Y-57438932D01*
X87219608Y-57259608D01*
X87398932Y-57041101D01*
X87532182Y-56791808D01*
X87614236Y-56521309D01*
X87641943Y-56240000D01*
X87614236Y-55958691D01*
X87532182Y-55688192D01*
X87398932Y-55438899D01*
X87219608Y-55220392D01*
X87001101Y-55041068D01*
X86868142Y-54970000D01*
X87001101Y-54898932D01*
X87219608Y-54719608D01*
X87398932Y-54501101D01*
X87532182Y-54251808D01*
X87614236Y-53981309D01*
X87641943Y-53700000D01*
X87614236Y-53418691D01*
X87532182Y-53148192D01*
X87398932Y-52898899D01*
X87219608Y-52680392D01*
X87001101Y-52501068D01*
X86868142Y-52430000D01*
X87001101Y-52358932D01*
X87219608Y-52179608D01*
X87398932Y-51961101D01*
X87532182Y-51711808D01*
X87614236Y-51441309D01*
X87641943Y-51160000D01*
X87614236Y-50878691D01*
X87532182Y-50608192D01*
X87398932Y-50358899D01*
X87219608Y-50140392D01*
X87001101Y-49961068D01*
X86868142Y-49890000D01*
X87001101Y-49818932D01*
X87219608Y-49639608D01*
X87398932Y-49421101D01*
X87532182Y-49171808D01*
X87614236Y-48901309D01*
X87641943Y-48620000D01*
X87614236Y-48338691D01*
X87532182Y-48068192D01*
X87398932Y-47818899D01*
X87219608Y-47600392D01*
X87001101Y-47421068D01*
X86868142Y-47350000D01*
X87001101Y-47278932D01*
X87219608Y-47099608D01*
X87398932Y-46881101D01*
X87432157Y-46818941D01*
X87542247Y-46785546D01*
X87674276Y-46714974D01*
X87790001Y-46620001D01*
X87813804Y-46590997D01*
X89511004Y-44893798D01*
X89540001Y-44870001D01*
X89634974Y-44754276D01*
X89705546Y-44622247D01*
X89749003Y-44478986D01*
X89760000Y-44367333D01*
X89760000Y-44367325D01*
X89763676Y-44330000D01*
X89760000Y-44292675D01*
X89760000Y-41452323D01*
X89763676Y-41414998D01*
X89760000Y-41377673D01*
X89760000Y-41377665D01*
X89749003Y-41266012D01*
X89705546Y-41122751D01*
X89634974Y-40990722D01*
X89540001Y-40874997D01*
X89511003Y-40851199D01*
X86948806Y-38289003D01*
X86925003Y-38259999D01*
X86809278Y-38165026D01*
X86677249Y-38094454D01*
X86533988Y-38050997D01*
X86422335Y-38040000D01*
X86422324Y-38040000D01*
X86385002Y-38036324D01*
X86347680Y-38040000D01*
X84127000Y-38040000D01*
X84127000Y-34127000D01*
X110715001Y-34127000D01*
X110715000Y-35966353D01*
X110711686Y-36000000D01*
X110724912Y-36134283D01*
X110764081Y-36263406D01*
X110827688Y-36382407D01*
X110913289Y-36486711D01*
X111017593Y-36572312D01*
X111136594Y-36635919D01*
X111265717Y-36675088D01*
X111400000Y-36688314D01*
X111433647Y-36685000D01*
X111473000Y-36685000D01*
X111473000Y-36815000D01*
X111433647Y-36815000D01*
X111400000Y-36811686D01*
X111366353Y-36815000D01*
X111265717Y-36824912D01*
X111136594Y-36864081D01*
X111017593Y-36927688D01*
X110913289Y-37013289D01*
X110827688Y-37117593D01*
X110764081Y-37236594D01*
X110724912Y-37365717D01*
X110711686Y-37500000D01*
X110715001Y-37533657D01*
X110715000Y-39566353D01*
X110711686Y-39600000D01*
X110724912Y-39734283D01*
X110764081Y-39863406D01*
X110827688Y-39982407D01*
X110913289Y-40086711D01*
X110942889Y-40111003D01*
X111017593Y-40172312D01*
X111136594Y-40235919D01*
X111232461Y-40265000D01*
X110294264Y-40265000D01*
X110258932Y-40198899D01*
X110079608Y-39980392D01*
X109861101Y-39801068D01*
X109611808Y-39667818D01*
X109341309Y-39585764D01*
X109130492Y-39565000D01*
X108589508Y-39565000D01*
X108378691Y-39585764D01*
X108108192Y-39667818D01*
X107858899Y-39801068D01*
X107640392Y-39980392D01*
X107461068Y-40198899D01*
X107327818Y-40448192D01*
X107245764Y-40718691D01*
X107218057Y-41000000D01*
X107245764Y-41281309D01*
X107327818Y-41551808D01*
X107461068Y-41801101D01*
X107640392Y-42019608D01*
X107858899Y-42198932D01*
X107991858Y-42270000D01*
X107858899Y-42341068D01*
X107640392Y-42520392D01*
X107461068Y-42738899D01*
X107327818Y-42988192D01*
X107245764Y-43258691D01*
X107218057Y-43540000D01*
X107245764Y-43821309D01*
X107327818Y-44091808D01*
X107461068Y-44341101D01*
X107640392Y-44559608D01*
X107858899Y-44738932D01*
X107991858Y-44810000D01*
X107858899Y-44881068D01*
X107640392Y-45060392D01*
X107461068Y-45278899D01*
X107327818Y-45528192D01*
X107245764Y-45798691D01*
X107218057Y-46080000D01*
X107245764Y-46361309D01*
X107327818Y-46631808D01*
X107461068Y-46881101D01*
X107640392Y-47099608D01*
X107858899Y-47278932D01*
X107991858Y-47350000D01*
X107858899Y-47421068D01*
X107640392Y-47600392D01*
X107461068Y-47818899D01*
X107327818Y-48068192D01*
X107245764Y-48338691D01*
X107218057Y-48620000D01*
X107245764Y-48901309D01*
X107327818Y-49171808D01*
X107461068Y-49421101D01*
X107640392Y-49639608D01*
X107858899Y-49818932D01*
X107991858Y-49890000D01*
X107858899Y-49961068D01*
X107640392Y-50140392D01*
X107461068Y-50358899D01*
X107327818Y-50608192D01*
X107245764Y-50878691D01*
X107218057Y-51160000D01*
X107245764Y-51441309D01*
X107327818Y-51711808D01*
X107461068Y-51961101D01*
X107640392Y-52179608D01*
X107858899Y-52358932D01*
X107991858Y-52430000D01*
X107858899Y-52501068D01*
X107640392Y-52680392D01*
X107461068Y-52898899D01*
X107327818Y-53148192D01*
X107245764Y-53418691D01*
X107218057Y-53700000D01*
X107245764Y-53981309D01*
X107327818Y-54251808D01*
X107461068Y-54501101D01*
X107640392Y-54719608D01*
X107858899Y-54898932D01*
X107988345Y-54968122D01*
X107970773Y-54975570D01*
X107737338Y-55134327D01*
X107539361Y-55335575D01*
X107384449Y-55571579D01*
X107278556Y-55833270D01*
X107268096Y-55890961D01*
X107390085Y-56113000D01*
X108733000Y-56113000D01*
X108733000Y-56093000D01*
X108987000Y-56093000D01*
X108987000Y-56113000D01*
X110329915Y-56113000D01*
X110451904Y-55890961D01*
X110441444Y-55833270D01*
X110335551Y-55571579D01*
X110180639Y-55335575D01*
X109982662Y-55134327D01*
X109749227Y-54975570D01*
X109731655Y-54968122D01*
X109861101Y-54898932D01*
X109966480Y-54812449D01*
X111275000Y-54812449D01*
X111275000Y-55197551D01*
X111350130Y-55575252D01*
X111497502Y-55931040D01*
X111711453Y-56251240D01*
X111983760Y-56523547D01*
X112303960Y-56737498D01*
X112659748Y-56884870D01*
X113037449Y-56960000D01*
X113422551Y-56960000D01*
X113800252Y-56884870D01*
X114156040Y-56737498D01*
X114476240Y-56523547D01*
X114748547Y-56251240D01*
X114962498Y-55931040D01*
X115076054Y-55656890D01*
X115558524Y-55656890D01*
X115603175Y-55804099D01*
X115728359Y-56066920D01*
X115902412Y-56300269D01*
X116118645Y-56495178D01*
X116368748Y-56644157D01*
X116643109Y-56741481D01*
X116873000Y-56620814D01*
X116873000Y-55427000D01*
X117127000Y-55427000D01*
X117127000Y-56620814D01*
X117356891Y-56741481D01*
X117631252Y-56644157D01*
X117881355Y-56495178D01*
X118097588Y-56300269D01*
X118271641Y-56066920D01*
X118396825Y-55804099D01*
X118441476Y-55656890D01*
X118320155Y-55427000D01*
X117127000Y-55427000D01*
X116873000Y-55427000D01*
X115679845Y-55427000D01*
X115558524Y-55656890D01*
X115076054Y-55656890D01*
X115109870Y-55575252D01*
X115185000Y-55197551D01*
X115185000Y-54812449D01*
X115109870Y-54434748D01*
X114962498Y-54078960D01*
X114748547Y-53758760D01*
X114476240Y-53486453D01*
X114156040Y-53272502D01*
X113800252Y-53125130D01*
X113422551Y-53050000D01*
X113037449Y-53050000D01*
X112659748Y-53125130D01*
X112303960Y-53272502D01*
X111983760Y-53486453D01*
X111711453Y-53758760D01*
X111497502Y-54078960D01*
X111350130Y-54434748D01*
X111275000Y-54812449D01*
X109966480Y-54812449D01*
X110079608Y-54719608D01*
X110258932Y-54501101D01*
X110392182Y-54251808D01*
X110474236Y-53981309D01*
X110501943Y-53700000D01*
X110474236Y-53418691D01*
X110392182Y-53148192D01*
X110258932Y-52898899D01*
X110079608Y-52680392D01*
X109861101Y-52501068D01*
X109728142Y-52430000D01*
X109861101Y-52358932D01*
X110079608Y-52179608D01*
X110258932Y-51961101D01*
X110392182Y-51711808D01*
X110474236Y-51441309D01*
X110501943Y-51160000D01*
X110474236Y-50878691D01*
X110392182Y-50608192D01*
X110258932Y-50358899D01*
X110079608Y-50140392D01*
X109861101Y-49961068D01*
X109728142Y-49890000D01*
X109861101Y-49818932D01*
X110079608Y-49639608D01*
X110258932Y-49421101D01*
X110392182Y-49171808D01*
X110474236Y-48901309D01*
X110501943Y-48620000D01*
X110474236Y-48338691D01*
X110392182Y-48068192D01*
X110258932Y-47818899D01*
X110079608Y-47600392D01*
X109861101Y-47421068D01*
X109728142Y-47350000D01*
X109861101Y-47278932D01*
X110079608Y-47099608D01*
X110258932Y-46881101D01*
X110392182Y-46631808D01*
X110474236Y-46361309D01*
X110501943Y-46080000D01*
X110474236Y-45798691D01*
X110392182Y-45528192D01*
X110258932Y-45278899D01*
X110079608Y-45060392D01*
X109861101Y-44881068D01*
X109728142Y-44810000D01*
X109861101Y-44738932D01*
X110079608Y-44559608D01*
X110258932Y-44341101D01*
X110294264Y-44275000D01*
X110735554Y-44275000D01*
X114634746Y-48174193D01*
X114657762Y-48202238D01*
X114769680Y-48294087D01*
X114897367Y-48362337D01*
X114966839Y-48383411D01*
X115035914Y-48404365D01*
X115050132Y-48405765D01*
X115143895Y-48415000D01*
X115143902Y-48415000D01*
X115179999Y-48418555D01*
X115216096Y-48415000D01*
X115705117Y-48415000D01*
X115846525Y-48626632D01*
X116053368Y-48833475D01*
X116227760Y-48950000D01*
X116053368Y-49066525D01*
X115846525Y-49273368D01*
X115684010Y-49516589D01*
X115572068Y-49786842D01*
X115515000Y-50073740D01*
X115515000Y-50366260D01*
X115572068Y-50653158D01*
X115684010Y-50923411D01*
X115846525Y-51166632D01*
X116053368Y-51373475D01*
X116227760Y-51490000D01*
X116053368Y-51606525D01*
X115846525Y-51813368D01*
X115684010Y-52056589D01*
X115572068Y-52326842D01*
X115515000Y-52613740D01*
X115515000Y-52906260D01*
X115572068Y-53193158D01*
X115684010Y-53463411D01*
X115846525Y-53706632D01*
X116053368Y-53913475D01*
X116235534Y-54035195D01*
X116118645Y-54104822D01*
X115902412Y-54299731D01*
X115728359Y-54533080D01*
X115603175Y-54795901D01*
X115558524Y-54943110D01*
X115679845Y-55173000D01*
X116873000Y-55173000D01*
X116873000Y-55153000D01*
X117127000Y-55153000D01*
X117127000Y-55173000D01*
X118320155Y-55173000D01*
X118441476Y-54943110D01*
X118396825Y-54795901D01*
X118271641Y-54533080D01*
X118097588Y-54299731D01*
X117881355Y-54104822D01*
X117764466Y-54035195D01*
X117946632Y-53913475D01*
X118153475Y-53706632D01*
X118315990Y-53463411D01*
X118427932Y-53193158D01*
X118485000Y-52906260D01*
X118485000Y-52613740D01*
X118427932Y-52326842D01*
X118315990Y-52056589D01*
X118153475Y-51813368D01*
X117946632Y-51606525D01*
X117772240Y-51490000D01*
X117946632Y-51373475D01*
X118153475Y-51166632D01*
X118315990Y-50923411D01*
X118427932Y-50653158D01*
X118485000Y-50366260D01*
X118485000Y-50073740D01*
X118427932Y-49786842D01*
X118315990Y-49516589D01*
X118153475Y-49273368D01*
X117946632Y-49066525D01*
X117772240Y-48950000D01*
X117946632Y-48833475D01*
X118153475Y-48626632D01*
X118315990Y-48383411D01*
X118427932Y-48113158D01*
X118485000Y-47826260D01*
X118485000Y-47533740D01*
X118427932Y-47246842D01*
X118315990Y-46976589D01*
X118153475Y-46733368D01*
X117946632Y-46526525D01*
X117772240Y-46410000D01*
X117946632Y-46293475D01*
X118153475Y-46086632D01*
X118315990Y-45843411D01*
X118427932Y-45573158D01*
X118485000Y-45286260D01*
X118485000Y-44993740D01*
X118427932Y-44706842D01*
X118315990Y-44436589D01*
X118153475Y-44193368D01*
X118021620Y-44061513D01*
X118094180Y-44039502D01*
X118204494Y-43980537D01*
X118301185Y-43901185D01*
X118380537Y-43804494D01*
X118439502Y-43694180D01*
X118475812Y-43574482D01*
X118488072Y-43450000D01*
X118488072Y-41750000D01*
X118475812Y-41625518D01*
X118439502Y-41505820D01*
X118380537Y-41395506D01*
X118301185Y-41298815D01*
X118204494Y-41219463D01*
X118094180Y-41160498D01*
X117974482Y-41124188D01*
X117850000Y-41111928D01*
X116150000Y-41111928D01*
X116025518Y-41124188D01*
X115905820Y-41160498D01*
X115795506Y-41219463D01*
X115698815Y-41298815D01*
X115619463Y-41395506D01*
X115560498Y-41505820D01*
X115524188Y-41625518D01*
X115511928Y-41750000D01*
X115511928Y-43450000D01*
X115524188Y-43574482D01*
X115560498Y-43694180D01*
X115619463Y-43804494D01*
X115698815Y-43901185D01*
X115795506Y-43980537D01*
X115905820Y-44039502D01*
X115978380Y-44061513D01*
X115868629Y-44171264D01*
X112203178Y-40505813D01*
X112180157Y-40477762D01*
X112068239Y-40385913D01*
X111940552Y-40317663D01*
X111832876Y-40285000D01*
X112566353Y-40285000D01*
X112600000Y-40288314D01*
X112734283Y-40275088D01*
X112863406Y-40235919D01*
X112982407Y-40172312D01*
X113086711Y-40086711D01*
X113172312Y-39982407D01*
X113235919Y-39863406D01*
X113275088Y-39734283D01*
X113275805Y-39727000D01*
X113324195Y-39727000D01*
X113324912Y-39734283D01*
X113364081Y-39863406D01*
X113427688Y-39982407D01*
X113513289Y-40086711D01*
X113542889Y-40111003D01*
X113617593Y-40172312D01*
X113736594Y-40235919D01*
X113865717Y-40275088D01*
X114000000Y-40288314D01*
X114033647Y-40285000D01*
X116166353Y-40285000D01*
X116200000Y-40288314D01*
X116334283Y-40275088D01*
X116463406Y-40235919D01*
X116582407Y-40172312D01*
X116686711Y-40086711D01*
X116772312Y-39982407D01*
X116835919Y-39863406D01*
X116875088Y-39734283D01*
X116875805Y-39727000D01*
X118800000Y-39727000D01*
X118824776Y-39724560D01*
X118848601Y-39717333D01*
X118870557Y-39705597D01*
X118873000Y-39703592D01*
X118873000Y-88873000D01*
X48127000Y-88873000D01*
X48127000Y-87515565D01*
X55314040Y-87515565D01*
X55381020Y-87755656D01*
X55630048Y-87872756D01*
X55897135Y-87939023D01*
X56172017Y-87951910D01*
X56444133Y-87910922D01*
X56703023Y-87817636D01*
X56818980Y-87755656D01*
X56885960Y-87515565D01*
X56100000Y-86729605D01*
X55314040Y-87515565D01*
X48127000Y-87515565D01*
X48127000Y-86622017D01*
X54698090Y-86622017D01*
X54739078Y-86894133D01*
X54832364Y-87153023D01*
X54894344Y-87268980D01*
X55134435Y-87335960D01*
X55920395Y-86550000D01*
X56279605Y-86550000D01*
X57065565Y-87335960D01*
X57305656Y-87268980D01*
X57422756Y-87019952D01*
X57489023Y-86752865D01*
X57501910Y-86477983D01*
X57460922Y-86205867D01*
X57367636Y-85946977D01*
X57305656Y-85831020D01*
X57065565Y-85764040D01*
X56279605Y-86550000D01*
X55920395Y-86550000D01*
X55134435Y-85764040D01*
X54894344Y-85831020D01*
X54777244Y-86080048D01*
X54710977Y-86347135D01*
X54698090Y-86622017D01*
X48127000Y-86622017D01*
X48127000Y-85584435D01*
X55314040Y-85584435D01*
X56100000Y-86370395D01*
X56885960Y-85584435D01*
X56818980Y-85344344D01*
X56569952Y-85227244D01*
X56302865Y-85160977D01*
X56027983Y-85148090D01*
X55755867Y-85189078D01*
X55496977Y-85282364D01*
X55381020Y-85344344D01*
X55314040Y-85584435D01*
X48127000Y-85584435D01*
X48127000Y-84802449D01*
X64795000Y-84802449D01*
X64795000Y-85187551D01*
X64870130Y-85565252D01*
X65017502Y-85921040D01*
X65231453Y-86241240D01*
X65503760Y-86513547D01*
X65823960Y-86727498D01*
X66179748Y-86874870D01*
X66557449Y-86950000D01*
X66942551Y-86950000D01*
X67320252Y-86874870D01*
X67676040Y-86727498D01*
X67996240Y-86513547D01*
X68268547Y-86241240D01*
X68482498Y-85921040D01*
X68629870Y-85565252D01*
X68693793Y-85243891D01*
X83585000Y-85243891D01*
X83585000Y-85556109D01*
X83645911Y-85862327D01*
X83765391Y-86150779D01*
X83938850Y-86410379D01*
X84159621Y-86631150D01*
X84419221Y-86804609D01*
X84707673Y-86924089D01*
X85013891Y-86985000D01*
X85326109Y-86985000D01*
X85632327Y-86924089D01*
X85920779Y-86804609D01*
X86180379Y-86631150D01*
X86401150Y-86410379D01*
X86574609Y-86150779D01*
X86694089Y-85862327D01*
X86755000Y-85556109D01*
X86755000Y-85243891D01*
X91245000Y-85243891D01*
X91245000Y-85556109D01*
X91305911Y-85862327D01*
X91425391Y-86150779D01*
X91598850Y-86410379D01*
X91819621Y-86631150D01*
X92079221Y-86804609D01*
X92367673Y-86924089D01*
X92673891Y-86985000D01*
X92986109Y-86985000D01*
X93292327Y-86924089D01*
X93580779Y-86804609D01*
X93840379Y-86631150D01*
X94061150Y-86410379D01*
X94234609Y-86150779D01*
X94354089Y-85862327D01*
X94415000Y-85556109D01*
X94415000Y-85243891D01*
X97585000Y-85243891D01*
X97585000Y-85556109D01*
X97645911Y-85862327D01*
X97765391Y-86150779D01*
X97938850Y-86410379D01*
X98159621Y-86631150D01*
X98419221Y-86804609D01*
X98707673Y-86924089D01*
X99013891Y-86985000D01*
X99326109Y-86985000D01*
X99632327Y-86924089D01*
X99920779Y-86804609D01*
X100180379Y-86631150D01*
X100401150Y-86410379D01*
X100574609Y-86150779D01*
X100694089Y-85862327D01*
X100755000Y-85556109D01*
X100755000Y-85243891D01*
X105245000Y-85243891D01*
X105245000Y-85556109D01*
X105305911Y-85862327D01*
X105425391Y-86150779D01*
X105598850Y-86410379D01*
X105819621Y-86631150D01*
X106079221Y-86804609D01*
X106367673Y-86924089D01*
X106673891Y-86985000D01*
X106986109Y-86985000D01*
X107292327Y-86924089D01*
X107580779Y-86804609D01*
X107840379Y-86631150D01*
X108061150Y-86410379D01*
X108234609Y-86150779D01*
X108354089Y-85862327D01*
X108415000Y-85556109D01*
X108415000Y-85243891D01*
X108354089Y-84937673D01*
X108234609Y-84649221D01*
X108061150Y-84389621D01*
X107840379Y-84168850D01*
X107580779Y-83995391D01*
X107292327Y-83875911D01*
X106986109Y-83815000D01*
X106673891Y-83815000D01*
X106367673Y-83875911D01*
X106079221Y-83995391D01*
X105819621Y-84168850D01*
X105598850Y-84389621D01*
X105425391Y-84649221D01*
X105305911Y-84937673D01*
X105245000Y-85243891D01*
X100755000Y-85243891D01*
X100694089Y-84937673D01*
X100574609Y-84649221D01*
X100401150Y-84389621D01*
X100180379Y-84168850D01*
X99920779Y-83995391D01*
X99632327Y-83875911D01*
X99326109Y-83815000D01*
X99013891Y-83815000D01*
X98707673Y-83875911D01*
X98419221Y-83995391D01*
X98159621Y-84168850D01*
X97938850Y-84389621D01*
X97765391Y-84649221D01*
X97645911Y-84937673D01*
X97585000Y-85243891D01*
X94415000Y-85243891D01*
X94354089Y-84937673D01*
X94234609Y-84649221D01*
X94061150Y-84389621D01*
X93840379Y-84168850D01*
X93580779Y-83995391D01*
X93292327Y-83875911D01*
X92986109Y-83815000D01*
X92673891Y-83815000D01*
X92367673Y-83875911D01*
X92079221Y-83995391D01*
X91819621Y-84168850D01*
X91598850Y-84389621D01*
X91425391Y-84649221D01*
X91305911Y-84937673D01*
X91245000Y-85243891D01*
X86755000Y-85243891D01*
X86694089Y-84937673D01*
X86574609Y-84649221D01*
X86401150Y-84389621D01*
X86180379Y-84168850D01*
X85920779Y-83995391D01*
X85632327Y-83875911D01*
X85326109Y-83815000D01*
X85013891Y-83815000D01*
X84707673Y-83875911D01*
X84419221Y-83995391D01*
X84159621Y-84168850D01*
X83938850Y-84389621D01*
X83765391Y-84649221D01*
X83645911Y-84937673D01*
X83585000Y-85243891D01*
X68693793Y-85243891D01*
X68705000Y-85187551D01*
X68705000Y-84802449D01*
X68629870Y-84424748D01*
X68482498Y-84068960D01*
X68268547Y-83748760D01*
X67996240Y-83476453D01*
X67676040Y-83262502D01*
X67320252Y-83115130D01*
X66942551Y-83040000D01*
X66557449Y-83040000D01*
X66179748Y-83115130D01*
X65823960Y-83262502D01*
X65503760Y-83476453D01*
X65231453Y-83748760D01*
X65017502Y-84068960D01*
X64870130Y-84424748D01*
X64795000Y-84802449D01*
X48127000Y-84802449D01*
X48127000Y-74912408D01*
X54703000Y-74912408D01*
X54703000Y-75187592D01*
X54756686Y-75457490D01*
X54861995Y-75711727D01*
X55014880Y-75940535D01*
X55209465Y-76135120D01*
X55438273Y-76288005D01*
X55692510Y-76393314D01*
X55962408Y-76447000D01*
X56237592Y-76447000D01*
X56507490Y-76393314D01*
X56761727Y-76288005D01*
X56990535Y-76135120D01*
X57185120Y-75940535D01*
X57338005Y-75711727D01*
X57443314Y-75457490D01*
X57497000Y-75187592D01*
X57497000Y-74912408D01*
X57443314Y-74642510D01*
X57338005Y-74388273D01*
X57185120Y-74159465D01*
X56990535Y-73964880D01*
X56761727Y-73811995D01*
X56507490Y-73706686D01*
X56237592Y-73653000D01*
X55962408Y-73653000D01*
X55692510Y-73706686D01*
X55438273Y-73811995D01*
X55209465Y-73964880D01*
X55014880Y-74159465D01*
X54861995Y-74388273D01*
X54756686Y-74642510D01*
X54703000Y-74912408D01*
X48127000Y-74912408D01*
X48127000Y-34127000D01*
X56873000Y-34127000D01*
X56873000Y-38250000D01*
G37*
G04 #@! TD.AperFunction*
D23*
X84186201Y-41511003D02*
X84209999Y-41540001D01*
X84238997Y-41563799D01*
X84325723Y-41634974D01*
X84361928Y-41654326D01*
X84361928Y-42000000D01*
X84374188Y-42124482D01*
X84410498Y-42244180D01*
X84469463Y-42354494D01*
X84548815Y-42451185D01*
X84645506Y-42530537D01*
X84733476Y-42577559D01*
X84601068Y-42738899D01*
X84579099Y-42780000D01*
X81254802Y-42780000D01*
X78784801Y-40310000D01*
X82985199Y-40310000D01*
X84186201Y-41511003D01*
G04 #@! TA.AperFunction,Conductor*
D24*
G36*
X84186201Y-41511003D02*
G01*
X84209999Y-41540001D01*
X84238997Y-41563799D01*
X84325723Y-41634974D01*
X84361928Y-41654326D01*
X84361928Y-42000000D01*
X84374188Y-42124482D01*
X84410498Y-42244180D01*
X84469463Y-42354494D01*
X84548815Y-42451185D01*
X84645506Y-42530537D01*
X84733476Y-42577559D01*
X84601068Y-42738899D01*
X84579099Y-42780000D01*
X81254802Y-42780000D01*
X78784801Y-40310000D01*
X82985199Y-40310000D01*
X84186201Y-41511003D01*
G37*
G04 #@! TD.AperFunction*
D23*
X80873000Y-106766000D02*
X66453095Y-106766000D01*
X66453095Y-108873000D01*
X57978135Y-108873000D01*
X58049276Y-108834974D01*
X58165001Y-108740001D01*
X58188804Y-108710997D01*
X63666164Y-103233638D01*
X63784142Y-103197850D01*
X63932275Y-103118671D01*
X64062115Y-103012115D01*
X64115143Y-102947500D01*
X64293954Y-102947500D01*
X64304774Y-103001898D01*
X64382795Y-103190256D01*
X64496063Y-103359774D01*
X64640226Y-103503937D01*
X64809744Y-103617205D01*
X64998102Y-103695226D01*
X65198061Y-103735000D01*
X65401939Y-103735000D01*
X65601898Y-103695226D01*
X65790256Y-103617205D01*
X65873000Y-103561917D01*
X65873000Y-106000000D01*
X65875440Y-106024776D01*
X65882667Y-106048601D01*
X65894403Y-106070557D01*
X65910197Y-106089803D01*
X65929443Y-106105597D01*
X65951399Y-106117333D01*
X65975224Y-106124560D01*
X66000000Y-106127000D01*
X74000000Y-106127000D01*
X74024776Y-106124560D01*
X74048601Y-106117333D01*
X74070557Y-106105597D01*
X74089803Y-106089803D01*
X74105597Y-106070557D01*
X74117333Y-106048601D01*
X74124560Y-106024776D01*
X74127000Y-106000000D01*
X74127000Y-102834042D01*
X76315000Y-102834042D01*
X76315000Y-103165958D01*
X76379754Y-103491496D01*
X76506772Y-103798147D01*
X76691175Y-104074125D01*
X76925875Y-104308825D01*
X77201853Y-104493228D01*
X77508504Y-104620246D01*
X77834042Y-104685000D01*
X78165958Y-104685000D01*
X78491496Y-104620246D01*
X78798147Y-104493228D01*
X79074125Y-104308825D01*
X79308825Y-104074125D01*
X79493228Y-103798147D01*
X79620246Y-103491496D01*
X79685000Y-103165958D01*
X79685000Y-102834042D01*
X79620246Y-102508504D01*
X79493228Y-102201853D01*
X79308825Y-101925875D01*
X79074125Y-101691175D01*
X78798147Y-101506772D01*
X78491496Y-101379754D01*
X78165958Y-101315000D01*
X77834042Y-101315000D01*
X77508504Y-101379754D01*
X77201853Y-101506772D01*
X76925875Y-101691175D01*
X76691175Y-101925875D01*
X76506772Y-102201853D01*
X76379754Y-102508504D01*
X76315000Y-102834042D01*
X74127000Y-102834042D01*
X74127000Y-100000000D01*
X74124560Y-99975224D01*
X74117333Y-99951399D01*
X74105597Y-99929443D01*
X74089803Y-99910197D01*
X74070557Y-99894403D01*
X74048601Y-99882667D01*
X74024776Y-99875440D01*
X74000000Y-99873000D01*
X66000000Y-99873000D01*
X65975224Y-99875440D01*
X65951399Y-99882667D01*
X65929443Y-99894403D01*
X65910197Y-99910197D01*
X65894403Y-99929443D01*
X65882667Y-99951399D01*
X65875440Y-99975224D01*
X65873000Y-100000000D01*
X65873000Y-101838083D01*
X65790256Y-101782795D01*
X65601898Y-101704774D01*
X65401939Y-101665000D01*
X65341864Y-101665000D01*
X65327501Y-101647499D01*
X65211776Y-101552526D01*
X65079747Y-101481954D01*
X64936486Y-101438497D01*
X64824833Y-101427500D01*
X64824822Y-101427500D01*
X64787500Y-101423824D01*
X64750178Y-101427500D01*
X64186657Y-101427500D01*
X64205537Y-101404494D01*
X64264502Y-101294180D01*
X64300812Y-101174482D01*
X64313072Y-101050000D01*
X64310000Y-100898250D01*
X64151250Y-100739500D01*
X63327000Y-100739500D01*
X63327000Y-100759500D01*
X63073000Y-100759500D01*
X63073000Y-100739500D01*
X62248750Y-100739500D01*
X62090000Y-100898250D01*
X62086928Y-101050000D01*
X62099188Y-101174482D01*
X62135498Y-101294180D01*
X62194463Y-101404494D01*
X62213343Y-101427500D01*
X61186657Y-101427500D01*
X61205537Y-101404494D01*
X61264502Y-101294180D01*
X61300812Y-101174482D01*
X61313072Y-101050000D01*
X61310000Y-100898250D01*
X61151250Y-100739500D01*
X60327000Y-100739500D01*
X60327000Y-100759500D01*
X60073000Y-100759500D01*
X60073000Y-100739500D01*
X59248750Y-100739500D01*
X59090000Y-100898250D01*
X59086928Y-101050000D01*
X59099188Y-101174482D01*
X59135498Y-101294180D01*
X59194463Y-101404494D01*
X59249100Y-101471070D01*
X59231329Y-101492725D01*
X59152150Y-101640858D01*
X59103392Y-101801592D01*
X59086928Y-101968750D01*
X59086928Y-102406250D01*
X59103392Y-102573408D01*
X59152150Y-102734142D01*
X59231329Y-102882275D01*
X59337885Y-103012115D01*
X59467725Y-103118671D01*
X59615858Y-103197850D01*
X59776592Y-103246608D01*
X59943750Y-103263072D01*
X60456250Y-103263072D01*
X60623408Y-103246608D01*
X60784142Y-103197850D01*
X60932275Y-103118671D01*
X61062115Y-103012115D01*
X61115143Y-102947500D01*
X61802698Y-102947500D01*
X60206354Y-104543844D01*
X60203937Y-104540226D01*
X60160000Y-104496289D01*
X60160000Y-104437322D01*
X60163676Y-104399999D01*
X60160000Y-104362677D01*
X60160000Y-104362667D01*
X60149003Y-104251014D01*
X60105546Y-104107753D01*
X60050331Y-104004454D01*
X60034974Y-103975723D01*
X59963799Y-103888997D01*
X59940001Y-103859999D01*
X59911003Y-103836201D01*
X59003804Y-102929002D01*
X58980001Y-102899999D01*
X58864276Y-102805026D01*
X58732247Y-102734454D01*
X58621352Y-102700815D01*
X58589502Y-102595820D01*
X58530537Y-102485506D01*
X58451185Y-102388815D01*
X58354494Y-102309463D01*
X58244180Y-102250498D01*
X58124482Y-102214188D01*
X58000000Y-102201928D01*
X56000000Y-102201928D01*
X55875518Y-102214188D01*
X55755820Y-102250498D01*
X55645506Y-102309463D01*
X55548815Y-102388815D01*
X55469463Y-102485506D01*
X55410498Y-102595820D01*
X55374188Y-102715518D01*
X55361928Y-102840000D01*
X55361928Y-104040000D01*
X55374188Y-104164482D01*
X55410498Y-104284180D01*
X55469463Y-104394494D01*
X55548815Y-104491185D01*
X55645506Y-104570537D01*
X55755820Y-104629502D01*
X55875518Y-104665812D01*
X56000000Y-104678072D01*
X58000000Y-104678072D01*
X58124482Y-104665812D01*
X58244180Y-104629502D01*
X58354494Y-104570537D01*
X58432070Y-104506872D01*
X58543737Y-104618538D01*
X58482795Y-104709744D01*
X58404774Y-104898102D01*
X58365000Y-105098061D01*
X58365000Y-105301939D01*
X58404774Y-105501898D01*
X58482795Y-105690256D01*
X58596063Y-105859774D01*
X58740226Y-106003937D01*
X58743844Y-106006355D01*
X57310199Y-107440000D01*
X53465039Y-107440000D01*
X53504609Y-107380779D01*
X53624089Y-107092327D01*
X53685000Y-106786109D01*
X53685000Y-106473891D01*
X53624089Y-106167673D01*
X53504609Y-105879221D01*
X53331150Y-105619621D01*
X53110379Y-105398850D01*
X52850779Y-105225391D01*
X52638072Y-105137285D01*
X52638072Y-104110000D01*
X52625812Y-103985518D01*
X52589502Y-103865820D01*
X52530537Y-103755506D01*
X52451185Y-103658815D01*
X52354494Y-103579463D01*
X52244180Y-103520498D01*
X52124482Y-103484188D01*
X52000000Y-103471928D01*
X50000000Y-103471928D01*
X49875518Y-103484188D01*
X49755820Y-103520498D01*
X49645506Y-103579463D01*
X49548815Y-103658815D01*
X49469463Y-103755506D01*
X49410498Y-103865820D01*
X49374188Y-103985518D01*
X49367576Y-104052655D01*
X49325724Y-104075026D01*
X49209999Y-104169999D01*
X49186201Y-104198998D01*
X48488998Y-104896201D01*
X48460000Y-104919999D01*
X48436202Y-104948997D01*
X48436201Y-104948998D01*
X48365026Y-105035724D01*
X48294454Y-105167754D01*
X48250998Y-105311015D01*
X48236324Y-105460000D01*
X48240001Y-105497332D01*
X48240000Y-106962677D01*
X48236324Y-107000000D01*
X48240000Y-107037322D01*
X48240000Y-107037332D01*
X48250997Y-107148985D01*
X48294454Y-107292246D01*
X48365026Y-107424276D01*
X48377931Y-107440000D01*
X48459999Y-107540001D01*
X48489003Y-107563804D01*
X49636201Y-108711003D01*
X49659999Y-108740001D01*
X49775724Y-108834974D01*
X49846865Y-108873000D01*
X48127000Y-108873000D01*
X48127000Y-102770000D01*
X49361928Y-102770000D01*
X49374188Y-102894482D01*
X49410498Y-103014180D01*
X49469463Y-103124494D01*
X49548815Y-103221185D01*
X49645506Y-103300537D01*
X49755820Y-103359502D01*
X49875518Y-103395812D01*
X50000000Y-103408072D01*
X50714250Y-103405000D01*
X50873000Y-103246250D01*
X50873000Y-102297000D01*
X51127000Y-102297000D01*
X51127000Y-103246250D01*
X51285750Y-103405000D01*
X52000000Y-103408072D01*
X52124482Y-103395812D01*
X52244180Y-103359502D01*
X52354494Y-103300537D01*
X52451185Y-103221185D01*
X52530537Y-103124494D01*
X52589502Y-103014180D01*
X52625812Y-102894482D01*
X52638072Y-102770000D01*
X52635000Y-102455750D01*
X52476250Y-102297000D01*
X51127000Y-102297000D01*
X50873000Y-102297000D01*
X49523750Y-102297000D01*
X49365000Y-102455750D01*
X49361928Y-102770000D01*
X48127000Y-102770000D01*
X48127000Y-101570000D01*
X49361928Y-101570000D01*
X49365000Y-101884250D01*
X49523750Y-102043000D01*
X50873000Y-102043000D01*
X50873000Y-101093750D01*
X51127000Y-101093750D01*
X51127000Y-102043000D01*
X52476250Y-102043000D01*
X52635000Y-101884250D01*
X52638072Y-101570000D01*
X52631178Y-101500000D01*
X55361928Y-101500000D01*
X55374188Y-101624482D01*
X55410498Y-101744180D01*
X55469463Y-101854494D01*
X55548815Y-101951185D01*
X55645506Y-102030537D01*
X55755820Y-102089502D01*
X55875518Y-102125812D01*
X56000000Y-102138072D01*
X56714250Y-102135000D01*
X56873000Y-101976250D01*
X56873000Y-101027000D01*
X57127000Y-101027000D01*
X57127000Y-101976250D01*
X57285750Y-102135000D01*
X58000000Y-102138072D01*
X58124482Y-102125812D01*
X58244180Y-102089502D01*
X58354494Y-102030537D01*
X58451185Y-101951185D01*
X58530537Y-101854494D01*
X58589502Y-101744180D01*
X58625812Y-101624482D01*
X58638072Y-101500000D01*
X58635000Y-101185750D01*
X58476250Y-101027000D01*
X57127000Y-101027000D01*
X56873000Y-101027000D01*
X55523750Y-101027000D01*
X55365000Y-101185750D01*
X55361928Y-101500000D01*
X52631178Y-101500000D01*
X52625812Y-101445518D01*
X52589502Y-101325820D01*
X52530537Y-101215506D01*
X52451185Y-101118815D01*
X52354494Y-101039463D01*
X52244180Y-100980498D01*
X52124482Y-100944188D01*
X52000000Y-100931928D01*
X51285750Y-100935000D01*
X51127000Y-101093750D01*
X50873000Y-101093750D01*
X50714250Y-100935000D01*
X50000000Y-100931928D01*
X49875518Y-100944188D01*
X49755820Y-100980498D01*
X49645506Y-101039463D01*
X49548815Y-101118815D01*
X49469463Y-101215506D01*
X49410498Y-101325820D01*
X49374188Y-101445518D01*
X49361928Y-101570000D01*
X48127000Y-101570000D01*
X48127000Y-98813891D01*
X50515000Y-98813891D01*
X50515000Y-99126109D01*
X50575911Y-99432327D01*
X50695391Y-99720779D01*
X50868850Y-99980379D01*
X51089621Y-100201150D01*
X51349221Y-100374609D01*
X51637673Y-100494089D01*
X51943891Y-100555000D01*
X52256109Y-100555000D01*
X52562327Y-100494089D01*
X52850779Y-100374609D01*
X52962439Y-100300000D01*
X55361928Y-100300000D01*
X55365000Y-100614250D01*
X55523750Y-100773000D01*
X56873000Y-100773000D01*
X56873000Y-99823750D01*
X57127000Y-99823750D01*
X57127000Y-100773000D01*
X58476250Y-100773000D01*
X58635000Y-100614250D01*
X58638072Y-100300000D01*
X58625812Y-100175518D01*
X58625655Y-100175000D01*
X59086928Y-100175000D01*
X59090000Y-100326750D01*
X59248750Y-100485500D01*
X60073000Y-100485500D01*
X60073000Y-99698750D01*
X60327000Y-99698750D01*
X60327000Y-100485500D01*
X61151250Y-100485500D01*
X61310000Y-100326750D01*
X61313072Y-100175000D01*
X62086928Y-100175000D01*
X62090000Y-100326750D01*
X62248750Y-100485500D01*
X63073000Y-100485500D01*
X63073000Y-99698750D01*
X63327000Y-99698750D01*
X63327000Y-100485500D01*
X64151250Y-100485500D01*
X64310000Y-100326750D01*
X64313072Y-100175000D01*
X64300812Y-100050518D01*
X64264502Y-99930820D01*
X64205537Y-99820506D01*
X64126185Y-99723815D01*
X64029494Y-99644463D01*
X63919180Y-99585498D01*
X63799482Y-99549188D01*
X63675000Y-99536928D01*
X63485750Y-99540000D01*
X63327000Y-99698750D01*
X63073000Y-99698750D01*
X62914250Y-99540000D01*
X62725000Y-99536928D01*
X62600518Y-99549188D01*
X62480820Y-99585498D01*
X62370506Y-99644463D01*
X62273815Y-99723815D01*
X62194463Y-99820506D01*
X62135498Y-99930820D01*
X62099188Y-100050518D01*
X62086928Y-100175000D01*
X61313072Y-100175000D01*
X61300812Y-100050518D01*
X61264502Y-99930820D01*
X61205537Y-99820506D01*
X61126185Y-99723815D01*
X61029494Y-99644463D01*
X60919180Y-99585498D01*
X60799482Y-99549188D01*
X60675000Y-99536928D01*
X60485750Y-99540000D01*
X60327000Y-99698750D01*
X60073000Y-99698750D01*
X59914250Y-99540000D01*
X59725000Y-99536928D01*
X59600518Y-99549188D01*
X59480820Y-99585498D01*
X59370506Y-99644463D01*
X59273815Y-99723815D01*
X59194463Y-99820506D01*
X59135498Y-99930820D01*
X59099188Y-100050518D01*
X59086928Y-100175000D01*
X58625655Y-100175000D01*
X58589502Y-100055820D01*
X58530537Y-99945506D01*
X58451185Y-99848815D01*
X58354494Y-99769463D01*
X58244180Y-99710498D01*
X58124482Y-99674188D01*
X58000000Y-99661928D01*
X57285750Y-99665000D01*
X57127000Y-99823750D01*
X56873000Y-99823750D01*
X56714250Y-99665000D01*
X56000000Y-99661928D01*
X55875518Y-99674188D01*
X55755820Y-99710498D01*
X55645506Y-99769463D01*
X55548815Y-99848815D01*
X55469463Y-99945506D01*
X55410498Y-100055820D01*
X55374188Y-100175518D01*
X55361928Y-100300000D01*
X52962439Y-100300000D01*
X53110379Y-100201150D01*
X53331150Y-99980379D01*
X53504609Y-99720779D01*
X53624089Y-99432327D01*
X53685000Y-99126109D01*
X53685000Y-98813891D01*
X53624089Y-98507673D01*
X53504609Y-98219221D01*
X53331150Y-97959621D01*
X53110379Y-97738850D01*
X52850779Y-97565391D01*
X52562327Y-97445911D01*
X52256109Y-97385000D01*
X51943891Y-97385000D01*
X51637673Y-97445911D01*
X51349221Y-97565391D01*
X51089621Y-97738850D01*
X50868850Y-97959621D01*
X50695391Y-98219221D01*
X50575911Y-98507673D01*
X50515000Y-98813891D01*
X48127000Y-98813891D01*
X48127000Y-97127000D01*
X80873000Y-97127000D01*
X80873000Y-106766000D01*
G04 #@! TA.AperFunction,Conductor*
D24*
G36*
X80873000Y-106766000D02*
G01*
X66453095Y-106766000D01*
X66453095Y-108873000D01*
X57978135Y-108873000D01*
X58049276Y-108834974D01*
X58165001Y-108740001D01*
X58188804Y-108710997D01*
X63666164Y-103233638D01*
X63784142Y-103197850D01*
X63932275Y-103118671D01*
X64062115Y-103012115D01*
X64115143Y-102947500D01*
X64293954Y-102947500D01*
X64304774Y-103001898D01*
X64382795Y-103190256D01*
X64496063Y-103359774D01*
X64640226Y-103503937D01*
X64809744Y-103617205D01*
X64998102Y-103695226D01*
X65198061Y-103735000D01*
X65401939Y-103735000D01*
X65601898Y-103695226D01*
X65790256Y-103617205D01*
X65873000Y-103561917D01*
X65873000Y-106000000D01*
X65875440Y-106024776D01*
X65882667Y-106048601D01*
X65894403Y-106070557D01*
X65910197Y-106089803D01*
X65929443Y-106105597D01*
X65951399Y-106117333D01*
X65975224Y-106124560D01*
X66000000Y-106127000D01*
X74000000Y-106127000D01*
X74024776Y-106124560D01*
X74048601Y-106117333D01*
X74070557Y-106105597D01*
X74089803Y-106089803D01*
X74105597Y-106070557D01*
X74117333Y-106048601D01*
X74124560Y-106024776D01*
X74127000Y-106000000D01*
X74127000Y-102834042D01*
X76315000Y-102834042D01*
X76315000Y-103165958D01*
X76379754Y-103491496D01*
X76506772Y-103798147D01*
X76691175Y-104074125D01*
X76925875Y-104308825D01*
X77201853Y-104493228D01*
X77508504Y-104620246D01*
X77834042Y-104685000D01*
X78165958Y-104685000D01*
X78491496Y-104620246D01*
X78798147Y-104493228D01*
X79074125Y-104308825D01*
X79308825Y-104074125D01*
X79493228Y-103798147D01*
X79620246Y-103491496D01*
X79685000Y-103165958D01*
X79685000Y-102834042D01*
X79620246Y-102508504D01*
X79493228Y-102201853D01*
X79308825Y-101925875D01*
X79074125Y-101691175D01*
X78798147Y-101506772D01*
X78491496Y-101379754D01*
X78165958Y-101315000D01*
X77834042Y-101315000D01*
X77508504Y-101379754D01*
X77201853Y-101506772D01*
X76925875Y-101691175D01*
X76691175Y-101925875D01*
X76506772Y-102201853D01*
X76379754Y-102508504D01*
X76315000Y-102834042D01*
X74127000Y-102834042D01*
X74127000Y-100000000D01*
X74124560Y-99975224D01*
X74117333Y-99951399D01*
X74105597Y-99929443D01*
X74089803Y-99910197D01*
X74070557Y-99894403D01*
X74048601Y-99882667D01*
X74024776Y-99875440D01*
X74000000Y-99873000D01*
X66000000Y-99873000D01*
X65975224Y-99875440D01*
X65951399Y-99882667D01*
X65929443Y-99894403D01*
X65910197Y-99910197D01*
X65894403Y-99929443D01*
X65882667Y-99951399D01*
X65875440Y-99975224D01*
X65873000Y-100000000D01*
X65873000Y-101838083D01*
X65790256Y-101782795D01*
X65601898Y-101704774D01*
X65401939Y-101665000D01*
X65341864Y-101665000D01*
X65327501Y-101647499D01*
X65211776Y-101552526D01*
X65079747Y-101481954D01*
X64936486Y-101438497D01*
X64824833Y-101427500D01*
X64824822Y-101427500D01*
X64787500Y-101423824D01*
X64750178Y-101427500D01*
X64186657Y-101427500D01*
X64205537Y-101404494D01*
X64264502Y-101294180D01*
X64300812Y-101174482D01*
X64313072Y-101050000D01*
X64310000Y-100898250D01*
X64151250Y-100739500D01*
X63327000Y-100739500D01*
X63327000Y-100759500D01*
X63073000Y-100759500D01*
X63073000Y-100739500D01*
X62248750Y-100739500D01*
X62090000Y-100898250D01*
X62086928Y-101050000D01*
X62099188Y-101174482D01*
X62135498Y-101294180D01*
X62194463Y-101404494D01*
X62213343Y-101427500D01*
X61186657Y-101427500D01*
X61205537Y-101404494D01*
X61264502Y-101294180D01*
X61300812Y-101174482D01*
X61313072Y-101050000D01*
X61310000Y-100898250D01*
X61151250Y-100739500D01*
X60327000Y-100739500D01*
X60327000Y-100759500D01*
X60073000Y-100759500D01*
X60073000Y-100739500D01*
X59248750Y-100739500D01*
X59090000Y-100898250D01*
X59086928Y-101050000D01*
X59099188Y-101174482D01*
X59135498Y-101294180D01*
X59194463Y-101404494D01*
X59249100Y-101471070D01*
X59231329Y-101492725D01*
X59152150Y-101640858D01*
X59103392Y-101801592D01*
X59086928Y-101968750D01*
X59086928Y-102406250D01*
X59103392Y-102573408D01*
X59152150Y-102734142D01*
X59231329Y-102882275D01*
X59337885Y-103012115D01*
X59467725Y-103118671D01*
X59615858Y-103197850D01*
X59776592Y-103246608D01*
X59943750Y-103263072D01*
X60456250Y-103263072D01*
X60623408Y-103246608D01*
X60784142Y-103197850D01*
X60932275Y-103118671D01*
X61062115Y-103012115D01*
X61115143Y-102947500D01*
X61802698Y-102947500D01*
X60206354Y-104543844D01*
X60203937Y-104540226D01*
X60160000Y-104496289D01*
X60160000Y-104437322D01*
X60163676Y-104399999D01*
X60160000Y-104362677D01*
X60160000Y-104362667D01*
X60149003Y-104251014D01*
X60105546Y-104107753D01*
X60050331Y-104004454D01*
X60034974Y-103975723D01*
X59963799Y-103888997D01*
X59940001Y-103859999D01*
X59911003Y-103836201D01*
X59003804Y-102929002D01*
X58980001Y-102899999D01*
X58864276Y-102805026D01*
X58732247Y-102734454D01*
X58621352Y-102700815D01*
X58589502Y-102595820D01*
X58530537Y-102485506D01*
X58451185Y-102388815D01*
X58354494Y-102309463D01*
X58244180Y-102250498D01*
X58124482Y-102214188D01*
X58000000Y-102201928D01*
X56000000Y-102201928D01*
X55875518Y-102214188D01*
X55755820Y-102250498D01*
X55645506Y-102309463D01*
X55548815Y-102388815D01*
X55469463Y-102485506D01*
X55410498Y-102595820D01*
X55374188Y-102715518D01*
X55361928Y-102840000D01*
X55361928Y-104040000D01*
X55374188Y-104164482D01*
X55410498Y-104284180D01*
X55469463Y-104394494D01*
X55548815Y-104491185D01*
X55645506Y-104570537D01*
X55755820Y-104629502D01*
X55875518Y-104665812D01*
X56000000Y-104678072D01*
X58000000Y-104678072D01*
X58124482Y-104665812D01*
X58244180Y-104629502D01*
X58354494Y-104570537D01*
X58432070Y-104506872D01*
X58543737Y-104618538D01*
X58482795Y-104709744D01*
X58404774Y-104898102D01*
X58365000Y-105098061D01*
X58365000Y-105301939D01*
X58404774Y-105501898D01*
X58482795Y-105690256D01*
X58596063Y-105859774D01*
X58740226Y-106003937D01*
X58743844Y-106006355D01*
X57310199Y-107440000D01*
X53465039Y-107440000D01*
X53504609Y-107380779D01*
X53624089Y-107092327D01*
X53685000Y-106786109D01*
X53685000Y-106473891D01*
X53624089Y-106167673D01*
X53504609Y-105879221D01*
X53331150Y-105619621D01*
X53110379Y-105398850D01*
X52850779Y-105225391D01*
X52638072Y-105137285D01*
X52638072Y-104110000D01*
X52625812Y-103985518D01*
X52589502Y-103865820D01*
X52530537Y-103755506D01*
X52451185Y-103658815D01*
X52354494Y-103579463D01*
X52244180Y-103520498D01*
X52124482Y-103484188D01*
X52000000Y-103471928D01*
X50000000Y-103471928D01*
X49875518Y-103484188D01*
X49755820Y-103520498D01*
X49645506Y-103579463D01*
X49548815Y-103658815D01*
X49469463Y-103755506D01*
X49410498Y-103865820D01*
X49374188Y-103985518D01*
X49367576Y-104052655D01*
X49325724Y-104075026D01*
X49209999Y-104169999D01*
X49186201Y-104198998D01*
X48488998Y-104896201D01*
X48460000Y-104919999D01*
X48436202Y-104948997D01*
X48436201Y-104948998D01*
X48365026Y-105035724D01*
X48294454Y-105167754D01*
X48250998Y-105311015D01*
X48236324Y-105460000D01*
X48240001Y-105497332D01*
X48240000Y-106962677D01*
X48236324Y-107000000D01*
X48240000Y-107037322D01*
X48240000Y-107037332D01*
X48250997Y-107148985D01*
X48294454Y-107292246D01*
X48365026Y-107424276D01*
X48377931Y-107440000D01*
X48459999Y-107540001D01*
X48489003Y-107563804D01*
X49636201Y-108711003D01*
X49659999Y-108740001D01*
X49775724Y-108834974D01*
X49846865Y-108873000D01*
X48127000Y-108873000D01*
X48127000Y-102770000D01*
X49361928Y-102770000D01*
X49374188Y-102894482D01*
X49410498Y-103014180D01*
X49469463Y-103124494D01*
X49548815Y-103221185D01*
X49645506Y-103300537D01*
X49755820Y-103359502D01*
X49875518Y-103395812D01*
X50000000Y-103408072D01*
X50714250Y-103405000D01*
X50873000Y-103246250D01*
X50873000Y-102297000D01*
X51127000Y-102297000D01*
X51127000Y-103246250D01*
X51285750Y-103405000D01*
X52000000Y-103408072D01*
X52124482Y-103395812D01*
X52244180Y-103359502D01*
X52354494Y-103300537D01*
X52451185Y-103221185D01*
X52530537Y-103124494D01*
X52589502Y-103014180D01*
X52625812Y-102894482D01*
X52638072Y-102770000D01*
X52635000Y-102455750D01*
X52476250Y-102297000D01*
X51127000Y-102297000D01*
X50873000Y-102297000D01*
X49523750Y-102297000D01*
X49365000Y-102455750D01*
X49361928Y-102770000D01*
X48127000Y-102770000D01*
X48127000Y-101570000D01*
X49361928Y-101570000D01*
X49365000Y-101884250D01*
X49523750Y-102043000D01*
X50873000Y-102043000D01*
X50873000Y-101093750D01*
X51127000Y-101093750D01*
X51127000Y-102043000D01*
X52476250Y-102043000D01*
X52635000Y-101884250D01*
X52638072Y-101570000D01*
X52631178Y-101500000D01*
X55361928Y-101500000D01*
X55374188Y-101624482D01*
X55410498Y-101744180D01*
X55469463Y-101854494D01*
X55548815Y-101951185D01*
X55645506Y-102030537D01*
X55755820Y-102089502D01*
X55875518Y-102125812D01*
X56000000Y-102138072D01*
X56714250Y-102135000D01*
X56873000Y-101976250D01*
X56873000Y-101027000D01*
X57127000Y-101027000D01*
X57127000Y-101976250D01*
X57285750Y-102135000D01*
X58000000Y-102138072D01*
X58124482Y-102125812D01*
X58244180Y-102089502D01*
X58354494Y-102030537D01*
X58451185Y-101951185D01*
X58530537Y-101854494D01*
X58589502Y-101744180D01*
X58625812Y-101624482D01*
X58638072Y-101500000D01*
X58635000Y-101185750D01*
X58476250Y-101027000D01*
X57127000Y-101027000D01*
X56873000Y-101027000D01*
X55523750Y-101027000D01*
X55365000Y-101185750D01*
X55361928Y-101500000D01*
X52631178Y-101500000D01*
X52625812Y-101445518D01*
X52589502Y-101325820D01*
X52530537Y-101215506D01*
X52451185Y-101118815D01*
X52354494Y-101039463D01*
X52244180Y-100980498D01*
X52124482Y-100944188D01*
X52000000Y-100931928D01*
X51285750Y-100935000D01*
X51127000Y-101093750D01*
X50873000Y-101093750D01*
X50714250Y-100935000D01*
X50000000Y-100931928D01*
X49875518Y-100944188D01*
X49755820Y-100980498D01*
X49645506Y-101039463D01*
X49548815Y-101118815D01*
X49469463Y-101215506D01*
X49410498Y-101325820D01*
X49374188Y-101445518D01*
X49361928Y-101570000D01*
X48127000Y-101570000D01*
X48127000Y-98813891D01*
X50515000Y-98813891D01*
X50515000Y-99126109D01*
X50575911Y-99432327D01*
X50695391Y-99720779D01*
X50868850Y-99980379D01*
X51089621Y-100201150D01*
X51349221Y-100374609D01*
X51637673Y-100494089D01*
X51943891Y-100555000D01*
X52256109Y-100555000D01*
X52562327Y-100494089D01*
X52850779Y-100374609D01*
X52962439Y-100300000D01*
X55361928Y-100300000D01*
X55365000Y-100614250D01*
X55523750Y-100773000D01*
X56873000Y-100773000D01*
X56873000Y-99823750D01*
X57127000Y-99823750D01*
X57127000Y-100773000D01*
X58476250Y-100773000D01*
X58635000Y-100614250D01*
X58638072Y-100300000D01*
X58625812Y-100175518D01*
X58625655Y-100175000D01*
X59086928Y-100175000D01*
X59090000Y-100326750D01*
X59248750Y-100485500D01*
X60073000Y-100485500D01*
X60073000Y-99698750D01*
X60327000Y-99698750D01*
X60327000Y-100485500D01*
X61151250Y-100485500D01*
X61310000Y-100326750D01*
X61313072Y-100175000D01*
X62086928Y-100175000D01*
X62090000Y-100326750D01*
X62248750Y-100485500D01*
X63073000Y-100485500D01*
X63073000Y-99698750D01*
X63327000Y-99698750D01*
X63327000Y-100485500D01*
X64151250Y-100485500D01*
X64310000Y-100326750D01*
X64313072Y-100175000D01*
X64300812Y-100050518D01*
X64264502Y-99930820D01*
X64205537Y-99820506D01*
X64126185Y-99723815D01*
X64029494Y-99644463D01*
X63919180Y-99585498D01*
X63799482Y-99549188D01*
X63675000Y-99536928D01*
X63485750Y-99540000D01*
X63327000Y-99698750D01*
X63073000Y-99698750D01*
X62914250Y-99540000D01*
X62725000Y-99536928D01*
X62600518Y-99549188D01*
X62480820Y-99585498D01*
X62370506Y-99644463D01*
X62273815Y-99723815D01*
X62194463Y-99820506D01*
X62135498Y-99930820D01*
X62099188Y-100050518D01*
X62086928Y-100175000D01*
X61313072Y-100175000D01*
X61300812Y-100050518D01*
X61264502Y-99930820D01*
X61205537Y-99820506D01*
X61126185Y-99723815D01*
X61029494Y-99644463D01*
X60919180Y-99585498D01*
X60799482Y-99549188D01*
X60675000Y-99536928D01*
X60485750Y-99540000D01*
X60327000Y-99698750D01*
X60073000Y-99698750D01*
X59914250Y-99540000D01*
X59725000Y-99536928D01*
X59600518Y-99549188D01*
X59480820Y-99585498D01*
X59370506Y-99644463D01*
X59273815Y-99723815D01*
X59194463Y-99820506D01*
X59135498Y-99930820D01*
X59099188Y-100050518D01*
X59086928Y-100175000D01*
X58625655Y-100175000D01*
X58589502Y-100055820D01*
X58530537Y-99945506D01*
X58451185Y-99848815D01*
X58354494Y-99769463D01*
X58244180Y-99710498D01*
X58124482Y-99674188D01*
X58000000Y-99661928D01*
X57285750Y-99665000D01*
X57127000Y-99823750D01*
X56873000Y-99823750D01*
X56714250Y-99665000D01*
X56000000Y-99661928D01*
X55875518Y-99674188D01*
X55755820Y-99710498D01*
X55645506Y-99769463D01*
X55548815Y-99848815D01*
X55469463Y-99945506D01*
X55410498Y-100055820D01*
X55374188Y-100175518D01*
X55361928Y-100300000D01*
X52962439Y-100300000D01*
X53110379Y-100201150D01*
X53331150Y-99980379D01*
X53504609Y-99720779D01*
X53624089Y-99432327D01*
X53685000Y-99126109D01*
X53685000Y-98813891D01*
X53624089Y-98507673D01*
X53504609Y-98219221D01*
X53331150Y-97959621D01*
X53110379Y-97738850D01*
X52850779Y-97565391D01*
X52562327Y-97445911D01*
X52256109Y-97385000D01*
X51943891Y-97385000D01*
X51637673Y-97445911D01*
X51349221Y-97565391D01*
X51089621Y-97738850D01*
X50868850Y-97959621D01*
X50695391Y-98219221D01*
X50575911Y-98507673D01*
X50515000Y-98813891D01*
X48127000Y-98813891D01*
X48127000Y-97127000D01*
X80873000Y-97127000D01*
X80873000Y-106766000D01*
G37*
G04 #@! TD.AperFunction*
D23*
X118873000Y-106866000D02*
X104653095Y-106866000D01*
X104653095Y-108873000D01*
X96226801Y-108873000D01*
X101666164Y-103433638D01*
X101784142Y-103397850D01*
X101932275Y-103318671D01*
X102062115Y-103212115D01*
X102115143Y-103147500D01*
X102293954Y-103147500D01*
X102304774Y-103201898D01*
X102382795Y-103390256D01*
X102496063Y-103559774D01*
X102640226Y-103703937D01*
X102809744Y-103817205D01*
X102998102Y-103895226D01*
X103198061Y-103935000D01*
X103401939Y-103935000D01*
X103601898Y-103895226D01*
X103790256Y-103817205D01*
X103873000Y-103761917D01*
X103873000Y-106000000D01*
X103875440Y-106024776D01*
X103882667Y-106048601D01*
X103894403Y-106070557D01*
X103910197Y-106089803D01*
X103929443Y-106105597D01*
X103951399Y-106117333D01*
X103975224Y-106124560D01*
X104000000Y-106127000D01*
X112000000Y-106127000D01*
X112024776Y-106124560D01*
X112048601Y-106117333D01*
X112070557Y-106105597D01*
X112089803Y-106089803D01*
X112105597Y-106070557D01*
X112117333Y-106048601D01*
X112124560Y-106024776D01*
X112127000Y-106000000D01*
X112127000Y-102834042D01*
X114315000Y-102834042D01*
X114315000Y-103165958D01*
X114379754Y-103491496D01*
X114506772Y-103798147D01*
X114691175Y-104074125D01*
X114925875Y-104308825D01*
X115201853Y-104493228D01*
X115508504Y-104620246D01*
X115834042Y-104685000D01*
X116165958Y-104685000D01*
X116491496Y-104620246D01*
X116798147Y-104493228D01*
X117074125Y-104308825D01*
X117308825Y-104074125D01*
X117493228Y-103798147D01*
X117620246Y-103491496D01*
X117685000Y-103165958D01*
X117685000Y-102834042D01*
X117620246Y-102508504D01*
X117493228Y-102201853D01*
X117308825Y-101925875D01*
X117074125Y-101691175D01*
X116798147Y-101506772D01*
X116491496Y-101379754D01*
X116165958Y-101315000D01*
X115834042Y-101315000D01*
X115508504Y-101379754D01*
X115201853Y-101506772D01*
X114925875Y-101691175D01*
X114691175Y-101925875D01*
X114506772Y-102201853D01*
X114379754Y-102508504D01*
X114315000Y-102834042D01*
X112127000Y-102834042D01*
X112127000Y-100000000D01*
X112124560Y-99975224D01*
X112117333Y-99951399D01*
X112105597Y-99929443D01*
X112089803Y-99910197D01*
X112070557Y-99894403D01*
X112048601Y-99882667D01*
X112024776Y-99875440D01*
X112000000Y-99873000D01*
X104000000Y-99873000D01*
X103975224Y-99875440D01*
X103951399Y-99882667D01*
X103929443Y-99894403D01*
X103910197Y-99910197D01*
X103894403Y-99929443D01*
X103882667Y-99951399D01*
X103875440Y-99975224D01*
X103873000Y-100000000D01*
X103873000Y-102038083D01*
X103790256Y-101982795D01*
X103601898Y-101904774D01*
X103401939Y-101865000D01*
X103341864Y-101865000D01*
X103327501Y-101847499D01*
X103211776Y-101752526D01*
X103079747Y-101681954D01*
X102936486Y-101638497D01*
X102824833Y-101627500D01*
X102824822Y-101627500D01*
X102787500Y-101623824D01*
X102750178Y-101627500D01*
X102186657Y-101627500D01*
X102205537Y-101604494D01*
X102264502Y-101494180D01*
X102300812Y-101374482D01*
X102313072Y-101250000D01*
X102310000Y-101098250D01*
X102151250Y-100939500D01*
X101327000Y-100939500D01*
X101327000Y-100959500D01*
X101073000Y-100959500D01*
X101073000Y-100939500D01*
X100248750Y-100939500D01*
X100090000Y-101098250D01*
X100086928Y-101250000D01*
X100099188Y-101374482D01*
X100135498Y-101494180D01*
X100194463Y-101604494D01*
X100213343Y-101627500D01*
X99386657Y-101627500D01*
X99405537Y-101604494D01*
X99464502Y-101494180D01*
X99500812Y-101374482D01*
X99513072Y-101250000D01*
X99510000Y-101098250D01*
X99351250Y-100939500D01*
X98527000Y-100939500D01*
X98527000Y-100959500D01*
X98273000Y-100959500D01*
X98273000Y-100939500D01*
X97448750Y-100939500D01*
X97290000Y-101098250D01*
X97286928Y-101250000D01*
X97299188Y-101374482D01*
X97335498Y-101494180D01*
X97394463Y-101604494D01*
X97449100Y-101671070D01*
X97431329Y-101692725D01*
X97352150Y-101840858D01*
X97303392Y-102001592D01*
X97286928Y-102168750D01*
X97286928Y-102606250D01*
X97303392Y-102773408D01*
X97352150Y-102934142D01*
X97431329Y-103082275D01*
X97537885Y-103212115D01*
X97667725Y-103318671D01*
X97815858Y-103397850D01*
X97976592Y-103446608D01*
X98143750Y-103463072D01*
X98656250Y-103463072D01*
X98823408Y-103446608D01*
X98984142Y-103397850D01*
X99132275Y-103318671D01*
X99262115Y-103212115D01*
X99315143Y-103147500D01*
X99802698Y-103147500D01*
X98206354Y-104743844D01*
X98203937Y-104740226D01*
X98160000Y-104696289D01*
X98160000Y-104637322D01*
X98163676Y-104599999D01*
X98160000Y-104562677D01*
X98160000Y-104562667D01*
X98149003Y-104451014D01*
X98105546Y-104307753D01*
X98050331Y-104204454D01*
X98034974Y-104175723D01*
X97963799Y-104088997D01*
X97940001Y-104059999D01*
X97911003Y-104036201D01*
X97003804Y-103129002D01*
X96980001Y-103099999D01*
X96864276Y-103005026D01*
X96732247Y-102934454D01*
X96638072Y-102905887D01*
X96638072Y-102840000D01*
X96625812Y-102715518D01*
X96589502Y-102595820D01*
X96530537Y-102485506D01*
X96451185Y-102388815D01*
X96354494Y-102309463D01*
X96244180Y-102250498D01*
X96124482Y-102214188D01*
X96000000Y-102201928D01*
X94000000Y-102201928D01*
X93875518Y-102214188D01*
X93755820Y-102250498D01*
X93645506Y-102309463D01*
X93548815Y-102388815D01*
X93469463Y-102485506D01*
X93410498Y-102595820D01*
X93374188Y-102715518D01*
X93361928Y-102840000D01*
X93361928Y-104040000D01*
X93374188Y-104164482D01*
X93410498Y-104284180D01*
X93469463Y-104394494D01*
X93548815Y-104491185D01*
X93645506Y-104570537D01*
X93755820Y-104629502D01*
X93875518Y-104665812D01*
X94000000Y-104678072D01*
X96000000Y-104678072D01*
X96124482Y-104665812D01*
X96244180Y-104629502D01*
X96316203Y-104591004D01*
X96543737Y-104818538D01*
X96482795Y-104909744D01*
X96404774Y-105098102D01*
X96365000Y-105298061D01*
X96365000Y-105501939D01*
X96404774Y-105701898D01*
X96482795Y-105890256D01*
X96596063Y-106059774D01*
X96740226Y-106203937D01*
X96743844Y-106206355D01*
X95310199Y-107640000D01*
X91331403Y-107640000D01*
X91504609Y-107380779D01*
X91624089Y-107092327D01*
X91685000Y-106786109D01*
X91685000Y-106473891D01*
X91624089Y-106167673D01*
X91504609Y-105879221D01*
X91331150Y-105619621D01*
X91110379Y-105398850D01*
X90850779Y-105225391D01*
X90638072Y-105137285D01*
X90638072Y-104110000D01*
X90625812Y-103985518D01*
X90589502Y-103865820D01*
X90530537Y-103755506D01*
X90451185Y-103658815D01*
X90354494Y-103579463D01*
X90244180Y-103520498D01*
X90124482Y-103484188D01*
X90000000Y-103471928D01*
X88000000Y-103471928D01*
X87875518Y-103484188D01*
X87755820Y-103520498D01*
X87645506Y-103579463D01*
X87548815Y-103658815D01*
X87469463Y-103755506D01*
X87410498Y-103865820D01*
X87374188Y-103985518D01*
X87361928Y-104110000D01*
X87361928Y-104255674D01*
X87325724Y-104275026D01*
X87209999Y-104369999D01*
X87186201Y-104398998D01*
X86488998Y-105096201D01*
X86460000Y-105119999D01*
X86436202Y-105148997D01*
X86436201Y-105148998D01*
X86365026Y-105235724D01*
X86294454Y-105367754D01*
X86269506Y-105450001D01*
X86250998Y-105511014D01*
X86243966Y-105582406D01*
X86236324Y-105660000D01*
X86240001Y-105697332D01*
X86240000Y-107162677D01*
X86236324Y-107200000D01*
X86240000Y-107237322D01*
X86240000Y-107237332D01*
X86250997Y-107348985D01*
X86294454Y-107492246D01*
X86365026Y-107624276D01*
X86377931Y-107640000D01*
X86459999Y-107740001D01*
X86489003Y-107763804D01*
X87598198Y-108873000D01*
X86127000Y-108873000D01*
X86127000Y-102770000D01*
X87361928Y-102770000D01*
X87374188Y-102894482D01*
X87410498Y-103014180D01*
X87469463Y-103124494D01*
X87548815Y-103221185D01*
X87645506Y-103300537D01*
X87755820Y-103359502D01*
X87875518Y-103395812D01*
X88000000Y-103408072D01*
X88714250Y-103405000D01*
X88873000Y-103246250D01*
X88873000Y-102297000D01*
X89127000Y-102297000D01*
X89127000Y-103246250D01*
X89285750Y-103405000D01*
X90000000Y-103408072D01*
X90124482Y-103395812D01*
X90244180Y-103359502D01*
X90354494Y-103300537D01*
X90451185Y-103221185D01*
X90530537Y-103124494D01*
X90589502Y-103014180D01*
X90625812Y-102894482D01*
X90638072Y-102770000D01*
X90635000Y-102455750D01*
X90476250Y-102297000D01*
X89127000Y-102297000D01*
X88873000Y-102297000D01*
X87523750Y-102297000D01*
X87365000Y-102455750D01*
X87361928Y-102770000D01*
X86127000Y-102770000D01*
X86127000Y-101570000D01*
X87361928Y-101570000D01*
X87365000Y-101884250D01*
X87523750Y-102043000D01*
X88873000Y-102043000D01*
X88873000Y-101093750D01*
X89127000Y-101093750D01*
X89127000Y-102043000D01*
X90476250Y-102043000D01*
X90635000Y-101884250D01*
X90638072Y-101570000D01*
X90631178Y-101500000D01*
X93361928Y-101500000D01*
X93374188Y-101624482D01*
X93410498Y-101744180D01*
X93469463Y-101854494D01*
X93548815Y-101951185D01*
X93645506Y-102030537D01*
X93755820Y-102089502D01*
X93875518Y-102125812D01*
X94000000Y-102138072D01*
X94714250Y-102135000D01*
X94873000Y-101976250D01*
X94873000Y-101027000D01*
X95127000Y-101027000D01*
X95127000Y-101976250D01*
X95285750Y-102135000D01*
X96000000Y-102138072D01*
X96124482Y-102125812D01*
X96244180Y-102089502D01*
X96354494Y-102030537D01*
X96451185Y-101951185D01*
X96530537Y-101854494D01*
X96589502Y-101744180D01*
X96625812Y-101624482D01*
X96638072Y-101500000D01*
X96635000Y-101185750D01*
X96476250Y-101027000D01*
X95127000Y-101027000D01*
X94873000Y-101027000D01*
X93523750Y-101027000D01*
X93365000Y-101185750D01*
X93361928Y-101500000D01*
X90631178Y-101500000D01*
X90625812Y-101445518D01*
X90589502Y-101325820D01*
X90530537Y-101215506D01*
X90451185Y-101118815D01*
X90354494Y-101039463D01*
X90244180Y-100980498D01*
X90124482Y-100944188D01*
X90000000Y-100931928D01*
X89285750Y-100935000D01*
X89127000Y-101093750D01*
X88873000Y-101093750D01*
X88714250Y-100935000D01*
X88000000Y-100931928D01*
X87875518Y-100944188D01*
X87755820Y-100980498D01*
X87645506Y-101039463D01*
X87548815Y-101118815D01*
X87469463Y-101215506D01*
X87410498Y-101325820D01*
X87374188Y-101445518D01*
X87361928Y-101570000D01*
X86127000Y-101570000D01*
X86127000Y-98813891D01*
X88515000Y-98813891D01*
X88515000Y-99126109D01*
X88575911Y-99432327D01*
X88695391Y-99720779D01*
X88868850Y-99980379D01*
X89089621Y-100201150D01*
X89349221Y-100374609D01*
X89637673Y-100494089D01*
X89943891Y-100555000D01*
X90256109Y-100555000D01*
X90562327Y-100494089D01*
X90850779Y-100374609D01*
X90962439Y-100300000D01*
X93361928Y-100300000D01*
X93365000Y-100614250D01*
X93523750Y-100773000D01*
X94873000Y-100773000D01*
X94873000Y-99823750D01*
X95127000Y-99823750D01*
X95127000Y-100773000D01*
X96476250Y-100773000D01*
X96635000Y-100614250D01*
X96637338Y-100375000D01*
X97286928Y-100375000D01*
X97290000Y-100526750D01*
X97448750Y-100685500D01*
X98273000Y-100685500D01*
X98273000Y-99898750D01*
X98527000Y-99898750D01*
X98527000Y-100685500D01*
X99351250Y-100685500D01*
X99510000Y-100526750D01*
X99513072Y-100375000D01*
X100086928Y-100375000D01*
X100090000Y-100526750D01*
X100248750Y-100685500D01*
X101073000Y-100685500D01*
X101073000Y-99898750D01*
X101327000Y-99898750D01*
X101327000Y-100685500D01*
X102151250Y-100685500D01*
X102310000Y-100526750D01*
X102313072Y-100375000D01*
X102300812Y-100250518D01*
X102264502Y-100130820D01*
X102205537Y-100020506D01*
X102126185Y-99923815D01*
X102029494Y-99844463D01*
X101919180Y-99785498D01*
X101799482Y-99749188D01*
X101675000Y-99736928D01*
X101485750Y-99740000D01*
X101327000Y-99898750D01*
X101073000Y-99898750D01*
X100914250Y-99740000D01*
X100725000Y-99736928D01*
X100600518Y-99749188D01*
X100480820Y-99785498D01*
X100370506Y-99844463D01*
X100273815Y-99923815D01*
X100194463Y-100020506D01*
X100135498Y-100130820D01*
X100099188Y-100250518D01*
X100086928Y-100375000D01*
X99513072Y-100375000D01*
X99500812Y-100250518D01*
X99464502Y-100130820D01*
X99405537Y-100020506D01*
X99326185Y-99923815D01*
X99229494Y-99844463D01*
X99119180Y-99785498D01*
X98999482Y-99749188D01*
X98875000Y-99736928D01*
X98685750Y-99740000D01*
X98527000Y-99898750D01*
X98273000Y-99898750D01*
X98114250Y-99740000D01*
X97925000Y-99736928D01*
X97800518Y-99749188D01*
X97680820Y-99785498D01*
X97570506Y-99844463D01*
X97473815Y-99923815D01*
X97394463Y-100020506D01*
X97335498Y-100130820D01*
X97299188Y-100250518D01*
X97286928Y-100375000D01*
X96637338Y-100375000D01*
X96638072Y-100300000D01*
X96625812Y-100175518D01*
X96589502Y-100055820D01*
X96530537Y-99945506D01*
X96451185Y-99848815D01*
X96354494Y-99769463D01*
X96244180Y-99710498D01*
X96124482Y-99674188D01*
X96000000Y-99661928D01*
X95285750Y-99665000D01*
X95127000Y-99823750D01*
X94873000Y-99823750D01*
X94714250Y-99665000D01*
X94000000Y-99661928D01*
X93875518Y-99674188D01*
X93755820Y-99710498D01*
X93645506Y-99769463D01*
X93548815Y-99848815D01*
X93469463Y-99945506D01*
X93410498Y-100055820D01*
X93374188Y-100175518D01*
X93361928Y-100300000D01*
X90962439Y-100300000D01*
X91110379Y-100201150D01*
X91331150Y-99980379D01*
X91504609Y-99720779D01*
X91624089Y-99432327D01*
X91685000Y-99126109D01*
X91685000Y-98813891D01*
X91624089Y-98507673D01*
X91504609Y-98219221D01*
X91331150Y-97959621D01*
X91110379Y-97738850D01*
X90850779Y-97565391D01*
X90562327Y-97445911D01*
X90256109Y-97385000D01*
X89943891Y-97385000D01*
X89637673Y-97445911D01*
X89349221Y-97565391D01*
X89089621Y-97738850D01*
X88868850Y-97959621D01*
X88695391Y-98219221D01*
X88575911Y-98507673D01*
X88515000Y-98813891D01*
X86127000Y-98813891D01*
X86127000Y-97127000D01*
X118873000Y-97127000D01*
X118873000Y-106866000D01*
G04 #@! TA.AperFunction,Conductor*
D24*
G36*
X118873000Y-106866000D02*
G01*
X104653095Y-106866000D01*
X104653095Y-108873000D01*
X96226801Y-108873000D01*
X101666164Y-103433638D01*
X101784142Y-103397850D01*
X101932275Y-103318671D01*
X102062115Y-103212115D01*
X102115143Y-103147500D01*
X102293954Y-103147500D01*
X102304774Y-103201898D01*
X102382795Y-103390256D01*
X102496063Y-103559774D01*
X102640226Y-103703937D01*
X102809744Y-103817205D01*
X102998102Y-103895226D01*
X103198061Y-103935000D01*
X103401939Y-103935000D01*
X103601898Y-103895226D01*
X103790256Y-103817205D01*
X103873000Y-103761917D01*
X103873000Y-106000000D01*
X103875440Y-106024776D01*
X103882667Y-106048601D01*
X103894403Y-106070557D01*
X103910197Y-106089803D01*
X103929443Y-106105597D01*
X103951399Y-106117333D01*
X103975224Y-106124560D01*
X104000000Y-106127000D01*
X112000000Y-106127000D01*
X112024776Y-106124560D01*
X112048601Y-106117333D01*
X112070557Y-106105597D01*
X112089803Y-106089803D01*
X112105597Y-106070557D01*
X112117333Y-106048601D01*
X112124560Y-106024776D01*
X112127000Y-106000000D01*
X112127000Y-102834042D01*
X114315000Y-102834042D01*
X114315000Y-103165958D01*
X114379754Y-103491496D01*
X114506772Y-103798147D01*
X114691175Y-104074125D01*
X114925875Y-104308825D01*
X115201853Y-104493228D01*
X115508504Y-104620246D01*
X115834042Y-104685000D01*
X116165958Y-104685000D01*
X116491496Y-104620246D01*
X116798147Y-104493228D01*
X117074125Y-104308825D01*
X117308825Y-104074125D01*
X117493228Y-103798147D01*
X117620246Y-103491496D01*
X117685000Y-103165958D01*
X117685000Y-102834042D01*
X117620246Y-102508504D01*
X117493228Y-102201853D01*
X117308825Y-101925875D01*
X117074125Y-101691175D01*
X116798147Y-101506772D01*
X116491496Y-101379754D01*
X116165958Y-101315000D01*
X115834042Y-101315000D01*
X115508504Y-101379754D01*
X115201853Y-101506772D01*
X114925875Y-101691175D01*
X114691175Y-101925875D01*
X114506772Y-102201853D01*
X114379754Y-102508504D01*
X114315000Y-102834042D01*
X112127000Y-102834042D01*
X112127000Y-100000000D01*
X112124560Y-99975224D01*
X112117333Y-99951399D01*
X112105597Y-99929443D01*
X112089803Y-99910197D01*
X112070557Y-99894403D01*
X112048601Y-99882667D01*
X112024776Y-99875440D01*
X112000000Y-99873000D01*
X104000000Y-99873000D01*
X103975224Y-99875440D01*
X103951399Y-99882667D01*
X103929443Y-99894403D01*
X103910197Y-99910197D01*
X103894403Y-99929443D01*
X103882667Y-99951399D01*
X103875440Y-99975224D01*
X103873000Y-100000000D01*
X103873000Y-102038083D01*
X103790256Y-101982795D01*
X103601898Y-101904774D01*
X103401939Y-101865000D01*
X103341864Y-101865000D01*
X103327501Y-101847499D01*
X103211776Y-101752526D01*
X103079747Y-101681954D01*
X102936486Y-101638497D01*
X102824833Y-101627500D01*
X102824822Y-101627500D01*
X102787500Y-101623824D01*
X102750178Y-101627500D01*
X102186657Y-101627500D01*
X102205537Y-101604494D01*
X102264502Y-101494180D01*
X102300812Y-101374482D01*
X102313072Y-101250000D01*
X102310000Y-101098250D01*
X102151250Y-100939500D01*
X101327000Y-100939500D01*
X101327000Y-100959500D01*
X101073000Y-100959500D01*
X101073000Y-100939500D01*
X100248750Y-100939500D01*
X100090000Y-101098250D01*
X100086928Y-101250000D01*
X100099188Y-101374482D01*
X100135498Y-101494180D01*
X100194463Y-101604494D01*
X100213343Y-101627500D01*
X99386657Y-101627500D01*
X99405537Y-101604494D01*
X99464502Y-101494180D01*
X99500812Y-101374482D01*
X99513072Y-101250000D01*
X99510000Y-101098250D01*
X99351250Y-100939500D01*
X98527000Y-100939500D01*
X98527000Y-100959500D01*
X98273000Y-100959500D01*
X98273000Y-100939500D01*
X97448750Y-100939500D01*
X97290000Y-101098250D01*
X97286928Y-101250000D01*
X97299188Y-101374482D01*
X97335498Y-101494180D01*
X97394463Y-101604494D01*
X97449100Y-101671070D01*
X97431329Y-101692725D01*
X97352150Y-101840858D01*
X97303392Y-102001592D01*
X97286928Y-102168750D01*
X97286928Y-102606250D01*
X97303392Y-102773408D01*
X97352150Y-102934142D01*
X97431329Y-103082275D01*
X97537885Y-103212115D01*
X97667725Y-103318671D01*
X97815858Y-103397850D01*
X97976592Y-103446608D01*
X98143750Y-103463072D01*
X98656250Y-103463072D01*
X98823408Y-103446608D01*
X98984142Y-103397850D01*
X99132275Y-103318671D01*
X99262115Y-103212115D01*
X99315143Y-103147500D01*
X99802698Y-103147500D01*
X98206354Y-104743844D01*
X98203937Y-104740226D01*
X98160000Y-104696289D01*
X98160000Y-104637322D01*
X98163676Y-104599999D01*
X98160000Y-104562677D01*
X98160000Y-104562667D01*
X98149003Y-104451014D01*
X98105546Y-104307753D01*
X98050331Y-104204454D01*
X98034974Y-104175723D01*
X97963799Y-104088997D01*
X97940001Y-104059999D01*
X97911003Y-104036201D01*
X97003804Y-103129002D01*
X96980001Y-103099999D01*
X96864276Y-103005026D01*
X96732247Y-102934454D01*
X96638072Y-102905887D01*
X96638072Y-102840000D01*
X96625812Y-102715518D01*
X96589502Y-102595820D01*
X96530537Y-102485506D01*
X96451185Y-102388815D01*
X96354494Y-102309463D01*
X96244180Y-102250498D01*
X96124482Y-102214188D01*
X96000000Y-102201928D01*
X94000000Y-102201928D01*
X93875518Y-102214188D01*
X93755820Y-102250498D01*
X93645506Y-102309463D01*
X93548815Y-102388815D01*
X93469463Y-102485506D01*
X93410498Y-102595820D01*
X93374188Y-102715518D01*
X93361928Y-102840000D01*
X93361928Y-104040000D01*
X93374188Y-104164482D01*
X93410498Y-104284180D01*
X93469463Y-104394494D01*
X93548815Y-104491185D01*
X93645506Y-104570537D01*
X93755820Y-104629502D01*
X93875518Y-104665812D01*
X94000000Y-104678072D01*
X96000000Y-104678072D01*
X96124482Y-104665812D01*
X96244180Y-104629502D01*
X96316203Y-104591004D01*
X96543737Y-104818538D01*
X96482795Y-104909744D01*
X96404774Y-105098102D01*
X96365000Y-105298061D01*
X96365000Y-105501939D01*
X96404774Y-105701898D01*
X96482795Y-105890256D01*
X96596063Y-106059774D01*
X96740226Y-106203937D01*
X96743844Y-106206355D01*
X95310199Y-107640000D01*
X91331403Y-107640000D01*
X91504609Y-107380779D01*
X91624089Y-107092327D01*
X91685000Y-106786109D01*
X91685000Y-106473891D01*
X91624089Y-106167673D01*
X91504609Y-105879221D01*
X91331150Y-105619621D01*
X91110379Y-105398850D01*
X90850779Y-105225391D01*
X90638072Y-105137285D01*
X90638072Y-104110000D01*
X90625812Y-103985518D01*
X90589502Y-103865820D01*
X90530537Y-103755506D01*
X90451185Y-103658815D01*
X90354494Y-103579463D01*
X90244180Y-103520498D01*
X90124482Y-103484188D01*
X90000000Y-103471928D01*
X88000000Y-103471928D01*
X87875518Y-103484188D01*
X87755820Y-103520498D01*
X87645506Y-103579463D01*
X87548815Y-103658815D01*
X87469463Y-103755506D01*
X87410498Y-103865820D01*
X87374188Y-103985518D01*
X87361928Y-104110000D01*
X87361928Y-104255674D01*
X87325724Y-104275026D01*
X87209999Y-104369999D01*
X87186201Y-104398998D01*
X86488998Y-105096201D01*
X86460000Y-105119999D01*
X86436202Y-105148997D01*
X86436201Y-105148998D01*
X86365026Y-105235724D01*
X86294454Y-105367754D01*
X86269506Y-105450001D01*
X86250998Y-105511014D01*
X86243966Y-105582406D01*
X86236324Y-105660000D01*
X86240001Y-105697332D01*
X86240000Y-107162677D01*
X86236324Y-107200000D01*
X86240000Y-107237322D01*
X86240000Y-107237332D01*
X86250997Y-107348985D01*
X86294454Y-107492246D01*
X86365026Y-107624276D01*
X86377931Y-107640000D01*
X86459999Y-107740001D01*
X86489003Y-107763804D01*
X87598198Y-108873000D01*
X86127000Y-108873000D01*
X86127000Y-102770000D01*
X87361928Y-102770000D01*
X87374188Y-102894482D01*
X87410498Y-103014180D01*
X87469463Y-103124494D01*
X87548815Y-103221185D01*
X87645506Y-103300537D01*
X87755820Y-103359502D01*
X87875518Y-103395812D01*
X88000000Y-103408072D01*
X88714250Y-103405000D01*
X88873000Y-103246250D01*
X88873000Y-102297000D01*
X89127000Y-102297000D01*
X89127000Y-103246250D01*
X89285750Y-103405000D01*
X90000000Y-103408072D01*
X90124482Y-103395812D01*
X90244180Y-103359502D01*
X90354494Y-103300537D01*
X90451185Y-103221185D01*
X90530537Y-103124494D01*
X90589502Y-103014180D01*
X90625812Y-102894482D01*
X90638072Y-102770000D01*
X90635000Y-102455750D01*
X90476250Y-102297000D01*
X89127000Y-102297000D01*
X88873000Y-102297000D01*
X87523750Y-102297000D01*
X87365000Y-102455750D01*
X87361928Y-102770000D01*
X86127000Y-102770000D01*
X86127000Y-101570000D01*
X87361928Y-101570000D01*
X87365000Y-101884250D01*
X87523750Y-102043000D01*
X88873000Y-102043000D01*
X88873000Y-101093750D01*
X89127000Y-101093750D01*
X89127000Y-102043000D01*
X90476250Y-102043000D01*
X90635000Y-101884250D01*
X90638072Y-101570000D01*
X90631178Y-101500000D01*
X93361928Y-101500000D01*
X93374188Y-101624482D01*
X93410498Y-101744180D01*
X93469463Y-101854494D01*
X93548815Y-101951185D01*
X93645506Y-102030537D01*
X93755820Y-102089502D01*
X93875518Y-102125812D01*
X94000000Y-102138072D01*
X94714250Y-102135000D01*
X94873000Y-101976250D01*
X94873000Y-101027000D01*
X95127000Y-101027000D01*
X95127000Y-101976250D01*
X95285750Y-102135000D01*
X96000000Y-102138072D01*
X96124482Y-102125812D01*
X96244180Y-102089502D01*
X96354494Y-102030537D01*
X96451185Y-101951185D01*
X96530537Y-101854494D01*
X96589502Y-101744180D01*
X96625812Y-101624482D01*
X96638072Y-101500000D01*
X96635000Y-101185750D01*
X96476250Y-101027000D01*
X95127000Y-101027000D01*
X94873000Y-101027000D01*
X93523750Y-101027000D01*
X93365000Y-101185750D01*
X93361928Y-101500000D01*
X90631178Y-101500000D01*
X90625812Y-101445518D01*
X90589502Y-101325820D01*
X90530537Y-101215506D01*
X90451185Y-101118815D01*
X90354494Y-101039463D01*
X90244180Y-100980498D01*
X90124482Y-100944188D01*
X90000000Y-100931928D01*
X89285750Y-100935000D01*
X89127000Y-101093750D01*
X88873000Y-101093750D01*
X88714250Y-100935000D01*
X88000000Y-100931928D01*
X87875518Y-100944188D01*
X87755820Y-100980498D01*
X87645506Y-101039463D01*
X87548815Y-101118815D01*
X87469463Y-101215506D01*
X87410498Y-101325820D01*
X87374188Y-101445518D01*
X87361928Y-101570000D01*
X86127000Y-101570000D01*
X86127000Y-98813891D01*
X88515000Y-98813891D01*
X88515000Y-99126109D01*
X88575911Y-99432327D01*
X88695391Y-99720779D01*
X88868850Y-99980379D01*
X89089621Y-100201150D01*
X89349221Y-100374609D01*
X89637673Y-100494089D01*
X89943891Y-100555000D01*
X90256109Y-100555000D01*
X90562327Y-100494089D01*
X90850779Y-100374609D01*
X90962439Y-100300000D01*
X93361928Y-100300000D01*
X93365000Y-100614250D01*
X93523750Y-100773000D01*
X94873000Y-100773000D01*
X94873000Y-99823750D01*
X95127000Y-99823750D01*
X95127000Y-100773000D01*
X96476250Y-100773000D01*
X96635000Y-100614250D01*
X96637338Y-100375000D01*
X97286928Y-100375000D01*
X97290000Y-100526750D01*
X97448750Y-100685500D01*
X98273000Y-100685500D01*
X98273000Y-99898750D01*
X98527000Y-99898750D01*
X98527000Y-100685500D01*
X99351250Y-100685500D01*
X99510000Y-100526750D01*
X99513072Y-100375000D01*
X100086928Y-100375000D01*
X100090000Y-100526750D01*
X100248750Y-100685500D01*
X101073000Y-100685500D01*
X101073000Y-99898750D01*
X101327000Y-99898750D01*
X101327000Y-100685500D01*
X102151250Y-100685500D01*
X102310000Y-100526750D01*
X102313072Y-100375000D01*
X102300812Y-100250518D01*
X102264502Y-100130820D01*
X102205537Y-100020506D01*
X102126185Y-99923815D01*
X102029494Y-99844463D01*
X101919180Y-99785498D01*
X101799482Y-99749188D01*
X101675000Y-99736928D01*
X101485750Y-99740000D01*
X101327000Y-99898750D01*
X101073000Y-99898750D01*
X100914250Y-99740000D01*
X100725000Y-99736928D01*
X100600518Y-99749188D01*
X100480820Y-99785498D01*
X100370506Y-99844463D01*
X100273815Y-99923815D01*
X100194463Y-100020506D01*
X100135498Y-100130820D01*
X100099188Y-100250518D01*
X100086928Y-100375000D01*
X99513072Y-100375000D01*
X99500812Y-100250518D01*
X99464502Y-100130820D01*
X99405537Y-100020506D01*
X99326185Y-99923815D01*
X99229494Y-99844463D01*
X99119180Y-99785498D01*
X98999482Y-99749188D01*
X98875000Y-99736928D01*
X98685750Y-99740000D01*
X98527000Y-99898750D01*
X98273000Y-99898750D01*
X98114250Y-99740000D01*
X97925000Y-99736928D01*
X97800518Y-99749188D01*
X97680820Y-99785498D01*
X97570506Y-99844463D01*
X97473815Y-99923815D01*
X97394463Y-100020506D01*
X97335498Y-100130820D01*
X97299188Y-100250518D01*
X97286928Y-100375000D01*
X96637338Y-100375000D01*
X96638072Y-100300000D01*
X96625812Y-100175518D01*
X96589502Y-100055820D01*
X96530537Y-99945506D01*
X96451185Y-99848815D01*
X96354494Y-99769463D01*
X96244180Y-99710498D01*
X96124482Y-99674188D01*
X96000000Y-99661928D01*
X95285750Y-99665000D01*
X95127000Y-99823750D01*
X94873000Y-99823750D01*
X94714250Y-99665000D01*
X94000000Y-99661928D01*
X93875518Y-99674188D01*
X93755820Y-99710498D01*
X93645506Y-99769463D01*
X93548815Y-99848815D01*
X93469463Y-99945506D01*
X93410498Y-100055820D01*
X93374188Y-100175518D01*
X93361928Y-100300000D01*
X90962439Y-100300000D01*
X91110379Y-100201150D01*
X91331150Y-99980379D01*
X91504609Y-99720779D01*
X91624089Y-99432327D01*
X91685000Y-99126109D01*
X91685000Y-98813891D01*
X91624089Y-98507673D01*
X91504609Y-98219221D01*
X91331150Y-97959621D01*
X91110379Y-97738850D01*
X90850779Y-97565391D01*
X90562327Y-97445911D01*
X90256109Y-97385000D01*
X89943891Y-97385000D01*
X89637673Y-97445911D01*
X89349221Y-97565391D01*
X89089621Y-97738850D01*
X88868850Y-97959621D01*
X88695391Y-98219221D01*
X88575911Y-98507673D01*
X88515000Y-98813891D01*
X86127000Y-98813891D01*
X86127000Y-97127000D01*
X118873000Y-97127000D01*
X118873000Y-106866000D01*
G37*
G04 #@! TD.AperFunction*
M02*
